<svg width="137" height="45" viewBox="0 0 137 45" fill="none" xmlns="http://www.w3.org/2000/svg">
<ellipse cx="21.8728" cy="21.1266" rx="17.2829" ry="17.2829" fill="#3D5EE1"/>
<ellipse cx="22.0022" cy="20.9304" rx="15.7117" ry="15.7117" fill="white"/>
<circle cx="23.1819" cy="22.499" r="15.9157" transform="rotate(-43.4512 23.1819 22.499)" fill="#3D5EE1"/>
<path d="M24.535 39.196L34.3591 31.639L26.6648 14.1797L15.6041 21.9903L24.535 39.196Z" fill="#6FCCD8"/>
<path d="M24.2745 12.0938L14.0513 20.5141C13.3729 21.0729 13.6934 22.1721 14.5658 22.2786L16.0944 22.4653C16.3657 22.4985 16.6388 22.4191 16.85 22.2457L26.679 14.1784" fill="white"/>
<path d="M24.2745 12.0938L14.0513 20.5141C13.3729 21.0729 13.6934 22.1721 14.5658 22.2786L16.0944 22.4653C16.3657 22.4985 16.6388 22.4191 16.85 22.2457L26.679 14.1784" stroke="#6FCCD8" stroke-width="5"/>
<path d="M12.1376 21.9297L21.382 40.2391L24.2674 38.415L16.4867 22.337L12.1376 21.9297Z" fill="#6FCCD8"/>
<path d="M21.6134 29.3594L24.2584 34.1685" stroke="url(#paint0_linear_396_338675)"/>
<path d="M21.3763 40.24L34.3606 31.6406L32.638 42.8459L21.3763 40.24Z" fill="white"/>
<path d="M30.517 42.3261L32.921 41.0234L32.6806 42.8472L30.517 42.3261Z" fill="#404040"/>
<path d="M47.1372 30.776V13.9844H53.7508C55.0223 13.9844 56.1054 14.2276 57.0004 14.7141C57.8953 15.1951 58.5774 15.8647 59.0467 16.7228C59.5214 17.5755 59.7588 18.5594 59.7588 19.6745C59.7588 20.7896 59.5187 21.7734 59.0385 22.6261C58.5583 23.4788 57.8625 24.143 56.9512 24.6185C56.0454 25.094 54.9486 25.3318 53.6608 25.3318H49.4454V22.4868H53.0878C53.7699 22.4868 54.332 22.3692 54.774 22.1342C55.2214 21.8937 55.5543 21.563 55.7726 21.1421C55.9963 20.7158 56.1082 20.2266 56.1082 19.6745C56.1082 19.117 55.9963 18.6305 55.7726 18.2151C55.5543 17.7942 55.2214 17.469 54.774 17.2394C54.3265 17.0043 53.759 16.8868 53.0715 16.8868H50.6814V30.776H47.1372Z" fill="#101010"/>
<path d="M61.9954 30.776V18.1823H65.3759V20.3796H65.5068C65.736 19.598 66.1207 19.0076 66.6609 18.6086C67.2011 18.2041 67.8232 18.0019 68.5271 18.0019C68.7018 18.0019 68.89 18.0128 69.0919 18.0347C69.2938 18.0566 69.4712 18.0866 69.624 18.1249V21.2241C69.4603 21.1749 69.2338 21.1312 68.9446 21.0929C68.6554 21.0547 68.3907 21.0355 68.1506 21.0355C67.6377 21.0355 67.1793 21.1476 66.7755 21.3717C66.3772 21.5903 66.0607 21.8964 65.826 22.29C65.5969 22.6835 65.4823 23.1372 65.4823 23.651V30.776H61.9954Z" fill="#101010"/>
<path d="M76.5711 31.0219C75.2779 31.0219 74.1647 30.7596 73.2316 30.2348C72.3039 29.7046 71.5891 28.9558 71.0871 27.9883C70.585 27.0153 70.334 25.8647 70.334 24.5365C70.334 23.2411 70.585 22.1041 71.0871 21.1257C71.5891 20.1473 72.2957 19.3848 73.207 18.8382C74.1238 18.2916 75.1988 18.0183 76.432 18.0183C77.2614 18.0183 78.0336 18.1522 78.7484 18.42C79.4687 18.6824 80.0962 19.0787 80.631 19.6089C81.1712 20.1391 81.5914 20.806 81.8915 21.6095C82.1916 22.4075 82.3417 23.3422 82.3417 24.4135V25.3728H71.7255V23.2083H79.0594C79.0594 22.7054 78.9503 22.2599 78.732 21.8718C78.5138 21.4837 78.2109 21.1804 77.8235 20.9617C77.4415 20.7376 76.9968 20.6256 76.4893 20.6256C75.96 20.6256 75.4907 20.7486 75.0814 20.9945C74.6776 21.235 74.3611 21.5603 74.132 21.9702C73.9028 22.3747 73.7854 22.8256 73.78 23.3231V25.381C73.78 26.0041 73.8946 26.5425 74.1238 26.9962C74.3584 27.4499 74.6885 27.7997 75.1142 28.0457C75.5398 28.2917 76.0446 28.4146 76.6284 28.4146C77.0159 28.4146 77.3706 28.36 77.6925 28.2507C78.0145 28.1413 78.29 27.9774 78.5192 27.7587C78.7484 27.5401 78.923 27.2722 79.0431 26.9552L82.268 27.1684C82.1043 27.9446 81.7687 28.6224 81.2613 29.2017C80.7592 29.7757 80.1099 30.2239 79.3132 30.5464C78.5219 30.8634 77.6079 31.0219 76.5711 31.0219Z" fill="#101010"/>
<path d="M93.8389 18.8024C93.7496 18.0471 93.3875 17.4608 92.7525 17.0434C92.1175 16.6259 91.3387 16.4172 90.416 16.4172C89.7414 16.4172 89.151 16.5266 88.645 16.7452C88.144 16.9638 87.7521 17.2645 87.4693 17.6471C87.1915 18.0297 87.0526 18.4645 87.0526 18.9515C87.0526 19.359 87.1494 19.7093 87.3428 20.0025C87.5413 20.2907 87.7943 20.5317 88.1018 20.7255C88.4094 20.9143 88.7318 21.0708 89.0692 21.195C89.4065 21.3143 89.7166 21.4112 89.9993 21.4857L91.5471 21.9031C91.9439 22.0075 92.3854 22.1516 92.8716 22.3354C93.3627 22.5193 93.8315 22.7702 94.2779 23.0883C94.7294 23.4013 95.1014 23.8038 95.3941 24.2958C95.6868 24.7877 95.8331 25.3914 95.8331 26.107C95.8331 26.9319 95.6173 27.6772 95.1857 28.3431C94.7591 29.0089 94.1341 29.5382 93.3106 29.9307C92.4921 30.3233 91.4975 30.5196 90.3267 30.5196C89.2354 30.5196 88.2903 30.3432 87.4917 29.9903C86.698 29.6375 86.0729 29.1456 85.6165 28.5145C85.1651 27.8834 84.9096 27.1505 84.8501 26.3157H86.755C86.8046 26.8921 86.9981 27.3691 87.3354 27.7468C87.6777 28.1195 88.1093 28.3977 88.6302 28.5816C89.156 28.7605 89.7215 28.8499 90.3267 28.8499C91.0311 28.8499 91.6636 28.7356 92.2242 28.5071C92.7848 28.2735 93.2287 27.9505 93.5561 27.5381C93.8836 27.1207 94.0473 26.6337 94.0473 26.0772C94.0473 25.5703 93.9059 25.1579 93.6231 24.8399C93.3404 24.5219 92.9683 24.2635 92.507 24.0647C92.0456 23.8659 91.5471 23.692 91.0113 23.5429L89.1361 23.0063C87.9456 22.6634 87.003 22.174 86.3085 21.5379C85.614 20.9019 85.2668 20.0695 85.2668 19.0409C85.2668 18.1862 85.4975 17.4409 85.9588 16.8048C86.4251 16.1638 87.0502 15.6669 87.834 15.3141C88.6227 14.9563 89.5032 14.7774 90.4755 14.7774C91.4578 14.7774 92.3308 14.9538 93.0948 15.3067C93.8587 15.6545 94.464 16.1315 94.9104 16.7378C95.3619 17.344 95.6 18.0322 95.6248 18.8024H93.8389Z" fill="#101010"/>
<path d="M100.266 26.0772L100.236 23.9007H100.594L105.594 18.8024H107.767L102.439 24.1989H102.29L100.266 26.0772ZM98.6291 30.2512V14.9861H100.385V30.2512H98.6291ZM105.892 30.2512L101.427 24.5864L102.677 23.364L108.124 30.2512H105.892Z" fill="#101010"/>
<path d="M114.2 30.4897C113.168 30.4897 112.262 30.2438 111.484 29.7518C110.71 29.2599 110.104 28.5717 109.668 27.6872C109.236 26.8027 109.021 25.7691 109.021 24.5864C109.021 23.3939 109.236 22.3528 109.668 21.4634C110.104 20.5739 110.71 19.8832 111.484 19.3913C112.262 18.8993 113.168 18.6533 114.2 18.6533C115.231 18.6533 116.134 18.8993 116.908 19.3913C117.687 19.8832 118.292 20.5739 118.724 21.4634C119.16 22.3528 119.379 23.3939 119.379 24.5864C119.379 25.7691 119.16 26.8027 118.724 27.6872C118.292 28.5717 117.687 29.2599 116.908 29.7518C116.134 30.2438 115.231 30.4897 114.2 30.4897ZM114.2 28.9096C114.983 28.9096 115.628 28.7083 116.134 28.3058C116.64 27.9033 117.015 27.3741 117.258 26.7182C117.501 26.0623 117.622 25.3517 117.622 24.5864C117.622 23.8212 117.501 23.1081 117.258 22.4473C117.015 21.7864 116.64 21.2522 116.134 20.8447C115.628 20.4372 114.983 20.2335 114.2 20.2335C113.416 20.2335 112.771 20.4372 112.265 20.8447C111.759 21.2522 111.384 21.7864 111.141 22.4473C110.898 23.1081 110.777 23.8212 110.777 24.5864C110.777 25.3517 110.898 26.0623 111.141 26.7182C111.384 27.3741 111.759 27.9033 112.265 28.3058C112.771 28.7083 113.416 28.9096 114.2 28.9096Z" fill="#101010"/>
<path d="M126.702 30.4897C125.671 30.4897 124.765 30.2438 123.986 29.7518C123.213 29.2599 122.607 28.5717 122.171 27.6872C121.739 26.8027 121.523 25.7691 121.523 24.5864C121.523 23.3939 121.739 22.3528 122.171 21.4634C122.607 20.5739 123.213 19.8832 123.986 19.3913C124.765 18.8993 125.671 18.6533 126.702 18.6533C127.734 18.6533 128.637 18.8993 129.411 19.3913C130.19 19.8832 130.795 20.5739 131.227 21.4634C131.663 22.3528 131.881 23.3939 131.881 24.5864C131.881 25.7691 131.663 26.8027 131.227 27.6872C130.795 28.5717 130.19 29.2599 129.411 29.7518C128.637 30.2438 127.734 30.4897 126.702 30.4897ZM126.702 28.9096C127.486 28.9096 128.131 28.7083 128.637 28.3058C129.143 27.9033 129.518 27.3741 129.761 26.7182C130.004 26.0623 130.125 25.3517 130.125 24.5864C130.125 23.8212 130.004 23.1081 129.761 22.4473C129.518 21.7864 129.143 21.2522 128.637 20.8447C128.131 20.4372 127.486 20.2335 126.702 20.2335C125.919 20.2335 125.274 20.4372 124.768 20.8447C124.262 21.2522 123.887 21.7864 123.644 22.4473C123.401 23.1081 123.28 23.8212 123.28 24.5864C123.28 25.3517 123.401 26.0623 123.644 26.7182C123.887 27.3741 124.262 27.9033 124.768 28.3058C125.274 28.7083 125.919 28.9096 126.702 28.9096Z" fill="#101010"/>
<path d="M136.318 14.9861V30.2512H134.562V14.9861H136.318Z" fill="#101010"/>
<defs>
<linearGradient id="paint0_linear_396_338675" x1="22.9359" y1="29.3594" x2="22.9359" y2="34.1685" gradientUnits="userSpaceOnUse">
<stop stop-color="white"/>
<stop offset="1" stop-color="white"/>
</linearGradient>
</defs>
</svg>
