<svg width="570" height="664" viewBox="0 0 570 664" fill="none" xmlns="http://www.w3.org/2000/svg">
<path d="M142.768 516.917C221.321 560.531 348.68 560.532 427.233 516.918C505.786 473.303 505.786 402.591 427.233 358.976C348.68 315.362 221.32 315.362 142.767 358.975C64.2139 402.589 64.2139 473.303 142.768 516.917Z" fill="#F5F5F5"/>
<path d="M408.442 480.428C418.672 486.108 435.257 486.108 445.487 480.428C455.717 474.75 455.717 465.54 445.487 459.86C435.257 454.182 418.672 454.182 408.442 459.86C398.212 465.54 398.212 474.749 408.442 480.428Z" fill="#EBEBEB"/>
<path d="M136.748 472.227L146.009 465.999C146.009 465.999 153.649 459.457 157.433 447.313C160.295 438.123 159.901 431.131 157.848 427.628C155.323 423.316 148.789 424.069 148.529 433.16C148.019 451.06 143.535 463.445 136.748 472.227Z" fill="#3D5EE1"/>
<path opacity="0.2" d="M136.748 472.227L146.009 465.999C146.009 465.999 153.649 459.457 157.433 447.313C160.295 438.123 159.901 431.131 157.848 427.628C155.323 423.316 148.789 424.069 148.529 433.16C148.019 451.06 143.535 463.445 136.748 472.227Z" fill="black"/>
<path d="M136.749 472.891C136.567 472.891 136.391 472.791 136.279 472.604C136.1 472.303 136.164 471.89 136.423 471.681C157.851 454.408 153.701 430.343 153.656 430.101C153.59 429.743 153.786 429.39 154.093 429.313C154.403 429.233 154.704 429.463 154.77 429.821C154.817 430.071 159.146 454.978 137.071 472.773C136.973 472.854 136.86 472.891 136.749 472.891Z" fill="white"/>
<path d="M118.225 484.688C118.225 484.688 115.001 481.629 115.781 477.49C116.562 473.349 118.641 470.373 115.066 465.032C111.491 459.69 110.567 452.574 114.772 448.715C118.022 445.731 123.094 449.961 124.926 442.054C126.262 436.29 125.806 423.529 132.118 419.284C138.429 415.039 142.348 421.43 141.379 430.086C140.513 437.829 139.292 445.285 140.234 447.315C142.075 451.283 145.239 450.751 145.096 458.026C144.961 464.8 139.464 470.405 139.464 470.405L118.225 484.688Z" fill="#3D5EE1"/>
<path d="M128.818 478.223C128.533 478.223 128.288 477.976 128.252 477.639C126.621 461.904 130.508 434.735 133.724 426.66C133.857 426.326 134.193 426.179 134.481 426.337C134.767 426.491 134.89 426.885 134.758 427.217C131.599 435.154 127.824 462.439 129.384 477.481C129.422 477.844 129.198 478.174 128.886 478.219C128.863 478.222 128.841 478.223 128.818 478.223Z" fill="white"/>
<path d="M128.509 465.973C128.424 465.973 128.34 465.951 128.259 465.906C124.303 463.653 121.796 455.651 121.692 455.311C121.586 454.966 121.739 454.586 122.035 454.461C122.331 454.338 122.657 454.516 122.764 454.862C122.788 454.94 125.22 462.695 128.76 464.712C129.042 464.873 129.16 465.271 129.021 465.6C128.923 465.837 128.721 465.973 128.509 465.973Z" fill="white"/>
<path d="M128.445 471.277C128.219 471.277 128.005 471.119 127.916 470.858C127.8 470.518 127.941 470.132 128.233 469.996C134.889 466.889 139.039 457.649 139.08 457.556C139.225 457.23 139.568 457.1 139.847 457.27C140.128 457.437 140.237 457.838 140.092 458.165C139.917 458.562 135.703 467.939 128.656 471.229C128.587 471.261 128.516 471.277 128.445 471.277Z" fill="white"/>
<path d="M361.154 399.842C361.154 399.842 356.169 390.451 355.688 380.225C355.207 370.001 357.134 365.756 359.776 364.537C362.419 363.32 362.619 367.071 363.984 369.296C365.35 371.52 368.111 370.246 369.131 363.332C370.151 356.418 373.894 344.7 381.636 342.463C390.187 339.996 385.6 351.68 383.454 356.239C381.306 360.798 379.633 367.006 381.05 368.697C382.464 370.387 384.659 367.264 386.764 370.16C389.305 373.655 381.406 386.222 376.873 389.271L361.154 399.842Z" fill="#3D5EE1"/>
<path d="M367.983 395.885C367.973 395.885 367.962 395.885 367.953 395.883C367.639 395.863 367.398 395.551 367.414 395.186C368.669 367.993 380.061 349.16 380.176 348.973C380.36 348.673 380.717 348.607 380.971 348.82C381.227 349.033 381.286 349.449 381.102 349.746C380.989 349.931 369.788 368.468 368.551 395.257C368.536 395.61 368.285 395.885 367.983 395.885Z" fill="white"/>
<path d="M368.634 388.047C368.54 388.047 368.446 388.021 368.358 387.964C365.165 385.905 363.397 379.799 363.324 379.539C363.225 379.191 363.386 378.815 363.685 378.699C363.983 378.58 364.308 378.774 364.406 379.12C364.423 379.179 366.108 384.996 368.91 386.8C369.184 386.978 369.285 387.382 369.132 387.703C369.029 387.924 368.835 388.047 368.634 388.047Z" fill="white"/>
<path d="M369.192 384.024C368.937 384.024 368.705 383.825 368.641 383.523C368.563 383.166 368.748 382.806 369.052 382.717C377.281 380.294 380.131 375.27 380.158 375.219C380.328 374.911 380.681 374.822 380.945 375.017C381.209 375.214 381.289 375.623 381.119 375.931C380.998 376.156 378.037 381.44 369.332 384.003C369.286 384.017 369.239 384.024 369.192 384.024Z" fill="white"/>
<path d="M237.145 379.194C237.145 379.194 226.214 376.089 225.645 352.245C225.03 326.507 228.324 296.481 215.43 294.039C202.538 291.596 195.304 310.012 195.469 331.412C195.614 350.202 202.11 390.972 237.144 398.962L237.145 379.194Z" fill="#3D5EE1"/>
<path opacity="0.2" d="M237.145 379.194C237.145 379.194 226.214 376.089 225.645 352.245C225.03 326.507 228.324 296.481 215.43 294.039C202.538 291.596 195.304 310.012 195.469 331.412C195.614 350.202 202.11 390.972 237.144 398.962L237.145 379.194Z" fill="black"/>
<path d="M237.144 396.509C237.11 396.509 237.076 396.505 237.041 396.498C229.158 394.825 222.742 389.773 217.97 381.482C203.807 356.869 208.269 310.926 209.734 302.9C209.8 302.541 210.101 302.315 210.41 302.389C210.718 302.466 210.914 302.818 210.849 303.177C209.4 311.113 204.974 356.516 218.917 380.744C223.51 388.725 229.676 393.586 237.244 395.191C237.554 395.258 237.76 395.604 237.703 395.964C237.655 396.284 237.414 396.509 237.144 396.509Z" fill="white"/>
<path d="M237.145 457.723C225.842 459.508 207.483 459.476 196.909 449.76C186.334 440.045 188.533 431.67 192.602 428.178C196.669 424.684 200.202 420.692 193.205 412.94C186.206 405.189 174.958 392.732 171.322 374.044C167.684 355.358 169.475 343.68 176.633 339.785C183.579 336.006 185.408 342.009 189.66 354.387C193.911 366.767 203.479 356.153 211.659 360.018C219.839 363.881 219.518 371.532 220.034 378.108C220.55 384.683 223.251 386.501 227.883 386.501C232.514 386.501 237.143 389.615 237.144 395.843L237.145 457.723Z" fill="#3D5EE1"/>
<path d="M237.145 436.029C237.095 436.029 237.043 436.021 236.991 436.005C236.502 435.846 224.813 431.882 207.8 413.676C189.677 394.282 181.12 365.206 181.035 364.915C180.935 364.567 181.095 364.19 181.393 364.073C181.692 363.959 182.015 364.143 182.115 364.489C182.198 364.778 190.668 393.54 208.571 412.698C225.356 430.659 237.182 434.687 237.299 434.725C237.602 434.825 237.778 435.19 237.693 435.544C237.623 435.838 237.395 436.029 237.145 436.029Z" fill="white"/>
<path d="M212.535 418.311C212.307 418.311 212.091 418.15 212.004 417.888C208.345 406.936 207.517 383.525 207.483 382.534C207.471 382.169 207.716 381.86 208.031 381.844C208.323 381.848 208.61 382.115 208.622 382.481C208.63 382.722 209.477 406.661 213.066 417.405C213.18 417.748 213.035 418.133 212.741 418.265C212.673 418.296 212.603 418.311 212.535 418.311Z" fill="white"/>
<path d="M212.439 434.064C210.668 434.064 209.442 433.902 209.294 433.881C208.981 433.839 208.758 433.508 208.794 433.143C208.832 432.78 209.113 432.509 209.428 432.562C209.534 432.574 220.141 433.971 225.012 428.184C225.231 427.92 225.594 427.92 225.818 428.173C226.043 428.43 226.046 428.852 225.826 429.112C222.261 433.35 216.153 434.064 212.439 434.064Z" fill="white"/>
<path d="M204.229 182.597L203.004 174.317L196.661 179.179C196.026 177.763 195.21 176.627 194.25 175.769L197.285 166.206L191.635 164.734L187.46 174.001C186.078 174.249 184.617 174.793 183.113 175.651L181.306 168.667L174.539 174.864L174.982 183.098C173.612 184.873 172.359 186.815 171.241 188.857L165.649 188.536L161.728 198.772L166.53 201.157C166.023 203.359 165.697 205.544 165.582 207.645L159.486 214.174L160.71 222.455L167.052 217.593C167.687 219.008 168.503 220.145 169.464 221.003L166.429 230.566L172.08 232.037L178.051 225.255C179.435 225.008 179.097 221.98 180.602 221.123L182.408 228.107L189.176 221.909L189.002 218.67C190.371 216.896 195.543 212.978 196.661 210.935L198.066 208.237L201.986 198.001L200.16 194.147L198.133 189.128L204.229 182.597ZM183.558 209.888C178.367 214.642 176.786 215.679 175.846 209.327C174.907 202.975 177.944 193.289 183.136 188.535C188.328 183.779 190.321 183.425 191.259 189.776C192.197 196.128 188.75 205.132 183.558 209.888Z" fill="#E0E0E0"/>
<path d="M191.636 164.734L199.028 169.7L194.855 178.967L187.461 174L191.636 164.734Z" fill="#F5F5F5"/>
<path d="M210.398 179.287L204.057 184.149L196.663 179.182L203.006 174.32L210.398 179.287Z" fill="#F5F5F5"/>
<path d="M209.379 202.97L204.579 200.584L197.186 195.617L201.986 198.004L209.379 202.97Z" fill="#E0E0E0"/>
<path d="M166.429 230.563L173.823 235.53L176.857 225.967L169.464 221L166.429 230.563Z" fill="#E0E0E0"/>
<path d="M189.803 233.076L182.409 228.109L180.603 221.125L187.996 226.092L189.803 233.076Z" fill="#E0E0E0"/>
<path d="M211.622 187.566L210.397 179.286L204.055 184.148C203.421 182.732 202.603 181.595 201.643 180.737L204.679 171.175L199.028 169.703L194.853 178.97C193.471 179.218 192.009 179.761 190.504 180.619L188.697 173.635L181.93 179.833L182.374 188.067C181.005 189.841 179.751 191.784 178.632 193.826L173.041 193.505L169.12 203.741L173.922 206.126C173.415 208.328 173.09 210.513 172.973 212.615L166.878 219.145L168.102 227.425L174.444 222.563C175.079 223.977 175.895 225.115 176.855 225.973L173.82 235.536L179.471 237.008L183.646 227.741C185.029 227.494 186.489 226.949 187.994 226.091L189.801 233.075L196.568 226.878L196.125 218.644C197.495 216.87 198.748 214.927 199.866 212.884L205.458 213.206L209.377 202.97L204.575 200.584C205.083 198.383 205.409 196.198 205.523 194.097L211.622 187.566ZM190.951 214.856C185.76 219.612 180.789 218.316 179.85 211.964C178.911 205.612 182.359 196.607 187.551 191.853C192.742 187.097 197.711 188.392 198.651 194.744C199.59 201.097 196.143 210.101 190.951 214.856Z" fill="#EBEBEB"/>
<path d="M188.699 173.631L181.306 168.664L174.539 174.862L181.931 179.829L188.699 173.631Z" fill="#F5F5F5"/>
<path d="M174.539 174.859L174.982 183.093L182.374 188.058L181.931 179.826L174.539 174.859Z" fill="#E0E0E0"/>
<path d="M178.633 193.819L171.239 188.853L165.649 188.531L173.042 193.498L178.633 193.819Z" fill="#F5F5F5"/>
<path d="M165.649 188.531L161.728 198.767L169.121 203.734L173.042 193.498L165.649 188.531Z" fill="#E0E0E0"/>
<path d="M172.975 212.615L165.582 207.648L159.486 214.178L166.879 219.145L172.975 212.615Z" fill="#F5F5F5"/>
<path d="M168.103 227.419L160.71 222.452L159.486 214.172L166.879 219.139L168.103 227.419Z" fill="#E0E0E0"/>
<path d="M199.028 169.7L191.636 164.734L197.286 166.206L204.679 171.173L199.028 169.7Z" fill="#F5F5F5"/>
<path d="M171.106 145.04V132.672L162.658 137.109C162.148 134.825 161.373 132.867 160.375 131.251L165.698 118.748L159.196 114.375L152.563 125.998C150.863 125.8 149.02 125.995 147.067 126.624L146.14 115.882L136.947 122.065L136.02 134.053C134.067 136.052 132.224 138.336 130.524 140.819L123.891 138.121L117.389 151.238L122.712 156.58C121.716 159.536 120.939 162.539 120.43 165.508L111.981 172.436V184.803L120.43 180.366C120.939 182.65 121.716 184.608 122.712 186.224L117.389 198.727L123.891 203.099L130.524 191.477C132.224 191.675 134.067 191.479 136.02 190.851L136.947 201.593L146.14 195.41L147.067 183.422C149.806 182.357 152.738 179.887 154.437 177.403L159.195 179.355L165.697 166.239L161.708 162.235C162.704 159.279 162.81 154.552 162.655 151.969L171.106 145.04ZM141.545 175.916C134.492 180.659 130.107 177.294 130.107 167.807C130.107 158.32 135.936 146.697 142.989 141.954C150.042 137.21 154.315 140.66 154.315 150.147C154.316 159.636 148.598 171.172 141.545 175.916Z" fill="#E0E0E0"/>
<path d="M166.591 119.342L159.196 114.375L152.564 125.998L159.957 130.963L166.591 119.342Z" fill="#F5F5F5"/>
<path d="M178.499 137.639L171.106 132.672L162.658 137.109L170.05 142.075L178.499 137.639Z" fill="#F5F5F5"/>
<path d="M144.341 206.56L136.948 201.594L136.021 190.852L143.415 195.818L144.341 206.56Z" fill="#E0E0E0"/>
<path d="M117.392 198.73L124.784 203.696L130.107 191.193L122.714 186.227L117.392 198.73Z" fill="#E0E0E0"/>
<path d="M178.499 150.009V137.641L170.05 142.078C169.541 139.794 168.764 137.836 167.768 136.22L173.091 123.717L166.589 119.344L159.956 130.966C158.257 130.769 156.414 130.964 154.461 131.593L153.534 120.852L144.341 127.036L143.414 139.023C141.461 141.022 139.618 143.306 137.918 145.79L131.285 143.091L124.783 156.209L130.106 161.552C129.11 164.508 128.333 167.509 127.824 170.478L119.375 177.407V189.773L127.824 185.336C128.333 187.62 129.11 189.578 130.106 191.194L124.783 203.697L131.285 208.069L137.918 196.447C139.618 196.644 141.461 196.449 143.414 195.821L144.341 206.563L153.534 200.38L154.461 188.392C156.414 186.394 158.257 184.109 159.956 181.627L166.589 184.325L173.091 171.209L167.768 165.866C168.764 162.91 169.541 159.909 170.05 156.939L178.499 150.009ZM148.938 180.885C141.884 185.628 136.166 181.782 136.166 172.295C136.166 162.808 141.884 151.27 148.938 146.527C155.991 141.783 161.709 145.629 161.709 155.116C161.709 164.605 155.991 176.141 148.938 180.885Z" fill="#EBEBEB"/>
<path d="M130.527 140.816L137.92 145.782L131.286 143.084L123.893 138.117L130.527 140.816Z" fill="#F0F0F0"/>
<path d="M123.881 138.123L117.386 151.242L124.778 156.209L131.274 143.09L123.881 138.123Z" fill="#F5F5F5"/>
<path d="M117.392 151.234L124.784 156.201L130.107 161.545L122.714 156.577L117.392 151.234Z" fill="#E0E0E0"/>
<path d="M120.433 165.508L127.826 170.475L119.378 177.403L111.984 172.436L120.433 165.508Z" fill="#F5F5F5"/>
<path d="M111.984 172.438L119.378 177.404V189.769L111.984 184.804V172.438Z" fill="#E0E0E0"/>
<path d="M153.535 120.85L146.141 115.883L136.948 122.066L144.341 127.033L153.535 120.85Z" fill="#F5F5F5"/>
<path d="M248.381 475.492L355.569 403.402C356.659 402.667 356.66 401.479 355.571 400.743L345.655 394.06C344.565 393.325 342.797 393.323 341.706 394.058L234.489 466.148C233.398 466.883 233.398 468.071 234.489 468.804L244.432 475.492C245.523 476.224 247.291 476.224 248.381 475.492Z" fill="#E0E0E0"/>
<path d="M352.607 125.098L255.972 190.09C253.246 191.924 251.036 196.384 251.036 200.05V467.071C251.036 470.739 253.246 472.225 255.972 470.391L352.608 405.4C355.335 403.566 357.544 399.107 357.544 395.44L357.543 128.419C357.543 124.751 355.332 123.264 352.607 125.098Z" fill="#455A64"/>
<path d="M255.972 190.087L352.607 125.094C355.045 123.456 357.064 124.475 357.466 127.331C357.096 123.908 355.07 120.112 352.607 118.454L348.588 115.75C345.861 113.917 341.44 113.917 338.715 115.75L242.081 180.743C240.718 181.659 239.484 183.233 238.591 185.035L252.483 194.377C253.375 192.577 254.61 191.004 255.972 190.087Z" fill="#37474F"/>
<path d="M237.145 457.727C237.145 461.395 239.354 465.854 242.081 467.687L246.101 470.39C248.566 472.048 252.404 472.191 255.134 470.853C252.809 471.88 251.036 470.353 251.036 467.07V200.049C251.036 198.215 251.589 196.184 252.483 194.382L238.591 185.039C237.697 186.841 237.145 188.873 237.145 190.707V457.727Z" fill="#263238"/>
<path d="M258.629 225.672L349.95 164.253C351.587 163.152 352.913 164.044 352.913 166.245L352.914 363.831C352.914 366.032 351.587 368.708 349.951 369.807L258.631 431.227C256.995 432.327 255.669 431.434 255.669 429.235L255.668 231.649C255.667 229.447 256.994 226.771 258.629 225.672Z" fill="white"/>
<path d="M304.29 167.722C303.331 168.367 302.554 169.936 302.554 171.225C302.554 172.516 303.332 173.038 304.29 172.392C305.25 171.748 306.026 170.18 306.026 168.889C306.026 167.6 305.25 167.076 304.29 167.722Z" fill="#37474F"/>
<path d="M304.292 410.004C300.505 412.551 297.435 418.745 297.435 423.839C297.435 428.932 300.504 430.997 304.292 428.45C308.078 425.904 311.148 419.711 311.148 414.616C311.147 409.523 308.078 407.458 304.292 410.004Z" fill="#37474F"/>
<path d="M287.888 188.279C285.97 189.57 284.415 192.706 284.415 195.287C284.415 197.867 285.97 198.912 287.889 197.623C289.807 196.333 291.361 193.196 291.361 190.616C291.361 188.035 289.806 186.989 287.888 188.279Z" fill="#37474F"/>
<path d="M296.379 187.4C296.379 189.12 297.485 189.772 298.848 188.854L321.697 173.488C323.059 172.572 324.165 170.434 324.165 168.714C324.164 166.994 323.059 166.342 321.695 167.26L298.848 182.626C297.485 183.544 296.379 185.68 296.379 187.4Z" fill="#37474F"/>
<path d="M244.83 234.223C246.364 235.255 247.608 237.765 247.608 239.83C247.608 241.893 246.364 242.73 244.83 241.698C243.295 240.666 242.05 238.156 242.05 236.093C242.05 234.029 243.295 233.191 244.83 234.223Z" fill="#37474F"/>
<path d="M244.83 259.16C246.364 260.192 247.608 262.702 247.608 264.767C247.608 266.832 246.364 267.667 244.83 266.635C243.295 265.604 242.05 263.094 242.05 261.029C242.052 258.965 243.295 258.13 244.83 259.16Z" fill="#37474F"/>
<path d="M243.971 234.724C245.506 235.756 246.751 238.266 246.751 240.33C246.751 242.393 245.507 243.231 243.971 242.198C242.437 241.166 241.193 238.656 241.193 236.593C241.193 234.527 242.438 233.691 243.971 234.724Z" fill="#455A64"/>
<path d="M243.971 259.661C245.506 260.693 246.751 263.203 246.751 265.268C246.751 267.331 245.507 268.168 243.971 267.136C242.437 266.104 241.193 263.594 241.193 261.529C241.193 259.464 242.438 258.629 243.971 259.661Z" fill="#455A64"/>
<path d="M371.436 172.494C371.436 170.294 370.11 169.403 368.473 170.502L357.543 177.854L277.152 231.922C275.516 233.023 274.191 235.698 274.191 237.898L274.192 435.485C274.192 437.685 275.517 438.576 277.153 437.477L357.572 383.389L368.474 376.057C370.11 374.956 371.437 372.28 371.437 370.081L371.436 172.494Z" fill="white" stroke="#3D5EE1" stroke-miterlimit="10"/>
<path d="M275.83 438.616C275.45 438.616 275.093 438.509 274.774 438.296C274.031 437.795 273.622 436.798 273.622 435.487L273.621 237.9C273.621 235.452 275.047 232.574 276.867 231.349L357.258 177.281L357.828 178.431L277.437 232.499C275.986 233.476 274.761 235.948 274.761 237.9L274.762 435.487C274.762 436.292 274.974 436.896 275.344 437.146C275.715 437.395 276.27 437.305 276.868 436.904L357.287 382.816L357.857 383.965L277.438 438.051C276.882 438.428 276.335 438.616 275.83 438.616Z" fill="#3D5EE1" stroke="#3D5EE1" stroke-miterlimit="10"/>
<path d="M357.857 383.964L357.287 382.815L368.189 375.485C369.64 374.507 370.867 372.033 370.867 370.084L370.866 172.497C370.866 171.692 370.654 171.088 370.283 170.838C369.915 170.59 369.359 170.676 368.758 171.08L357.828 178.432L357.258 177.282L368.188 169.93C369.162 169.275 370.109 169.188 370.853 169.688C371.596 170.189 372.006 171.185 372.006 172.497L372.007 370.084C372.007 372.531 370.581 375.409 368.759 376.635L357.857 383.964Z" fill="#3D5EE1" stroke="#3D5EE1" stroke-miterlimit="10"/>
<path d="M322.814 218.408C333.044 211.528 341.337 217.105 341.337 230.866C341.337 244.627 333.044 261.358 322.814 268.24C312.583 275.12 304.291 269.543 304.291 255.782C304.291 242.021 312.583 225.288 322.814 218.408Z" fill="#3D5EE1"/>
<path d="M322.814 229.237C326.132 227.005 328.823 228.815 328.823 233.278C328.823 237.743 326.132 243.172 322.814 245.403C319.495 247.636 316.804 245.825 316.804 241.361C316.804 236.897 319.495 231.47 322.814 229.237Z" fill="#3D5EE1"/>
<path d="M334.526 253.047C334.526 245.713 330.105 242.739 324.654 246.407L321.245 248.699C315.794 252.366 311.373 261.285 311.373 268.619V270.593C314.525 271.812 318.492 271.152 322.814 268.243C327.258 265.254 331.335 260.403 334.526 254.747V253.047Z" fill="#3D5EE1"/>
<path opacity="0.7" d="M322.814 229.237C326.132 227.005 328.823 228.815 328.823 233.278C328.823 237.743 326.132 243.172 322.814 245.403C319.495 247.636 316.804 245.825 316.804 241.361C316.804 236.897 319.495 231.47 322.814 229.237Z" fill="white"/>
<path opacity="0.7" d="M334.526 253.039C334.526 245.705 330.105 242.731 324.654 246.399L321.245 248.691C315.794 252.358 311.373 261.277 311.373 268.611V270.585C314.525 271.804 318.492 271.144 322.814 268.236C327.258 265.246 331.335 260.395 334.526 254.739V253.039Z" fill="white"/>
<path d="M286.973 298.586L310.808 282.556C311.899 281.823 312.784 282.418 312.784 283.884V284.8C312.784 286.268 311.901 288.051 310.808 288.784L286.973 304.815C285.883 305.549 284.999 304.954 284.999 303.487V302.57C284.999 301.103 285.883 299.319 286.973 298.586Z" fill="#3D5EE1"/>
<path opacity="0.1" d="M286.973 298.586L310.808 282.556C311.899 281.823 312.784 282.418 312.784 283.884V284.8C312.784 286.268 311.901 288.051 310.808 288.784L286.973 304.815C285.883 305.549 284.999 304.954 284.999 303.487V302.57C284.999 301.103 285.883 299.319 286.973 298.586Z" fill="black"/>
<path d="M285.987 317.941L358.104 269.438C358.649 269.072 359.091 269.368 359.091 270.102V279.904C359.091 280.637 358.649 281.53 358.104 281.896L285.987 330.399C285.442 330.765 285 330.468 285 329.735V319.933C285 319.2 285.442 318.307 285.987 317.941Z" fill="#3D5EE1"/>
<path opacity="0.2" d="M285.987 317.941L358.104 269.438C358.649 269.072 359.091 269.368 359.091 270.102V279.904C359.091 280.637 358.649 281.53 358.104 281.896L285.987 330.399C285.442 330.765 285 330.468 285 329.735V319.933C285 319.2 285.442 318.307 285.987 317.941Z" fill="white"/>
<path d="M286.973 342.188L310.808 326.158C311.899 325.425 312.784 326.018 312.784 327.486V328.402C312.784 329.868 311.901 331.653 310.808 332.386L286.973 348.416C285.883 349.151 284.999 348.555 284.999 347.088V346.172C284.999 344.705 285.883 342.923 286.973 342.188Z" fill="#3D5EE1"/>
<path opacity="0.1" d="M286.973 342.188L310.808 326.158C311.899 325.425 312.784 326.018 312.784 327.486V328.402C312.784 329.868 311.901 331.653 310.808 332.386L286.973 348.416C285.883 349.151 284.999 348.555 284.999 347.088V346.172C284.999 344.705 285.883 342.923 286.973 342.188Z" fill="black"/>
<path d="M285.987 361.542L358.104 313.04C358.649 312.673 359.091 312.971 359.091 313.704V323.506C359.091 324.239 358.649 325.131 358.104 325.498L285.987 374C285.442 374.367 285 374.071 285 373.336V363.534C285 362.801 285.442 361.91 285.987 361.542Z" fill="#3D5EE1"/>
<path opacity="0.2" d="M285.987 361.542L358.104 313.04C358.649 312.673 359.091 312.971 359.091 313.704V323.506C359.091 324.239 358.649 325.131 358.104 325.498L285.987 374C285.442 374.367 285 374.071 285 373.336V363.534C285 362.801 285.442 361.91 285.987 361.542Z" fill="white"/>
<path d="M314.759 367.108L343.224 347.963C344.315 347.229 345.199 347.824 345.199 349.291V359.551C345.199 361.017 344.315 362.802 343.224 363.535L314.759 382.681C313.668 383.414 312.784 382.819 312.784 381.353V371.092C312.784 369.624 313.668 367.841 314.759 367.108Z" fill="#3D5EE1"/>
<path opacity="0.1" d="M314.759 367.108L343.224 347.963C344.315 347.229 345.199 347.824 345.199 349.291V359.551C345.199 361.017 344.315 362.802 343.224 363.535L314.759 382.681C313.668 383.414 312.784 382.819 312.784 381.353V371.092C312.784 369.624 313.668 367.841 314.759 367.108Z" fill="black"/>
<path d="M382.245 323.84C382.245 323.84 368.241 301.334 367.387 298.657C366.743 296.638 367.431 293.636 367.591 292.24C367.751 290.846 367.983 287.738 368.181 286.874C368.53 285.365 366.851 285.674 365.909 287.046C364.945 288.451 364.636 291.195 364.156 291.645C363.677 292.095 359.934 285.763 357.982 282.832C356.03 279.9 354.809 278.135 353.622 279.222C352.767 280.004 353.405 281.712 354.819 284.207C356.234 286.702 356.862 287.859 357.075 288.394C357.29 288.931 356.125 288.973 355.496 290.099C355.006 290.978 355.463 292.401 354.814 293.079C354.164 293.758 353.557 294.978 354.27 296.354C355.177 298.106 356.998 300.61 359.091 302.3C361.185 303.99 362.033 304.584 363.268 306.884C364.504 309.183 375.662 332.651 376.411 334.059C377.159 335.468 378.615 338.336 380.815 338.417C383.017 338.501 401.025 320.437 401.953 319.536C404.92 316.653 405.857 316.229 406.369 318.827C406.53 319.639 406.635 320.565 406.746 321.613C407.103 324.901 409.025 336.668 409.025 336.668C409.025 336.668 418.134 341.81 425.633 339.276C433.133 336.743 435.648 333.092 435.648 333.092L431.896 325.97C432.917 323.028 437.635 311.139 439.115 302.806L415.631 298.389C415.149 298.266 414.38 298.041 413.397 297.739C412.108 297.343 408.866 296.018 406.367 298.549C398.288 306.74 382.245 323.84 382.245 323.84Z" fill="#FFA8A7"/>
<path d="M428.804 461.873L424.594 468.688C424.594 468.688 426.545 470.02 430.709 470.204C434.477 470.372 435.512 468.931 435.651 468.584C436.287 466.996 435.294 464.129 435.022 461.664L428.804 461.873Z" fill="#37474F"/>
<path d="M424.83 465.417C424.83 465.417 419.729 465.039 416.201 464.521C412.673 464.002 409.882 466.008 410.712 467.701C411.542 469.392 413.483 470.8 416.505 471.984C419.095 473 422.199 473.737 424.903 474.68C427.674 475.647 429.448 476.752 431.018 476.124C432.768 475.421 433.519 474.606 433.371 473.121C433.223 471.636 431.954 466.856 431.954 466.856L424.83 465.417Z" fill="#37474F"/>
<path d="M435.65 455.026C435.65 455.026 435.011 461.216 434.962 462.545C434.913 463.873 429.777 464.299 428.803 461.873L428.643 454.305L435.65 455.026Z" fill="#F28F8F"/>
<path d="M430.47 458.836L432.307 468.226C432.307 468.226 432.481 469.371 428.281 470.1C424.082 470.83 417.498 467.541 416.377 466.873C415.256 466.204 415.122 464.874 419.246 465.14C423.37 465.407 424.83 465.416 424.83 465.416L423.492 461.253L430.47 458.836Z" fill="#FFA8A7"/>
<path d="M439.117 302.809L442.019 301.875C442.019 301.875 448.101 324.273 448.774 326.431C449.446 328.588 450.204 330.889 448.897 333.558C447.338 336.736 439.118 349.525 439.118 349.525L433.9 343.576L439.819 330.941L434.583 318.583L439.117 302.809Z" fill="#F28F8F"/>
<path d="M409.229 273.694C409.229 273.694 406.901 269.354 409.352 264.04C412.241 257.778 418.7 254.723 426.387 255.895C429.938 256.437 434.13 259.833 436.43 265.018C438.956 270.713 439.192 282.192 439.819 286.532L409.229 273.694Z" fill="#37474F"/>
<path d="M409.054 276.148C409.054 276.148 407.227 280.199 407.544 280.568C407.86 280.936 409.079 281.235 409.079 281.235L409.054 276.148Z" fill="#FFA8A7"/>
<path d="M414.596 263.337C412.61 264.845 409.192 267.602 409.041 276.704C408.887 286.048 410.02 289.06 411.206 290.144C412.006 290.874 416.688 290.504 418.698 289.954C420.709 289.404 426.49 286.077 428.57 281.018C431.017 275.067 430.522 266.353 426.881 263.823C421.757 260.262 416.277 262.061 414.596 263.337Z" fill="#FFA8A7"/>
<path d="M435.649 333.094C439.165 339.467 442.507 345.08 443.219 352.242C444.724 367.368 439.785 384.66 438.737 395.844C438.737 395.844 442.054 400.868 442.051 406.771C442.049 411.393 435.65 455.019 435.65 455.019C435.65 455.019 430.995 456.671 428.643 454.298L424.245 374.041L426.562 364.271L435.649 333.094Z" fill="#3D5EE1"/>
<path opacity="0.2" d="M435.649 333.094C439.165 339.467 442.507 345.08 443.219 352.242C444.724 367.368 439.785 384.66 438.737 395.844C438.737 395.844 442.054 400.868 442.051 406.771C442.049 411.393 435.65 455.019 435.65 455.019C435.65 455.019 430.995 456.671 428.643 454.298L424.245 374.041L426.562 364.271L435.649 333.094Z" fill="black"/>
<path d="M424.245 374.047L426.562 364.277C426.562 364.277 432.985 362.47 439.117 358.477C439.117 358.477 436.74 363.504 429.933 366.261L426.387 378.822L426.082 407.565L424.245 374.047Z" fill="#3D5EE1"/>
<path opacity="0.3" d="M424.245 374.047L426.562 364.277C426.562 364.277 432.985 362.47 439.117 358.477C439.117 358.477 436.74 363.504 429.933 366.261L426.387 378.822L426.082 407.565L424.245 374.047Z" fill="black"/>
<path d="M435.649 333.094C437.53 336.67 442.026 342.785 441.071 348.662C439.911 355.783 436.623 360.788 426.562 364.273L417.126 404.081C417.126 404.081 422.039 409.436 423.542 414.532C425.042 419.626 430.47 458.829 430.47 458.829C430.47 458.829 428.792 462.02 423.492 461.247C423.492 461.247 405.012 412.079 403.707 408.913C402.402 405.747 401.556 403.381 402.143 398.224C402.731 393.069 409.026 336.669 409.026 336.669L435.649 333.094Z" fill="#3D5EE1"/>
<path opacity="0.2" d="M435.649 333.094C437.53 336.67 442.026 342.785 441.071 348.662C439.911 355.783 436.623 360.788 426.562 364.273L417.126 404.081C417.126 404.081 422.039 409.436 423.542 414.532C425.042 419.626 430.47 458.829 430.47 458.829C430.47 458.829 428.792 462.02 423.492 461.247C423.492 461.247 405.012 412.079 403.707 408.913C402.402 405.747 401.556 403.381 402.143 398.224C402.731 393.069 409.026 336.669 409.026 336.669L435.649 333.094Z" fill="black"/>
<path d="M439.117 302.811L415.633 298.394C415.152 298.272 414.375 298.045 413.395 297.744L413.392 297.742C413.392 297.742 412.392 314.893 406.369 318.831C406.511 319.649 406.633 320.569 406.746 321.617C407.103 324.905 409.025 336.673 409.025 336.673C409.025 336.673 418.134 341.815 425.633 339.281C433.133 336.747 435.648 333.096 435.648 333.096L431.896 325.974C432.92 323.035 437.637 311.144 439.117 302.811Z" fill="#3D5EE1"/>
<path opacity="0.7" d="M439.117 302.811L415.633 298.394C415.152 298.272 414.375 298.045 413.395 297.744L413.392 297.742C413.392 297.742 412.392 314.893 406.369 318.831C406.511 319.649 406.633 320.569 406.746 321.617C407.103 324.905 409.025 336.673 409.025 336.673C409.025 336.673 418.134 341.815 425.633 339.281C433.133 336.747 435.648 333.096 435.648 333.096L431.896 325.974C432.92 323.035 437.637 311.144 439.117 302.811Z" fill="white"/>
<path d="M432.922 323.172C432.826 323.43 425.373 328.081 423.158 328.793C426.65 328.591 429.55 327.635 431.897 325.973L432.922 323.172Z" fill="#3D5EE1"/>
<path d="M414.01 263.796C414.01 263.796 412.916 272.432 415.566 277.497C415.566 277.497 416.562 274.06 419.069 274.716C421.593 275.377 421.699 279.195 419.946 281.36C418.193 283.525 416.243 282.742 416.243 282.742C416.243 282.742 415.848 288.984 415.637 294.218C415.433 299.26 414.226 310.855 419.281 315.517C424.337 320.18 437.006 321.754 442.945 312.083C446.248 306.703 441.859 297.194 439.819 286.53C437.941 276.725 436.886 262.195 427.955 259.864C419.024 257.533 414.01 263.796 414.01 263.796Z" fill="#37474F"/>
<path d="M446.769 145.848L444.887 147.115C445.038 146.308 445.144 145.507 445.144 144.735C445.144 140.293 442.466 138.492 439.163 140.714C438.202 141.36 437.309 142.294 436.504 143.377C436.504 143.366 436.505 143.354 436.505 143.344C436.505 137.364 432.901 134.939 428.455 137.929C424.009 140.92 420.404 148.192 420.404 154.173C420.404 154.478 420.419 154.767 420.438 155.053C419.497 154.857 418.374 155.126 417.167 155.938C413.864 158.16 411.187 163.561 411.187 168.005C411.187 168.617 411.242 169.172 411.338 169.679L410.335 170.354C407.608 172.188 405.399 175.765 405.399 178.346C405.399 180.925 407.609 181.53 410.335 179.698L446.769 155.193C449.496 153.359 451.706 149.782 451.706 147.201C451.706 144.62 449.496 144.014 446.769 145.848Z" fill="#EBEBEB"/>
</svg>
