<svg width="498" height="494" viewBox="0 0 498 494" fill="none" xmlns="http://www.w3.org/2000/svg">
<g clip-path="url(#clip0_310_296628)">
<path d="M434.212 219.631C434.207 219.627 434.202 219.548 434.197 219.4C434.193 219.229 434.188 219.014 434.181 218.746C434.172 218.145 434.16 217.309 434.146 216.236C434.126 214.034 434.098 210.87 434.063 206.879L434.213 207.028C423.159 207.05 405.579 207.085 385.803 207.125C385.913 207.016 385.555 207.369 386.047 206.879V206.882V206.889V206.902V206.927V206.979V207.082V207.287V207.697V208.515C386.047 209.059 386.047 209.601 386.047 210.142C386.047 211.223 386.046 212.296 386.046 213.36C386.045 215.488 386.043 217.582 386.042 219.632L385.801 219.393C399.587 219.436 411.65 219.475 420.301 219.502C424.611 219.53 428.069 219.554 430.485 219.57C431.66 219.584 432.579 219.594 433.238 219.602C433.535 219.609 433.771 219.614 433.958 219.618C434.122 219.621 434.207 219.626 434.212 219.631C434.217 219.636 434.142 219.641 433.988 219.647C433.809 219.651 433.582 219.656 433.298 219.662C432.652 219.67 431.749 219.68 430.596 219.694C428.194 219.71 424.754 219.734 420.468 219.762C411.775 219.79 399.653 219.828 385.8 219.871L385.56 219.872V219.631C385.559 217.581 385.557 215.487 385.556 213.359C385.556 212.295 385.555 211.222 385.555 210.141C385.555 209.601 385.555 209.058 385.555 208.514V207.696V207.286V207.081V206.978V206.926V206.901V206.888V206.881V206.878C386.048 206.386 385.693 206.742 385.804 206.632C405.58 206.672 423.16 206.706 434.214 206.728H434.365L434.364 206.878C434.329 210.906 434.301 214.101 434.282 216.324C434.266 217.382 434.254 218.209 434.245 218.8C434.239 219.058 434.233 219.264 434.229 219.428C434.222 219.568 434.217 219.636 434.212 219.631Z" fill="#E0E0E0"/>
<path d="M527.325 86.2558C527.32 86.2509 527.315 86.1726 527.31 86.024C527.306 85.8536 527.301 85.6386 527.294 85.3701C527.285 84.7696 527.274 83.9334 527.259 82.8604C527.239 80.6588 527.211 77.4942 527.176 73.5032L527.326 73.6528C516.272 73.6746 498.692 73.7103 478.916 73.7489C479.026 73.6399 478.668 73.9937 479.16 73.5042V73.5072V73.5141V73.527V73.5527V73.6043V73.7073V73.9124V74.3226V75.14C479.16 75.684 479.16 76.2269 479.16 76.7669C479.16 77.8479 479.159 78.9209 479.159 79.985C479.158 82.1133 479.156 84.2069 479.155 86.2578L478.915 86.018C492.7 86.0616 504.763 86.1003 513.414 86.127C517.724 86.1558 521.182 86.1795 523.598 86.1954C524.773 86.2093 525.692 86.2192 526.351 86.2271C526.648 86.234 526.884 86.239 527.072 86.2429C527.234 86.2449 527.32 86.2499 527.325 86.2558C527.33 86.2608 527.255 86.2657 527.101 86.2717C526.922 86.2757 526.695 86.2806 526.411 86.2875C525.765 86.2955 524.861 86.3054 523.709 86.3192C521.307 86.3351 517.867 86.3589 513.581 86.3876C504.888 86.4154 492.766 86.453 478.914 86.4966L478.673 86.4976V86.2568C478.672 84.2059 478.67 82.1123 478.669 79.9841C478.669 78.9199 478.668 77.8469 478.668 76.7659C478.668 76.2259 478.668 75.683 478.668 75.139V74.3216V73.9114V73.7063V73.6033V73.5518V73.526V73.5131V73.5062V73.5032C479.161 73.0118 478.806 73.3665 478.917 73.2575C498.693 73.2971 516.273 73.3318 527.327 73.3536H527.479L527.478 73.5032C527.442 77.5318 527.414 80.7262 527.395 82.9495C527.379 84.0077 527.367 84.834 527.358 85.4255C527.352 85.6831 527.346 85.8892 527.342 86.0537C527.335 86.1924 527.33 86.2608 527.325 86.2558Z" fill="#E0E0E0"/>
<path d="M255.821 420.534L244.85 425.22L245.587 360.565C245.931 352.831 242.354 349.528 240.412 347.329C222.794 327.382 196.514 341.849 196.283 362.079L195.624 419.853L184.964 419.733L186.024 359.275C186.101 352.463 191.415 340.652 196.778 336.422C226.428 313.036 256.771 337.201 256.479 362.759L255.821 420.534Z" fill="#F5F5F5"/>
<path d="M255.821 420.532C255.821 420.532 255.813 420.134 255.816 419.376C255.82 418.61 255.827 417.49 255.834 416.023C255.857 413.074 255.892 408.743 255.936 403.169C255.985 397.597 256.045 390.783 256.115 382.873C256.153 378.921 256.194 374.695 256.236 370.215C256.194 365.743 256.642 360.97 255.722 356.08C254.871 351.194 252.803 346.282 249.616 341.903C249.21 341.361 248.821 340.801 248.397 340.265C247.942 339.755 247.483 339.242 247.022 338.727C246.147 337.652 245.039 336.785 244.028 335.806C243.514 335.325 242.917 334.935 242.361 334.492C241.783 334.079 241.256 333.588 240.629 333.234C239.401 332.491 238.209 331.66 236.868 331.068C234.289 329.677 231.416 328.82 228.493 328.081C227.748 327.959 226.999 327.837 226.247 327.714L225.118 327.53C224.738 327.491 224.355 327.479 223.972 327.453C223.205 327.406 222.437 327.359 221.665 327.312C220.893 327.299 220.118 327.362 219.34 327.383C213.109 327.599 206.806 329.721 201.348 333.351C198.617 335.182 196.177 337.47 193.98 340.005C191.833 342.592 190.079 345.525 188.678 348.651C187.329 351.809 186.501 355.196 186.07 358.662C185.772 362.137 185.852 365.71 185.783 369.289C185.621 383.626 185.454 398.471 185.283 413.675C185.26 415.705 185.236 417.729 185.213 419.736L184.966 419.484C188.592 419.526 192.164 419.566 195.626 419.605L195.375 419.85C195.508 408.359 195.638 397.117 195.765 386.192C195.828 380.73 195.892 375.348 195.954 370.053C195.984 367.406 196.015 364.78 196.046 362.178C196.113 359.553 196.536 356.962 197.333 354.506C199.007 349.624 202.133 345.351 206.15 342.424C206.662 342.073 207.132 341.663 207.674 341.365L209.267 340.426C210.376 339.903 211.46 339.322 212.625 338.963C213.757 338.512 214.943 338.261 216.111 337.975C216.699 337.853 217.298 337.798 217.888 337.707L218.774 337.583L219.666 337.547C222.04 337.355 224.393 337.674 226.655 338.13C228.914 338.657 231.052 339.502 233.045 340.557C236.963 342.768 240.25 345.882 242.401 349.54C243.554 351.326 244.301 353.293 244.962 355.23C245.487 357.209 245.901 359.197 245.945 361.182C245.963 361.676 245.981 362.169 246 362.659C245.994 363.146 245.988 363.631 245.982 364.114C245.97 365.08 245.959 366.037 245.947 366.985C245.923 368.88 245.899 370.74 245.876 372.563C245.782 379.854 245.696 386.556 245.618 392.6C245.451 404.679 245.321 414.128 245.234 420.412L245.161 420.338C248.783 420.398 251.438 420.443 253.2 420.471C254.074 420.488 254.724 420.502 255.167 420.51C255.6 420.52 255.821 420.532 255.821 420.532C255.821 420.532 255.618 420.539 255.191 420.539C254.752 420.538 254.107 420.536 253.24 420.534C251.47 420.523 248.801 420.507 245.159 420.484H245.086L245.087 420.411C245.144 414.126 245.228 404.677 245.337 392.597C245.397 386.553 245.464 379.85 245.537 372.559C245.556 370.736 245.574 368.876 245.593 366.98C245.603 366.032 245.613 365.075 245.623 364.109C245.628 363.627 245.633 363.141 245.638 362.654C245.619 362.17 245.599 361.685 245.579 361.197C245.534 359.243 245.12 357.286 244.6 355.337C243.944 353.432 243.207 351.496 242.067 349.74C239.942 346.142 236.701 343.084 232.845 340.915C230.884 339.88 228.78 339.052 226.559 338.537C224.334 338.093 222.021 337.781 219.688 337.974L218.811 338.01L217.941 338.134C217.36 338.225 216.772 338.279 216.195 338.4C215.049 338.683 213.884 338.929 212.772 339.375C211.628 339.728 210.565 340.301 209.476 340.816L207.912 341.739C207.379 342.032 206.918 342.437 206.417 342.781C202.474 345.66 199.409 349.861 197.772 354.651C196.991 357.063 196.581 359.602 196.516 362.183C196.487 364.785 196.458 367.411 196.429 370.058C196.371 375.353 196.311 380.736 196.25 386.197C196.128 397.122 196.001 408.364 195.872 419.855L195.869 420.103L195.62 420.1C192.158 420.061 188.586 420.02 184.96 419.98L184.71 419.977L184.713 419.728C184.736 417.722 184.759 415.698 184.783 413.667C184.958 398.464 185.129 383.619 185.295 369.281C185.366 365.695 185.285 362.154 185.589 358.609C186.027 355.096 186.871 351.662 188.239 348.463C189.661 345.294 191.442 342.324 193.619 339.705C195.846 337.138 198.321 334.823 201.089 332.97C206.621 329.298 213.01 327.157 219.318 326.945C220.106 326.925 220.891 326.863 221.672 326.877L224.348 327.044C224.838 327.099 225.329 327.154 225.819 327.21L228.055 327.578C228.399 327.65 228.743 327.722 229.087 327.795C231.87 328.517 234.594 329.37 237.053 330.7C238.408 331.301 239.614 332.143 240.855 332.897C241.488 333.257 242.021 333.754 242.605 334.172C243.166 334.621 243.768 335.016 244.289 335.504C245.311 336.495 246.427 337.376 247.311 338.462C247.775 338.985 248.238 339.504 248.698 340.02C249.126 340.562 249.519 341.129 249.928 341.678C253.141 346.111 255.22 351.079 256.068 356.017C256.987 360.968 256.522 365.765 256.551 370.247C256.491 374.744 256.436 378.983 256.383 382.95C256.272 390.869 256.177 397.693 256.099 403.272C256.017 408.83 255.952 413.149 255.908 416.089C255.883 417.542 255.864 418.653 255.851 419.411C255.837 420.158 255.821 420.532 255.821 420.532Z" fill="#E0E0E0"/>
<path d="M268.704 464.399L171.889 463.304L172.816 381.992L269.291 383.083C271.348 383.106 272.997 384.786 272.974 386.835L272.128 461.068C272.107 462.929 270.574 464.42 268.704 464.399Z" fill="#E0E0E0"/>
<path d="M255.332 464.245L171.498 463.298C169.19 463.272 167.341 461.388 167.366 459.09L168.2 385.965C168.226 383.741 170.056 381.959 172.29 381.985L257.162 382.944C259.395 382.969 261.185 384.792 261.159 387.016L260.334 459.377C260.303 462.096 258.063 464.277 255.332 464.245Z" fill="#EBEBEB"/>
<path d="M227.262 416.107C227.335 409.722 222.099 404.507 215.64 404.627C209.614 404.738 204.578 409.752 204.46 415.753C204.356 420.984 207.837 425.397 212.626 426.815L205.008 442.394L224.657 442.976L218.846 426.886C223.636 425.584 227.203 421.296 227.262 416.107Z" fill="#E0E0E0"/>
<path d="M260.424 456.667C260.285 456.665 260.396 442.504 260.67 425.042C260.944 407.575 261.278 393.42 261.417 393.422C261.554 393.424 261.445 407.581 261.17 425.049C260.895 442.511 260.562 456.669 260.424 456.667Z" fill="#FAFAFA"/>
<path d="M239.691 385.217C239.691 385.354 227.177 385.489 211.744 385.519C196.306 385.549 183.794 385.461 183.794 385.324C183.794 385.187 196.305 385.051 211.743 385.021C227.176 384.992 239.691 385.079 239.691 385.217Z" fill="white"/>
<path d="M204.02 421.952C203.993 421.967 203.815 421.721 203.555 421.239C203.294 420.758 202.974 420.027 202.702 419.083C202.148 417.214 201.907 414.375 202.886 411.496C203.869 408.618 205.797 406.511 207.379 405.365C208.173 404.781 208.873 404.395 209.374 404.172C209.875 403.947 210.166 403.86 210.178 403.888C210.221 403.972 209.09 404.433 207.596 405.643C206.109 406.83 204.302 408.894 203.359 411.657C202.42 414.42 202.591 417.152 203.044 418.996C203.489 420.861 204.104 421.912 204.02 421.952Z" fill="white"/>
<path d="M208.464 427.387C208.391 427.504 207.721 427.22 206.969 426.754C206.216 426.288 205.664 425.815 205.738 425.698C205.811 425.581 206.48 425.866 207.234 426.332C207.986 426.798 208.537 427.271 208.464 427.387Z" fill="white"/>
<path d="M217.972 329.924C217.974 329.968 217.286 330.018 216.052 330.174C214.818 330.325 213.042 330.641 210.915 331.27C206.685 332.489 200.99 335.315 196.493 340.386C192.001 345.465 189.899 351.446 189.214 355.777C188.854 357.957 188.762 359.751 188.766 360.989C188.766 362.226 188.802 362.914 188.758 362.917C188.741 362.918 188.715 362.748 188.68 362.422C188.654 362.097 188.581 361.615 188.571 360.993C188.509 359.748 188.546 357.935 188.865 355.723C189.468 351.329 191.547 345.225 196.118 340.057C200.694 334.896 206.515 332.077 210.817 330.932C212.981 330.339 214.783 330.075 216.031 329.982C216.653 329.912 217.141 329.925 217.47 329.909C217.798 329.902 217.971 329.907 217.972 329.924Z" fill="white"/>
<path d="M188.245 371.678C188.106 371.675 188.023 370.351 188.058 368.72C188.093 367.089 188.232 365.77 188.37 365.773C188.507 365.776 188.592 367.1 188.557 368.731C188.522 370.361 188.383 371.681 188.245 371.678Z" fill="white"/>
<path d="M249.572 95.6953H201.159V108.448H249.572V95.6953Z" fill="#F5F5F5"/>
<path d="M229.1 121.881C229.095 121.876 229.09 121.797 229.085 121.649C229.081 121.478 229.076 121.263 229.069 120.995C229.06 120.394 229.048 119.558 229.033 118.485C229.013 116.283 228.985 113.119 228.95 109.128L229.1 109.277C218.046 109.299 200.466 109.335 180.69 109.374C180.8 109.265 180.442 109.618 180.934 109.128V109.131V109.138V109.151V109.176V109.228V109.331V109.536V109.946V110.764C180.934 111.308 180.934 111.85 180.934 112.391C180.934 113.472 180.933 114.545 180.933 115.609C180.932 117.737 180.93 119.831 180.929 121.881L180.688 121.642C194.474 121.685 206.537 121.723 215.188 121.751C219.498 121.779 222.956 121.803 225.372 121.819C226.547 121.833 227.466 121.843 228.125 121.851C228.422 121.858 228.658 121.863 228.845 121.867C229.009 121.871 229.095 121.876 229.1 121.881C229.105 121.885 229.03 121.89 228.876 121.896C228.697 121.9 228.47 121.905 228.186 121.912C227.54 121.92 226.636 121.93 225.484 121.944C223.082 121.96 219.642 121.984 215.356 122.012C206.663 122.04 194.541 122.078 180.688 122.121L180.448 122.122V121.881C180.447 119.831 180.445 117.737 180.444 115.609C180.444 114.545 180.443 113.472 180.443 112.391C180.443 111.851 180.443 111.308 180.443 110.764V109.946V109.536V109.331V109.228V109.176V109.151V109.138V109.131V109.128C180.936 108.636 180.581 108.992 180.692 108.882C200.468 108.922 218.048 108.956 229.102 108.978H229.253L229.252 109.128C229.217 113.156 229.189 116.351 229.17 118.574C229.154 119.632 229.142 120.459 229.133 121.05C229.127 121.308 229.121 121.514 229.117 121.678C229.11 121.817 229.105 121.885 229.1 121.881Z" fill="#E0E0E0"/>
<path d="M423.646 315.914H375.233V328.667H423.646V315.914Z" fill="#F5F5F5"/>
<path d="M403.174 342.1C403.169 342.095 403.164 342.016 403.159 341.868C403.155 341.697 403.151 341.482 403.144 341.214C403.135 340.613 403.123 339.777 403.108 338.704C403.088 336.503 403.06 333.338 403.025 329.347L403.175 329.497C392.121 329.518 374.541 329.553 354.766 329.593C354.875 329.484 354.517 329.837 355.009 329.348V329.351V329.358V329.371V329.396V329.448V329.551V329.756V330.166V330.984C355.009 331.528 355.009 332.07 355.009 332.611C355.009 333.692 355.008 334.765 355.008 335.829C355.007 337.957 355.005 340.051 355.004 342.102L354.764 341.862C368.549 341.905 380.612 341.944 389.263 341.971C393.573 342 397.031 342.023 399.447 342.039C400.622 342.053 401.542 342.063 402.2 342.071C402.497 342.078 402.734 342.083 402.921 342.087C403.083 342.089 403.169 342.094 403.174 342.1C403.179 342.105 403.104 342.109 402.951 342.115C402.771 342.119 402.545 342.124 402.26 342.131C401.614 342.139 400.712 342.149 399.558 342.163C397.156 342.179 393.716 342.203 389.431 342.231C380.737 342.259 368.615 342.297 354.763 342.34L354.522 342.341V342.101C354.521 340.05 354.519 337.956 354.518 335.828C354.518 334.764 354.517 333.691 354.517 332.61C354.517 332.07 354.517 331.527 354.517 330.983V330.165V329.755V329.55V329.447V329.395V329.37V329.357V329.35V329.347C355.01 328.856 354.655 329.21 354.767 329.101C374.542 329.141 392.122 329.176 403.176 329.197H403.328L403.327 329.347C403.291 333.376 403.263 336.57 403.244 338.793C403.228 339.851 403.216 340.678 403.207 341.269C403.201 341.527 403.195 341.733 403.191 341.897C403.184 342.036 403.179 342.105 403.174 342.1Z" fill="#E0E0E0"/>
<path d="M106.267 75.7246C106.262 75.7196 106.257 75.6414 106.252 75.4927C106.248 75.3223 106.243 75.1073 106.236 74.8388C106.227 74.2384 106.215 73.4021 106.199 72.3291C106.179 70.1275 106.151 66.9629 106.116 62.972L106.267 63.1216C95.2125 63.1434 77.6328 63.178 57.8569 63.2177C57.9664 63.1087 57.6081 63.4624 58.1007 62.973V62.9759V62.9829V62.9957V63.0215V63.073V63.1761V63.3812V63.7914V64.6088C58.1007 65.1527 58.1007 65.6947 58.1007 66.2357C58.1007 67.3166 58.0997 68.3897 58.0997 69.4538C58.0987 71.582 58.0967 73.6756 58.0957 75.7266L57.8549 75.4868C71.6405 75.5304 83.7036 75.568 92.3547 75.5958C96.6643 75.6245 100.122 75.6483 102.538 75.6641C103.713 75.678 104.633 75.6879 105.292 75.6958C105.588 75.7028 105.825 75.7077 106.012 75.7117C106.175 75.7137 106.262 75.7186 106.267 75.7246C106.272 75.7295 106.196 75.7345 106.043 75.7404C105.864 75.7444 105.637 75.7493 105.352 75.7553C104.706 75.7632 103.804 75.7731 102.651 75.787C100.249 75.8029 96.8086 75.8266 92.5229 75.8554C83.829 75.8831 71.7072 75.9208 57.8549 75.9644L57.6141 75.9654V75.7246C57.6131 73.6736 57.6111 71.5801 57.6101 69.4518C57.6101 68.3877 57.6091 67.3146 57.6091 66.2337C57.6091 65.6937 57.6091 65.1507 57.6091 64.6068V63.7894V63.3792V63.1741V63.071V63.0205V62.9947V62.9819V62.9749V62.972C58.1027 62.4805 57.7474 62.8352 57.8589 62.7262C77.6348 62.7659 95.2145 62.8006 106.269 62.8223H106.42L106.419 62.972C106.383 67.0006 106.355 70.1949 106.336 72.4183C106.32 73.4765 106.308 74.3028 106.3 74.8943C106.294 75.1519 106.288 75.358 106.284 75.5225C106.277 75.6612 106.272 75.7295 106.267 75.7246Z" fill="#E0E0E0"/>
<path d="M394.938 57.4043C394.933 57.3993 394.928 57.321 394.923 57.1724C394.919 57.002 394.914 56.787 394.907 56.5185C394.898 55.9181 394.887 55.0818 394.871 54.0088C394.851 51.8072 394.823 48.6426 394.788 44.6516L394.938 44.8013C383.884 44.8231 366.304 44.8577 346.529 44.8974C346.638 44.7884 346.28 45.1421 346.772 44.6516V44.6546V44.6616V44.6744V44.7002V44.7517V44.8548V45.0599V45.4701V46.2875C346.772 46.8314 346.772 47.3744 346.772 47.9144C346.772 48.9953 346.771 50.0684 346.771 51.1325C346.77 53.2607 346.768 55.3543 346.767 57.4053L346.527 57.1655C360.312 57.2091 372.375 57.2477 381.026 57.2745C385.336 57.3032 388.794 57.327 391.21 57.3428C392.385 57.3567 393.304 57.3666 393.963 57.3745C394.26 57.3805 394.496 57.3864 394.684 57.3894C394.847 57.3934 394.933 57.3993 394.938 57.4043C394.943 57.4092 394.868 57.4152 394.714 57.4201C394.535 57.4241 394.308 57.429 394.024 57.436C393.378 57.4439 392.476 57.4538 391.322 57.4677C388.92 57.4835 385.48 57.5073 381.194 57.536C372.501 57.5638 360.379 57.6014 346.527 57.645L346.286 57.646V57.4053C346.285 55.3543 346.283 53.2607 346.282 51.1325C346.282 50.0684 346.281 48.9953 346.281 47.9144C346.281 47.3744 346.281 46.8314 346.281 46.2875V45.4701V45.0599V44.8548V44.7517V44.7002V44.6744V44.6616V44.6546V44.6516C346.774 44.1602 346.419 44.5149 346.53 44.4059C366.306 44.4456 383.886 44.4802 394.94 44.502H395.092L395.091 44.6516C395.055 48.6803 395.027 51.8756 395.008 54.098C394.992 55.1561 394.98 55.9825 394.971 56.574C394.964 56.8316 394.959 57.0377 394.955 57.2021C394.948 57.3409 394.943 57.4092 394.938 57.4043Z" fill="#E0E0E0"/>
<path d="M401.503 44.6546C401.497 44.6486 401.491 44.5664 401.484 44.4118C401.479 44.2285 401.472 44.0066 401.465 43.7361C401.454 43.1089 401.439 42.2558 401.421 41.1788C401.398 38.9426 401.365 35.7849 401.326 31.902L401.503 32.0783C393.967 32.0962 383.716 32.1209 372.417 32.1477C372.195 32.3666 372.715 31.8485 372.662 31.9029V31.9059V31.9129V31.9257V31.9515V32.004V32.109V32.3181V32.7362V33.5695C372.662 34.1233 372.662 34.6752 372.661 35.2231C372.66 36.319 372.66 37.4019 372.659 38.469C372.656 40.6022 372.653 42.671 372.65 44.6526L372.415 44.4188C380.812 44.4634 388.041 44.502 393.223 44.5297C395.778 44.5575 397.826 44.5783 399.284 44.5941C399.964 44.606 400.507 44.6159 400.919 44.6239C401.294 44.6348 401.493 44.6447 401.503 44.6546C401.513 44.6645 401.332 44.6734 400.974 44.6833C400.575 44.6902 400.049 44.7002 399.388 44.713C397.943 44.7289 395.913 44.7507 393.38 44.7774C388.159 44.8052 380.875 44.8438 372.414 44.8884L372.179 44.8894V44.6546C372.176 42.673 372.173 40.6042 372.17 38.471C372.169 37.4039 372.169 36.3209 372.168 35.2251C372.168 34.6772 372.168 34.1253 372.167 33.5715V32.7382V32.3201V32.111V32.005V31.9525V31.9257V31.9129V31.9059V31.9029C372.114 31.9545 372.635 31.4363 372.416 31.6562C383.715 31.683 393.966 31.7078 401.502 31.7256H401.681L401.679 31.902C401.639 35.8305 401.606 39.0248 401.583 41.2868C401.564 42.347 401.549 43.1862 401.539 43.8045C401.527 44.3742 401.515 44.6665 401.503 44.6546Z" fill="#E0E0E0"/>
<path d="M89.4542 361.481C89.4492 361.476 89.4442 361.398 89.4392 361.25C89.4353 361.079 89.4303 360.864 89.4233 360.596C89.4144 359.995 89.4024 359.159 89.3865 358.086C89.3666 355.884 89.3387 352.72 89.3039 348.729L89.4542 348.878C78.4 348.9 60.8203 348.935 41.0444 348.975C41.1539 348.866 40.7956 349.219 41.2882 348.729V348.732V348.739V348.752V348.777V348.829V348.931V349.136V349.546V350.364C41.2882 350.908 41.2882 351.451 41.2882 351.991C41.2882 353.071 41.2872 354.145 41.2872 355.209C41.2862 357.337 41.2842 359.43 41.2832 361.481L41.0424 361.242C54.828 361.285 66.8911 361.324 75.5422 361.351C79.8518 361.379 83.3097 361.403 85.7257 361.419C86.9008 361.433 87.8213 361.443 88.479 361.451C88.7755 361.457 89.0124 361.463 89.1994 361.467C89.3636 361.471 89.4492 361.475 89.4542 361.481C89.4591 361.486 89.3835 361.491 89.2303 361.497C89.0512 361.501 88.8243 361.506 88.5397 361.513C87.8939 361.521 86.9914 361.531 85.8381 361.545C83.436 361.561 79.9961 361.584 75.7104 361.613C67.0165 361.641 54.8947 361.679 41.0424 361.722L40.8016 361.723V361.482C40.8006 359.431 40.7986 357.338 40.7976 355.21C40.7976 354.146 40.7966 353.072 40.7966 351.991C40.7966 351.451 40.7966 350.909 40.7966 350.365V349.547V349.137V348.932V348.83V348.778V348.753V348.74V348.733V348.73C41.2902 348.238 40.9349 348.593 41.0464 348.484C60.8223 348.524 78.402 348.558 89.4562 348.58H89.6074L89.6064 348.73C89.5706 352.758 89.5427 355.954 89.5238 358.176C89.5079 359.234 89.496 360.061 89.487 360.652C89.48 360.91 89.4751 361.116 89.4711 361.28C89.4641 361.418 89.4591 361.486 89.4542 361.481Z" fill="#E0E0E0"/>
<path d="M96.0185 348.731C96.0126 348.725 96.0066 348.643 95.9996 348.488C95.9946 348.305 95.9877 348.083 95.9807 347.812C95.9698 347.185 95.9548 346.332 95.9369 345.255C95.914 343.019 95.8812 339.861 95.8414 335.978L96.0185 336.154C88.4829 336.172 78.2318 336.197 66.9329 336.224C66.711 336.443 67.2304 335.925 67.1776 335.979V335.982V335.989V336.002V336.028V336.08V336.185V336.394V336.812V337.646C67.1776 338.2 67.1776 338.751 67.1766 339.299C67.1757 340.395 67.1747 341.478 67.1747 342.545C67.1717 344.678 67.1687 346.747 67.1657 348.729L66.9309 348.495C75.3282 348.539 82.5573 348.578 87.7386 348.606C90.2939 348.633 92.3418 348.654 93.7995 348.67C94.4802 348.682 95.0225 348.692 95.4344 348.7C95.8086 348.711 96.0086 348.721 96.0185 348.731C96.0285 348.741 95.8474 348.75 95.4901 348.759C95.0911 348.766 94.5647 348.776 93.904 348.789C92.4592 348.805 90.4293 348.827 87.8968 348.854C82.6757 348.881 75.3919 348.92 66.9309 348.965L66.696 348.966V348.731C66.693 346.749 66.6901 344.68 66.6871 342.547C66.6861 341.48 66.6861 340.397 66.6851 339.301C66.6851 338.753 66.6851 338.201 66.6841 337.648V336.814V336.396V336.187V336.082V336.03V336.004V335.991V335.984V335.981C66.6304 336.033 67.1518 335.514 66.9329 335.734C78.2318 335.761 88.4829 335.786 96.0185 335.804H96.1976L96.1956 335.98C96.1558 339.909 96.123 343.103 96.1001 345.365C96.0812 346.425 96.0663 347.264 96.0563 347.883C96.0424 348.45 96.0305 348.743 96.0185 348.731Z" fill="#E0E0E0"/>
<path d="M241.895 256.623C241.89 256.618 241.885 256.539 241.88 256.391C241.876 256.22 241.871 256.005 241.864 255.737C241.855 255.137 241.843 254.3 241.827 253.227C241.807 251.026 241.779 247.861 241.744 243.87L241.895 244.02C230.84 244.041 213.261 244.076 193.485 244.116C193.594 244.007 193.236 244.361 193.729 243.87V243.873V243.88V243.893V243.919V243.97V244.073V244.278V244.688V245.506C193.729 246.05 193.729 246.593 193.729 247.133C193.729 248.214 193.728 249.287 193.728 250.351C193.727 252.479 193.725 254.573 193.724 256.624L193.483 256.384C207.268 256.428 219.332 256.466 227.983 256.493C232.292 256.522 235.75 256.545 238.166 256.561C239.341 256.575 240.261 256.585 240.919 256.593C241.216 256.599 241.453 256.605 241.64 256.609C241.803 256.612 241.889 256.617 241.895 256.623C241.9 256.628 241.824 256.633 241.671 256.639C241.492 256.643 241.265 256.647 240.98 256.654C240.334 256.662 239.431 256.672 238.279 256.686C235.876 256.702 232.437 256.726 228.151 256.754C219.457 256.782 207.335 256.82 193.483 256.863L193.242 256.864V256.624C193.241 254.573 193.239 252.479 193.238 250.351C193.238 249.287 193.237 248.214 193.237 247.133C193.237 246.593 193.237 246.05 193.237 245.506V244.688V244.278V244.073V243.97V243.919V243.893V243.88V243.873V243.87C193.731 243.379 193.375 243.734 193.487 243.624C213.263 243.664 230.842 243.699 241.897 243.72H242.048L242.047 243.87C242.011 247.899 241.983 251.094 241.964 253.316C241.948 254.375 241.936 255.201 241.927 255.792C241.92 256.05 241.916 256.256 241.912 256.421C241.905 256.559 241.9 256.628 241.895 256.623Z" fill="#E0E0E0"/>
<path d="M248.458 243.872C248.452 243.866 248.446 243.784 248.439 243.63C248.434 243.446 248.427 243.224 248.42 242.954C248.409 242.327 248.394 241.474 248.376 240.397C248.354 238.16 248.321 235.003 248.281 231.12L248.458 231.296C240.922 231.314 230.671 231.339 219.372 231.365C219.15 231.584 219.67 231.066 219.617 231.121V231.124V231.131V231.144V231.169V231.222V231.327V231.537V231.955V232.788C219.617 233.343 219.617 233.894 219.616 234.442C219.615 235.538 219.615 236.621 219.614 237.688C219.611 239.821 219.608 241.89 219.605 243.871L219.37 243.638C227.768 243.682 234.997 243.721 240.178 243.748C242.733 243.775 244.781 243.797 246.239 243.813C246.92 243.825 247.462 243.835 247.874 243.843C248.249 243.853 248.448 243.862 248.458 243.872C248.468 243.882 248.287 243.891 247.93 243.901C247.531 243.908 247.004 243.918 246.343 243.931C244.899 243.947 242.869 243.968 240.335 243.995C235.114 244.023 227.83 244.062 219.369 244.106L219.135 244.107V243.872C219.132 241.891 219.129 239.822 219.126 237.689C219.125 236.622 219.124 235.539 219.124 234.443C219.124 233.895 219.124 233.343 219.123 232.789V231.956V231.538V231.328V231.223V231.17V231.144V231.132V231.125V231.122C219.069 231.173 219.59 230.655 219.371 230.875C230.67 230.902 240.921 230.927 248.457 230.944L248.636 230.945L248.634 231.122C248.594 235.05 248.561 238.245 248.539 240.507C248.52 241.567 248.505 242.406 248.495 243.024C248.483 243.591 248.471 243.884 248.458 243.872Z" fill="#E0E0E0"/>
<path d="M481.913 464.39C481.913 464.533 383.651 464.648 262.466 464.648C141.24 464.648 42.9978 464.532 42.9978 464.39C42.9978 464.248 141.239 464.133 262.466 464.133C383.651 464.133 481.913 464.248 481.913 464.39Z" fill="#263238"/>
<path d="M62.6472 409.609L44.761 433.798L74.8706 456.11C76.8348 453.115 65.5548 435.822 65.5548 435.822L77.6528 420.793L62.6472 409.609Z" fill="#9A9EA2"/>
<path d="M57.2161 427.624C56.5146 427.35 55.625 427.705 55.3215 428.391C55.019 429.077 55.3722 429.982 56.0688 430.267C56.7653 430.553 57.847 430.16 58.0709 429.444C58.2947 428.728 57.8211 427.688 57.0758 427.578" fill="white"/>
<path d="M44.7212 433.849L46.6247 431.25L74.7561 453.805C74.7561 453.805 75.6527 455.385 74.793 456.206L44.7212 433.849Z" fill="#343C44"/>
<path d="M66.1579 436.03C66.0435 436.172 65.2593 435.694 64.1837 435.628C63.11 435.535 62.2632 435.893 62.1717 435.734C62.0572 435.605 62.9309 434.893 64.2315 434.994C65.531 435.085 66.2902 435.919 66.1579 436.03Z" fill="#343C44"/>
<path d="M68.3439 439.671C68.2712 439.839 67.4483 439.616 66.4861 439.864C65.5169 440.085 64.89 440.662 64.7487 440.547C64.5935 440.468 65.1328 439.535 66.3348 439.248C67.5339 438.95 68.4444 439.53 68.3439 439.671Z" fill="#343C44"/>
<path d="M67.324 444.762C67.1667 444.695 67.509 443.811 68.4862 443.289C69.4594 442.76 70.3897 442.957 70.3599 443.125C70.3529 443.308 69.5847 443.407 68.7897 443.848C67.9847 444.27 67.4812 444.856 67.324 444.762Z" fill="#343C44"/>
<path d="M68.533 432.298C68.3718 432.386 67.8484 431.684 66.9747 431.124C66.113 430.546 65.2582 430.345 65.2762 430.163C65.2702 429.993 66.306 429.92 67.326 430.593C68.3499 431.26 68.6912 432.236 68.533 432.298Z" fill="#343C44"/>
<path d="M135.44 308.403C135.985 311.436 136.832 337.228 137.38 350.829C137.929 364.43 136.564 371.129 135.004 374.174C133.443 377.219 74.5222 420.459 70.0374 430.812L55.1543 418.834C55.1543 418.834 77.0029 379.7 86.3813 372.595C95.7598 365.49 113.667 358.948 113.667 358.948L108.57 284.445L133.036 283.117L135.44 308.403Z" fill="#343C44"/>
<path d="M80.686 433.516L80.4253 463.552L117.954 464.066C117.784 460.493 98.4678 453.06 98.4678 453.06L99.428 433.822L80.686 433.516Z" fill="#9A9EA2"/>
<path d="M86.8851 451.285C86.1557 451.472 85.6433 452.279 85.8015 453.012C85.9597 453.745 86.7786 454.271 87.511 454.097C88.2424 453.921 88.8892 452.973 88.6484 452.262C88.4086 451.551 87.4125 450.986 86.7448 451.33" fill="white"/>
<path d="M80.4202 463.615L80.4331 460.398L116.502 462.264C116.502 462.264 118.158 463.022 117.945 464.189L80.4202 463.615Z" fill="#343C44"/>
<path d="M99.0776 452.881C99.0687 453.063 98.1512 453.133 97.2417 453.708C96.3163 454.259 95.8417 455.042 95.6735 454.968C95.5053 454.931 95.7939 453.844 96.9074 453.167C98.0149 452.48 99.1194 452.713 99.0776 452.881Z" fill="#343C44"/>
<path d="M102.991 454.553C103.031 454.731 102.233 455.03 101.6 455.794C100.944 456.539 100.776 457.371 100.594 457.36C100.422 457.387 100.309 456.316 101.114 455.382C101.911 454.441 102.99 454.379 102.991 454.553Z" fill="#343C44"/>
<path d="M105.162 459.278C104.995 459.315 104.752 458.4 105.237 457.407C105.715 456.41 106.584 456.028 106.66 456.181C106.761 456.333 106.197 456.861 105.812 457.682C105.408 458.494 105.344 459.263 105.162 459.278Z" fill="#343C44"/>
<path d="M98.8079 448.471C98.7283 448.636 97.8915 448.372 96.8546 448.428C95.8168 448.463 95.0058 448.798 94.9123 448.64C94.8078 448.506 95.6038 447.842 96.8268 447.793C98.0477 447.736 98.8995 448.329 98.8079 448.471Z" fill="#343C44"/>
<path d="M138.151 280.038C138.151 281.796 141.004 326.187 126.432 358.285C126.432 358.285 121.383 368.328 120.499 372.724C119.616 377.122 100.718 449.912 100.718 449.912L78.9285 449.12C78.9285 449.12 75.4398 412.646 78.9723 391.54C82.5048 370.434 88.9557 372.897 88.9557 359.265C88.9557 345.634 85.7039 317.364 85.7039 317.364C85.7039 317.364 80.9435 309.641 79.3216 294.675C78.0031 282.514 83.7476 269.49 83.7476 269.49L89.4344 259.47L137.504 256.961L138.151 280.038Z" fill="#343C44"/>
<path d="M138.151 280.039C138.151 280.039 138.157 279.528 138.139 278.529C138.117 277.52 138.086 276.036 138.044 274.091C137.947 270.174 137.804 264.408 137.62 256.962L137.617 256.844L137.499 256.85C125.687 257.447 109.277 258.277 89.4254 259.282L89.3209 259.287L89.2691 259.378C87.5009 262.486 85.5655 265.888 83.5714 269.392L83.5654 269.403L83.5615 269.411C82.1306 272.862 80.9733 276.532 80.1355 280.391C79.2807 284.242 78.8061 288.304 78.9354 292.466C79.2011 296.623 79.8807 300.82 80.8917 305.042C81.9475 309.248 83.2938 313.498 85.4988 317.492L85.465 317.394C86.2899 324.789 87.0511 332.448 87.6989 340.333C88.0183 344.275 88.3019 348.275 88.498 352.328C88.5975 354.355 88.6701 356.395 88.686 358.445C88.7219 359.473 88.6452 360.491 88.6263 361.518C88.5199 362.536 88.4691 363.567 88.2442 364.571C87.885 366.596 87.1526 368.54 86.1815 370.389C85.2162 372.242 84.1336 374.075 83.2261 376.011C81.3753 379.874 80.1783 384.051 79.3116 388.299C77.5762 396.821 77.2259 405.679 77.1294 414.598C77.0916 426.385 77.6896 437.952 78.6648 449.146L78.6847 449.375L78.9175 449.383C86.3427 449.652 93.6166 449.915 100.707 450.17L100.915 450.178L100.967 449.978C107.28 425.593 113.173 402.805 118.364 382.313C119.003 379.748 119.632 377.22 120.252 374.729C120.572 373.474 120.784 372.223 121.172 371.038C121.552 369.843 121.996 368.674 122.455 367.521C123.389 365.223 124.396 362.994 125.424 360.823C125.684 360.282 125.943 359.743 126.202 359.207C126.473 358.678 126.727 358.136 126.938 357.582C127.388 356.486 127.835 355.4 128.277 354.325C131.713 345.678 133.735 337.283 135.158 329.62C137.947 314.255 138.316 301.752 138.444 293.223C138.499 284.677 138.151 280.039 138.151 280.039C138.151 280.039 138.146 280.33 138.158 280.899C138.172 281.479 138.194 282.323 138.223 283.43C138.285 285.657 138.318 288.955 138.266 293.223C138.082 301.744 137.661 314.234 134.833 329.563C133.392 337.205 131.351 345.578 127.911 354.179C127.47 355.248 127.024 356.327 126.574 357.416C126.363 357.968 126.112 358.498 125.839 359.031C125.579 359.568 125.318 360.108 125.056 360.65C124.022 362.825 123.008 365.057 122.065 367.366C121.602 368.523 121.152 369.699 120.765 370.912C120.365 372.131 120.148 373.399 119.831 374.629C119.208 377.117 118.575 379.643 117.932 382.205C112.647 402.673 106.764 425.463 100.468 449.85L100.727 449.658C93.6365 449.398 86.3636 449.133 78.9384 448.86L79.1911 449.098C78.222 437.927 77.6259 426.365 77.6637 414.603C77.7603 405.701 78.1095 396.87 79.832 388.406C80.6927 384.182 81.8768 380.049 83.7028 376.235C84.5993 374.32 85.671 372.505 86.6481 370.627C87.6323 368.753 88.3905 366.74 88.7567 364.667C88.9855 363.636 89.0373 362.588 89.1448 361.551C89.1637 360.511 89.2393 359.469 89.2035 358.442C89.1865 356.381 89.1119 354.335 89.0114 352.305C88.8114 348.243 88.5248 344.239 88.2024 340.293C87.5477 332.401 86.7785 324.742 85.9446 317.34L85.9397 317.294L85.9108 317.241C83.7565 313.349 82.3933 309.099 81.3455 304.931C80.3355 300.746 79.6529 296.546 79.3842 292.447C79.2509 288.335 79.7126 284.307 80.5564 280.481C81.3793 276.651 82.5296 272.986 83.9366 269.575L83.9276 269.592C85.9138 266.084 87.8422 262.678 89.6035 259.566L89.4473 259.663C109.296 258.595 125.702 257.714 137.513 257.079L137.391 256.967C137.624 264.411 137.804 270.175 137.927 274.092C137.994 276.037 138.045 277.52 138.081 278.529C138.116 279.528 138.151 280.039 138.151 280.039Z" fill="#9A9EA2"/>
<path d="M122.517 189.13C122.517 189.13 109.536 186.849 110.789 203.428C111.541 213.355 114.467 230.335 116.089 241.192C116.649 244.944 117.879 251.664 122.863 255.608L158.586 280.225L169.86 266.804L137.963 236.547L132.949 206.626L122.517 189.13Z" fill="#9A9EA2"/>
<path d="M124.037 129.383C128.159 132.617 130.513 137.962 130.107 143.173C129.91 145.703 129.209 148.592 130.862 150.525C132.499 152.437 135.713 152.382 137.282 154.35C139.129 156.668 137.582 160.116 138.243 163C138.864 165.707 141.732 167.702 144.498 167.351C141.255 169.989 137.269 171.711 133.119 172.268C132.058 170.911 130.996 169.554 129.934 168.198C131.141 169.622 130.821 171.893 129.652 173.35C128.483 174.805 126.679 175.599 124.894 176.163C116.37 178.855 106.599 177.273 99.3701 172.032" fill="#343C44"/>
<path d="M76.2498 151.749C76.8867 149.809 77.9554 148.011 78.3832 146.014C79.3037 141.724 77.2051 136.895 79.2947 133.033C80.7823 130.283 83.9526 128.938 86.9497 128.018C89.9469 127.1 93.1639 126.32 95.3988 124.129C97.0377 122.523 97.971 120.311 99.6039 118.699C101.932 116.401 105.369 115.623 108.641 115.423C112 115.218 115.474 115.539 118.496 117.015C121.517 118.492 124.027 121.264 124.565 124.572C124.828 126.185 124.629 127.876 125.139 129.429C125.7 131.136 127.048 132.465 127.879 134.061C129.634 137.432 128.683 141.972 125.72 144.364L102.655 174.029C97.8098 175.851 86.0691 173.648 82.3247 170.085C78.5803 166.521 74.6418 156.651 76.2498 151.749Z" fill="#343C44"/>
<path d="M125.111 140.598C124.161 133.862 119.017 125.903 112.299 127.135L91.5618 134.075C89.521 134.45 90.9817 137.763 91.1817 139.82L95.6903 186.386C95.6565 186.396 92.8892 188.377 91.8892 187.995C91.6295 187.896 91.3966 188.186 91.5539 188.414C94.0445 192.015 105.8 207.756 117.916 202.95C120.623 201.876 117.633 193.385 117.95 190.238L117.59 182.201C117.321 178.098 117.192 176.416 117.197 176.455C117.197 176.455 125.769 174.355 126.697 162.936C127.161 157.258 126.168 148.081 125.111 140.598Z" fill="#FFBF9D"/>
<path d="M123.668 150.962C123.754 151.724 123.177 152.424 122.379 152.528C121.583 152.632 120.866 152.101 120.781 151.338C120.695 150.576 121.271 149.875 122.067 149.771C122.866 149.667 123.582 150.2 123.668 150.962Z" fill="#343C44"/>
<path d="M109.546 151.845C109.633 152.606 109.056 153.308 108.258 153.411C107.462 153.515 106.745 152.983 106.66 152.221C106.574 151.459 107.15 150.758 107.946 150.654C108.743 150.55 109.46 151.083 109.546 151.845Z" fill="#343C44"/>
<path d="M124.189 146.188C124.031 146.453 122.678 145.601 120.987 145.847C119.292 146.064 118.208 147.248 117.987 147.034C117.879 146.941 118.011 146.484 118.48 145.951C118.941 145.422 119.78 144.852 120.835 144.706C121.891 144.564 122.849 144.887 123.431 145.274C124.024 145.662 124.267 146.068 124.189 146.188Z" fill="#343C44"/>
<path d="M108.989 147.442C108.789 147.686 107.459 146.725 105.639 146.802C103.819 146.851 102.527 147.904 102.319 147.674C102.218 147.572 102.409 147.139 102.973 146.664C103.525 146.191 104.482 145.715 105.617 145.674C106.752 145.636 107.727 146.044 108.297 146.479C108.876 146.914 109.087 147.332 108.989 147.442Z" fill="#343C44"/>
<path d="M114.695 158.114C114.681 158.026 115.64 157.784 117.2 157.463C117.596 157.391 117.968 157.283 118.014 157.007C118.085 156.713 117.885 156.298 117.656 155.849C117.207 154.915 116.736 153.938 116.242 152.912C114.27 148.728 112.809 145.274 112.98 145.197C113.15 145.118 114.886 148.447 116.858 152.633C117.335 153.665 117.791 154.65 118.225 155.591C118.411 156.031 118.71 156.524 118.552 157.136C118.467 157.441 118.191 157.679 117.94 157.767C117.69 157.864 117.465 157.886 117.269 157.913C115.691 158.12 114.709 158.202 114.695 158.114Z" fill="#343C44"/>
<path d="M117.198 176.455C117.198 176.455 109.613 177.528 101.713 173.586C101.713 173.586 106.138 181.211 117.397 179.288L117.198 176.455Z" fill="#FF9A6C"/>
<path d="M109.926 162.657C110.138 162.296 110.364 161.918 110.728 161.707C111.128 161.475 111.625 161.486 112.081 161.571C112.744 161.695 113.397 161.974 113.852 162.469C114.307 162.965 114.529 163.702 114.299 164.333C114.124 164.984 113.148 165.34 112.481 165.457C111.814 165.574 111.123 165.38 110.533 165.049C110.037 164.772 109.561 164.329 109.536 163.764C109.518 163.368 109.725 163 109.926 162.657Z" fill="#FF9A6C"/>
<path d="M110.246 160.461C110.499 160.428 110.633 162.117 112.179 163.205C113.721 164.298 115.516 163.969 115.548 164.205C115.58 164.309 115.17 164.564 114.409 164.643C113.661 164.726 112.549 164.569 111.603 163.904C110.66 163.237 110.203 162.285 110.092 161.596C109.973 160.893 110.13 160.46 110.246 160.461Z" fill="#343C44"/>
<path d="M108.852 141.347C108.731 141.782 107.154 141.701 105.336 142.061C103.512 142.385 102.074 143.033 101.801 142.673C101.679 142.499 101.906 142.081 102.472 141.625C103.033 141.171 103.949 140.71 105.041 140.503C106.133 140.299 107.154 140.396 107.843 140.615C108.538 140.835 108.903 141.141 108.852 141.347Z" fill="#343C44"/>
<path d="M123.225 140.491C122.938 140.868 121.678 140.596 120.197 140.692C118.712 140.743 117.481 141.139 117.164 140.791C117.023 140.622 117.194 140.252 117.715 139.876C118.23 139.501 119.11 139.159 120.13 139.108C121.149 139.058 122.056 139.311 122.598 139.634C123.15 139.957 123.35 140.308 123.225 140.491Z" fill="#343C44"/>
<path d="M86.9757 135.699C88.0215 134.096 89.9022 133.27 91.6933 132.583C99.4189 129.612 107.5 127.563 115.711 126.492C116.734 128.171 115.789 130.454 114.245 131.676C112.703 132.898 110.72 133.38 108.873 134.068C107.026 134.755 105.134 135.815 104.372 137.626C103.563 139.552 104.246 141.834 103.536 143.798C102.313 147.177 97.5761 148.267 96.3731 151.653C95.4626 154.214 96.9522 156.941 97.3253 159.632C97.7472 162.681 96.6129 165.905 94.372 168.026C92.6048 169.698 90.1848 170.636 87.7508 170.683C87.1886 160.986 86.6264 151.288 86.0652 141.591C85.9478 139.572 85.8702 137.396 86.9757 135.699Z" fill="#343C44"/>
<path d="M67.356 160.193C68.8944 158.82 70.8228 157.632 71.4358 155.669C72.3284 152.808 70.0218 149.446 71.5074 146.842C72.8627 144.466 76.8549 144.585 78.1146 142.159C79.0988 140.264 77.9684 138.586 78.3425 136.921C78.7167 135.256 81.0899 133.796 82.7904 133.995L96.0904 153.189C97.3263 159.627 98.5681 163.055 97.18 166.821C96.4188 168.887 95.4257 170.901 95.1272 173.082C94.8287 175.263 95.3889 177.734 97.179 179.023C89.2275 179.643 81.7745 175.5 74.8877 171.493C72.4577 170.079 70.0288 168.666 67.5988 167.252C66.8406 166.81 66.0505 166.34 65.5958 165.591C64.5281 163.831 65.8177 161.565 67.356 160.193Z" fill="#343C44"/>
<path d="M74.6885 169.555C74.6885 169.555 74.9711 169.66 75.5383 169.718C76.1015 169.774 76.9572 169.8 78.015 169.543C79.0628 169.29 80.3345 168.756 81.4698 167.692C82.6062 166.643 83.5217 165.008 83.7446 163.064C83.853 162.095 83.7873 161.054 83.4838 160.027C83.1774 158.994 82.6022 158.036 82.0072 157.084C81.4201 156.13 80.7793 155.151 80.4837 154.03C80.1912 152.93 80.1892 151.621 80.9096 150.673C81.633 149.708 82.9774 149.472 84.2232 148.971C84.8511 148.722 85.4988 148.334 85.9188 147.721C86.3387 147.11 86.48 146.357 86.4661 145.644C86.4491 144.195 85.8282 142.869 85.5615 141.52C85.4252 140.844 85.3765 140.144 85.5486 139.497C85.7168 138.85 86.1267 138.283 86.6959 137.891C87.8442 137.075 89.3089 136.945 90.719 136.821C92.1369 136.72 93.6196 136.401 94.8176 135.62C96.0286 134.875 96.9998 133.808 97.6227 132.592C98.2396 131.363 98.4625 130.043 98.6585 128.798C98.8506 127.548 99.0227 126.334 99.4377 125.238C99.8536 124.147 100.523 123.201 101.308 122.431C102.912 120.911 104.937 120.102 106.81 119.95C108.695 119.791 110.405 120.289 111.736 120.971C113.078 121.655 114.081 122.516 114.798 123.294C116.232 124.876 116.632 126.033 116.692 125.996C116.699 125.993 116.673 125.923 116.616 125.791C116.555 125.66 116.48 125.456 116.341 125.21C116.083 124.708 115.641 123.99 114.933 123.175C114.224 122.365 113.219 121.466 111.855 120.742C110.503 120.021 108.747 119.481 106.784 119.625C104.839 119.763 102.73 120.579 101.042 122.154C100.216 122.953 99.5024 123.944 99.0566 125.093C98.6138 126.242 98.4337 127.488 98.2356 128.73C98.0366 129.971 97.8098 131.244 97.2277 132.392C96.6396 133.531 95.7201 134.536 94.5778 135.235C93.4394 135.967 92.0901 136.258 90.6742 136.362C89.2791 136.487 87.7109 136.605 86.4262 137.514C85.7884 137.949 85.2919 138.626 85.1008 139.377C84.9028 140.128 84.9665 140.896 85.1088 141.607C85.4003 143.036 85.9994 144.319 86.0113 145.651C86.0252 146.306 85.8969 146.955 85.5476 147.467C85.1973 147.98 84.6491 148.322 84.052 148.562C83.458 148.812 82.8191 148.983 82.2032 149.243C81.5912 149.494 80.9773 149.861 80.5683 150.413C79.7364 151.534 79.7753 152.964 80.0887 154.132C80.4181 155.337 81.0887 156.334 81.6798 157.283C82.2818 158.229 82.842 159.153 83.1406 160.127C83.4381 161.101 83.5107 162.095 83.4172 163.025C83.2241 164.893 82.3664 166.476 81.2887 167.502C80.2101 168.547 78.9852 169.092 77.9682 169.366C75.8915 169.894 74.6825 169.472 74.6885 169.555Z" fill="#9A9EA2"/>
<path d="M64.0812 155.909C64.0812 155.909 63.922 156.103 63.8185 156.556C63.714 157.001 63.7269 157.736 64.1598 158.52C64.3827 158.901 64.7081 159.297 65.1777 159.585C65.6444 159.87 66.2375 160.045 66.8763 160.036C68.142 160.049 69.6336 159.289 70.359 157.833C70.7262 157.122 70.9252 156.288 70.9262 155.419C70.9252 154.546 70.6993 153.659 70.367 152.803C69.7361 151.09 68.5908 149.42 68.5659 147.417C68.544 146.447 68.7729 145.392 69.4884 144.695C70.1968 143.98 71.2914 143.805 72.379 143.796C73.4686 143.76 74.6567 143.898 75.8219 143.441C76.3941 143.21 76.9105 142.789 77.2379 142.254C77.5712 141.722 77.7454 141.114 77.819 140.507C77.9653 139.272 77.6757 138.104 77.5314 136.987C77.3573 135.869 77.426 134.768 77.7155 133.724C78.2996 131.641 79.7007 129.891 81.4172 128.888C83.1406 127.852 85.1347 127.741 86.9318 127.633C88.7408 127.538 90.4881 127.425 91.9658 126.843C93.4435 126.294 94.6306 125.464 95.5291 124.61C96.4386 123.76 97.0546 122.872 97.4814 122.115C98.3243 120.581 98.4277 119.602 98.4277 119.602C98.372 119.581 98.2019 120.546 97.3252 122.024C96.8814 122.754 96.2575 123.61 95.353 124.421C94.4594 125.238 93.2902 126.023 91.8534 126.536C90.4225 127.077 88.7279 127.172 86.9119 127.25C85.1158 127.343 83.0471 127.431 81.2022 128.519C79.3833 129.571 77.9046 131.4 77.2797 133.601C76.9692 134.695 76.8966 135.896 77.0757 137.046C77.226 138.191 77.4976 139.33 77.3603 140.451C77.2469 141.567 76.6667 142.63 75.6468 143.017C74.6428 143.421 73.4875 143.311 72.3701 143.344C71.2665 143.356 70.0137 143.536 69.1769 144.383C68.3401 145.213 68.1122 146.391 68.1391 147.428C68.1599 148.484 68.4744 149.489 68.8674 150.377C69.2525 151.275 69.6824 152.108 70.0098 152.94C70.3401 153.77 70.56 154.608 70.57 155.422C70.5789 156.237 70.4018 157.02 70.0685 157.685C69.4137 159.045 68.0545 159.762 66.8723 159.778C66.2803 159.8 65.728 159.648 65.2922 159.396C64.8544 159.144 64.5389 158.781 64.316 158.428C63.8842 157.702 63.8394 157.005 63.911 156.572C63.9797 156.131 64.1051 155.919 64.0812 155.909Z" fill="#343C44"/>
<path d="M147.891 160.641C147.818 160.636 148.322 161.4 147.865 162.712C147.637 163.328 147.118 164.08 146.213 164.382C145.332 164.682 144.105 164.45 143.294 163.588C142.888 163.165 142.652 162.574 142.611 161.929C142.568 161.285 142.696 160.603 142.915 159.925C143.338 158.584 144.199 157.126 144.067 155.378C143.972 153.683 143.108 151.949 141.648 150.802C140.926 150.225 140.08 149.783 139.17 149.502C138.257 149.209 137.283 149.144 136.338 149.096C135.388 149.048 134.455 149.022 133.588 148.81C132.727 148.604 131.944 148.165 131.448 147.485C130.95 146.809 130.731 145.966 130.674 145.142C130.614 144.311 130.716 143.494 130.88 142.7C131.205 141.117 131.682 139.58 131.593 138.067C131.514 136.563 130.939 135.227 130.172 134.219C129.403 133.192 128.408 132.564 127.581 132.04C126.742 131.517 126.028 131.065 125.509 130.614C124.447 129.72 124.264 128.911 124.206 128.946C124.199 128.949 124.21 128.996 124.24 129.085C124.275 129.172 124.307 129.312 124.399 129.474C124.555 129.807 124.868 130.272 125.389 130.748C125.902 131.231 126.618 131.714 127.44 132.256C128.257 132.802 129.197 133.427 129.91 134.415C130.624 135.387 131.151 136.667 131.209 138.085C131.279 139.509 130.808 141.002 130.462 142.615C130.289 143.422 130.173 144.288 130.233 145.172C130.291 146.05 130.518 146.977 131.082 147.753C131.644 148.533 132.547 149.035 133.477 149.255C134.412 149.484 135.369 149.507 136.315 149.556C137.26 149.604 138.18 149.666 139.034 149.94C139.891 150.202 140.687 150.616 141.365 151.153C142.731 152.219 143.54 153.828 143.641 155.404C143.782 157.002 142.985 158.401 142.549 159.81C142.329 160.519 142.198 161.247 142.254 161.956C142.306 162.661 142.589 163.342 143.056 163.811C143.984 164.759 145.325 164.979 146.298 164.625C147.297 164.263 147.82 163.431 148.038 162.771C148.263 162.09 148.202 161.515 148.114 161.159C148.013 160.8 147.891 160.641 147.891 160.641Z" fill="#343C44"/>
<path d="M138.376 238.244V227.278C139.608 221.131 139.024 213.839 136.154 208.217C134.48 204.94 130.645 199.717 129.247 197.761L118.285 183.608C112.257 187.978 102.818 184.82 94.7191 181.883C94.7191 181.883 86.7178 186.29 82.9953 190.436C79.0867 194.792 92.4534 249.337 92.4534 249.337C86.3954 261.404 78.5772 272.096 77.3911 283.118L140.677 285.547L137.986 256.654L138.376 238.244Z" fill="#9A9EA2"/>
<path d="M137.505 256.969C137.469 256.967 137.454 256.528 137.456 255.734C137.466 254.836 137.479 253.711 137.494 252.376C137.543 249.431 137.606 245.57 137.676 241.3C137.758 236.972 137.872 233.055 138.01 230.221C138.077 228.804 138.149 227.658 138.213 226.866C138.278 226.075 138.331 225.639 138.366 225.641C138.402 225.643 138.417 226.082 138.415 226.875C138.405 227.774 138.392 228.897 138.377 230.233C138.329 233.179 138.265 237.041 138.195 241.311C138.113 245.637 137.999 249.555 137.861 252.389C137.794 253.806 137.723 254.953 137.658 255.744C137.593 256.536 137.541 256.971 137.505 256.969Z" fill="#343C44"/>
<path d="M166.411 266.938C166.411 266.938 172.575 267.27 176.4 269.653C180.225 272.037 186.356 275.733 188.89 280.327C190.053 282.436 186.737 282.882 185.101 281.657C183.464 280.431 180.958 278.127 179.714 277.843C178.47 277.56 178.47 277.56 178.47 277.56C178.47 277.56 180.969 283.099 182.259 285.045C183.548 286.991 184.663 290.318 180.804 290.47C180.804 290.47 178.201 293.839 175.574 291.343C175.574 291.343 173.523 294.4 170.219 290.161C170.219 290.161 168.296 292.584 167.493 291.661C166.69 290.738 164.061 289.26 163.293 286.232C162.525 283.204 159.298 275.839 159.298 275.839L166.411 266.938Z" fill="#FFBF9D"/>
<path d="M304.534 181.785C305.225 181.794 333.475 178.832 333.475 178.832C333.475 178.832 335.866 167.393 335.74 164.42C335.614 161.448 333.599 141.781 333.599 141.781L344.18 136.797C344.18 136.797 358.321 184.277 355.229 188.225C352.138 192.174 346.345 195.7 345.847 195.721C345.349 195.742 318.477 207.599 299.774 201.437C281.07 195.275 304.534 181.785 304.534 181.785Z" fill="#FFBF9D"/>
<path d="M279.779 207.416C283.941 211.524 291.106 214.941 303.057 211.97C326.705 206.09 344.423 201.116 351.473 197.305C358.523 193.495 355.772 176.716 356.365 175.954C358.152 173.658 356.192 168.719 353.648 167.952C346.418 165.772 333.825 166.631 333.195 167.289C329.479 171.167 332.868 175.889 332.868 175.889L301.69 179.955C301.69 179.955 296.267 179.587 290.236 180.685" fill="#9A9EA2"/>
<path d="M290.236 180.684C290.236 180.684 290.488 180.619 290.984 180.524C291.48 180.429 292.22 180.306 293.192 180.183C295.136 179.946 298.013 179.675 301.698 179.828L301.673 179.829C309.118 178.836 319.872 177.401 332.84 175.67L332.689 176.015C331.729 174.545 331.113 172.778 331.255 170.916C331.32 169.99 331.649 169.078 332.147 168.279C332.373 167.858 332.708 167.519 333.007 167.149C333.106 167.065 333.289 166.974 333.413 166.931L333.769 166.843C334.008 166.78 334.238 166.76 334.473 166.716C338.209 166.239 342.099 166.222 346.099 166.472C348.097 166.612 350.125 166.851 352.147 167.303C352.651 167.418 353.152 167.563 353.657 167.692C354.185 167.861 354.687 168.147 355.084 168.519C355.897 169.255 356.45 170.212 356.842 171.215C357.22 172.226 357.402 173.333 357.254 174.443C357.145 174.991 356.981 175.551 356.628 176.021C356.535 176.118 356.547 176.389 356.534 176.647L356.543 177.437C356.618 179.566 356.716 181.736 356.66 183.922C356.567 187.034 356.293 190.17 355.178 193.061C354.62 194.487 353.805 195.872 352.586 196.851C351.988 197.367 351.28 197.688 350.62 198.017C349.958 198.368 349.265 198.638 348.595 198.949C345.875 200.111 343.135 201.056 340.442 201.946C337.748 202.834 335.093 203.64 332.494 204.398C322.094 207.413 312.635 209.776 304.692 211.748C302.714 212.257 300.792 212.669 298.961 212.934C297.123 213.149 295.376 213.299 293.741 213.21C290.469 213.117 287.696 212.369 285.596 211.45C283.492 210.514 282.041 209.444 281.118 208.675C280.191 207.903 279.782 207.415 279.782 207.415C279.807 207.389 280.241 207.852 281.185 208.594C282.124 209.334 283.582 210.368 285.677 211.267C287.767 212.147 290.514 212.859 293.751 212.923C295.368 212.997 297.097 212.835 298.916 212.61C300.733 212.334 302.623 211.917 304.605 211.395C312.534 209.379 321.982 206.98 332.361 203.943C334.954 203.181 337.604 202.37 340.288 201.479C342.97 200.588 345.702 199.641 348.396 198.486C349.058 198.178 349.746 197.909 350.396 197.564C351.059 197.231 351.725 196.928 352.263 196.457C353.386 195.555 354.163 194.25 354.699 192.873C355.776 190.087 356.053 186.991 356.144 183.91C356.2 181.743 356.102 179.595 356.028 177.451L356.019 176.639C356.02 176.502 356.027 176.363 356.04 176.217C356.054 176.133 356.051 176.077 356.083 175.97C356.104 175.911 356.131 175.852 356.161 175.799L356.21 175.719C356.505 175.331 356.648 174.848 356.745 174.364C356.877 173.374 356.716 172.339 356.361 171.393C355.997 170.453 355.472 169.555 354.743 168.896C354.381 168.558 353.964 168.326 353.511 168.176C353.017 168.05 352.529 167.907 352.033 167.794C350.05 167.348 348.043 167.108 346.062 166.967C342.104 166.711 338.209 166.724 334.543 167.182C334.32 167.222 334.085 167.244 333.875 167.301L333.555 167.378C333.467 167.419 333.429 167.422 333.348 167.47C333.07 167.817 332.752 168.134 332.544 168.522C332.08 169.262 331.774 170.098 331.711 170.956C331.568 172.67 332.157 174.388 333.049 175.76L333.245 176.061L332.898 176.105C319.921 177.759 309.159 179.129 301.708 180.078L301.696 180.079L301.682 180.078C298.028 179.89 295.15 180.119 293.208 180.314C292.236 180.415 291.494 180.517 290.995 180.589C290.496 180.664 290.236 180.684 290.236 180.684Z" fill="#343C44"/>
<path d="M449.528 61.7593L450.618 63.7072C453.818 69.432 451.751 76.656 446.003 79.8424L205.829 212.958L193.151 190.279L433.325 57.1639C439.074 53.9775 446.328 56.0344 449.528 61.7593Z" fill="#3D5EE1"/>
<path d="M395.194 30.569L424.605 83.1796L407.218 92.8162L377.807 40.2045C377.209 39.1355 377.595 37.786 378.669 37.1905L392.166 29.71C393.242 29.1145 394.596 29.4989 395.194 30.569Z" fill="#3D5EE1"/>
<path d="M366.75 58.6905L388.179 97.0237C389.045 98.5743 388.486 100.531 386.928 101.395L375.182 107.906C373.625 108.769 371.659 108.212 370.792 106.66L349.363 68.3271C348.497 66.7765 349.056 64.8196 350.614 63.9557L362.36 57.4451C363.918 56.5821 365.883 57.1399 366.75 58.6905Z" fill="#3D5EE1"/>
<path d="M368.277 66.0602L381.547 89.7969L408.551 74.8297L395.281 51.0931L368.277 66.0602Z" fill="#3D5EE1"/>
<path d="M429.794 59.1176C429.864 59.2425 382.731 85.4978 324.531 117.754C266.313 150.022 219.077 176.07 219.007 175.945C218.938 175.82 266.061 149.571 324.28 117.304C382.478 85.0469 429.724 58.9928 429.794 59.1176Z" fill="#343C44"/>
<path d="M108.561 256.837C126.265 288.507 163.613 301.436 191.978 285.715C220.344 269.994 228.987 231.575 211.283 199.905C193.578 168.235 156.231 155.306 127.866 171.027C99.4993 186.748 90.8572 225.166 108.561 256.837ZM195.912 208.424C208.317 230.616 202.261 257.537 182.385 268.553C162.509 279.57 136.338 270.51 123.932 248.318C111.527 226.126 117.583 199.205 137.459 188.188C157.335 177.172 183.505 186.232 195.912 208.424Z" fill="#3D5EE1"/>
<path d="M245.951 160.678L259.058 184.125C260.8 187.241 259.675 191.174 256.545 192.907L255.48 193.498C252.351 195.233 248.401 194.112 246.66 190.996L233.552 167.549C231.81 164.433 232.935 160.5 236.065 158.766L237.129 158.176C240.259 156.441 244.208 157.562 245.951 160.678Z" fill="#3D5EE1"/>
<path d="M271.122 146.732L284.229 170.179C285.972 173.295 284.846 177.228 281.717 178.962L280.652 179.552C277.523 181.287 273.573 180.167 271.832 177.05L258.724 153.603C256.982 150.487 258.107 146.555 261.237 144.821L262.301 144.23C265.431 142.496 269.379 143.616 271.122 146.732Z" fill="#3D5EE1"/>
<path d="M245.677 160.274C245.802 160.206 248.845 165.523 252.472 172.149C256.1 178.777 258.939 184.204 258.814 184.272C258.688 184.341 255.645 179.024 252.017 172.397C248.39 165.77 245.551 160.342 245.677 160.274Z" fill="#343C44"/>
<path d="M234.126 168.501C234.251 168.431 237.221 173.506 240.758 179.834C244.297 186.164 247.063 191.35 246.939 191.419C246.813 191.488 243.845 186.414 240.305 180.084C236.769 173.757 234.002 168.57 234.126 168.501Z" fill="#343C44"/>
<path d="M271.003 146.516C271.129 146.447 274.222 151.744 277.912 158.345C281.604 164.948 284.494 170.356 284.369 170.425C284.243 170.495 281.151 165.199 277.459 158.596C273.768 151.994 270.878 146.586 271.003 146.516Z" fill="#343C44"/>
<path d="M258.848 153.821C258.974 153.753 262.002 159.015 265.612 165.572C269.222 172.132 272.047 177.503 271.921 177.572C271.795 177.641 268.767 172.381 265.157 165.821C261.548 159.262 258.723 153.889 258.848 153.821Z" fill="#343C44"/>
<path d="M331.025 118.09C333.313 118.355 335.666 116.685 336.16 114.444C336.655 112.203 335.223 109.705 333.034 108.99C334.46 107.539 334.822 105.157 333.888 103.351C332.956 101.546 330.799 100.454 328.784 100.767C328.704 98.7636 327.505 96.8414 325.739 95.8804C323.972 94.9203 321.699 94.9559 319.964 95.9725C317.745 94.0702 314.16 93.9909 311.859 95.7951C309.904 95.4315 307.77 96.4639 306.849 98.2187C305.927 99.9734 306.294 102.307 307.709 103.698" fill="#343C44"/>
<path d="M310.838 100.422L311.871 100.425C322.27 100.456 330.901 108.432 331.706 118.756C332.455 128.358 333.157 138.975 333.078 144.125C332.914 154.788 322.197 156.414 322.197 156.414L323.064 169.228L297.076 168.348L294.919 121.879C293.992 110.804 299.694 101.036 310.838 100.422Z" fill="#FFBF9D"/>
<path d="M322.286 156.397C322.286 156.397 315.446 156.787 308.267 152.266C308.267 152.266 311.711 160.338 322.4 159.41L322.286 156.397Z" fill="#FF9A6C"/>
<path d="M325.828 128.771C325.854 129.575 325.193 130.26 324.349 130.303C323.507 130.345 322.802 129.729 322.777 128.925C322.751 128.121 323.412 127.435 324.254 127.393C325.097 127.35 325.802 127.967 325.828 128.771Z" fill="#343C44"/>
<path d="M329.388 123.961C329.198 124.159 328.043 123.302 326.396 123.301C324.752 123.277 323.541 124.116 323.364 123.915C323.276 123.826 323.47 123.468 323.998 123.089C324.516 122.71 325.401 122.344 326.426 122.352C327.45 122.361 328.311 122.739 328.807 123.125C329.312 123.512 329.482 123.872 329.388 123.961Z" fill="#343C44"/>
<path d="M310.98 128.061C311.006 128.865 310.344 129.55 309.5 129.593C308.659 129.635 307.954 129.02 307.928 128.215C307.902 127.411 308.565 126.724 309.406 126.682C310.25 126.639 310.954 127.256 310.98 128.061Z" fill="#343C44"/>
<path d="M313.211 124.22C313.021 124.418 311.864 123.561 310.219 123.56C308.576 123.536 307.365 124.375 307.187 124.173C307.099 124.084 307.291 123.726 307.821 123.347C308.339 122.968 309.223 122.602 310.249 122.61C311.274 122.618 312.135 122.997 312.63 123.382C313.132 123.771 313.304 124.131 313.211 124.22Z" fill="#343C44"/>
<path d="M319.147 136.392C319.139 136.298 320.163 136.125 321.821 135.919C322.241 135.877 322.639 135.795 322.711 135.51C322.81 135.208 322.636 134.757 322.434 134.268C322.042 133.255 321.632 132.192 321.201 131.078C319.489 126.536 318.252 122.803 318.436 122.735C318.621 122.669 320.158 126.295 321.869 130.837C322.281 131.957 322.675 133.025 323.05 134.045C323.207 134.522 323.48 135.062 323.263 135.688C323.149 136 322.84 136.227 322.571 136.297C322.301 136.379 322.064 136.383 321.857 136.393C320.187 136.481 319.153 136.485 319.147 136.392Z" fill="#343C44"/>
<path d="M314.658 117.92C314.44 118.335 313.031 117.88 311.294 117.819C309.56 117.719 308.095 118.04 307.938 117.608C307.87 117.401 308.18 117.03 308.807 116.699C309.429 116.368 310.373 116.114 311.414 116.162C312.455 116.212 313.356 116.551 313.926 116.938C314.501 117.323 314.754 117.722 314.658 117.92Z" fill="#343C44"/>
<path d="M329.488 117.209C329.14 117.58 327.784 117.189 326.15 117.166C324.518 117.096 323.133 117.407 322.815 117.016C322.676 116.827 322.895 116.455 323.5 116.104C324.097 115.755 325.093 115.471 326.215 115.502C327.338 115.535 328.309 115.876 328.876 116.258C329.453 116.644 329.642 117.028 329.488 117.209Z" fill="#343C44"/>
<path d="M330.691 113.861C330.691 113.861 327.887 107.174 324.658 105.607C320.749 103.708 319.05 107.981 315.323 106.932C311.594 105.883 307.863 104.062 304.042 106.921C299.858 110.052 301.807 112.264 301.535 116.994C300.431 136.173 296.897 141.587 295.924 132.548C295.817 131.559 293.061 130.763 292.665 126.58C292.152 121.155 291.962 114.569 293.189 110.725C294.224 107.484 296.088 105.249 299.426 102.788C304.696 98.9027 311.918 98.8413 316.822 99.3476C321.724 99.8519 331.164 105.5 330.691 113.861Z" fill="#343C44"/>
<path d="M296.606 132.256C296.544 130.61 295.124 129.307 293.476 129.457C291.478 129.64 289.252 130.763 289.371 134.873C289.583 142.164 296.891 140.448 296.897 140.239C296.902 140.097 296.723 135.307 296.606 132.256Z" fill="#FFBF9D"/>
<path d="M295.225 137.542C295.192 137.52 295.1 137.636 294.887 137.74C294.68 137.842 294.32 137.918 293.934 137.786C293.152 137.527 292.465 136.322 292.391 135.009C292.354 134.346 292.475 133.71 292.696 133.18C292.904 132.64 293.239 132.258 293.627 132.177C294.012 132.076 294.295 132.301 294.39 132.503C294.495 132.704 294.452 132.851 294.492 132.863C294.513 132.881 294.645 132.736 294.577 132.437C294.543 132.293 294.452 132.124 294.276 131.988C294.096 131.851 293.835 131.786 293.566 131.823C293.002 131.877 292.509 132.409 292.266 132.991C291.992 133.576 291.84 134.291 291.883 135.036C291.972 136.504 292.767 137.857 293.835 138.131C294.355 138.25 294.779 138.083 294.996 137.905C295.217 137.719 295.251 137.554 295.225 137.542Z" fill="#FF9A6C"/>
<path d="M296.793 118.132C297.742 118.781 298.744 119.451 299.889 119.567C301.035 119.683 302.347 119.032 302.543 117.902C302.632 117.395 302.508 116.805 302.845 116.415C303.246 115.948 303.983 116.097 304.596 116.163C306.723 116.394 309.218 114.061 309.766 112.001C310.307 112.811 311.495 113.06 312.319 112.535C313.141 112.01 313.442 111.71 314.088 110.978C314.733 110.247 315.637 109.594 316.604 109.734C317.146 109.812 317.651 110.134 318.195 110.088C319.158 110.005 319.63 108.886 319.779 107.936C319.927 106.986 320.043 105.878 320.859 105.363C321.615 104.887 322.593 105.166 323.477 105.299C324.362 105.432 325.505 105.228 325.734 104.367C325.854 103.915 325.661 103.438 325.411 103.043C324.276 101.253 321.793 100.451 319.818 101.239C319.11 98.8281 316.853 96.9456 314.345 96.6751C311.836 96.4036 309.226 97.759 308.014 99.9626C306.471 98.5596 304.224 97.9661 302.186 98.4228C300.147 98.8796 298.373 100.374 297.581 102.299C295.801 101.827 293.769 102.507 292.636 103.953C291.504 105.398 291.337 107.526 292.229 109.13C290.911 109.876 289.78 111.173 289.749 112.682C289.717 114.191 291.188 115.699 292.652 115.307C292.058 116.48 292.534 118.076 293.675 118.736C294.816 119.396 296.444 119.017 297.173 117.921" fill="#343C44"/>
<path d="M320.358 103.391C320.363 103.391 320.362 103.436 320.356 103.525C320.346 103.612 320.34 103.745 320.308 103.914C320.239 104.251 320.102 104.748 319.771 105.317C319.439 105.877 318.925 106.524 318.143 107.036C317.376 107.554 316.326 107.947 315.141 107.878L315.266 107.717C315.492 108.341 315.427 109.089 315.113 109.729C314.815 110.38 314.348 110.957 313.854 111.518C313.601 111.788 313.381 112.105 313.032 112.353C312.693 112.591 312.287 112.727 311.871 112.778C311.045 112.881 310.113 112.623 309.516 111.93L309.79 111.852C309.599 113.301 308.767 114.748 307.45 115.628C306.752 116.127 305.89 116.431 305.043 116.405C304.195 116.394 303.409 116.145 302.675 115.88L302.871 115.795C302.475 116.699 301.868 117.471 301.132 118.04C300.41 118.608 299.447 118.939 298.58 118.724C296.853 118.354 295.711 116.919 295.484 115.572L295.649 115.649C294.79 116.112 293.87 116.153 293.133 116.01C292.384 115.871 291.798 115.546 291.38 115.225C290.961 114.898 290.714 114.563 290.565 114.331C290.429 114.091 290.372 113.958 290.381 113.954C290.418 113.924 290.622 114.509 291.455 115.127C291.871 115.422 292.444 115.719 293.164 115.835C293.875 115.958 294.747 115.898 295.54 115.455L295.677 115.378L295.706 115.532C295.934 116.79 297.034 118.129 298.635 118.453C299.422 118.639 300.268 118.343 300.953 117.806C301.64 117.27 302.22 116.527 302.588 115.676L302.646 115.541L302.785 115.591C303.506 115.848 304.266 116.083 305.049 116.091C305.834 116.11 306.607 115.84 307.271 115.368C308.516 114.535 309.297 113.181 309.484 111.809L309.531 111.464L309.759 111.731C310.263 112.325 311.095 112.571 311.838 112.48C312.211 112.436 312.571 112.316 312.868 112.111C313.156 111.915 313.386 111.602 313.643 111.329C314.136 110.777 314.59 110.222 314.874 109.617C315.172 109.019 315.231 108.361 315.038 107.796L314.979 107.622L315.163 107.635C316.28 107.713 317.291 107.357 318.039 106.872C318.803 106.393 319.317 105.78 319.657 105.246C320.325 104.146 320.306 103.374 320.358 103.391Z" fill="#9A9EA2"/>
<path d="M319.118 141.83C319.067 141.559 317.281 141.998 315.633 140.791C313.982 139.586 313.71 137.641 313.457 137.688C313.338 137.691 313.215 138.197 313.393 139.002C313.562 139.794 314.102 140.877 315.109 141.617C316.118 142.353 317.255 142.496 318.002 142.375C318.766 142.257 319.159 141.949 319.118 141.83Z" fill="#343C44"/>
<path d="M374.305 419.039L381.375 443.011C381.375 443.011 408.219 443.906 409.959 448.209L363.771 463.527L351.217 426.627L374.305 419.039Z" fill="#9A9EA2"/>
<path d="M366.426 445.756C365.613 446.296 365.33 447.501 365.839 448.332C366.346 449.162 367.575 449.459 368.398 448.933C369.22 448.408 369.604 446.971 369.005 446.203C368.407 445.434 366.945 445.164 366.274 445.871" fill="#E0E0E0"/>
<path d="M407.355 446.484C407.355 446.484 409.709 446.693 409.959 448.212L363.771 463.53L362.652 459.761L407.355 446.484Z" fill="#343C44"/>
<path d="M382.044 442.525C382.112 442.752 381.018 443.228 380.15 444.318C379.253 445.386 379.006 446.548 378.769 446.527C378.546 446.553 378.433 445.098 379.508 443.798C380.572 442.487 382.024 442.303 382.044 442.525Z" fill="white"/>
<path d="M387.556 442.92C387.68 443.12 386.832 443.827 386.383 445.03C385.899 446.221 386.049 447.312 385.822 447.377C385.622 447.483 385.026 446.219 385.612 444.733C386.185 443.241 387.479 442.707 387.556 442.92Z" fill="white"/>
<path d="M392.239 447.775C392.05 447.891 391.361 446.874 391.528 445.452C391.685 444.028 392.587 443.191 392.745 443.347C392.934 443.489 392.47 444.376 392.351 445.545C392.203 446.71 392.456 447.678 392.239 447.775Z" fill="white"/>
<path d="M379.824 437.245C379.798 437.481 378.66 437.514 377.414 438.024C376.158 438.507 375.309 439.262 375.127 439.109C374.942 438.99 375.632 437.836 377.109 437.258C378.579 436.668 379.876 437.033 379.824 437.245Z" fill="white"/>
<path d="M266.504 419.25L256.447 442.139C256.447 442.139 276.434 460.006 274.99 464.416L229.718 446.593L243.919 410.289L266.504 419.25Z" fill="#9A9EA2"/>
<path d="M243.224 434.673C242.253 434.567 241.259 435.309 241.112 436.271C240.966 437.232 241.715 438.247 242.684 438.369C243.652 438.493 244.874 437.638 244.912 436.666C244.95 435.694 244.003 434.552 243.033 434.664" fill="#E0E0E0"/>
<path d="M274.111 461.428C274.111 461.428 275.78 463.095 274.991 464.418L229.719 446.596L231.294 442.992L274.111 461.428Z" fill="#343C44"/>
<path d="M257.271 442.201C257.177 442.418 256.032 442.083 254.663 442.363C253.287 442.606 252.348 443.34 252.179 443.172C251.992 443.049 252.844 441.863 254.507 441.554C256.168 441.229 257.4 442.019 257.271 442.201Z" fill="white"/>
<path d="M261.244 446.024C261.21 446.257 260.103 446.255 258.983 446.89C257.844 447.492 257.255 448.425 257.039 448.329C256.817 448.282 257.176 446.933 258.584 446.169C259.985 445.392 261.322 445.812 261.244 446.024Z" fill="white"/>
<path d="M261.694 452.744C261.475 452.712 261.603 451.491 262.65 450.509C263.69 449.519 264.921 449.454 264.94 449.675C264.993 449.906 264.066 450.287 263.219 451.106C262.354 451.905 261.922 452.809 261.694 452.744Z" fill="white"/>
<path d="M258.983 436.725C258.811 436.89 257.917 436.186 256.634 435.779C255.359 435.345 254.221 435.38 254.181 435.146C254.116 434.936 255.389 434.495 256.893 434.996C258.401 435.486 259.16 436.596 258.983 436.725Z" fill="white"/>
<path d="M283.454 293.516L267.59 357.58C267.59 357.58 238.979 405.538 234.137 429.531L260.309 439.781C260.309 439.781 279.342 393.561 284.923 385.078C287.993 380.412 291.241 376.808 293.542 374.509C295.624 372.429 297.139 369.855 297.885 367.014L309.895 321.306L283.454 293.516Z" fill="#343C44"/>
<path d="M276.697 283.285C276.697 283.285 278.903 300.437 295.486 308.042L330.433 364.714C330.433 364.714 333.178 383.14 338.452 398.673C343.686 414.089 354.228 444.115 354.228 444.115L382.975 433.417L364.655 371.052L361.656 349.424L333.134 277.142L308.637 262.516L276.697 283.285Z" fill="#343C44"/>
<path d="M276.697 283.283C276.697 283.283 276.868 283.159 277.221 282.922C277.586 282.68 278.114 282.33 278.807 281.871C280.223 280.94 282.305 279.571 285.014 277.791C290.475 274.22 298.451 269.003 308.558 262.393L308.634 262.344L308.711 262.39C315.854 266.642 324.087 271.541 333.229 276.983L333.282 277.015L333.305 277.073C341.287 297.256 351.028 321.889 361.882 349.333L361.893 349.36L361.897 349.389C362.848 356.223 363.864 363.541 364.903 371.016L364.895 370.98C369.848 387.832 375.143 405.848 380.602 424.419C381.481 427.41 382.355 430.386 383.223 433.343L383.291 433.573L383.065 433.658C373.275 437.3 363.669 440.873 354.318 444.351L354.073 444.442L353.988 444.198C349.002 429.821 344.202 415.981 339.648 402.847C338.504 399.568 337.379 396.321 336.444 393.068C335.5 389.819 334.661 386.593 333.901 383.403C332.393 377.019 331.171 370.79 330.22 364.744L330.25 364.824C315.954 341.577 304.053 322.226 295.372 308.11L295.43 308.16C290.686 305.946 287.054 302.895 284.451 299.853C281.835 296.799 280.188 293.782 279.083 291.277C277.984 288.762 277.415 286.737 277.087 285.372C276.918 284.689 276.827 284.164 276.768 283.813C276.708 283.466 276.697 283.283 276.697 283.283C276.697 283.283 276.733 283.459 276.803 283.809C276.874 284.156 276.977 284.678 277.157 285.356C277.507 286.713 278.095 288.725 279.212 291.222C280.332 293.708 281.991 296.699 284.606 299.72C287.209 302.731 290.826 305.74 295.541 307.92L295.577 307.937L295.598 307.971C304.314 322.066 316.262 341.388 330.615 364.601L330.638 364.637L330.645 364.682C331.602 370.706 332.831 376.931 334.345 383.298C335.108 386.48 335.948 389.699 336.892 392.937C337.829 396.178 338.952 399.41 340.1 402.693C344.664 415.822 349.473 429.658 354.468 444.029L354.139 443.876C363.489 440.395 373.095 436.819 382.883 433.175L382.725 433.489C381.856 430.532 380.982 427.556 380.103 424.565C374.65 405.991 369.36 387.974 364.412 371.121L364.407 371.103L364.404 371.085C363.371 363.611 362.359 356.291 361.415 349.456L361.429 349.512C350.616 322.051 340.911 297.403 332.96 277.209L333.036 277.299C323.91 271.833 315.691 266.909 308.56 262.639L308.713 262.636C298.594 269.178 290.608 274.341 285.14 277.877C282.406 279.635 280.303 280.989 278.874 281.908C278.167 282.36 277.627 282.704 277.254 282.941C276.892 283.169 276.697 283.283 276.697 283.283Z" fill="#9A9EA2"/>
<path d="M292.044 160.841C292.044 160.841 283.669 167.266 279.597 174.436C274.72 183.021 274.195 195.761 274.042 215.532C273.9 233.828 276.647 238.908 275.586 245.8C273.511 259.267 271.968 304.46 271.968 304.46C271.968 304.46 298.802 294.184 304.046 289.646C309.29 285.107 309.29 285.107 309.29 285.107L342.911 296.17L336.126 255.036L331.473 203.76L325.512 176.561L324.47 165.892L295.665 154.289L292.044 160.841Z" fill="#9A9EA2"/>
<path d="M323.463 165.309C323.814 165.373 322.634 167.72 320.562 171.168L320.477 171.309L320.319 171.248C317.398 170.122 313.54 168.703 309.321 167.171C304.563 165.444 300.266 163.841 297.191 162.592C295.652 161.968 294.416 161.442 293.57 161.061C292.725 160.679 292.264 160.451 292.278 160.418C292.292 160.385 292.778 160.55 293.647 160.875C294.606 161.235 295.842 161.697 297.324 162.252C300.531 163.42 304.79 164.972 309.499 166.687C313.72 168.22 317.568 169.683 320.467 170.881L320.225 170.96C322.377 167.562 323.659 165.33 323.463 165.309Z" fill="#343C44"/>
<path d="M358.205 143.913C358.205 143.913 356.08 140.617 354.064 137.573C352.049 134.529 349.014 133.043 348.528 131.449C348.042 129.854 345.362 122.808 344.933 121.052C344.334 118.597 344.419 115.881 344.419 115.881C344.419 115.881 346.615 114.943 347.673 118.079C348.308 119.961 350.334 126.353 350.771 126.666C351.208 126.98 351.814 126.52 351.814 126.52C351.814 126.52 349.566 120.372 349.468 119.213C349.371 118.054 349.78 110.37 349.78 110.37C349.78 110.37 351.381 109.886 352.426 111.843C353.47 113.799 353.509 118.788 353.509 118.788L355.089 124.32L354.541 118.848L355.337 108.797C355.337 108.797 357.849 109.025 358.517 111.743C359.186 114.46 358.302 118.242 358.751 119.051C359.201 119.86 359.682 124.71 359.682 124.71C359.682 124.71 360.228 112.914 361.49 112.575C362.751 112.236 363.795 113.491 363.614 115.871C363.433 118.251 363.387 123.276 364.043 125.499C364.699 127.721 371.436 136.355 370.88 140.197C370.324 144.039 370.262 147.113 370.262 147.113H358.678L358.205 143.913Z" fill="#FFBF9D"/>
<path d="M317.722 173.617C318.368 173.86 345.943 180.656 345.943 180.656C345.943 180.656 352.103 170.713 353.002 167.875C353.9 165.037 358.732 145.862 358.732 145.862L370.386 144.766C370.386 144.766 367.44 194.203 363.182 196.866C358.925 199.529 352.271 200.88 351.797 200.731C351.322 200.583 322 202.616 306.522 190.479C291.047 178.341 317.722 173.617 317.722 173.617Z" fill="#FFBF9D"/>
<g opacity="0.3">
<path d="M297.955 199.784C297.955 199.784 301.912 204.78 309.23 206.385C316.547 207.991 332.113 210.826 332.113 210.826L331.353 203.22L297.475 199.609" fill="black"/>
</g>
<path d="M285.68 189.321C288.188 194.595 293.755 200.238 306.009 201.497C330.253 203.99 348.613 205.32 356.546 204.13C364.478 202.939 367.63 186.23 368.449 185.714C370.915 184.163 370.761 178.854 368.632 177.27C362.58 172.767 350.445 169.304 349.628 169.709C344.808 172.096 346.379 177.684 346.379 177.684L315.674 170.933C315.674 170.933 310.701 168.748 304.655 167.734" fill="#9A9EA2"/>
<path d="M304.655 167.734C304.655 167.734 304.914 167.758 305.413 167.837C305.912 167.917 306.65 168.051 307.606 168.266C309.515 168.702 312.312 169.424 315.725 170.818L315.701 170.81C323.04 172.401 333.642 174.699 346.426 177.47L346.167 177.743C345.767 176.036 345.793 174.166 346.562 172.462C346.94 171.614 347.561 170.867 348.303 170.286C348.659 169.968 349.09 169.762 349.498 169.515C349.621 169.47 349.824 169.445 349.954 169.447L350.318 169.485C350.564 169.507 350.787 169.565 351.024 169.604C354.699 170.423 358.363 171.726 362.039 173.319C363.87 174.128 365.695 175.04 367.441 176.15C367.876 176.43 368.298 176.736 368.729 177.029C369.167 177.367 369.541 177.806 369.788 178.291C370.3 179.259 370.493 180.345 370.517 181.422C370.527 182.5 370.319 183.603 369.8 184.598C369.511 185.076 369.165 185.547 368.672 185.869C368.552 185.928 368.471 186.188 368.371 186.427L368.109 187.172C367.451 189.199 366.801 191.273 366.001 193.309C364.849 196.204 363.519 199.059 361.481 201.398C360.468 202.55 359.227 203.576 357.746 204.083C357.008 204.365 356.233 204.427 355.499 204.513C354.756 204.617 354.014 204.637 353.275 204.702C350.321 204.873 347.421 204.832 344.586 204.755C341.75 204.676 338.976 204.534 336.274 204.364C325.463 203.672 315.763 202.685 307.62 201.845C305.586 201.653 303.638 201.388 301.826 201.015C300.025 200.593 298.33 200.143 296.824 199.504C293.78 198.308 291.427 196.663 289.768 195.086C288.109 193.492 287.111 191.995 286.507 190.958C285.899 189.917 285.681 189.321 285.681 189.321C285.714 189.304 285.963 189.888 286.596 190.905C287.226 191.92 288.243 193.385 289.906 194.941C291.571 196.479 293.909 198.078 296.93 199.237C298.426 199.855 300.107 200.289 301.893 200.694C303.697 201.051 305.615 201.3 307.657 201.481C315.802 202.275 325.505 203.224 336.303 203.889C339.002 204.051 341.771 204.188 344.599 204.261C347.425 204.333 350.317 204.369 353.245 204.197C353.973 204.132 354.712 204.112 355.441 204.008C356.179 203.92 356.908 203.86 357.575 203.601C358.939 203.135 360.116 202.171 361.092 201.058C363.057 198.803 364.377 195.987 365.516 193.122C366.31 191.102 366.953 189.051 367.616 187.009L367.886 186.244C367.934 186.115 367.988 185.987 368.05 185.854C368.093 185.781 368.109 185.727 368.176 185.637C368.215 185.589 368.261 185.543 368.307 185.502L368.381 185.445C368.79 185.179 369.09 184.773 369.348 184.352C369.81 183.466 370.013 182.438 370.003 181.428C369.983 180.422 369.796 179.399 369.337 178.532C369.112 178.091 368.799 177.733 368.425 177.437C368.004 177.15 367.593 176.851 367.168 176.576C365.455 175.484 363.65 174.578 361.836 173.773C358.201 172.19 354.535 170.881 350.932 170.069C350.709 170.032 350.479 169.973 350.262 169.954L349.936 169.918C349.84 169.926 349.802 169.916 349.71 169.935C349.33 170.167 348.922 170.357 348.594 170.651C347.904 171.19 347.331 171.871 346.978 172.657C346.256 174.22 346.222 176.035 346.592 177.627L346.672 177.976L346.332 177.9C333.564 175.052 322.977 172.692 315.647 171.058L315.635 171.055L315.622 171.05C312.251 169.633 309.466 168.872 307.575 168.397C306.627 168.162 305.895 168.007 305.401 167.906C304.906 167.803 304.655 167.734 304.655 167.734Z" fill="#343C44"/>
<path d="M356.545 187.246C356.52 187.301 355.735 187.031 354.561 186.387C353.388 185.747 351.846 184.695 350.375 183.273C348.903 181.85 347.799 180.349 347.113 179.208C346.424 178.063 346.118 177.295 346.173 177.268C346.32 177.178 347.834 180.123 350.736 182.902C353.608 185.713 356.628 187.098 356.545 187.246Z" fill="#343C44"/>
<path d="M140.064 268.844C140.064 268.844 146.228 269.177 150.053 271.56C153.878 273.942 160.009 277.639 162.543 282.233C163.706 284.342 160.39 284.789 158.753 283.563C157.117 282.338 154.611 280.034 153.367 279.75C152.123 279.466 152.123 279.466 152.123 279.466C152.123 279.466 154.622 285.006 155.911 286.952C157.201 288.898 158.316 292.224 154.457 292.376C154.457 292.376 151.854 295.745 149.227 293.249C149.227 293.249 147.176 296.306 143.872 292.067C143.872 292.067 141.949 294.491 141.146 293.567C140.343 292.644 137.714 291.167 136.946 288.139C136.177 285.111 132.95 277.745 132.95 277.745L140.064 268.844Z" fill="#FFBF9D"/>
<path d="M87.5646 188.039C87.5646 188.039 82.7514 189.338 79.811 193.837C77.4398 197.466 76.7174 203.793 77.392 208.427C78.8259 218.278 83.3684 234.922 85.9167 245.601C86.7974 249.29 88.5994 255.881 93.9051 259.386L131.603 281.896L141.683 266.999L107.312 239.109L100.52 200.882L87.5646 188.039Z" fill="#9A9EA2"/>
<path d="M81.0449 225.634C81.0529 225.632 81.0947 225.765 81.1673 226.026C81.2429 226.309 81.3464 226.694 81.4778 227.187C81.7464 228.235 82.1335 229.741 82.629 231.673C83.6161 235.603 85.0371 241.258 86.7974 248.268C87.6969 251.737 89.7607 255.301 93.0026 258.059C94.5897 259.474 96.5579 260.509 98.5132 261.708C100.476 262.887 102.499 264.1 104.576 265.347C112.882 270.341 122.049 275.854 131.734 281.678L131.386 281.754C132.539 280.05 133.77 278.229 135.013 276.393C137.206 273.152 139.366 269.962 141.467 266.859L141.517 267.2C128.573 256.589 116.832 246.965 107.448 239.272L107.396 239.229L107.381 239.166C105.13 229.738 103.496 222.022 102.472 216.654C101.954 213.971 101.599 211.874 101.37 210.449C101.268 209.754 101.188 209.214 101.13 208.823C101.079 208.457 101.068 208.266 101.068 208.266C101.068 208.266 101.118 208.45 101.188 208.814C101.259 209.201 101.357 209.738 101.483 210.429C101.749 211.846 102.139 213.935 102.689 216.61C103.78 221.961 105.471 229.662 107.766 239.071L107.7 238.965C117.105 246.633 128.871 256.226 141.842 266.803L142.023 266.951L141.893 267.144C139.793 270.248 137.635 273.44 135.443 276.681C134.2 278.517 132.968 280.337 131.815 282.041L131.678 282.244L131.467 282.117C121.792 276.277 112.633 270.751 104.335 265.742C102.263 264.489 100.244 263.268 98.2834 262.083C96.346 260.885 94.3519 259.828 92.7299 258.372C89.4353 255.544 87.3476 251.893 86.4551 248.355C84.7595 241.327 83.3913 235.657 82.44 231.717C81.9833 229.776 81.627 228.263 81.3792 227.209C81.2678 226.71 81.1802 226.322 81.1166 226.036C81.0618 225.773 81.0369 225.636 81.0449 225.634Z" fill="#343C44"/>
<path d="M81.6648 193.343C81.6549 193.312 81.9225 193.187 82.43 193.022C82.9365 192.855 83.6868 192.662 84.6341 192.526C86.5048 192.271 89.286 192.227 91.9886 193.517C94.6374 194.862 96.4465 196.91 97.4833 198.5C97.9968 199.308 98.3291 200.013 98.4864 200.524C98.6535 201.032 98.6893 201.327 98.6615 201.334C98.5719 201.364 98.2764 200.218 97.1798 198.704C96.1012 197.213 94.2852 195.259 91.7607 193.98C89.2044 192.757 86.5177 192.729 84.6769 192.888C82.8111 193.067 81.6897 193.431 81.6648 193.343Z" fill="#343C44"/>
</g>
<defs>
<clipPath id="clip0_310_296628">
<rect width="498" height="494" fill="white"/>
</clipPath>
</defs>
</svg>
