<svg width="528" height="528" viewBox="0 0 528 528" fill="none" xmlns="http://www.w3.org/2000/svg">
<path d="M200.271 241.456C211.163 249.923 226.855 247.956 235.322 237.066C243.789 226.174 241.823 210.482 230.932 202.015C221.616 194.773 208.792 195.17 199.978 202.25L199.97 202.243L194.491 197.983L186.354 200.52L187.286 192.382L180.42 187.045L172.283 189.582L173.215 181.444L167.313 176.857L162.354 178.403L162.922 173.444L159.487 170.773L151.698 171.542L150.65 183.513L191.475 215.25C188.948 224.664 192.093 235.098 200.271 241.456ZM230.013 232.939C227.584 236.063 223.082 236.627 219.958 234.198C216.835 231.769 216.271 227.267 218.7 224.144C221.128 221.02 225.63 220.456 228.754 222.884C231.877 225.313 232.441 229.814 230.013 232.939Z" fill="#EBEBEB"/>
<path d="M233.171 146.007C237.844 140.287 236.996 131.862 231.276 127.189C225.555 122.516 217.13 123.364 212.458 129.085C208.461 133.977 208.506 140.847 212.182 145.657L212.179 145.661L209.827 148.538L211.08 152.926L206.736 152.322L203.79 155.928L205.042 160.316L200.699 159.712L198.167 162.811L198.93 165.486L196.283 165.118L194.809 166.921L195.119 171.101L201.513 171.817L219.03 150.376C224.037 151.851 229.662 150.303 233.171 146.007ZM228.998 129.978C230.639 131.319 230.882 133.735 229.542 135.376C228.202 137.017 225.784 137.26 224.143 135.92C222.502 134.58 222.259 132.163 223.6 130.522C224.94 128.881 227.357 128.637 228.998 129.978Z" fill="#EBEBEB"/>
<path d="M176.69 55.2969V132.797H65.3801L61.3694 55.8397L176.69 55.2969Z" fill="#E0E0E0"/>
<path d="M61.3693 55.8384L61.3693 132.633H172.679V55.8384H61.3693Z" fill="white"/>
<path d="M173.207 133.162H60.8414V55.3125H173.207V133.162ZM61.8974 132.106H172.151V56.3685H61.8974V132.106Z" fill="#E0E0E0"/>
<path d="M160.624 65.375H73.4247V123.088H160.624V65.375Z" fill="white"/>
<path d="M160.624 65.3784C160.624 65.3784 160.474 65.3879 160.194 65.3932C159.898 65.3964 159.489 65.4017 158.954 65.408C157.85 65.4154 156.246 65.4249 154.165 65.4386C149.977 65.4545 143.887 65.4777 136.197 65.5062C120.819 65.5368 99.0528 65.5801 73.4258 65.6308L73.6782 65.3784C73.6856 83.0115 73.693 102.549 73.7004 123.084V123.091L73.4258 122.816C106.319 122.838 136.646 122.857 160.624 122.872L160.405 123.091C160.454 105.529 160.493 91.1279 160.52 81.1002C160.545 76.0884 160.564 72.1727 160.576 69.4884C160.587 68.1621 160.595 67.1441 160.601 66.4376C160.608 65.7459 160.624 65.3784 160.624 65.3784C160.624 65.3784 160.64 65.7142 160.647 66.3911C160.652 67.0881 160.661 68.0934 160.671 69.4018C160.684 72.0745 160.703 75.9733 160.727 80.9639C160.755 91.0245 160.795 105.471 160.843 123.091L160.844 123.31H160.624C136.646 123.325 106.319 123.344 73.4258 123.366H73.1512V123.09V123.083C73.1597 102.548 73.1671 83.0105 73.1734 65.3774V65.125H73.4258C99.1204 65.1757 120.944 65.219 136.362 65.2496C144.029 65.2792 150.1 65.3014 154.274 65.3172C156.332 65.3309 157.92 65.3404 159.012 65.3478C159.534 65.3542 159.935 65.3594 160.224 65.3626C160.494 65.3679 160.624 65.3784 160.624 65.3784Z" fill="#E0E0E0"/>
<path d="M61.3694 55.6223C61.4159 55.5621 62.1445 56.0404 63.2829 56.862C64.4213 57.6846 65.9725 58.8505 67.6463 60.1905C69.3211 61.5316 70.7932 62.7988 71.8302 63.7482C72.8672 64.6975 73.4733 65.3237 73.4247 65.3797C73.3212 65.4969 70.6453 63.2899 67.3031 60.6203C63.9577 57.9529 61.2712 55.7469 61.3694 55.6223Z" fill="#E0E0E0"/>
<path d="M172.679 55.8409C172.773 55.9602 170.151 58.1926 166.823 60.8274C163.493 63.4621 160.718 65.5012 160.624 65.3829C160.53 65.2636 163.152 63.0323 166.482 60.3965C169.81 57.7607 172.585 55.7216 172.679 55.8409Z" fill="#E0E0E0"/>
<path d="M172.592 132.644C168.455 129.292 164.318 125.939 160.182 122.586L172.592 132.644Z" fill="white"/>
<path d="M160.18 122.583C160.275 122.464 163.132 124.621 166.559 127.398C169.986 130.176 172.687 132.524 172.592 132.641C172.497 132.759 169.641 130.603 166.213 127.825C162.786 125.047 160.085 122.7 160.18 122.583Z" fill="#E0E0E0"/>
<path d="M61.3694 132.637C61.2754 132.517 63.87 130.308 67.1647 127.703C70.4605 125.097 73.2072 123.081 73.3022 123.2C73.3962 123.32 70.8016 125.529 67.5058 128.135C64.2111 130.739 61.4634 132.755 61.3694 132.637Z" fill="#E0E0E0"/>
<path d="M91.1297 83.3559V102.68H145.996V83.3559H91.1297Z" fill="#E0E0E0"/>
<path d="M453.015 495.478C453.015 495.63 362.321 495.752 250.469 495.752C138.58 495.752 47.9055 495.629 47.9055 495.478C47.9055 495.327 138.58 495.203 250.469 495.203C362.321 495.203 453.015 495.326 453.015 495.478Z" fill="#485057"/>
<path d="M368.321 457.238L394.462 495.251L403.806 495.471L386.673 456.383L368.321 457.238Z" fill="#485057"/>
<path d="M92.5235 459.18L78.7512 495.076H85.6373L109.691 459.337L92.5235 459.18Z" fill="#485057"/>
<path d="M86.6247 328.729L87.6342 375.177C87.7768 381.747 93.0663 387.038 99.6357 387.185L359.613 392.972C366.5 393.125 372.164 387.585 372.164 380.698V324.741C372.164 308.221 359.983 294.229 343.618 291.978C296.026 285.434 197.866 275.37 118.537 289.671C99.7402 293.059 86.2097 309.633 86.6247 328.729Z" fill="#3D5EE1"/>
<path d="M85.4568 344.963C85.4568 344.963 64.039 335.05 59.6577 344.963C55.2763 354.876 60.1445 367.045 65.0126 373.86C69.8808 380.674 69.8016 464.401 69.8016 464.401L394.602 460.93L398.451 380.387C398.451 380.387 414.028 361.203 413.054 352.929C412.081 344.654 398.938 332.616 383.849 344.963C368.758 357.31 364.865 383.109 364.865 383.109L105.903 385.056C105.901 385.056 106.757 348.801 85.4568 344.963Z" fill="#3D5EE1"/>
<path d="M361.554 399.196C361.554 399.349 304.015 399.471 233.053 399.471C162.066 399.471 104.54 399.349 104.54 399.196C104.54 399.044 162.066 398.922 233.053 398.922C304.015 398.922 361.554 399.045 361.554 399.196Z" fill="#485057"/>
<path d="M104.54 434.646C104.53 434.646 104.521 434.56 104.51 434.392C104.502 434.191 104.49 433.945 104.477 433.644C104.452 432.986 104.431 432.016 104.422 430.767C104.415 428.221 104.406 424.619 104.395 420.189C104.382 411.26 104.457 398.919 104.051 385.305C103.803 378.508 103.559 371.995 102.565 366.21C102.376 365.511 102.19 364.821 102.006 364.139C101.741 363.476 101.486 362.816 101.206 362.178C100.648 360.902 100.078 359.675 99.4551 358.527C98.2302 356.22 96.8922 354.177 95.5015 352.447C94.1128 350.715 92.6724 349.304 91.306 348.191C89.9205 347.102 88.6227 346.302 87.5107 345.749C85.2783 344.654 83.9024 344.387 83.9277 344.307C83.9298 344.298 84.0154 344.314 84.179 344.354C84.3744 344.406 84.612 344.468 84.9045 344.545C85.5466 344.7 86.4642 345.036 87.6058 345.556C88.7441 346.085 90.0758 346.867 91.4982 347.949C92.9006 349.053 94.38 350.464 95.8045 352.201C97.2312 353.936 98.604 355.99 99.8585 358.311C100.496 359.466 101.08 360.701 101.651 361.985C101.937 362.627 102.199 363.289 102.47 363.96C102.665 364.666 102.863 365.382 103.063 366.107C104.097 371.968 104.352 378.474 104.602 385.288C105.009 398.917 104.871 411.26 104.785 420.19C104.722 424.619 104.672 428.22 104.636 430.766C104.616 431.979 104.6 432.938 104.588 433.642C104.58 433.943 104.573 434.189 104.566 434.389C104.558 434.559 104.549 434.646 104.54 434.646Z" fill="#485057"/>
<path d="M82.9234 363.657C82.9118 363.634 83.1969 363.455 83.7872 363.388C84.367 363.321 85.2794 363.437 86.1685 364.053C86.6046 364.361 87.0376 364.791 87.3312 365.367C87.6216 365.942 87.7599 366.658 87.6395 367.375C87.4304 368.789 86.31 370.278 84.6056 370.615C82.8939 370.903 81.3225 369.925 80.5949 368.701C80.2116 368.086 80.0606 367.379 80.0807 366.741C80.1081 366.099 80.3014 365.526 80.5516 365.056C81.0659 364.109 81.8009 363.578 82.3321 363.341C82.8717 363.099 83.2043 363.094 83.2085 363.12C83.2212 363.168 82.9097 363.246 82.4324 363.53C81.9614 363.81 81.3236 364.349 80.8991 365.232C80.4724 366.092 80.3257 367.363 81.0269 368.436C81.6784 369.492 83.0818 370.322 84.5074 370.074C85.9256 369.805 86.9404 368.514 87.14 367.294C87.384 366.037 86.7092 364.934 85.9394 364.366C85.1643 363.773 84.3416 363.602 83.7967 363.603C83.2434 363.598 82.9382 363.704 82.9234 363.657Z" fill="#485057"/>
<path d="M84.3955 384.5C84.3543 384.544 83.6732 383.976 82.9266 382.769C82.1821 381.577 81.4376 379.684 81.4123 377.497C81.3859 375.309 82.085 373.399 82.8009 372.191C83.518 370.966 84.1853 370.383 84.2276 370.424C84.2983 370.482 83.7471 371.147 83.1441 372.373C82.539 373.588 81.9382 375.418 81.9625 377.491C81.9878 379.561 82.632 381.378 83.2656 382.577C83.8981 383.789 84.4652 384.441 84.3955 384.5Z" fill="#485057"/>
<path d="M81.0004 353.149C81.0828 353.186 80.8547 353.764 80.6773 354.727C80.4957 355.687 80.426 357.05 80.7312 358.507C81.0448 359.962 81.6626 361.178 82.2191 361.982C82.7724 362.79 83.2159 363.225 83.1557 363.292C83.1188 363.34 82.5718 363.003 81.9086 362.216C81.2454 361.438 80.5252 360.166 80.1937 358.621C79.8684 357.075 80.0089 355.62 80.2982 354.638C80.5844 353.652 80.9466 353.122 81.0004 353.149Z" fill="#485057"/>
<path d="M74.6739 364.829C74.7943 364.719 75.7775 365.712 77.2749 366.48C78.7628 367.268 80.1388 367.506 80.1176 367.667C80.1197 367.809 78.6192 367.81 77.0204 366.968C75.4163 366.139 74.5578 364.908 74.6739 364.829Z" fill="#485057"/>
<path d="M395.857 434.642C395.857 434.794 322.593 434.916 232.24 434.916C141.854 434.916 68.6062 434.793 68.6062 434.642C68.6062 434.491 141.855 434.367 232.24 434.367C322.593 434.366 395.857 434.49 395.857 434.642Z" fill="#485057"/>
<path d="M360.427 383.375C360.579 383.375 360.701 394.845 360.701 408.993C360.701 423.144 360.578 434.612 360.427 434.612C360.276 434.612 360.152 423.144 360.152 408.993C360.151 394.845 360.274 383.375 360.427 383.375Z" fill="#485057"/>
<path d="M251.959 294.772C251.959 294.772 251.789 294.794 251.457 294.81C251.101 294.824 250.611 294.842 249.981 294.865C248.656 294.902 246.748 294.956 244.303 295.025C239.348 295.14 232.22 295.304 223.421 295.507C205.766 295.862 181.418 296.352 154.523 296.893C147.796 297.055 141.219 297.034 134.901 297.451C128.593 297.869 122.497 298.752 117.031 300.713C111.547 302.595 106.823 305.735 103.446 309.618C101.766 311.562 100.348 313.627 99.2851 315.771C98.1478 317.879 97.3906 320.059 96.7 322.139C95.4476 326.352 94.8848 330.312 94.5627 333.788C94.2395 337.271 94.2015 340.288 94.1857 342.75C94.1751 345.214 94.2279 347.129 94.2564 348.425C94.2702 349.056 94.2807 349.546 94.2881 349.902C94.2923 350.234 94.2797 350.405 94.2797 350.405C94.2797 350.405 94.2543 350.236 94.2311 349.904C94.21 349.548 94.1815 349.058 94.1445 348.429C94.0801 347.132 93.9924 345.218 93.9703 342.75C93.9534 340.284 93.9608 337.259 94.2554 333.761C94.5489 330.268 95.0875 326.282 96.3262 322.025C97.0105 319.922 97.7645 317.715 98.906 315.574C99.9726 313.4 101.4 311.295 103.1 309.316C106.514 305.358 111.316 302.149 116.859 300.234C122.387 298.237 128.529 297.339 134.863 296.912C141.211 296.486 147.785 296.503 154.511 296.34C181.406 295.862 205.756 295.43 223.412 295.115C232.211 294.985 239.34 294.88 244.297 294.807C246.743 294.783 248.652 294.764 249.976 294.751C250.607 294.751 251.097 294.75 251.454 294.75C251.788 294.756 251.959 294.772 251.959 294.772Z" fill="#485057"/>
<path d="M168.815 330.939C168.834 330.987 168.465 331.118 167.92 331.527C167.381 331.928 166.678 332.675 166.283 333.813C165.881 334.923 165.879 336.5 166.87 337.738C167.802 338.961 169.598 339.825 171.35 339.422C173.096 338.991 174.31 337.411 174.59 335.898C174.917 334.346 174.203 332.939 173.343 332.131C172.478 331.293 171.512 330.944 170.851 330.829C170.181 330.709 169.792 330.759 169.788 330.708C169.782 330.685 170.166 330.559 170.881 330.616C171.584 330.671 172.638 330.98 173.61 331.847C174.087 332.279 174.543 332.85 174.839 333.565C175.128 334.277 175.252 335.134 175.089 335.99C174.8 337.683 173.486 339.454 171.479 339.958C169.459 340.413 167.489 339.424 166.468 338.045C165.936 337.355 165.66 336.534 165.597 335.767C165.539 334.997 165.687 334.282 165.919 333.68C166.395 332.467 167.196 331.718 167.799 331.351C168.411 330.976 168.81 330.916 168.815 330.939Z" fill="#485057"/>
<path d="M164.364 358.307C164.301 358.322 163.917 357.15 163.563 355.185C163.226 353.237 162.921 350.399 163.729 347.394C164.553 344.38 166.533 342.135 168.281 341.12C169.153 340.6 169.939 340.33 170.492 340.223C171.045 340.113 171.357 340.112 171.361 340.142C171.392 340.254 170.116 340.361 168.49 341.448C166.875 342.499 165.045 344.67 164.259 347.54C163.484 350.419 163.711 353.186 163.947 355.129C164.198 357.084 164.449 358.288 164.364 358.307Z" fill="#485057"/>
<path d="M168.21 314.635C168.286 314.706 167.451 315.435 166.654 316.964C165.855 318.459 165.191 320.879 165.767 323.432C166.356 325.982 168.004 327.874 169.373 328.875C170.755 329.907 171.823 330.201 171.785 330.298C171.775 330.33 171.503 330.288 171.031 330.134C170.558 329.982 169.895 329.685 169.148 329.192C167.665 328.233 165.861 326.276 165.23 323.554C164.617 320.83 165.394 318.283 166.314 316.776C166.772 316.007 167.242 315.453 167.601 315.11C167.96 314.766 168.188 314.611 168.21 314.635Z" fill="#485057"/>
<path d="M167.243 335.772C167.252 335.943 164.583 336.014 161.516 337.061C158.438 338.079 156.269 339.636 156.173 339.493C156.078 339.399 158.163 337.594 161.341 336.539C164.509 335.461 167.262 335.64 167.243 335.772Z" fill="#485057"/>
<g opacity="0.3">
<path d="M133.122 400.153C143.232 407.968 156.269 411.9 169.014 410.977C166.345 423.391 163.677 435.806 161.008 448.219C160.297 451.531 159.638 455.215 161.368 458.128C163.795 462.212 169.443 462.62 174.192 462.554C179.481 462.481 184.993 462.354 189.681 459.906C196.324 456.436 199.889 449.093 202.467 442.055C205.045 435.017 207.267 427.485 212.572 422.191C218.582 429.08 226.968 433.856 235.96 435.512C238.606 435.999 241.597 436.145 243.718 434.489C245.824 432.846 246.429 429.818 245.893 427.202C245.356 424.587 243.881 422.274 242.434 420.029C237.283 412.037 232.133 404.046 226.982 396.055C224.891 392.811 222.603 389.394 219.067 387.847C216.294 386.634 213.144 386.754 210.123 386.931C184.899 388.397 159.812 392.192 135.283 398.248" fill="black"/>
</g>
<g opacity="0.3">
<path d="M215.718 281.318C209.466 297.833 186.126 301.62 177.93 317.261C169.826 332.726 179.873 353.209 171.524 368.545C168.432 374.224 163.125 378.462 160.104 384.179C158.071 388.029 157.022 392.602 153.741 395.465C149.918 398.8 143.997 398.735 139.405 396.58C134.812 394.426 131.277 390.562 128.006 386.685C121.877 379.417 116.123 371.561 113.26 362.496C108.332 346.892 112.848 329.252 122.736 316.215C132.623 303.177 147.309 294.388 162.801 289.124C178.295 283.86 194.687 281.863 210.979 280.336" fill="black"/>
</g>
<path d="M140.634 237.889C143.059 234.276 146.223 231.078 150.104 229.109C153.985 227.139 158.626 226.486 162.763 227.837C166.901 229.188 170.394 232.693 171.237 236.962C171.905 240.347 171.004 244.128 172.752 247.102C174.764 250.524 179.611 251.608 181.312 255.194C182.336 257.355 181.927 259.979 180.802 262.089C179.677 264.199 177.92 265.891 176.163 267.512C177.226 268.267 178.307 269.048 179.056 270.115C179.805 271.183 180.174 272.609 179.671 273.812C179.141 275.084 177.809 275.807 176.541 276.345C170.691 278.825 164.069 279.447 157.858 278.101C156.191 277.74 154.282 277.286 152.909 278.298" fill="#485057"/>
<path d="M182.911 250.419L179.497 260.766L202.588 273.867L179.373 274.619L181.109 293.443L225.823 282.467C225.823 282.467 228.506 264.231 182.911 250.419L179.704 249.665C178.541 249.392 177.588 248.565 177.151 247.453C176.807 246.577 176.159 245.853 175.323 245.417L171.516 243.43L171.542 246.451L173.636 248.912L173.301 254.753C173.123 257.335 174.84 259.667 177.359 260.261L179.498 260.766" fill="#B78876"/>
<path d="M132.334 287.805C131.42 287.805 122.892 289.876 118.019 296.086C113.145 302.298 106.083 325.583 106.083 325.583L124.053 328.689L131.801 348.159C131.801 348.159 177.679 342.147 175.243 339.731C172.807 337.316 167.795 333.588 167.795 333.588L178.373 298.417L191.071 291.574L186.8 274L161.269 277.451L132.334 287.805Z" fill="#FAFAFA"/>
<path d="M176.203 306.525C176.203 306.677 161.899 306.799 144.257 306.799C126.61 306.799 112.309 306.676 112.309 306.525C112.309 306.374 126.61 306.25 144.257 306.25C161.899 306.25 176.203 306.372 176.203 306.525Z" fill="#3D5EE1"/>
<path d="M173.34 316.868C173.34 317.02 159.036 317.143 141.394 317.143C123.746 317.143 109.445 317.02 109.445 316.868C109.445 316.716 123.746 316.594 141.394 316.594C159.036 316.594 173.34 316.716 173.34 316.868Z" fill="#3D5EE1"/>
<path d="M173.34 328.032C173.34 328.184 162.506 328.307 149.144 328.307C135.777 328.307 124.946 328.183 124.946 328.032C124.946 327.881 135.778 327.758 149.144 327.758C162.506 327.757 173.34 327.88 173.34 328.032Z" fill="#3D5EE1"/>
<path d="M177.053 338.782C177.053 338.934 166.219 339.057 152.857 339.057C139.49 339.057 128.659 338.933 128.659 338.782C128.659 338.63 139.491 338.508 152.857 338.508C166.219 338.508 177.053 338.63 177.053 338.782Z" fill="#3D5EE1"/>
<path d="M188.508 292.626C188.508 292.778 181.351 292.901 172.525 292.901C163.696 292.901 156.54 292.777 156.54 292.626C156.54 292.475 163.696 292.352 172.525 292.352C181.351 292.352 188.508 292.475 188.508 292.626Z" fill="#3D5EE1"/>
<path d="M189.67 281.661C189.673 281.813 182.545 282.102 173.75 282.308C164.952 282.514 157.819 282.557 157.816 282.405C157.813 282.253 164.94 281.964 173.737 281.758C182.532 281.553 189.666 281.509 189.67 281.661Z" fill="#3D5EE1"/>
<path d="M127.781 311.899C127.929 311.932 127.16 315.801 126.065 320.537C124.969 325.274 123.962 329.086 123.814 329.052C123.666 329.019 124.434 325.15 125.53 320.413C126.625 315.677 127.633 311.865 127.781 311.899Z" fill="#485057"/>
<path d="M177.725 443.742L164.352 485.912L180.474 487.53L195.616 450.896L177.725 443.742Z" fill="#B78876"/>
<path d="M189.52 471.122L181.841 490.163C181.841 490.163 198.616 504.363 197.54 508.019L160.086 494.456L170.834 464.297L189.52 471.122Z" fill="#455A64"/>
<path d="M170.848 484.35C170.052 484.285 169.256 484.919 169.159 485.712C169.061 486.505 169.699 487.32 170.494 487.399C171.29 487.477 172.268 486.745 172.276 485.947C172.283 485.147 171.483 484.232 170.692 484.346" fill="#E0E0E0"/>
<path d="M160.086 494.459L161.288 491.461L196.749 505.586C196.749 505.586 198.153 506.915 197.54 508.021L160.086 494.459Z" fill="#E0E0E0"/>
<path d="M182.518 490.191C182.446 490.371 181.501 490.123 180.388 490.385C179.268 490.619 178.518 491.243 178.375 491.11C178.219 491.013 178.888 490.019 180.241 489.724C181.591 489.419 182.617 490.038 182.518 490.191Z" fill="#485057"/>
<path d="M185.857 493.236C185.835 493.428 184.93 493.453 184.029 494.002C183.111 494.524 182.652 495.304 182.473 495.23C182.29 495.196 182.552 494.079 183.685 493.419C184.813 492.747 185.916 493.06 185.857 493.236Z" fill="#485057"/>
<path d="M186.386 498.748C186.206 498.727 186.283 497.721 187.115 496.889C187.942 496.052 188.947 495.969 188.969 496.149C189.018 496.337 188.268 496.673 187.595 497.367C186.906 498.044 186.574 498.797 186.386 498.748Z" fill="#485057"/>
<path d="M183.786 485.66C183.649 485.799 182.901 485.243 181.842 484.939C180.789 484.614 179.859 484.668 179.821 484.477C179.763 484.307 180.794 483.914 182.036 484.29C183.28 484.656 183.928 485.549 183.786 485.66Z" fill="#485057"/>
<path d="M185.265 481.791C185.239 481.867 184.476 481.718 183.392 481.103C182.854 480.795 182.244 480.361 181.648 479.789C181.35 479.503 181.056 479.182 180.778 478.827C180.645 478.654 180.481 478.468 180.371 478.181C180.237 477.917 180.298 477.39 180.639 477.178C180.935 476.959 181.319 476.958 181.592 477.05C181.871 477.141 182.074 477.278 182.26 477.402C182.64 477.654 182.982 477.934 183.281 478.224C183.879 478.809 184.311 479.431 184.6 479.986C185.178 481.105 185.227 481.896 185.152 481.909C185.047 481.939 184.832 481.214 184.188 480.228C183.866 479.738 183.427 479.193 182.856 478.68C182.57 478.426 182.25 478.18 181.899 477.958C181.54 477.71 181.203 477.585 181.039 477.725C180.977 477.779 180.963 477.804 181.004 477.95C181.051 478.088 181.174 478.251 181.304 478.423C181.557 478.758 181.822 479.067 182.089 479.348C182.626 479.908 183.17 480.356 183.651 480.699C184.615 481.388 185.304 481.693 185.265 481.791Z" fill="#485057"/>
<path d="M184.931 481.966C184.856 481.97 184.73 481.184 185.092 479.976C185.274 479.377 185.593 478.687 186.093 478.015C186.344 477.68 186.64 477.352 186.983 477.048C187.336 476.758 187.783 476.36 188.522 476.535C188.898 476.656 189.101 477.056 189.117 477.342C189.149 477.64 189.095 477.867 189.06 478.099C188.97 478.562 188.806 478.987 188.604 479.363C188.197 480.118 187.631 480.663 187.101 481.011C186.018 481.716 185.175 481.658 185.182 481.59C185.155 481.476 185.92 481.354 186.818 480.624C187.26 480.264 187.725 479.746 188.049 479.076C188.212 478.742 188.34 478.373 188.407 477.98C188.493 477.561 188.46 477.186 188.296 477.172C188.112 477.101 187.686 477.287 187.418 477.549C187.104 477.815 186.826 478.103 186.585 478.397C186.105 478.988 185.768 479.6 185.543 480.137C185.094 481.219 185.041 481.974 184.931 481.966Z" fill="#485057"/>
<path d="M228.465 404.047L248.421 438.735L264.747 428.262L244.706 393.047L228.465 404.047Z" fill="#B78876"/>
<path d="M259.115 418.352L269.424 436.107C269.424 436.107 290.933 431.592 293.158 434.688L259.45 455.912L242.253 428.906L259.115 418.352Z" fill="#455A64"/>
<path d="M258.08 441.21C257.54 441.8 257.551 442.817 258.117 443.38C258.683 443.944 259.718 443.942 260.268 443.362C260.818 442.783 260.843 441.561 260.216 441.065C259.59 440.567 258.376 440.637 257.981 441.332" fill="#E0E0E0"/>
<path d="M259.449 455.911L257.821 453.121L290.75 433.814C290.75 433.814 292.661 433.522 293.157 434.686L259.449 455.911Z" fill="#E0E0E0"/>
<path d="M269.862 435.591C269.96 435.759 269.184 436.353 268.708 437.392C268.204 438.418 268.236 439.394 268.042 439.425C267.87 439.488 267.496 438.35 268.095 437.101C268.683 435.849 269.803 435.418 269.862 435.591Z" fill="#485057"/>
<path d="M274.318 434.826C274.457 434.963 273.919 435.691 273.799 436.739C273.648 437.783 273.98 438.625 273.811 438.721C273.673 438.844 272.952 437.952 273.127 436.651C273.291 435.35 274.216 434.672 274.318 434.826Z" fill="#485057"/>
<path d="M278.991 437.797C278.863 437.926 278.117 437.248 277.972 436.081C277.819 434.914 278.371 434.07 278.527 434.163C278.706 434.24 278.511 435.039 278.645 435.995C278.754 436.954 279.144 437.678 278.991 437.797Z" fill="#485057"/>
<path d="M267.063 431.804C267.089 431.997 266.191 432.245 265.3 432.895C264.396 433.525 263.869 434.294 263.694 434.206C263.524 434.147 263.847 433.093 264.906 432.343C265.961 431.586 267.063 431.624 267.063 431.804Z" fill="#485057"/>
<path d="M264.918 428.264C264.962 428.331 264.376 428.842 263.224 429.318C262.65 429.555 261.934 429.769 261.116 429.888C260.707 429.947 260.273 429.982 259.822 429.984C259.604 429.982 259.357 429.997 259.063 429.908C258.773 429.851 258.395 429.48 258.436 429.08C258.445 428.712 258.681 428.408 258.921 428.25C259.164 428.085 259.397 428.009 259.609 427.938C260.042 427.792 260.472 427.696 260.886 427.637C261.715 427.524 262.471 427.565 263.086 427.678C264.323 427.911 264.978 428.357 264.941 428.424C264.901 428.525 264.195 428.25 263.023 428.153C262.439 428.105 261.738 428.117 260.983 428.252C260.606 428.322 260.216 428.423 259.826 428.563C259.41 428.694 259.104 428.883 259.113 429.1C259.118 429.181 259.129 429.209 259.269 429.266C259.407 429.313 259.611 429.316 259.827 429.319C260.247 429.326 260.654 429.307 261.039 429.268C261.811 429.19 262.498 429.034 263.064 428.865C264.201 428.528 264.865 428.173 264.918 428.264Z" fill="#485057"/>
<path d="M264.852 428.633C264.81 428.695 264.112 428.311 263.38 427.282C263.019 426.771 262.671 426.095 262.447 425.288C262.337 424.885 262.26 424.45 262.231 423.993C262.219 423.535 262.179 422.938 262.772 422.462C263.097 422.24 263.539 422.326 263.773 422.489C264.027 422.646 264.173 422.829 264.336 422.999C264.645 423.354 264.882 423.744 265.053 424.135C265.398 424.92 265.481 425.701 265.43 426.333C265.321 427.621 264.758 428.25 264.71 428.203C264.603 428.155 264.977 427.475 264.951 426.319C264.939 425.749 264.816 425.064 264.487 424.396C264.323 424.063 264.11 423.735 263.842 423.44C263.564 423.115 263.247 422.911 263.136 423.032C262.967 423.134 262.852 423.584 262.893 423.957C262.91 424.368 262.967 424.764 263.052 425.135C263.224 425.878 263.499 426.519 263.786 427.025C264.362 428.046 264.926 428.551 264.852 428.633Z" fill="#485057"/>
<path d="M169.059 399.149L208.248 372.5L232.969 420.622L255.448 408.459C255.448 408.459 229.562 345.337 220.269 343.299C215.062 342.158 155.361 353.56 155.361 353.56L148.69 350.206L131.803 348.152L130.723 350.883C124.757 365.985 125.438 382.903 132.6 397.476L133.421 399.149H169.059Z" fill="#485057"/>
<path d="M155.3 365.819C155.591 367.14 187.988 397.477 187.988 397.477L169.295 460.295L197.193 465.632L225.208 389.957L174.003 339.727L150.618 349.571L155.3 365.819Z" fill="#485057"/>
<path d="M208.25 372.502C208.335 372.628 199.63 378.695 188.811 386.054C177.987 393.414 169.146 399.278 169.06 399.152C168.975 399.027 177.677 392.96 188.501 385.6C199.321 378.241 208.164 372.376 208.25 372.502Z" fill="#455A64"/>
<path d="M228.365 411.66C228.333 411.679 227.998 411.161 227.419 410.207C226.835 409.257 226.032 407.857 225.05 406.122C223.101 402.645 220.503 397.788 217.752 392.366C214.997 386.942 212.587 381.993 210.883 378.39C210.032 376.588 209.355 375.125 208.901 374.107C208.447 373.089 208.215 372.517 208.248 372.5C208.283 372.483 208.58 373.024 209.094 374.014C209.642 375.092 210.363 376.509 211.233 378.22C213.068 381.858 215.525 386.73 218.242 392.118C220.992 397.537 223.533 402.417 225.393 405.938C226.293 407.631 227.039 409.035 227.606 410.102C228.127 411.088 228.398 411.641 228.365 411.66Z" fill="#455A64"/>
<path d="M193.848 386.259C193.982 386.33 192.64 389.344 190.85 392.99C189.059 396.637 187.496 399.542 187.358 399.479C187.219 399.416 188.561 396.402 190.357 392.747C192.15 389.094 193.714 386.188 193.848 386.259Z" fill="#455A64"/>
<path d="M106.084 325.578L99.7878 348.98C98.9736 352.008 99.3474 355.232 100.834 357.991C103.458 362.863 109.019 365.379 114.411 364.131L164.623 351.761L159.374 341.333L119.817 344.762L124.054 328.683L106.084 325.578Z" fill="#B78876"/>
<path d="M128.358 361.102L129.013 357.7L156.223 352.811L164.13 310.857L214.671 304.836L206.179 349.622L128.358 361.102Z" fill="#455A64"/>
<path d="M186.824 333.446C185.5 333.191 184.665 331.745 184.959 330.218C185.254 328.69 186.567 327.658 187.891 327.914C189.215 328.169 190.05 329.615 189.756 331.142C189.461 332.67 188.149 333.702 186.824 333.446Z" fill="#EBEBEB"/>
<path d="M135.752 240.79L135.847 243.824L136.984 289.241C137.116 294.513 141.754 298.599 147.399 298.414C153.099 298.227 157.679 293.76 157.633 288.432C157.586 282.839 157.637 276.951 157.637 276.951C157.637 276.951 164.828 275.671 166.211 266.254C166.899 261.57 166.575 253.909 166.108 247.648C165.686 242.013 160.664 237.862 155.052 238.522L135.752 240.79Z" fill="#B78876"/>
<path d="M162.468 252.888C162.497 253.525 161.983 254.074 161.32 254.117C160.657 254.161 160.095 253.681 160.064 253.046C160.035 252.409 160.548 251.859 161.211 251.815C161.874 251.771 162.438 252.251 162.468 252.888Z" fill="#485057"/>
<path d="M164.493 251.654C164.345 251.812 163.424 251.148 162.127 251.166C160.831 251.166 159.887 251.844 159.744 251.687C159.675 251.617 159.823 251.332 160.234 251.026C160.639 250.72 161.331 250.419 162.139 250.414C162.947 250.409 163.63 250.698 164.024 250.998C164.428 251.3 164.566 251.583 164.493 251.654Z" fill="#485057"/>
<path d="M149.664 253.349C149.693 253.986 149.179 254.535 148.516 254.579C147.853 254.623 147.291 254.143 147.26 253.506C147.231 252.871 147.745 252.319 148.407 252.276C149.071 252.233 149.634 252.713 149.664 253.349Z" fill="#485057"/>
<path d="M151.745 252.044C151.597 252.204 150.675 251.539 149.379 251.557C148.083 251.557 147.138 252.235 146.995 252.077C146.925 252.008 147.073 251.722 147.485 251.416C147.89 251.111 148.582 250.81 149.39 250.805C150.198 250.799 150.881 251.09 151.276 251.389C151.678 251.691 151.817 251.974 151.745 252.044Z" fill="#485057"/>
<path d="M156.565 261.606C156.557 261.532 157.363 261.384 158.667 261.202C158.998 261.164 159.31 261.094 159.364 260.867C159.439 260.627 159.296 260.271 159.132 259.888C158.811 259.09 158.475 258.253 158.123 257.377C156.721 253.801 155.702 250.86 155.847 250.805C155.991 250.751 157.245 253.603 158.647 257.178C158.985 258.06 159.308 258.901 159.615 259.704C159.745 260.079 159.966 260.504 159.802 261.002C159.716 261.25 159.475 261.433 159.263 261.493C159.051 261.561 158.865 261.566 158.701 261.578C157.386 261.664 156.57 261.68 156.565 261.606Z" fill="#485057"/>
<path d="M157.64 276.954C157.64 276.954 151.321 277.435 145.012 273.742C145.012 273.742 148.141 280.164 157.538 279.174L157.64 276.954Z" fill="#AA6550"/>
<path d="M152.267 249.906C152.122 250.252 150.837 250.025 149.308 250.138C147.777 250.22 146.53 250.609 146.343 250.284C146.259 250.128 146.488 249.806 147 249.489C147.507 249.171 148.307 248.883 149.223 248.823C150.14 248.765 150.97 248.949 151.513 249.2C152.061 249.452 152.329 249.741 152.267 249.906Z" fill="#485057"/>
<path d="M163.95 247.153C163.725 247.45 162.828 247.155 161.754 247.153C160.679 247.113 159.772 247.374 159.558 247.069C159.465 246.92 159.605 246.623 159.999 246.34C160.387 246.057 161.04 245.823 161.779 245.837C162.517 245.851 163.16 246.111 163.538 246.409C163.921 246.706 164.05 247.008 163.95 247.153Z" fill="#485057"/>
<path d="M156.422 266.311C156.056 266.421 155.662 266.29 155.293 266.195C154.925 266.087 154.576 265.992 154.284 265.895C153.99 265.798 153.654 265.667 153.294 265.533C152.941 265.389 152.548 265.258 152.319 264.952C152.096 264.658 152.141 264.15 152.648 263.699C153.133 263.256 154.11 262.944 155.148 263.285C156.184 263.631 156.783 264.465 156.907 265.11C157.044 265.774 156.777 266.208 156.422 266.311Z" fill="#AA6550"/>
<path d="M156.601 266.197C156.475 266.285 155.844 264.99 154.327 264.599C152.808 264.214 151.634 265.046 151.566 264.91C151.521 264.859 151.738 264.565 152.252 264.3C152.755 264.036 153.585 263.843 154.463 264.067C155.341 264.293 155.976 264.861 156.29 265.333C156.614 265.812 156.663 266.173 156.601 266.197Z" fill="#485057"/>
<path d="M146.626 234.66C149.631 239.136 148.869 245.752 144.922 249.427C142.675 251.52 139.331 253.153 139.103 256.215C138.849 259.607 142.779 262.144 142.784 265.546C142.79 269.042 138.755 271.27 137.971 274.678C137.339 277.422 138.978 280.172 140.878 282.249C142.777 284.326 145.063 286.168 146.203 288.742C147.461 291.579 147.105 294.933 145.882 297.787C144.66 300.64 142.65 303.077 140.574 305.386C137.77 304.377 134.838 303.725 131.872 303.45C132.058 302.328 132.245 301.207 132.431 300.085C132.495 301.391 131.401 302.53 130.16 302.94C128.92 303.35 127.57 303.191 126.28 302.988C122.324 302.365 118.427 301.364 114.661 300.002C116.269 298.392 117.906 296.741 118.907 294.698C119.908 292.654 120.177 290.109 119.024 288.147C118.097 286.57 116.386 285.556 115.533 283.937C114.253 281.51 115.307 278.424 117.126 276.37C118.946 274.316 121.408 272.965 123.572 271.277C125.735 269.588 127.722 267.304 127.896 264.565C128.122 261.011 125.248 257.774 125.601 254.23C126.002 250.195 130.269 247.728 131.945 244.035C133.157 241.362 132.995 238.066 134.855 235.796C136.233 234.116 138.523 233.359 140.692 233.472C142.862 233.585 144.926 234.474 146.778 235.611" fill="#485057"/>
<path d="M158.425 277.956C156.727 278.893 156.825 281.471 157.859 283.111C158.893 284.752 160.556 285.923 161.577 287.572C163.399 290.513 162.611 294.782 159.859 296.879L163.915 298.414L164.8 297.913L167.29 296.505L166.123 299.381H168.719C171.45 299.413 174.136 297.801 175.393 295.377C176.65 292.952 176.419 289.828 174.818 287.615C173.749 286.138 172.091 284.96 171.731 283.173C171.297 281.017 172.925 279.062 173.723 277.013C175.055 273.59 173.837 269.349 170.889 267.156" fill="#485057"/>
<path d="M78.4059 192.503C78.88 192.732 79.2063 193.216 79.2074 193.777L79.2063 200.81C79.2063 201.252 78.9994 201.67 78.6467 201.936C78.294 202.203 77.8367 202.289 77.4111 202.169C76.295 201.854 75.0394 202.047 73.9686 202.697C72.9823 203.295 72.298 204.209 72.0921 205.206C71.8851 206.199 72.147 207.318 72.8102 208.279C73.5198 209.307 74.6022 210.026 75.712 210.202C77.9782 210.562 80.5116 208.924 81.2434 206.624C81.4799 205.881 82.274 205.471 83.0174 205.708C83.7725 205.951 84.1717 206.739 83.9351 207.482C82.7841 211.096 78.8959 213.569 75.2675 212.992C73.3867 212.692 71.6412 211.56 70.4859 209.884C69.3866 208.292 68.9642 206.378 69.3264 204.633C69.6918 202.872 70.8492 201.287 72.5029 200.284C73.6982 199.559 75.0489 199.189 76.3826 199.2L76.3815 193.779C76.3815 192.999 77.0141 192.367 77.7945 192.367C78.0141 192.365 78.2211 192.415 78.4059 192.503Z" fill="#3D5EE1"/>
<path d="M76.4618 189.545C76.4459 188.907 76.9497 188.377 77.5875 188.36C78.2253 188.344 78.7554 188.848 78.7723 189.485C78.7882 190.123 78.2844 190.653 77.6466 190.67C77.0088 190.686 76.4776 190.182 76.4618 189.545Z" fill="#3D5EE1"/>
<path d="M110.915 227.201C110.92 227.233 110.563 227.254 109.987 227.491C109.417 227.722 108.622 228.234 108.027 229.172C107.736 229.638 107.497 230.207 107.422 230.847C107.353 231.484 107.447 232.186 107.775 232.832C108.393 234.117 109.88 235.229 111.559 235.146C113.236 235.031 114.581 233.75 115.044 232.401C115.294 231.721 115.304 231.012 115.16 230.388C115.01 229.761 114.705 229.224 114.362 228.796C113.66 227.936 112.809 227.521 112.217 227.358C111.616 227.191 111.259 227.213 111.26 227.18C111.26 227.169 111.348 227.163 111.516 227.158C111.6 227.153 111.704 227.157 111.826 227.174C111.95 227.185 112.09 227.203 112.246 227.244C112.866 227.376 113.768 227.774 114.526 228.659C114.898 229.099 115.233 229.66 115.404 230.327C115.57 230.992 115.568 231.761 115.307 232.492C115.063 233.224 114.594 233.924 113.949 234.462C113.313 235.01 112.476 235.384 111.576 235.448C110.675 235.49 109.8 235.218 109.104 234.749C108.4 234.291 107.851 233.652 107.523 232.954C107.179 232.259 107.086 231.495 107.171 230.816C107.262 230.134 107.528 229.538 107.845 229.056C108.493 228.088 109.341 227.586 109.942 227.381C110.092 227.322 110.231 227.288 110.351 227.263C110.47 227.231 110.573 227.215 110.657 227.21C110.826 227.194 110.914 227.19 110.915 227.201Z" fill="#485057"/>
<path d="M121.189 237.411C121.193 237.44 120.969 237.461 120.612 237.615C120.259 237.766 119.768 238.09 119.404 238.674C119.039 239.241 118.842 240.127 119.259 240.935C119.643 241.726 120.564 242.41 121.591 242.359C122.618 242.289 123.453 241.501 123.739 240.67C124.058 239.819 123.758 238.963 123.328 238.443C122.897 237.905 122.371 237.641 122.003 237.534C121.63 237.423 121.405 237.429 121.406 237.401C121.404 237.388 121.63 237.341 122.032 237.42C122.427 237.498 123.005 237.745 123.493 238.307C123.733 238.587 123.948 238.944 124.06 239.371C124.169 239.797 124.169 240.292 124.003 240.762C123.696 241.692 122.79 242.577 121.609 242.662C120.427 242.717 119.424 241.945 119.008 241.058C118.788 240.611 118.729 240.119 118.787 239.684C118.848 239.247 119.021 238.866 119.225 238.56C119.643 237.945 120.187 237.631 120.57 237.507C120.958 237.379 121.189 237.399 121.189 237.411Z" fill="#485057"/>
<path d="M109.208 206.266C109.208 206.266 109.203 206.087 109.207 205.736C109.214 205.378 109.223 204.861 109.235 204.184C109.242 203.842 109.25 203.462 109.259 203.041C109.248 202.621 109.196 202.163 109.162 201.665C109.123 201.168 109.082 200.633 109.036 200.061C109.025 199.774 108.979 199.482 108.919 199.182C108.865 198.881 108.809 198.571 108.752 198.252C108.378 195.692 107.437 192.627 105.829 189.329C104.205 186.044 101.762 182.553 98.303 179.48C97.868 179.1 97.4276 178.714 96.983 178.326C96.5163 177.964 96.02 177.628 95.5321 177.271C95.286 177.094 95.04 176.917 94.7908 176.739C94.5437 176.559 94.2955 176.377 94.022 176.233C93.4877 175.923 92.9481 175.61 92.4021 175.294C92.1286 175.138 91.8572 174.973 91.5784 174.821C91.2891 174.689 90.9976 174.556 90.7051 174.423C90.1201 174.155 89.5287 173.887 88.9331 173.615C88.3291 173.361 87.6913 173.179 87.063 172.954C86.7472 172.846 86.4304 172.738 86.1115 172.63C85.951 172.578 85.7937 172.515 85.631 172.471L85.1358 172.356C83.8105 172.06 82.4778 171.678 81.0754 171.561C80.3785 171.482 79.6794 171.359 78.9698 171.314C78.258 171.295 77.54 171.276 76.8166 171.257C76.4554 171.254 76.0922 171.223 75.7289 171.242C75.3657 171.269 75.0013 171.296 74.6349 171.323C73.9042 171.387 73.1639 171.413 72.4279 171.507C70.9674 171.784 69.4626 171.959 68.0085 172.436C67.641 172.54 67.2725 172.643 66.9029 172.747C66.7191 172.801 66.5312 172.846 66.3485 172.906L65.8099 173.116C65.0908 173.397 64.3664 173.679 63.6377 173.962C62.9249 174.28 62.2343 174.66 61.5257 175.01C61.1772 175.196 60.8098 175.35 60.475 175.564L59.4655 176.204C58.0779 177.005 56.8381 178.046 55.5466 179.041C54.9532 179.599 54.3576 180.161 53.7588 180.725L53.309 181.148C53.1685 181.298 53.0355 181.458 52.8982 181.612L52.0798 182.546L51.2572 183.485L50.5222 184.5L49.7872 185.522L49.4187 186.034C49.3067 186.213 49.2054 186.398 49.0977 186.579C48.6731 187.309 48.2476 188.042 47.8199 188.778C47.4661 189.552 47.1103 190.328 46.7533 191.108C45.4428 194.278 44.6054 197.686 44.2844 201.196C44.0563 204.715 44.3541 208.214 45.1567 211.548C45.3879 212.374 45.6181 213.197 45.8483 214.016C46.1567 214.809 46.464 215.6 46.7702 216.387L47.0026 216.975L47.2877 217.539L47.8558 218.663L48.425 219.78L49.0924 220.835L49.7566 221.886L50.0903 222.407L50.4694 222.895C50.9742 223.546 51.4758 224.193 51.9753 224.837C53.0967 226.02 54.1601 227.241 55.4073 228.248L56.3059 229.037C56.6026 229.301 56.9427 229.51 57.2584 229.748C57.9047 230.203 58.5267 230.685 59.1825 231.11C59.8583 231.503 60.5299 231.894 61.1973 232.283L61.6968 232.574C61.8679 232.662 62.0453 232.737 62.2195 232.818C62.569 232.978 62.9165 233.137 63.2639 233.297C64.6272 233.995 66.0866 234.4 67.4858 234.901C68.1996 235.107 68.9262 235.249 69.6379 235.425C69.9948 235.508 70.3507 235.591 70.7055 235.675C71.0614 235.75 71.4257 235.776 71.7826 235.829C72.4997 235.922 73.2125 236.015 73.9189 236.107C74.6275 236.172 75.3371 236.16 76.0383 236.189C77.4428 236.29 78.8188 236.119 80.1736 236.033L80.6805 235.996C80.8484 235.977 81.0131 235.94 81.18 235.913C81.5116 235.855 81.8421 235.798 82.1705 235.74C82.8252 235.616 83.4842 235.534 84.1199 235.377C84.7514 235.201 85.3765 235.026 85.9964 234.854C86.3058 234.768 86.6142 234.682 86.9215 234.597C87.2192 234.483 87.5149 234.37 87.8085 234.257C88.3967 234.029 88.9785 233.804 89.5541 233.58C89.8466 233.479 90.1201 233.338 90.3925 233.199C90.665 233.061 90.9374 232.924 91.2067 232.788C91.7442 232.511 92.2859 232.257 92.8034 231.971C93.3039 231.656 93.7981 231.344 94.2871 231.036C98.1816 228.536 101.135 225.466 103.248 222.473C103.515 222.099 103.787 221.738 104.037 221.372C104.261 220.99 104.481 220.614 104.696 220.246C104.911 219.877 105.123 219.516 105.331 219.161C105.431 218.983 105.543 218.812 105.632 218.632C105.716 218.449 105.799 218.269 105.881 218.09C106.21 217.375 106.525 216.691 106.826 216.039C107.108 215.379 107.297 214.72 107.519 214.112C107.624 213.806 107.728 213.509 107.827 213.221C107.934 212.934 108.024 212.652 108.079 212.37C108.213 211.812 108.336 211.29 108.452 210.805C108.563 210.319 108.687 209.875 108.762 209.461C108.819 209.045 108.869 208.667 108.915 208.328C109.008 207.657 109.08 207.144 109.128 206.79C109.175 206.444 109.208 206.266 109.208 206.266C109.208 206.266 109.196 206.445 109.157 206.792C109.114 207.148 109.053 207.662 108.973 208.335C108.931 208.675 108.884 209.054 108.833 209.472C108.763 209.887 108.643 210.334 108.538 210.823C108.426 211.311 108.307 211.836 108.178 212.396C108.124 212.68 108.035 212.963 107.931 213.252C107.832 213.542 107.732 213.841 107.628 214.149C107.409 214.761 107.223 215.424 106.944 216.088C106.646 216.745 106.334 217.434 106.008 218.154C105.926 218.334 105.843 218.516 105.759 218.7C105.671 218.881 105.56 219.053 105.46 219.233C105.254 219.59 105.042 219.954 104.828 220.326C104.614 220.698 104.394 221.076 104.171 221.461C103.922 221.83 103.651 222.194 103.383 222.571C101.273 225.589 98.3115 228.689 94.4001 231.216C93.909 231.528 93.4116 231.844 92.91 232.163C92.3905 232.451 91.8456 232.71 91.3049 232.989C91.0335 233.127 90.76 233.266 90.4855 233.404C90.212 233.546 89.9374 233.689 89.6428 233.791C89.063 234.017 88.478 234.246 87.8856 234.477C87.5889 234.591 87.2942 234.713 86.9922 234.822C86.6839 234.908 86.3734 234.996 86.0608 235.083C85.4367 235.259 84.8074 235.436 84.1716 235.615C83.5317 235.774 82.8685 235.859 82.2085 235.985C81.8769 236.043 81.5443 236.103 81.2106 236.162C81.0427 236.189 80.8769 236.226 80.708 236.245L80.1969 236.283C78.8314 236.373 77.4449 236.547 76.0299 236.448C75.3234 236.418 74.6085 236.433 73.8936 236.368C73.1808 236.276 72.4627 236.184 71.7404 236.092C71.3803 236.039 71.0128 236.013 70.6538 235.938C70.2958 235.854 69.9368 235.771 69.5767 235.688C68.8586 235.511 68.1257 235.37 67.4055 235.163C65.9926 234.661 64.5205 234.252 63.1446 233.551C62.794 233.392 62.4434 233.231 62.0907 233.07C61.9154 232.987 61.7359 232.912 61.5637 232.825L61.059 232.531C60.3852 232.139 59.7073 231.745 59.0251 231.349C58.3641 230.922 57.7347 230.436 57.0831 229.978C56.7653 229.738 56.4221 229.528 56.1222 229.262L55.2151 228.468C53.9563 227.453 52.8813 226.223 51.7503 225.029C51.2456 224.38 50.7387 223.726 50.2297 223.07L49.8474 222.577L49.5106 222.051L48.8389 220.992L48.1652 219.928L47.5897 218.801L47.0163 217.667L46.729 217.098L46.4946 216.504C46.1852 215.71 45.8747 214.913 45.5632 214.111C45.3309 213.284 45.0975 212.453 44.8642 211.62C44.0531 208.255 43.7522 204.722 43.9824 201.172C44.3055 197.629 45.1524 194.189 46.4756 190.991C46.8357 190.205 47.1947 189.421 47.5527 188.64C47.9846 187.897 48.4144 187.158 48.8432 186.421C48.9519 186.238 49.0544 186.051 49.1674 185.872L49.5401 185.354L50.2825 184.324L51.0259 183.3L51.857 182.353L52.6838 181.41C52.8222 181.255 52.9563 181.094 53.0988 180.943L53.5529 180.516C54.158 179.947 54.7599 179.381 55.3587 178.818C56.6618 177.814 57.9142 176.767 59.3145 175.959L60.3335 175.315C60.6714 175.098 61.0421 174.944 61.3937 174.756C62.1086 174.405 62.8056 174.021 63.5247 173.702C64.2597 173.417 64.9905 173.133 65.717 172.851L66.2608 172.64C66.4456 172.58 66.6336 172.533 66.8195 172.48C67.1922 172.375 67.5639 172.272 67.9346 172.168C69.4024 171.689 70.9199 171.513 72.393 171.237C73.1364 171.144 73.883 171.117 74.6191 171.055C74.9876 171.029 75.3551 171.001 75.7215 170.975C76.088 170.956 76.4544 170.987 76.8187 170.991C77.5474 171.012 78.2707 171.032 78.9888 171.052C79.7048 171.098 80.4091 171.223 81.1113 171.304C82.5253 171.426 83.8675 171.813 85.2023 172.113L85.7007 172.23C85.8644 172.276 86.0228 172.338 86.1844 172.391C86.5054 172.501 86.8243 172.611 87.1422 172.719C87.7747 172.947 88.4168 173.133 89.024 173.39C89.6238 173.665 90.2183 173.938 90.8075 174.207C91.1022 174.342 91.3947 174.476 91.6861 174.611C91.967 174.764 92.2405 174.931 92.5151 175.089C93.0642 175.409 93.607 175.726 94.1445 176.039C94.4191 176.186 94.6693 176.369 94.9175 176.552C95.1667 176.732 95.4149 176.911 95.662 177.089C96.153 177.449 96.6504 177.789 97.1203 178.155C97.567 178.547 98.0095 178.936 98.4456 179.32C101.919 182.424 104.362 185.945 105.981 189.254C107.583 192.576 108.511 195.66 108.868 198.232C108.923 198.552 108.977 198.864 109.029 199.166C109.087 199.467 109.13 199.761 109.14 200.05C109.18 200.624 109.217 201.161 109.252 201.66C109.281 202.158 109.329 202.619 109.335 203.04C109.321 203.462 109.308 203.844 109.296 204.186C109.271 204.863 109.252 205.381 109.239 205.739C109.223 206.088 109.208 206.266 109.208 206.266Z" fill="#485057"/>
<path d="M465.094 469.885C465.104 469.879 465.042 469.732 464.915 469.453C464.771 469.147 464.579 468.738 464.335 468.215C463.842 467.122 463.201 465.466 462.63 463.263C461.503 458.861 461.109 452.133 462.776 444.141C463.55 440.14 464.798 435.848 466.322 431.297C467.824 426.738 469.567 421.902 470.991 416.674C472.4 411.458 473.51 405.795 473.296 399.86C473.08 393.913 471.319 387.976 469.383 382.068C467.45 376.149 465.452 370.364 464.853 364.545C464.176 358.737 465.419 353.035 468.066 348.363C470.629 343.642 473.854 339.603 476.267 335.42C478.718 331.251 480.251 326.963 481.195 322.976C483.026 314.937 482.385 308.162 481.508 303.699C480.556 299.211 479.496 296.891 479.496 296.891C479.485 296.895 479.527 297.048 479.615 297.343C479.716 297.665 479.851 298.097 480.023 298.648C480.378 299.795 480.837 301.507 481.273 303.744C482.075 308.199 482.642 314.926 480.773 322.877C479.81 326.82 478.27 331.05 475.827 335.162C473.42 339.295 470.181 343.317 467.567 348.095C464.865 352.818 463.566 358.707 464.255 364.607C464.858 370.524 466.87 376.348 468.799 382.259C470.734 388.163 472.475 394.037 472.694 399.884C472.914 405.728 471.83 411.337 470.444 416.527C469.044 421.73 467.32 426.567 465.838 431.139C464.332 435.703 463.099 440.029 462.349 444.059C460.725 452.11 461.188 458.905 462.397 463.324C463.009 465.535 463.69 467.188 464.222 468.268C464.49 468.78 464.701 469.182 464.859 469.482C465.005 469.754 465.085 469.89 465.094 469.885Z" fill="#485057"/>
<path d="M472.989 339.548C472.989 339.548 477.889 323.878 469.098 314.704C468.79 314.381 468.246 314.534 468.167 314.973C467.698 317.561 467.112 325.443 472.989 339.548Z" fill="#3D5EE1"/>
<path d="M470.053 319.922C469.97 319.939 470.11 321.041 470.384 322.813C470.706 324.805 471.084 327.142 471.501 329.725C471.91 332.308 472.282 334.645 472.598 336.635C472.866 338.405 473.028 339.502 473.116 339.495C473.196 339.489 473.188 338.374 473.029 336.583C472.866 334.793 472.551 332.329 472.107 329.626C471.666 326.922 471.193 324.488 470.81 322.734C470.428 320.979 470.136 319.905 470.053 319.922Z" fill="#485057"/>
<path d="M467.233 376.506C467.233 376.506 464.236 360.364 452.175 356.365C451.752 356.225 451.343 356.613 451.478 357.039C452.273 359.545 455.441 366.786 467.233 376.506Z" fill="#3D5EE1"/>
<path d="M455.461 360.534C455.396 360.588 456.035 361.496 457.105 362.935C458.321 364.544 459.748 366.434 461.324 368.521C462.895 370.612 464.316 372.504 465.526 374.117C466.591 375.555 467.246 376.451 467.322 376.402C467.39 376.36 466.861 375.378 465.883 373.869C464.903 372.362 463.471 370.332 461.814 368.151C460.16 365.968 458.604 364.036 457.445 362.666C456.287 361.294 455.527 360.481 455.461 360.534Z" fill="#485057"/>
<path d="M470.492 416.999C470.492 416.999 472.313 400.682 461.935 393.353C461.57 393.096 461.066 393.349 461.072 393.795C461.104 396.425 462.032 404.273 470.492 416.999Z" fill="#3D5EE1"/>
<path d="M463.866 398.298C463.788 398.329 464.135 399.385 464.741 401.072C465.437 402.965 466.255 405.188 467.158 407.643C468.053 410.101 468.863 412.323 469.553 414.218C470.153 415.904 470.521 416.951 470.608 416.926C470.685 416.905 470.464 415.812 469.965 414.085C469.465 412.358 468.685 410 467.733 407.431C466.784 404.862 465.855 402.562 465.145 400.913C464.435 399.264 463.945 398.266 463.866 398.298Z" fill="#485057"/>
<path d="M461.408 457.728C461.408 457.728 462.643 441.357 452.008 434.404C451.634 434.16 451.14 434.432 451.161 434.877C451.288 437.504 452.496 445.314 461.408 457.728Z" fill="#3D5EE1"/>
<path d="M454.116 439.274C454.039 439.309 454.424 440.351 455.091 442.016C455.854 443.883 456.751 446.075 457.74 448.496C458.722 450.92 459.612 453.113 460.37 454.981C461.031 456.644 461.435 457.677 461.521 457.65C461.597 457.627 461.337 456.542 460.777 454.832C460.215 453.125 459.352 450.796 458.308 448.263C457.267 445.73 456.258 443.465 455.489 441.843C454.72 440.22 454.193 439.239 454.116 439.274Z" fill="#485057"/>
<path d="M480.031 325.782C480.031 325.782 494.584 318.182 494.869 305.479C494.879 305.034 494.388 304.757 494.021 305.011C491.858 306.506 485.865 311.658 480.031 325.782Z" fill="#3D5EE1"/>
<path d="M491.848 309.846C491.777 309.798 491.096 310.676 490.035 312.121C488.852 313.756 487.465 315.675 485.932 317.794C484.393 319.909 483.001 321.823 481.815 323.452C480.751 324.893 480.088 325.782 480.157 325.84C480.217 325.892 481 325.098 482.156 323.72C483.309 322.341 484.83 320.378 486.429 318.153C488.03 315.93 489.421 313.877 490.391 312.367C491.363 310.857 491.918 309.893 491.848 309.846Z" fill="#485057"/>
<path d="M464.405 359.431C464.405 359.431 479.392 352.729 480.448 340.067C480.485 339.623 480.011 339.317 479.63 339.548C477.38 340.909 471.085 345.689 464.405 359.431Z" fill="#3D5EE1"/>
<path d="M477.167 344.237C477.1 344.185 476.367 345.02 475.219 346.398C473.94 347.958 472.438 349.789 470.779 351.812C469.115 353.829 467.609 355.655 466.326 357.21C465.177 358.582 464.461 359.429 464.527 359.492C464.584 359.548 465.414 358.803 466.652 357.498C467.886 356.192 469.523 354.324 471.256 352.201C472.989 350.08 474.501 348.114 475.562 346.665C476.622 345.218 477.234 344.288 477.167 344.237Z" fill="#485057"/>
<path d="M473.028 396.969C473.028 396.969 483.319 384.177 478.492 372.423C478.322 372.01 477.761 371.954 477.526 372.333C476.144 374.569 472.715 381.691 473.028 396.969Z" fill="#3D5EE1"/>
<path d="M477.471 377.633C477.388 377.618 477.116 378.695 476.722 380.444C476.294 382.416 475.79 384.729 475.235 387.286C474.672 389.839 474.163 392.151 473.729 394.119C473.332 395.865 473.08 396.945 473.166 396.97C473.242 396.994 473.642 395.952 474.149 394.227C474.653 392.501 475.26 390.093 475.835 387.415C476.412 384.737 476.863 382.298 477.147 380.525C477.432 378.753 477.554 377.648 477.471 377.633Z" fill="#485057"/>
<path d="M462.834 441.143C462.834 441.143 477.707 434.19 478.551 421.511C478.58 421.067 478.101 420.768 477.724 421.006C475.498 422.405 469.283 427.289 462.834 441.143Z" fill="#3D5EE1"/>
<path d="M475.34 425.737C475.272 425.686 474.552 426.534 473.429 427.93C472.176 429.511 470.705 431.367 469.081 433.417C467.451 435.461 465.977 437.312 464.72 438.889C463.594 440.281 462.893 441.139 462.959 441.202C463.017 441.257 463.834 440.498 465.049 439.172C466.262 437.845 467.867 435.95 469.564 433.798C471.262 431.648 472.74 429.657 473.776 428.192C474.812 426.726 475.409 425.786 475.34 425.737Z" fill="#485057"/>
<path d="M433.21 376.594C433.197 376.595 433.19 376.717 433.191 376.955C433.199 377.241 433.207 377.585 433.218 378.005C433.261 378.991 433.32 380.324 433.394 381.986C433.586 385.485 433.853 390.365 434.173 396.203L434.174 396.216L434.178 396.236C435.239 402.177 438.265 408.762 442.329 415.155C445.31 419.864 448.436 424.145 451.131 428.128C453.843 432.098 456.133 435.776 457.73 439.035C459.336 442.29 460.27 445.086 460.816 447.04C461.078 448.021 461.275 448.785 461.388 449.309C461.51 449.831 461.584 450.103 461.605 450.099C461.626 450.096 461.592 449.816 461.509 449.285C461.435 448.751 461.276 447.975 461.049 446.979C460.57 444.996 459.692 442.152 458.121 438.846C456.562 435.534 454.293 431.808 451.601 427.811C448.924 423.8 445.816 419.512 442.849 414.826C438.806 408.465 435.796 401.98 434.695 396.135L434.699 396.169C434.29 390.338 433.947 385.462 433.701 381.966C433.567 380.307 433.46 378.978 433.38 377.994C433.338 377.577 433.304 377.234 433.276 376.95C433.246 376.714 433.224 376.593 433.21 376.594Z" fill="#485057"/>
<path d="M442.066 413.93C442.066 413.93 435.767 398.767 443.69 388.835C443.968 388.486 444.523 388.589 444.642 389.018C445.344 391.553 446.643 399.349 442.066 413.93Z" fill="#3D5EE1"/>
<path d="M443.213 394.117C443.128 394.109 442.936 395.204 442.713 396.985C442.49 398.767 442.241 401.234 442.046 403.967C441.848 406.699 441.758 409.181 441.758 410.979C441.762 412.778 441.854 413.889 441.934 413.888C442.024 413.887 442.085 412.779 442.192 410.992C442.326 408.98 442.484 406.619 442.658 404.01C442.84 401.4 443.006 399.038 443.146 397.025C443.258 395.237 443.297 394.126 443.213 394.117Z" fill="#485057"/>
<g opacity="0.3">
<path d="M442.066 413.93C442.066 413.93 435.767 398.767 443.69 388.835C443.968 388.486 444.523 388.589 444.642 389.018C445.344 391.553 446.643 399.349 442.066 413.93Z" fill="black"/>
</g>
<path d="M461.576 450.47C461.576 450.47 456.527 434.848 465.229 425.59C465.535 425.265 466.079 425.413 466.163 425.85C466.657 428.433 467.319 436.31 461.576 450.47Z" fill="#3D5EE1"/>
<path d="M464.325 430.82C464.242 430.805 463.961 431.882 463.595 433.639C463.228 435.396 462.779 437.835 462.363 440.543C461.945 443.251 461.653 445.717 461.508 447.508C461.365 449.302 461.369 450.417 461.448 450.422C461.538 450.428 461.687 449.329 461.94 447.557C462.237 445.563 462.586 443.222 462.972 440.636C463.364 438.05 463.72 435.709 464.023 433.714C464.279 431.939 464.409 430.835 464.325 430.82Z" fill="#485057"/>
<g opacity="0.3">
<path d="M461.576 450.47C461.576 450.47 456.527 434.848 465.229 425.59C465.535 425.265 466.079 425.413 466.163 425.85C466.657 428.433 467.319 436.31 461.576 450.47Z" fill="black"/>
</g>
<path d="M434.045 395.403C434.045 395.403 420.594 385.987 421.952 373.355C422 372.911 422.523 372.7 422.854 372.999C424.806 374.761 430.084 380.644 434.045 395.403Z" fill="#3D5EE1"/>
<g opacity="0.3">
<path d="M434.045 395.403C434.045 395.403 420.594 385.987 421.952 373.355C422 372.911 422.523 372.7 422.854 372.999C424.806 374.761 430.084 380.644 434.045 395.403Z" fill="black"/>
</g>
<path d="M424.385 378.071C424.309 378.109 424.735 379.138 425.503 380.76C426.27 382.383 427.383 384.599 428.684 387.009C429.983 389.422 431.238 391.565 432.203 393.081C433.171 394.597 433.846 395.485 433.911 395.442C433.986 395.392 433.444 394.426 432.576 392.86C431.61 391.09 430.476 389.013 429.224 386.717C427.977 384.417 426.849 382.334 425.888 380.561C425.023 378.992 424.461 378.033 424.385 378.071Z" fill="#485057"/>
<path d="M456.152 434.981C456.152 434.981 439.93 432.452 435.584 420.512C435.432 420.093 435.808 419.673 436.237 419.795C438.767 420.518 446.097 423.475 456.152 434.981Z" fill="#3D5EE1"/>
<g opacity="0.3">
<path d="M456.152 434.981C456.152 434.981 439.93 432.452 435.584 420.512C435.432 420.093 435.808 419.673 436.237 419.795C438.767 420.518 446.097 423.475 456.152 434.981Z" fill="black"/>
</g>
<path d="M439.847 423.677C439.796 423.745 440.631 424.48 442.035 425.599C443.439 426.718 445.415 428.217 447.645 429.808C449.874 431.402 451.944 432.773 453.478 433.71C455.015 434.645 456.012 435.144 456.052 435.075C456.098 434.998 455.185 434.369 453.716 433.346C452.07 432.182 450.137 430.817 448.002 429.308C445.87 427.791 443.939 426.419 442.296 425.25C440.825 424.223 439.898 423.609 439.847 423.677Z" fill="#485057"/>
<path d="M475.346 464.836L470.694 495.355L452.112 495.324L445.852 464.836H475.346Z" fill="#455A64"/>
<path d="M458.386 474.628C458.863 473.905 459.194 473.032 459.247 472.074C459.317 471.14 458.95 470.004 457.986 469.45C457.025 468.896 455.787 469.096 454.873 469.707C453.917 470.326 453.359 471.412 453.093 472.509C452.826 473.624 452.796 474.784 452.861 475.956C452.937 477.129 453.154 478.332 453.615 479.481C454.065 480.63 454.79 481.716 455.77 482.554C456.744 483.387 457.995 483.985 459.345 484.047C460.696 484.107 461.986 483.641 463.065 482.967C464.149 482.286 465.071 481.423 465.84 480.459C466.601 479.494 467.174 478.339 467.245 477.106C467.304 475.895 466.878 474.634 465.926 473.874C464.962 473.09 463.596 473.147 462.634 473.673C461.643 474.172 460.907 475.121 460.734 476.161C460.377 478.255 461.599 480.143 463.084 480.992C464.604 481.86 466.258 481.885 467.569 481.64C468.902 481.382 469.953 480.857 470.766 480.389C471.579 479.913 472.164 479.477 472.556 479.177C472.946 478.875 473.14 478.702 473.129 478.689C473.118 478.674 472.903 478.819 472.496 479.093C472.086 479.365 471.485 479.772 470.669 480.216C469.854 480.651 468.808 481.137 467.52 481.36C466.248 481.572 464.67 481.512 463.267 480.682C461.903 479.886 460.805 478.099 461.149 476.242C461.308 475.331 461.957 474.512 462.837 474.072C463.701 473.615 464.844 473.591 465.635 474.242C466.43 474.879 466.82 475.998 466.759 477.081C466.693 478.174 466.171 479.241 465.447 480.152C464.716 481.065 463.821 481.898 462.798 482.537C461.777 483.173 460.587 483.594 459.37 483.539C458.155 483.483 457.007 482.944 456.099 482.17C455.187 481.39 454.509 480.384 454.079 479.296C453.639 478.211 453.425 477.058 453.348 475.925C453.279 474.792 453.306 473.66 453.55 472.62C453.794 471.589 454.3 470.618 455.122 470.079C455.926 469.532 456.998 469.37 457.777 469.816C458.57 470.264 458.904 471.199 458.855 472.058C458.818 472.926 458.519 473.754 458.085 474.429C457.172 475.775 455.844 476.603 454.622 477.025C453.387 477.459 452.233 477.513 451.32 477.419C449.47 477.208 448.6 476.528 448.574 476.603C448.57 476.611 448.622 476.649 448.729 476.716C448.838 476.78 448.994 476.888 449.218 476.996C449.663 477.214 450.355 477.486 451.295 477.616C452.231 477.744 453.423 477.72 454.712 477.295C455.991 476.88 457.39 476.053 458.386 474.628Z" fill="#485057"/>
</svg>
