<svg width="530" height="437" viewBox="0 0 530 437" fill="none" xmlns="http://www.w3.org/2000/svg">
<path d="M269.024 436.663C412.789 436.663 529.333 384.994 529.333 321.257C529.333 257.521 412.789 205.852 269.024 205.852C125.26 205.852 8.71582 257.521 8.71582 321.257C8.71582 384.994 125.26 436.663 269.024 436.663Z" fill="white"/>
<path d="M381.055 326.741C441.098 266.698 441.098 169.349 381.055 109.306C321.012 49.2626 223.663 49.2626 163.62 109.306C103.576 169.349 103.576 266.698 163.62 326.741C223.663 386.784 321.012 386.784 381.055 326.741Z" fill="#3D5EE1"/>
<path d="M305.527 373.017C267.506 373.017 230.856 359.158 202.33 333.991L203.975 332.124C232.048 356.888 268.112 370.528 305.527 370.528C390.23 370.528 459.14 301.617 459.14 216.913C459.14 132.212 390.23 63.3014 305.527 63.3014C268.112 63.3014 232.048 76.9409 203.975 101.705L202.33 99.8383C230.856 74.6734 267.506 60.8125 305.527 60.8125C391.601 60.8125 461.629 130.839 461.629 216.913C461.629 302.988 391.601 373.017 305.527 373.017Z" fill="#485057"/>
<path d="M4.11623 215.431C0.83127 210.127 0.0172958 202.476 1.67227 192.476L7.16736 159.275C8.86018 149.049 12.1995 141.321 17.1895 136.092C22.1781 130.867 29.6843 128.25 39.7074 128.25C49.2639 128.25 55.6476 130.56 58.8545 135.177C62.0591 139.796 62.9488 146.415 61.5222 155.04L60.2328 162.824H41.732L43.1525 154.239C43.607 151.491 43.8391 149.277 43.8465 147.598C43.854 145.921 43.3907 144.527 42.4588 143.42C41.5219 142.314 39.8997 141.76 37.5858 141.76C34.1174 141.76 31.6981 142.867 30.331 145.079C28.9615 147.295 27.9235 150.537 27.2163 154.81L20.2433 196.941C19.5229 201.291 19.5642 204.536 20.3673 206.672C21.1695 208.81 23.1502 209.878 26.3121 209.878C29.5495 209.878 31.8113 208.789 33.0956 206.614C34.3813 204.44 35.3767 201.216 36.0852 196.941L37.5811 187.897H56.0839L54.8141 195.566C53.3483 204.422 50.2485 211.271 45.515 216.117C40.7819 220.965 33.5964 223.386 23.9608 223.386C14.0167 223.387 7.40084 220.735 4.11623 215.431Z" fill="#3D5EE1"/>
<path d="M68.1382 215.659C64.7512 210.508 63.8862 202.935 65.5412 192.934L71.2626 158.36C72.9176 148.362 76.2816 140.843 81.3551 135.807C86.4288 130.769 93.9387 128.25 103.882 128.25C113.749 128.25 120.403 130.789 123.842 135.863C127.28 140.94 128.178 148.439 126.536 158.36L120.794 193.048C119.152 202.971 115.766 210.507 110.634 215.659C105.503 220.811 98.0039 223.386 88.1362 223.386C78.1917 223.387 71.5248 220.812 68.1382 215.659ZM97.446 206.614C98.9212 204.44 99.9775 201.445 100.609 197.628L107.866 153.781C108.498 149.965 108.428 147.009 107.66 144.907C106.888 142.81 104.886 141.76 101.646 141.76C98.4086 141.76 96.0559 142.81 94.5928 144.907C93.1271 147.008 92.0783 149.965 91.4464 153.781L84.1893 197.628C83.5452 201.522 83.5841 204.536 84.3119 206.673C85.036 208.81 87.0569 209.879 90.3723 209.879C93.6106 209.878 95.9667 208.789 97.446 206.614Z" fill="#3D5EE1"/>
<path d="M145.32 129.398H165.556L167.435 187.901L189.377 129.398H208.919L195.304 222.131H181.429L190.347 159.165L167.9 222.131H156.105L154.21 158.821L142.344 222.131H128.352L145.32 129.398Z" fill="#3D5EE1"/>
<path d="M224.645 129.398H243.608L228.259 222.131H209.295L224.645 129.398Z" fill="#3D5EE1"/>
<path d="M257.829 129.398H271.127L283.963 177.596L291.942 129.398H307.783L292.434 222.131H279.599L267.274 170.842L258.784 222.131H242.479L257.829 129.398Z" fill="#3D5EE1"/>
<path d="M312.137 215.201C309.16 209.668 308.526 201.75 310.231 191.446L315.366 160.421C317.11 149.889 320.493 141.894 325.522 136.436C330.548 130.98 338.073 128.25 348.096 128.25C357.73 128.25 364.205 130.58 367.523 135.234C370.837 139.891 371.769 146.607 370.317 155.382L369.426 160.765H350.924L352.004 154.239C352.712 149.965 352.75 146.816 352.122 144.794C351.491 142.772 349.481 141.76 346.091 141.76C342.623 141.76 340.196 142.905 338.816 145.194C337.434 147.485 336.384 150.804 335.663 155.155L328.842 196.368C328.122 200.719 328.185 204.058 329.034 206.385C329.881 208.715 332.002 209.878 335.395 209.878C338.708 209.878 341.245 208.638 343.007 206.157C344.764 203.677 346.012 200.223 346.745 195.796L348.375 185.951H339.24L341.134 174.502H367.499L359.616 222.128H347.127L347.22 213.885C343.306 220.295 337.649 223.501 330.248 223.501C321.151 223.501 315.113 220.735 312.137 215.201Z" fill="#3D5EE1"/>
<path d="M153.372 326.182C149.829 321.488 148.682 314.218 149.927 304.373L166.802 301.625C165.983 307.503 166.095 311.834 167.138 314.618C168.18 317.406 170.204 318.798 173.21 318.798C175.447 318.798 177.182 318.093 178.418 316.679C179.652 315.268 180.454 313.455 180.822 311.241C181.428 307.578 181.112 304.47 179.88 301.912C178.644 299.355 176.507 296.55 173.467 293.496L165.137 285.139C161.812 281.933 159.433 278.499 157.996 274.837C156.559 271.173 156.265 266.785 157.111 261.67C158.362 254.115 161.58 248.295 166.765 244.212C171.952 240.129 178.514 238.086 186.454 238.086C194.934 238.086 200.431 240.51 202.943 245.357C205.456 250.204 206.325 256.366 205.548 263.846L188.615 266.25C189.269 261.367 189.306 257.76 188.729 255.431C188.151 253.104 186.435 251.939 183.584 251.939C181.502 251.939 179.754 252.722 178.338 254.286C176.923 255.851 176.039 257.703 175.685 259.838C175.18 262.891 175.426 265.468 176.429 267.566C177.43 269.667 179.186 271.973 181.701 274.492L189.818 282.734C193.644 286.628 196.473 290.732 198.304 295.043C200.134 299.355 200.57 304.413 199.61 310.212C198.877 314.639 197.22 318.589 194.642 322.06C192.061 325.535 188.776 328.263 184.788 330.246C180.797 332.229 176.412 333.222 171.634 333.222C162.997 333.222 156.911 330.876 153.372 326.182Z" fill="#3D5EE1"/>
<path d="M212.11 325.496C208.723 320.343 207.858 312.77 209.513 302.77L215.235 268.196C216.89 258.198 220.255 250.679 225.327 245.644C230.4 240.605 237.911 238.086 247.855 238.086C257.722 238.086 264.374 240.626 267.814 245.699C271.251 250.776 272.15 258.274 270.508 268.195L264.766 302.885C263.123 312.807 259.737 320.343 254.606 325.496C249.474 330.647 241.975 333.222 232.108 333.222C222.163 333.223 215.496 330.648 212.11 325.496ZM241.417 316.451C242.894 314.276 243.949 311.281 244.58 307.463L251.838 263.617C252.47 259.801 252.399 256.844 251.631 254.744C250.86 252.645 248.857 251.595 245.618 251.595C242.381 251.595 240.028 252.646 238.564 254.744C237.098 256.844 236.049 259.801 235.418 263.617L228.16 307.463C227.516 311.357 227.555 314.372 228.284 316.508C229.008 318.645 231.028 319.714 234.343 319.714C237.582 319.714 239.939 318.626 241.417 316.451Z" fill="#3D5EE1"/>
<path d="M278.713 325.496C275.325 320.343 274.46 312.77 276.115 302.77L281.838 268.196C283.492 258.198 286.856 250.679 291.93 245.644C297.003 240.605 304.513 238.086 314.457 238.086C324.324 238.086 330.977 240.626 334.416 245.699C337.853 250.776 338.752 258.274 337.11 268.195L331.368 302.885C329.726 312.807 326.339 320.343 321.208 325.496C316.077 330.647 308.578 333.222 298.71 333.222C288.766 333.223 282.099 330.648 278.713 325.496ZM308.02 316.451C309.495 314.276 310.552 311.281 311.184 307.463L318.442 263.617C319.073 259.801 319.002 256.844 318.234 254.744C317.462 252.645 315.459 251.595 312.221 251.595C308.984 251.595 306.631 252.646 305.167 254.744C303.701 256.844 302.652 259.801 302.022 263.617L294.764 307.463C294.119 311.357 294.159 314.372 294.886 316.508C295.61 318.645 297.631 319.714 300.946 319.714C304.185 319.714 306.541 318.626 308.02 316.451Z" fill="#3D5EE1"/>
<path d="M354.623 239.234H367.921L380.757 287.433L388.735 239.234H404.577L389.229 331.967H376.394L364.068 280.678L355.579 331.967H339.273L354.623 239.234Z" fill="#3D5EE1"/>
<path d="M15.728 203.813C12.4433 198.509 11.629 190.859 13.284 180.859L18.7794 147.657C20.4719 137.431 23.8116 129.704 28.8012 124.475C33.7898 119.249 41.2963 116.633 51.3195 116.633C60.876 116.633 67.2594 118.943 70.4663 123.56C73.6708 128.179 74.5605 134.798 73.1339 143.423L71.8445 151.207H53.3438L54.7642 142.622C55.219 139.874 55.4508 137.66 55.4583 135.981C55.4657 134.304 55.0025 132.91 54.0706 131.803C53.1339 130.697 51.5114 130.143 49.1975 130.143C45.7294 130.143 43.3098 131.25 41.9427 133.461C40.5733 135.678 39.5353 138.92 38.8281 143.193L31.8551 185.324C31.1343 189.674 31.1756 192.919 31.9791 195.055C32.7809 197.193 34.7619 198.261 37.9239 198.261C41.1612 198.261 43.4227 197.172 44.7073 194.997C45.993 192.823 46.9884 189.599 47.697 185.324L49.1928 176.28H67.6956L66.4258 183.949C64.96 192.804 61.8603 199.653 57.1271 204.5C52.3936 209.347 45.2081 211.769 35.5725 211.769C25.6284 211.769 19.0126 209.117 15.728 203.813Z" fill="#485057"/>
<path d="M79.7499 204.042C76.3633 198.89 75.4979 191.317 77.1529 181.317L82.8744 146.742C84.5294 136.745 87.8934 129.226 92.9668 124.189C98.0405 119.152 105.55 116.633 115.493 116.633C125.361 116.633 132.015 119.171 135.454 124.246C138.892 129.323 139.79 136.821 138.148 146.742L132.406 181.431C130.764 191.353 127.377 198.89 122.246 204.041C117.115 209.194 109.616 211.769 99.7482 211.769C89.8035 211.769 83.1366 209.194 79.7499 204.042ZM109.057 194.997C110.533 192.823 111.589 189.827 112.221 186.01L119.478 142.163C120.11 138.348 120.04 135.391 119.272 133.29C118.5 131.192 116.497 130.142 113.258 130.142C110.02 130.142 107.668 131.192 106.205 133.29C104.739 135.391 103.69 138.348 103.058 142.163L95.801 186.01C95.157 189.904 95.1959 192.919 95.9237 195.055C96.6481 197.193 98.669 198.261 101.984 198.261C105.222 198.261 107.578 197.172 109.057 194.997Z" fill="#485057"/>
<path d="M156.932 117.781H177.168L179.047 176.283L200.989 117.781H220.531L206.916 210.514H193.04L201.959 147.548L179.511 210.514H167.716L165.822 147.204L153.956 210.514H139.964L156.932 117.781Z" fill="#485057"/>
<path d="M236.256 117.781H255.22L239.87 210.514H220.907L236.256 117.781Z" fill="#485057"/>
<path d="M269.441 117.781H282.739L295.575 165.978L303.553 117.781H319.395L304.045 210.514H291.21L278.885 159.225L270.396 210.514H254.091L269.441 117.781Z" fill="#485057"/>
<path d="M323.749 203.584C320.772 198.051 320.138 190.132 321.842 179.828L326.978 148.804C328.722 138.271 332.105 130.276 337.134 124.819C342.16 119.362 349.685 116.633 359.708 116.633C369.342 116.633 375.817 118.962 379.134 123.617C382.448 128.273 383.38 134.99 381.928 143.765L381.037 149.148H362.536L363.616 142.622C364.323 138.348 364.362 135.199 363.734 133.177C363.103 131.155 361.093 130.142 357.703 130.142C354.235 130.142 351.808 131.287 350.427 133.577C349.046 135.867 347.995 139.186 347.275 143.538L340.454 184.751C339.733 189.102 339.797 192.441 340.646 194.768C341.493 197.098 343.614 198.26 347.007 198.26C350.32 198.26 352.857 197.021 354.619 194.539C356.376 192.059 357.624 188.605 358.357 184.178L359.987 174.332H350.852L352.746 162.884H379.111L371.227 210.509H358.738L358.832 202.267C354.918 208.677 349.261 211.883 341.86 211.883C332.762 211.884 326.725 209.118 323.749 203.584Z" fill="#485057"/>
<path d="M164.983 314.565C161.441 309.871 160.294 302.601 161.538 292.755L178.414 290.008C177.595 295.886 177.707 300.217 178.749 303.001C179.791 305.789 181.815 307.181 184.822 307.181C187.058 307.181 188.793 306.475 190.029 305.062C191.264 303.651 192.066 301.838 192.433 299.624C193.039 295.961 192.724 292.852 191.491 290.295C190.255 287.737 188.118 284.933 185.079 281.879L176.748 273.522C173.424 270.316 171.044 266.882 169.608 263.22C168.17 259.556 167.876 255.167 168.723 250.052C169.973 242.498 173.191 236.678 178.377 232.595C183.563 228.512 190.125 226.469 198.066 226.469C206.545 226.469 212.042 228.893 214.554 233.739C217.067 238.587 217.936 244.749 217.159 252.229L200.226 254.633C200.88 249.75 200.918 246.143 200.34 243.814C199.762 241.486 198.046 240.322 195.195 240.322C193.113 240.322 191.365 241.105 189.949 242.669C188.535 244.234 187.65 246.086 187.296 248.221C186.791 251.274 187.037 253.851 188.04 255.949C189.041 258.05 190.797 260.356 193.312 262.875L201.429 271.117C205.255 275.011 208.084 279.114 209.916 283.426C211.746 287.737 212.181 292.795 211.221 298.594C210.488 303.021 208.832 306.971 206.253 310.443C203.672 313.917 200.387 316.646 196.399 318.629C192.408 320.612 188.023 321.605 183.245 321.605C174.609 321.605 168.523 319.258 164.983 314.565Z" fill="#485057"/>
<path d="M223.722 313.879C220.335 308.726 219.47 301.153 221.125 291.153L226.847 256.578C228.502 246.581 231.866 239.062 236.939 234.026C242.012 228.988 249.522 226.469 259.467 226.469C269.334 226.469 275.986 229.009 279.426 234.082C282.863 239.16 283.761 246.657 282.12 256.578L276.378 291.268C274.735 301.191 271.349 308.726 266.218 313.879C261.086 319.03 253.587 321.605 243.719 321.605C233.775 321.605 227.109 319.03 223.722 313.879ZM253.029 304.834C254.506 302.658 255.561 299.664 256.193 295.845L263.45 251.999C264.082 248.183 264.011 245.226 263.243 243.126C262.472 241.028 260.469 239.978 257.23 239.978C253.993 239.978 251.64 241.028 250.176 243.126C248.71 245.226 247.662 248.183 247.03 251.999L239.773 295.845C239.129 299.739 239.167 302.754 239.897 304.89C240.62 307.028 242.641 308.096 245.956 308.096C249.194 308.097 251.55 307.009 253.029 304.834Z" fill="#485057"/>
<path d="M290.326 313.879C286.938 308.726 286.073 301.153 287.728 291.153L293.45 256.578C295.104 246.581 298.468 239.062 303.543 234.026C308.615 228.988 316.125 226.469 326.069 226.469C335.937 226.469 342.589 229.009 346.028 234.082C349.466 239.16 350.364 246.657 348.722 256.578L342.98 291.268C341.338 301.191 337.952 308.726 332.82 313.879C327.689 319.03 320.19 321.605 310.322 321.605C300.378 321.605 293.711 319.03 290.326 313.879ZM319.632 304.834C321.108 302.658 322.165 299.664 322.797 295.845L330.054 251.999C330.685 248.183 330.615 245.226 329.847 243.126C329.075 241.028 327.072 239.978 323.833 239.978C320.596 239.978 318.243 241.028 316.779 243.126C315.314 245.226 314.265 248.183 313.634 251.999L306.377 295.845C305.732 299.739 305.772 302.754 306.498 304.89C307.223 307.028 309.243 308.096 312.559 308.096C315.797 308.097 318.153 307.009 319.632 304.834Z" fill="#485057"/>
<path d="M366.235 227.609H379.533L392.369 275.808L400.347 227.609H416.189L400.84 320.342H388.005L375.68 269.053L367.191 320.342H350.885L366.235 227.609Z" fill="#485057"/>
<path d="M429.672 23.5547L389.846 63.375L391.605 65.1349L431.431 25.3146L429.672 23.5547Z" fill="#485057"/>
<path d="M178.911 370.157L157.795 391.273L159.555 393.033L180.671 371.917L178.911 370.157Z" fill="#485057"/>
<path d="M252.318 28.325L219.838 60.8047L221.598 62.5643L254.078 30.0847L252.318 28.325Z" fill="#485057"/>
<path d="M494.603 151.797L439.955 206.445L441.714 208.205L496.362 153.557L494.603 151.797Z" fill="#485057"/>
<path d="M34.1736 101.916C33.1866 100.609 32.8687 98.5863 33.2136 95.8447L37.913 95.0767C37.6866 96.7148 37.7174 97.9204 38.0079 98.6982C38.2985 99.4709 38.8608 99.8598 39.6984 99.8598C40.3215 99.8598 40.8053 99.6652 41.1479 99.2716C41.4929 98.8779 41.7166 98.3725 41.8186 97.7552C41.9876 96.7368 41.9001 95.8691 41.5561 95.1568C41.2125 94.4449 40.6168 93.6647 39.77 92.8139L37.4501 90.4878C36.5256 89.5938 35.8617 88.6359 35.4619 87.6175C35.0622 86.5967 34.9798 85.3742 35.2153 83.95C35.564 81.8453 36.4597 80.2265 37.9035 79.0891C39.3483 77.9515 41.176 77.3828 43.3878 77.3828C45.749 77.3828 47.2799 78.0586 47.9787 79.4074C48.6788 80.7563 48.9204 82.4721 48.7042 84.5575L43.9892 85.2235C44.1714 83.8672 44.1812 82.861 44.0207 82.2123C43.8588 81.5635 43.3814 81.2402 42.5867 81.2402C42.0069 81.2402 41.5196 81.4591 41.126 81.894C40.7323 82.3315 40.4867 82.8468 40.3884 83.4398C40.2475 84.2906 40.3154 85.01 40.5962 85.5932C40.8746 86.1767 41.3628 86.8207 42.0629 87.5229L44.3234 89.8171C45.3891 90.9011 46.1778 92.0435 46.687 93.2443C47.1972 94.4448 47.3178 95.8545 47.0502 97.4683C46.8458 98.7029 46.3856 99.8014 45.6659 100.769C44.9489 101.736 44.0338 102.494 42.9232 103.049C41.8112 103.603 40.5901 103.88 39.2591 103.88C36.8547 103.88 35.1592 103.224 34.1736 101.916Z" fill="#485057"/>
<path d="M54.9258 81.5942H50.9009L51.5449 77.7031H64.877L64.234 81.5942H60.2722L56.6413 103.529H51.2952L54.9258 81.5942Z" fill="#485057"/>
<path d="M70.0632 77.7031H75.956L76.7058 103.529H71.8108L71.7837 97.8541H67.6618L65.7247 103.529H60.7324L70.0632 77.7031ZM71.8071 94.6023L71.9493 84.2071L68.684 94.6023H71.8071Z" fill="#485057"/>
<path d="M83.2936 93.2947L80.7852 77.7031H85.7775L87.0753 86.7906L91.1546 77.7031H96.0179L88.4144 93.2947L86.7202 103.529H81.5991L83.2936 93.2947Z" fill="#485057"/>
<path d="M108.126 81.5942H104.102L104.746 77.7031H118.078L117.435 81.5942H113.473L109.842 103.529H104.497L108.126 81.5942Z" fill="#485057"/>
<path d="M119.059 102.907C118.071 102.258 117.453 101.318 117.206 100.085C116.958 98.8529 116.994 97.2808 117.311 95.3653L120.233 77.7031H125.45L122.405 96.0995C122.202 97.3338 122.192 98.3012 122.376 99.0013C122.562 99.701 123.125 100.051 124.07 100.051C125.015 100.051 125.696 99.701 126.111 99.0013C126.529 98.3012 126.839 97.3338 127.042 96.0995L130.088 77.7031H135.337L132.414 95.3653C132.098 97.2808 131.612 98.8529 130.956 100.085C130.301 101.318 129.368 102.258 128.155 102.907C126.941 103.556 125.369 103.881 123.437 103.881C121.505 103.881 120.045 103.556 119.059 102.907Z" fill="#485057"/>
<path d="M139.041 77.7031H142.745L146.32 91.1268L148.541 77.7031H152.953L148.679 103.529H145.105L141.672 89.2454L139.308 103.529H134.767L139.041 77.7031Z" fill="#485057"/>
<path d="M156.881 77.7031H168.25L167.648 81.3368H161.561L160.427 88.1932H165.128L164.522 91.8607H159.82L158.48 99.9588H164.631L164.041 103.529H152.607L156.881 77.7031Z" fill="#485057"/>
<path d="M171.018 77.7031H177.395C179.584 77.7031 181.251 77.9853 182.392 78.5465C183.534 79.1104 184.27 79.9781 184.602 81.1469C184.935 82.316 184.941 83.8693 184.62 85.8013L183.064 95.2071C182.737 97.1831 182.217 98.7725 181.502 99.973C180.788 101.174 179.772 102.068 178.451 102.651C177.13 103.237 175.397 103.529 173.25 103.529H166.745L171.018 77.7031ZM173.791 99.8619C174.715 99.8619 175.421 99.7186 175.908 99.4317C176.395 99.1449 176.744 98.7245 176.954 98.1728C177.164 97.621 177.355 96.8239 177.527 95.7812L179.295 85.0992C179.457 84.1223 179.509 83.3834 179.453 82.8853C179.396 82.3846 179.173 82.0129 178.782 81.7696C178.395 81.5243 177.737 81.4003 176.816 81.4003H175.689L172.632 99.8622H173.791V99.8619Z" fill="#485057"/>
<path d="M185.5 98.9692H190.137L189.382 103.529H184.745L185.5 98.9692ZM189.074 77.7656H193.937L188.984 97.1827H187.276L189.074 77.7656Z" fill="#485057"/>
<path d="M128.764 276.377C130.494 253.764 128.94 234.068 125.22 224.258C89.7143 246.112 51.3301 255.592 42.8427 257.507L40.3551 290.026C45.1974 291.573 60.1544 296.651 78.2037 305.363L78.0659 307.165C77.8557 309.915 75.4547 312.085 72.7137 312.002L35.7788 310.884C33.0385 310.802 30.9797 308.496 31.1902 305.746L32.6131 287.147L35.3108 287.229L37.3983 259.942L20.8316 259.441C19.8939 259.412 19.0702 260.463 18.3731 262.142L13.0507 261.981C9.5498 261.875 7.88604 283.623 11.3876 283.718L16.7097 283.879C17.1462 285.604 17.8058 286.699 18.7438 286.727L27.0829 286.98L25.66 305.579C25.2157 311.389 29.5643 316.259 35.3537 316.434L72.2887 317.552C77.8564 317.721 82.7477 313.484 83.5113 307.993C94.3819 313.484 106.062 320.217 117.188 328.236C122.429 318.751 127.022 299.143 128.764 276.377Z" fill="#485057"/>
<path d="M134.699 218.072C133.051 218.022 131.381 219.186 129.754 221.371C134.461 229.635 136.621 251.284 134.687 276.564C132.747 301.928 127.261 323.391 121.292 331.277C121.353 331.325 121.422 331.373 121.484 331.422C122.744 333.546 124.185 334.739 125.77 334.787C133.402 335.018 141.596 309.074 144.061 276.848C146.527 244.621 142.332 218.303 134.699 218.072Z" fill="#485057"/>
<path d="M144.401 62.5653C138.022 62.5653 132.832 57.3763 132.832 50.9986C132.832 44.619 138.022 39.4297 144.401 39.4297C150.78 39.4297 155.969 44.619 155.969 50.9986C155.969 57.376 150.78 62.5653 144.401 62.5653ZM144.401 41.9186C139.394 41.9186 135.321 45.9918 135.321 50.9986C135.321 56.0031 139.394 60.0764 144.401 60.0764C149.408 60.0764 153.48 56.0031 153.48 50.9986C153.48 45.9918 149.408 41.9186 144.401 41.9186Z" fill="#485057"/>
<path d="M250.589 422.422C243.397 422.422 237.546 416.572 237.546 409.38C237.546 402.189 243.397 396.336 250.589 396.336C257.78 396.336 263.632 402.189 263.632 409.38C263.632 416.572 257.78 422.422 250.589 422.422ZM250.589 398.824C244.769 398.824 240.034 403.559 240.034 409.38C240.034 415.199 244.769 419.933 250.589 419.933C256.409 419.933 261.143 415.199 261.143 409.38C261.143 403.559 256.409 398.824 250.589 398.824Z" fill="#485057"/>
</svg>
