<svg width="500" height="500" viewBox="0 0 500 500" fill="none" xmlns="http://www.w3.org/2000/svg">
<path d="M76.3351 230.397C-19.575 285.771 -19.572 375.549 76.34 430.923C172.252 486.297 327.755 486.297 423.665 430.923C519.575 375.549 519.572 285.771 423.66 230.397C327.748 175.023 172.245 175.024 76.3351 230.397Z" fill="#F5F5F5"/>
<path d="M448.137 230.361C447.639 230.849 446.836 231.53 445.819 232.404C439.426 237.842 424.535 250.497 422.654 268.132L420.601 267.603C420.418 248.27 434.048 228.46 443.43 224.455C443.654 224.363 443.755 224.109 443.664 223.886C443.562 223.662 443.308 223.561 443.085 223.652C433.632 227.677 419.625 247.091 419.727 267.379L418.334 267.023C417.816 265.265 414.756 253.067 423.274 236.875C424.758 234.059 426.415 231.467 428.173 229.16L428.254 229.058C434.18 221.353 441.193 216.952 446.001 218.518C448.461 219.321 450.097 220.968 450.605 223.163C451.176 225.604 450.261 228.298 448.137 230.361Z" fill="white"/>
<path d="M437.19 212.291C433.338 217.81 429.353 223.512 427.503 228.625C425.704 230.963 424.007 233.605 422.502 236.472C419.757 241.676 418.203 246.494 417.359 250.692C416.576 221.327 432.687 198.294 437.606 194.188C437.789 194.036 437.819 193.761 437.657 193.578C437.504 193.395 437.23 193.365 437.047 193.517C431.812 197.878 414.137 223.258 416.708 254.951C416.708 254.961 416.708 254.982 416.718 254.992C416.129 260.877 416.932 265.065 417.358 266.732L414.929 266C414.279 263.794 409.217 245.163 413.374 220.484C415.59 207.301 423.233 194.453 431.548 189.95C435.4 187.866 439.171 187.592 442.759 189.157C444.711 190.011 445.869 191.18 446.316 192.745C447.619 197.339 442.547 204.596 437.19 212.291Z" fill="white"/>
<path d="M451.461 222.975C450.882 220.505 448.991 218.584 446.267 217.7C441.652 216.186 435.198 219.713 429.445 226.258C428.795 227.01 428.144 227.793 427.504 228.626C425.705 230.964 424.008 233.606 422.503 236.473C419.758 241.677 418.204 246.495 417.36 250.693C417.065 252.208 416.862 253.651 416.72 254.993C416.131 260.878 416.934 265.066 417.36 266.733C417.482 267.241 417.574 267.516 417.584 267.536C417.625 267.638 417.696 267.719 417.787 267.77L417.868 267.8C417.878 267.81 417.878 267.81 417.888 267.81L419.992 268.349L422.93 269.101C422.991 269.121 423.042 269.121 423.103 269.111C423.164 269.101 423.235 269.08 423.286 269.04C423.388 268.969 423.459 268.847 423.469 268.725C425.085 251.181 440.007 238.486 446.39 233.068C447.416 232.194 448.229 231.503 448.748 230.984C451.085 228.707 452.101 225.709 451.461 222.975ZM448.137 230.364C447.639 230.852 446.836 231.533 445.819 232.407C439.426 237.845 424.535 250.5 422.654 268.135L420.601 267.606L419.727 267.382L418.334 267.026C417.816 265.268 414.756 253.07 423.274 236.878C424.758 234.062 426.415 231.47 428.173 229.163L428.254 229.061C434.18 221.356 441.193 216.955 446.001 218.521C448.461 219.324 450.097 220.971 450.605 223.166C451.176 225.607 450.261 228.301 448.137 230.364Z" fill="#3D5EE1"/>
<path d="M443.431 224.461C434.049 228.466 420.419 248.276 420.602 267.609V267.945C420.612 268.158 420.45 268.352 420.236 268.382H420.175C420.114 268.382 420.053 268.372 419.992 268.352C419.85 268.281 419.738 268.128 419.738 267.955C419.738 267.772 419.728 267.579 419.728 267.386C419.626 247.098 433.633 227.684 443.086 223.659C443.31 223.567 443.564 223.669 443.665 223.893C443.756 224.115 443.655 224.369 443.431 224.461Z" fill="#3D5EE1"/>
<path d="M437.902 212.793C434.751 217.306 431.508 221.961 429.445 226.261C428.998 227.196 428.612 228.111 428.286 229.005C428.276 229.025 427.889 229.33 427.727 229.269C427.503 229.188 427.392 228.934 427.473 228.71C427.483 228.679 427.493 228.659 427.503 228.629C429.353 223.516 433.337 217.814 437.19 212.295C442.547 204.6 447.619 197.343 446.318 192.749C445.871 191.184 444.712 190.015 442.761 189.161C439.173 187.596 435.402 187.87 431.55 189.954C423.236 194.457 415.592 207.305 413.376 220.488C409.219 245.167 414.281 263.799 414.931 266.004L417.36 266.736L418.122 266.97C418.346 267.041 418.478 267.285 418.407 267.519C418.356 267.682 418.224 267.793 418.061 267.824C418 267.834 417.929 267.824 417.868 267.804L417.787 267.774L414.453 266.778C414.311 266.737 414.199 266.626 414.158 266.493C414.097 266.3 408.069 246.713 412.511 220.347C414.778 206.92 422.604 193.808 431.132 189.193C435.229 186.967 439.264 186.693 443.106 188.37C445.281 189.315 446.643 190.708 447.151 192.517C448.564 197.495 443.39 204.926 437.902 212.793Z" fill="#3D5EE1"/>
<path d="M437.607 194.191C432.688 198.297 416.577 221.33 417.36 250.695C417.391 252.077 417.472 253.48 417.584 254.883C417.604 255.117 417.442 255.32 417.218 255.35C417.208 255.35 417.188 255.35 417.177 255.36C416.953 255.37 416.76 255.218 416.72 254.994C416.71 254.984 416.71 254.963 416.71 254.953C414.139 223.26 431.814 197.88 437.049 193.519C437.232 193.367 437.506 193.397 437.659 193.58C437.82 193.764 437.79 194.039 437.607 194.191Z" fill="#3D5EE1"/>
<path d="M277.336 86.1495L268.008 91.5355C268.054 91.1185 268.087 90.7055 268.087 90.3005V87.5985C268.087 82.7895 264.711 80.8395 260.545 83.2445C258.858 84.2185 257.307 85.7615 256.05 87.5665C255.368 81.5195 250.623 79.2665 244.861 82.5935C238.63 86.1915 233.579 94.9405 233.579 102.136V106.179C233.579 108.043 233.924 109.612 234.534 110.863L226.785 115.337C224.475 116.671 222.602 119.915 222.602 122.582C222.602 125.25 224.475 126.331 226.785 124.997L277.336 95.8105C279.646 94.4765 281.519 91.2325 281.519 88.5645C281.52 85.8965 279.647 84.8155 277.336 86.1495Z" fill="#EBEBEB"/>
<path d="M334.469 91.9783L327.429 96.0433C327.464 95.7293 327.488 95.4163 327.488 95.1113V93.0713C327.488 89.4413 324.94 87.9703 321.797 89.7853C320.524 90.5203 319.353 91.6843 318.405 93.0473C317.89 88.4833 314.309 86.7833 309.96 89.2943C305.257 92.0093 301.445 98.6123 301.445 104.042V107.093C301.445 108.5 301.705 109.684 302.166 110.628L296.318 114.004C294.574 115.011 293.161 117.459 293.161 119.472C293.161 121.485 294.574 122.301 296.318 121.295L334.469 99.2683C336.213 98.2613 337.626 95.8133 337.626 93.8003C337.626 91.7873 336.212 90.9713 334.469 91.9783Z" fill="#EBEBEB"/>
<path d="M277.977 399.247L270.5 394.929L275.939 391.789C278.771 390.149 279.194 387.828 279.194 386.584C279.191 385.347 278.766 383.026 275.934 381.392L262.388 373.571C260.886 372.704 259.103 372.263 257.08 372.261C255.063 372.262 253.28 372.704 251.781 373.569L242.643 378.846L195.418 351.58C193.917 350.715 192.136 350.275 190.119 350.273C188.106 350.273 186.322 350.713 184.813 351.581L165.512 362.725C163.846 363.689 162.753 364.639 162.052 365.741C161.219 367.074 160.962 368.715 161.308 370.716L171.298 420.704C171.878 423.215 173.76 425.404 176.891 427.21L190.437 435.031C191.94 435.899 193.72 436.339 195.727 436.339H195.737C197.756 436.339 199.541 435.899 201.04 435.032L239.447 412.856L250.631 419.313C252.135 420.181 253.914 420.621 255.943 420.621C257.951 420.621 259.733 420.182 261.238 419.314L277.97 409.651C280.808 408.022 281.235 405.696 281.237 404.44C281.236 403.203 280.809 400.88 277.977 399.247ZM203.601 401.385L201.357 390.127L212.229 396.404L203.601 401.385Z" fill="#E0E0E0"/>
<path d="M63.294 395.346C71.001 398.156 78.372 401.919 85.195 406.528C92.864 411.708 99.868 417.966 108.042 422.268C118.665 427.859 130.878 429.883 142.838 429.308C149.612 428.983 156.983 427.501 161.336 422.158C162.451 420.79 163.341 419.13 163.37 417.354C163.413 414.746 161.637 412.508 159.797 410.712C149.983 401.13 136.253 397.186 123.008 394.102C109.763 391.018 101.828 387.165 88.839 380.225C83.28 377.254 77.803 374.062 72.201 371.261C72.156 371.238 72.11 371.216 72.065 371.193C69.221 369.779 66.551 368.215 63.551 367.111C59.718 365.701 56.542 364.674 52.314 364.986C48.103 365.297 43.359 365.236 40.39 368.666C37.813 371.644 37.532 375.667 39.069 379.21C43.176 388.678 54.431 392.115 63.294 395.346Z" fill="#E0E0E0"/>
<path d="M353.188 321.451C349.803 319.301 346.06 317.04 342.062 314.731C338.097 312.442 334.099 310.234 330.15 308.153C325.091 305.541 319.519 303.388 313.587 301.75C307.604 300.1 301.289 299.225 294.82 299.145L293.946 299.141C287.772 299.141 281.371 299.934 274.922 301.5C268.129 303.153 261.308 305.941 254.645 309.787C247.746 313.771 242.899 317.75 239.829 321.957C236.618 326.365 235.068 330.829 235.224 335.228C235.382 339.621 237.11 343.835 240.352 347.748C243.3 351.315 247.152 354.646 251.828 357.669C255.327 359.884 259.156 362.195 263.209 364.535C267.261 366.875 271.175 369.035 274.862 370.964C279.934 373.583 285.508 375.736 291.425 377.367C297.408 379.019 303.723 379.895 310.193 379.971L311.07 379.976C317.259 379.976 323.659 379.183 330.091 377.617C336.882 375.964 343.705 373.177 350.367 369.33C357.271 365.343 362.117 361.364 365.183 357.163C368.398 352.757 369.948 348.29 369.789 343.889C369.631 339.502 367.905 335.289 364.659 331.368C361.707 327.798 357.855 324.467 353.188 321.451ZM330.211 347.928C329.865 348.455 328.885 349.567 326.213 351.109C324.003 352.385 321.824 353.265 319.733 353.724C318.066 354.09 316.402 354.275 314.787 354.275C314.347 354.275 313.907 354.262 313.466 354.235C311.424 354.11 309.406 353.715 307.465 353.059C305.397 352.359 303.326 351.46 301.259 350.357C293.747 346.505 286.635 342.398 280.06 338.114C278.287 337.009 276.849 335.886 275.785 334.782C275.004 333.969 274.513 333.186 274.367 332.535C274.34 332.409 274.256 332.024 274.802 331.191C275.146 330.667 276.123 329.557 278.799 328.012C281.014 326.733 283.195 325.853 285.277 325.397C286.882 325.045 288.472 324.867 290.005 324.867C290.487 324.867 290.964 324.884 291.435 324.919C293.464 325.069 295.48 325.479 297.423 326.136C299.53 326.849 301.68 327.742 303.726 328.748C311.015 332.571 318.15 336.691 324.953 341.004C326.755 342.133 328.241 343.267 329.364 344.373C330.118 345.118 330.577 345.832 330.689 346.438C330.716 346.584 330.798 347.032 330.211 347.928Z" fill="#E0E0E0"/>
<path d="M464.659 291.465L457.181 287.147L462.621 284.007C465.453 282.368 465.875 280.047 465.875 278.808C465.875 277.572 465.452 275.253 462.616 273.609L449.072 265.791C447.574 264.924 445.791 264.483 443.76 264.478C441.744 264.482 439.963 264.922 438.462 265.788L429.324 271.065L382.1 243.8C380.601 242.935 378.818 242.493 376.799 242.492C374.788 242.492 373.003 242.93 371.494 243.799L352.195 254.941C350.532 255.903 349.437 256.851 348.729 257.961C347.898 259.295 347.642 260.936 347.988 262.935L357.98 312.923C358.56 315.434 360.441 317.622 363.571 319.429L377.117 327.249C378.619 328.119 380.4 328.559 382.409 328.559H382.419C384.435 328.559 386.219 328.119 387.722 327.251L426.129 305.077L437.313 311.534C438.816 312.402 440.601 312.842 442.625 312.842C444.635 312.842 446.416 312.402 447.918 311.534L464.65 301.872C467.483 300.246 467.915 297.922 467.919 296.655C467.916 295.415 467.487 293.099 464.659 291.465ZM390.281 293.604L388.037 282.346L398.909 288.623L390.281 293.604Z" fill="#E0E0E0"/>
<path d="M274.642 389.582L257.898 399.243C256.964 399.791 255.809 400.058 254.446 400.058C253.083 400.058 251.942 399.791 251.008 399.243L237.968 391.716L197.708 414.965C196.774 415.499 195.619 415.78 194.255 415.78C192.892 415.78 191.751 415.499 190.803 414.965L177.26 407.141C175.037 405.867 173.763 404.489 173.422 403.007L163.45 353.131C163.391 352.805 163.376 352.509 163.376 352.242C163.376 353.205 163.361 365.652 163.376 366.26C163.376 366.497 163.406 366.749 163.45 367.031L173.422 416.907C173.763 418.389 175.037 419.767 177.26 421.041L190.803 428.865C191.751 429.399 192.892 429.68 194.255 429.68C195.618 429.68 196.774 429.399 197.708 428.865L237.968 405.616L251.008 413.143C251.942 413.691 253.082 413.958 254.446 413.958C255.809 413.958 256.965 413.691 257.898 413.143L274.642 403.482C275.576 402.934 276.05 402.282 276.05 401.482V387.583C276.05 388.367 275.576 389.034 274.642 389.582Z" fill="#3D5EE1"/>
<path d="M274.005 383.626V369.727C274.005 370.512 273.531 371.179 272.597 371.727L261.602 378.069L273.471 384.915C273.813 384.53 274.005 384.1 274.005 383.626Z" fill="#3D5EE1"/>
<path d="M197.784 381.668L206.111 386.498L218.158 379.549L194.642 365.961L197.769 381.668H197.784Z" fill="#3D5EE1"/>
<path opacity="0.35" d="M197.784 381.668L206.111 386.498L218.158 379.549L194.642 365.961L197.769 381.668H197.784Z" fill="black"/>
<path opacity="0.2" d="M274.005 383.626V369.727C274.005 370.512 273.531 371.179 272.597 371.727L261.602 378.069L273.471 384.915C273.813 384.53 274.005 384.1 274.005 383.626Z" fill="black"/>
<path opacity="0.2" d="M274.642 389.586L257.898 399.247C256.964 399.795 255.809 400.062 254.446 400.062V413.961C255.809 413.961 256.965 413.694 257.898 413.146L274.642 403.485C275.576 402.937 276.05 402.285 276.05 401.485V387.586C276.05 388.371 275.576 389.038 274.642 389.586Z" fill="black"/>
<path opacity="0.25" d="M173.423 403.007L163.451 353.131C163.392 352.805 163.377 352.509 163.377 352.242C163.377 353.205 163.362 365.652 163.377 366.26C163.377 366.497 163.407 366.749 163.451 367.031L173.423 416.907C173.482 417.188 173.586 417.47 173.734 417.752V403.853C173.586 403.57 173.482 403.288 173.423 403.007Z" fill="black"/>
<path opacity="0.35" d="M194.257 415.781C192.894 415.781 191.753 415.5 190.805 414.966L177.262 407.142C175.469 406.12 174.284 405.023 173.735 403.852V417.751C174.283 418.922 175.469 420.018 177.262 421.04L190.805 428.864C191.753 429.398 192.894 429.679 194.257 429.679C194.39 429.679 194.509 429.679 194.642 429.649V415.75C194.509 415.781 194.39 415.781 194.257 415.781Z" fill="black"/>
<path opacity="0.2" d="M197.709 414.968C196.864 415.457 195.842 415.724 194.642 415.753V429.652C195.842 429.622 196.865 429.356 197.709 428.867L237.969 405.618V391.719L197.709 414.968Z" fill="black"/>
<path opacity="0.35" d="M251.008 399.246L237.968 391.719V405.618L251.008 413.145C251.942 413.693 253.082 413.96 254.446 413.96V400.061C253.083 400.061 251.942 399.795 251.008 399.246Z" fill="black"/>
<path d="M257.905 399.245C256.965 399.787 255.814 400.058 254.452 400.056C253.089 400.056 251.941 399.785 251.003 399.244L237.967 391.718L197.708 414.963C196.771 415.504 195.624 415.774 194.257 415.774C192.892 415.775 191.746 415.503 190.808 414.962L177.262 407.141C175.046 405.862 173.769 404.485 173.427 403.009L163.459 353.129C163.289 352.145 163.375 351.383 163.713 350.842C164.057 350.302 164.781 349.71 165.887 349.07L185.184 337.929C186.121 337.39 187.272 337.119 188.637 337.117C190 337.119 191.15 337.389 192.085 337.929L241.161 366.263L252.152 359.917C253.087 359.377 254.241 359.107 255.604 359.104C256.969 359.107 258.117 359.376 259.054 359.917L272.6 367.738C273.538 368.279 274.007 368.944 274.007 369.729C274.007 370.518 273.535 371.182 272.6 371.722L261.609 378.068L274.643 385.593C275.583 386.136 276.05 386.799 276.052 387.585C276.05 388.373 275.581 389.038 274.643 389.577L257.905 399.245ZM218.155 379.544L194.641 365.968L199.496 390.317L218.155 379.544Z" fill="#3D5EE1"/>
<path d="M364.615 327.865C364.556 331.214 363.237 334.637 360.703 338.119C357.976 341.853 353.427 345.572 347.026 349.262C340.639 352.952 334.209 355.574 327.733 357.16C321.257 358.731 314.931 359.487 308.751 359.412C302.587 359.338 296.63 358.508 290.925 356.937C285.22 355.366 279.93 353.321 275.07 350.803C271.41 348.892 267.587 346.773 263.572 344.461C259.571 342.15 255.822 339.897 252.325 337.675C247.983 334.874 244.442 331.822 241.73 328.532C238.989 325.228 237.566 321.805 237.448 318.234C237.522 320.442 237.359 329.703 237.448 332.133C237.566 335.704 238.989 339.127 241.73 342.431C244.442 345.721 247.983 348.773 252.325 351.574C255.822 353.797 259.571 356.049 263.572 358.36C267.587 360.672 271.411 362.79 275.07 364.717C279.93 367.221 285.22 369.266 290.925 370.837C296.63 372.408 302.587 373.237 308.751 373.311C314.93 373.385 321.257 372.629 327.733 371.059C334.208 369.473 340.639 366.851 347.026 363.161C353.427 359.472 357.976 355.752 360.703 352.018C363.429 348.284 364.733 344.624 364.6 341.068C364.526 339.023 364.66 331.022 364.615 327.865Z" fill="#3D5EE1"/>
<path opacity="0.35" d="M312.164 359.339C311.024 359.381 309.883 359.425 308.753 359.412C302.589 359.338 296.632 358.508 290.927 356.937C285.222 355.366 279.932 353.321 275.072 350.803C271.412 348.892 267.589 346.773 263.574 344.461C259.573 342.15 255.824 339.897 252.327 337.675C247.985 334.874 244.444 331.822 241.732 328.532C238.991 325.228 237.568 321.805 237.45 318.234C237.524 320.442 237.361 329.703 237.45 332.133C237.568 335.704 238.991 339.127 241.732 342.431C244.444 345.721 247.985 348.773 252.327 351.574C255.824 353.797 259.573 356.049 263.574 358.36C267.589 360.672 271.413 362.79 275.072 364.717C279.932 367.221 285.222 369.266 290.927 370.837C296.632 372.408 302.589 373.237 308.753 373.311C309.883 373.325 311.024 373.28 312.164 373.238V359.339Z" fill="black"/>
<path opacity="0.2" d="M364.615 327.867C364.556 331.216 363.237 334.639 360.703 338.121C357.976 341.855 353.427 345.574 347.026 349.264C340.639 352.954 334.209 355.576 327.733 357.162C322.443 358.445 317.257 359.154 312.164 359.341V373.24C317.256 373.053 322.442 372.344 327.733 371.061C334.208 369.475 340.639 366.853 347.026 363.163C353.427 359.474 357.976 355.754 360.703 352.02C363.429 348.286 364.733 344.626 364.6 341.07C364.526 339.025 364.66 331.024 364.615 327.867Z" fill="black"/>
<path d="M271.634 320.491C272.346 321.232 273.175 321.973 274.124 322.684C274.554 322.402 274.983 322.121 275.458 321.839C278.021 320.372 280.525 319.364 283 318.816C285.474 318.282 287.89 318.09 290.231 318.268C292.572 318.446 294.869 318.905 297.136 319.661C299.388 320.432 301.67 321.38 303.967 322.506C311.376 326.403 318.533 330.522 325.438 334.908C326.342 335.471 327.171 336.048 327.926 336.611C329.749 335.434 331.069 334.267 331.824 333.1C332.757 331.677 333.098 330.27 332.846 328.892C332.594 327.529 331.809 326.18 330.49 324.876C329.156 323.572 327.482 322.283 325.437 321.009C318.532 316.623 311.375 312.489 303.966 308.607C301.669 307.481 299.387 306.532 297.135 305.762C294.868 305.006 292.571 304.547 290.23 304.369C287.889 304.191 285.474 304.384 282.999 304.917C280.524 305.465 278.02 306.473 275.457 307.94C272.908 309.422 271.16 310.874 270.226 312.296C269.293 313.719 268.967 315.111 269.263 316.46C269.575 317.824 270.36 319.158 271.634 320.491Z" fill="#3D5EE1"/>
<path opacity="0.35" d="M271.634 320.491C272.346 321.232 273.175 321.973 274.124 322.684C274.554 322.402 274.983 322.121 275.458 321.839C278.021 320.372 280.525 319.364 283 318.816C285.474 318.282 287.89 318.09 290.231 318.268C292.572 318.446 294.869 318.905 297.136 319.661C299.388 320.432 301.67 321.38 303.967 322.506C311.376 326.403 318.533 330.522 325.438 334.908C326.342 335.471 327.171 336.048 327.926 336.611C329.749 335.434 331.069 334.267 331.824 333.1C332.757 331.677 333.098 330.27 332.846 328.892C332.594 327.529 331.809 326.18 330.49 324.876C329.156 323.572 327.482 322.283 325.437 321.009C318.532 316.623 311.375 312.489 303.966 308.607C301.669 307.481 299.387 306.532 297.135 305.762C294.868 305.006 292.571 304.547 290.23 304.369C287.889 304.191 285.474 304.384 282.999 304.917C280.524 305.465 278.02 306.473 275.457 307.94C272.908 309.422 271.16 310.874 270.226 312.296C269.293 313.719 268.967 315.111 269.263 316.46C269.575 317.824 270.36 319.158 271.634 320.491Z" fill="black"/>
<path d="M255.016 296.135C261.405 292.446 267.842 289.814 274.317 288.239C280.792 286.667 287.12 285.916 293.295 285.989C299.47 286.066 305.415 286.888 311.122 288.462C316.831 290.037 322.113 292.078 326.971 294.585C330.804 296.605 334.724 298.768 338.729 301.08C342.734 303.392 346.395 305.606 349.721 307.719C354.064 310.524 357.601 313.575 360.327 316.87C363.055 320.166 364.481 323.6 364.61 327.162C364.738 330.728 363.439 334.383 360.713 338.119C357.984 341.857 353.425 345.573 347.036 349.262C340.647 352.951 334.213 355.582 327.737 357.158C321.265 358.733 314.937 359.482 308.759 359.408C302.584 359.335 296.636 358.512 290.932 356.935C285.221 355.362 279.939 353.32 275.081 350.813C271.417 348.894 267.586 346.779 263.581 344.467C259.576 342.155 255.826 339.893 252.331 337.678C247.988 334.873 244.451 331.824 241.727 328.527C238.997 325.233 237.573 321.801 237.444 318.235C237.318 314.67 238.617 311.017 241.341 307.278C244.07 303.54 248.626 299.825 255.016 296.135ZM325.436 321.003C318.533 316.626 311.377 312.494 303.965 308.607C301.666 307.477 299.385 306.53 297.129 305.766C294.871 305.004 292.57 304.538 290.226 304.364C287.884 304.193 285.473 304.377 283.004 304.918C280.533 305.459 278.022 306.468 275.464 307.943C272.91 309.419 271.162 310.869 270.225 312.296C269.288 313.723 268.97 315.114 269.265 316.465C269.567 317.818 270.353 319.158 271.63 320.487C272.908 321.816 274.57 323.12 276.615 324.397C283.259 328.727 290.418 332.86 298.086 336.793C300.3 337.975 302.537 338.944 304.795 339.708C307.049 340.471 309.373 340.927 311.759 341.072C314.147 341.22 316.575 341.024 319.044 340.482C321.516 339.941 324.03 338.933 326.584 337.457C329.142 335.982 330.886 334.531 331.823 333.104C332.76 331.679 333.104 330.276 332.846 328.898C332.591 327.521 331.802 326.181 330.483 324.877C329.161 323.574 327.478 322.282 325.436 321.003Z" fill="#3D5EE1"/>
<path d="M461.324 281.801L444.58 291.462C443.646 292.01 442.491 292.277 441.128 292.277C439.765 292.277 438.624 292.01 437.69 291.462L424.65 283.935L384.391 307.184C383.458 307.717 382.302 307.999 380.938 307.999C379.575 307.999 378.434 307.718 377.486 307.184L363.943 299.36C361.72 298.086 360.446 296.708 360.105 295.226L350.133 245.35C350.074 245.024 350.059 244.728 350.059 244.461C350.059 245.424 350.044 257.871 350.059 258.478C350.059 258.715 350.089 258.967 350.133 259.249L360.105 309.125C360.446 310.607 361.72 311.985 363.943 313.259L377.486 321.083C378.434 321.616 379.575 321.898 380.938 321.898C382.301 321.898 383.457 321.616 384.391 321.083L424.65 297.834L437.69 305.361C438.624 305.909 439.764 306.176 441.128 306.176C442.491 306.176 443.647 305.909 444.58 305.361L461.324 295.7C462.258 295.152 462.732 294.5 462.732 293.7V279.801C462.732 280.586 462.258 281.253 461.324 281.801Z" fill="#3D5EE1"/>
<path d="M460.687 275.844V261.945C460.687 262.73 460.213 263.397 459.279 263.945L448.284 270.287L460.153 277.133C460.494 276.748 460.687 276.318 460.687 275.844Z" fill="#3D5EE1"/>
<path d="M384.465 273.887L392.792 278.717L404.839 271.768L381.323 258.18L384.45 273.887H384.465Z" fill="#3D5EE1"/>
<path opacity="0.35" d="M384.465 273.887L392.792 278.717L404.839 271.768L381.323 258.18L384.45 273.887H384.465Z" fill="black"/>
<path opacity="0.2" d="M460.687 275.844V261.945C460.687 262.73 460.213 263.397 459.279 263.945L448.284 270.287L460.153 277.133C460.494 276.748 460.687 276.318 460.687 275.844Z" fill="black"/>
<path opacity="0.2" d="M461.324 281.805L444.58 291.466C443.646 292.014 442.491 292.281 441.128 292.281V306.18C442.491 306.18 443.647 305.913 444.58 305.365L461.324 295.704C462.258 295.156 462.732 294.504 462.732 293.704V279.805C462.732 280.59 462.258 281.257 461.324 281.805Z" fill="black"/>
<path opacity="0.25" d="M360.104 295.226L350.132 245.35C350.073 245.024 350.058 244.728 350.058 244.461C350.058 245.424 350.043 257.871 350.058 258.478C350.058 258.715 350.088 258.967 350.132 259.249L360.104 309.125C360.163 309.407 360.267 309.688 360.415 309.97V296.071C360.267 295.789 360.164 295.508 360.104 295.226Z" fill="black"/>
<path opacity="0.35" d="M380.938 307.999C379.575 307.999 378.434 307.718 377.486 307.184L363.943 299.36C362.15 298.338 360.965 297.241 360.416 296.07V309.969C360.964 311.14 362.15 312.236 363.943 313.259L377.486 321.083C378.434 321.616 379.575 321.898 380.938 321.898C381.072 321.898 381.19 321.898 381.323 321.868V307.969C381.19 307.999 381.072 307.999 380.938 307.999Z" fill="black"/>
<path opacity="0.2" d="M384.391 307.187C383.546 307.676 382.524 307.942 381.324 307.971V321.871C382.524 321.841 383.547 321.575 384.391 321.086L424.65 297.837V283.938L384.391 307.187Z" fill="black"/>
<path opacity="0.35" d="M437.69 291.465L424.65 283.938V297.837L437.69 305.363C438.624 305.911 439.764 306.178 441.128 306.178V292.28C439.764 292.28 438.623 292.014 437.69 291.465Z" fill="black"/>
<path d="M444.586 291.462C443.647 292.004 442.495 292.275 441.133 292.274C439.77 292.274 438.622 292.003 437.685 291.462L424.649 283.936L384.39 307.181C383.453 307.722 382.306 307.992 380.939 307.992C379.574 307.993 378.428 307.721 377.49 307.18L363.944 299.359C361.728 298.08 360.45 296.703 360.109 295.227L350.141 245.347C349.972 244.363 350.057 243.601 350.395 243.06C350.739 242.519 351.463 241.928 352.569 241.288L371.866 230.147C372.803 229.608 373.954 229.337 375.319 229.336C376.682 229.337 377.832 229.608 378.767 230.148L427.843 258.482L438.834 252.136C439.769 251.595 440.922 251.326 442.285 251.323C443.65 251.326 444.798 251.595 445.735 252.136L459.281 259.957C460.219 260.498 460.688 261.163 460.688 261.948C460.688 262.737 460.216 263.401 459.281 263.941L448.29 270.287L461.324 277.812C462.264 278.355 462.731 279.018 462.733 279.804C462.731 280.592 462.262 281.257 461.324 281.796L444.586 291.462ZM404.836 271.762L381.323 258.186L386.178 282.535L404.836 271.762Z" fill="#3D5EE1"/>
<path d="M356.495 398.036C356.723 397.903 357.005 397.837 357.339 397.837C357.671 397.837 357.952 397.904 358.181 398.036L361.492 399.948C361.721 400.08 361.837 400.243 361.835 400.434C361.835 400.627 361.721 400.789 361.492 400.921L346.686 409.469C346.457 409.601 346.176 409.668 345.842 409.667C345.51 409.668 345.228 409.602 344.998 409.469L324.819 397.819C324.591 397.687 324.475 397.525 324.474 397.332C324.475 397.14 324.589 396.978 324.819 396.846L339.376 388.441C339.604 388.309 339.886 388.242 340.219 388.242C340.554 388.242 340.835 388.308 341.064 388.441L344.375 390.353C344.603 390.485 344.716 390.647 344.718 390.839C344.717 391.032 344.604 391.194 344.375 391.326L334.753 396.881L338.127 398.829L347.062 393.671C347.29 393.539 347.571 393.472 347.906 393.472C348.238 393.472 348.519 393.539 348.748 393.671L352.059 395.583C352.288 395.715 352.404 395.878 352.402 396.069C352.403 396.263 352.288 396.424 352.059 396.556L343.126 401.714L346.625 403.734L356.495 398.036Z" fill="#455A64"/>
<path d="M361.429 382.198C361.657 382.066 361.94 382 362.273 382C362.606 382 362.887 382.065 363.118 382.199L366.273 384.02C366.501 384.152 366.614 384.314 366.615 384.506C366.614 384.699 366.501 384.861 366.273 384.993L363.43 386.634C361.514 387.741 361.513 388.846 363.43 389.952L371.114 394.389C371.343 394.521 371.458 394.684 371.457 394.875C371.457 395.068 371.343 395.23 371.114 395.362L367.178 397.634C366.949 397.767 366.668 397.832 366.334 397.832C366.001 397.832 365.72 397.767 365.49 397.634L350.934 389.23C350.704 389.097 350.59 388.935 350.59 388.743C350.591 388.55 350.704 388.389 350.934 388.256L354.558 386.164C354.786 386.032 355.068 385.966 355.401 385.966C355.734 385.966 356.016 386.031 356.246 386.165L356.964 386.579C356.985 386.039 357.187 385.489 357.573 384.929C357.958 384.37 358.619 383.819 359.556 383.278L361.429 382.198Z" fill="#455A64"/>
<path d="M376.547 373.472C376.775 373.339 377.058 373.273 377.391 373.273C377.724 373.273 378.005 373.339 378.236 373.472L381.391 375.294C381.62 375.426 381.733 375.589 381.733 375.78C381.733 375.973 381.62 376.135 381.391 376.267L378.548 377.908C376.632 379.015 376.631 380.12 378.548 381.226L386.232 385.663C386.461 385.795 386.576 385.958 386.575 386.149C386.575 386.342 386.461 386.504 386.232 386.636L382.296 388.908C382.067 389.041 381.786 389.106 381.452 389.106C381.12 389.107 380.838 389.041 380.609 388.908L366.053 380.504C365.823 380.371 365.708 380.209 365.708 380.017C365.709 379.825 365.822 379.663 366.051 379.53L369.675 377.439C369.903 377.307 370.186 377.241 370.518 377.24C370.852 377.24 371.132 377.306 371.363 377.439L372.081 377.854C372.103 377.313 372.305 376.763 372.69 376.203C373.075 375.644 373.736 375.094 374.673 374.553L376.547 373.472Z" fill="#455A64"/>
<path d="M403.412 365.964C403.745 366.133 404.156 366.358 404.646 366.64C405.136 366.924 405.525 367.161 405.818 367.353C406.775 367.954 407.483 368.627 407.942 369.373C408.399 370.118 408.593 370.892 408.521 371.691C408.447 372.491 408.082 373.296 407.426 374.107C406.77 374.919 405.806 375.691 404.536 376.425C403.266 377.159 401.927 377.715 400.523 378.094C399.117 378.472 397.722 378.684 396.338 378.725C394.952 378.768 393.613 378.656 392.322 378.391C391.032 378.126 389.865 377.717 388.824 377.164C388.491 376.996 388.081 376.771 387.59 376.488C387.101 376.205 386.711 375.968 386.418 375.775C385.44 375.186 384.721 374.518 384.264 373.773C383.805 373.028 383.618 372.252 383.701 371.447C383.784 370.641 384.15 369.83 384.795 369.012C385.44 368.194 386.398 367.419 387.669 366.685C388.94 365.951 390.283 365.399 391.699 365.025C393.116 364.653 394.52 364.442 395.916 364.394C397.311 364.346 398.65 364.458 399.93 364.729C401.209 364.999 402.371 365.411 403.412 365.964ZM394.292 373.827C395.146 374.248 396.051 374.44 397.009 374.404C397.967 374.368 398.863 374.11 399.696 373.629C400.529 373.149 400.976 372.632 401.039 372.079C401.102 371.526 400.768 371.003 400.039 370.51C399.768 370.306 399.436 370.089 399.038 369.861C398.643 369.633 398.268 369.44 397.914 369.283C397.059 368.862 396.155 368.671 395.197 368.706C394.237 368.743 393.342 369.001 392.509 369.481C391.676 369.962 391.229 370.48 391.167 371.033C391.104 371.586 391.437 372.109 392.167 372.602C392.437 372.806 392.77 373.023 393.166 373.251C393.563 373.479 393.936 373.671 394.292 373.827Z" fill="#455A64"/>
<path d="M411.533 353.269C411.762 353.137 412.044 353.071 412.377 353.07C412.71 353.071 412.991 353.136 413.222 353.269L416.377 355.091C416.606 355.223 416.719 355.385 416.719 355.577C416.719 355.77 416.606 355.932 416.377 356.064L413.534 357.705C411.618 358.812 411.617 359.917 413.534 361.023L421.218 365.46C421.447 365.592 421.562 365.755 421.561 365.946C421.561 366.139 421.447 366.301 421.218 366.433L417.282 368.705C417.053 368.837 416.772 368.903 416.438 368.903C416.106 368.903 415.824 368.838 415.595 368.705L401.039 360.301C400.809 360.168 400.694 360.006 400.694 359.814C400.695 359.621 400.808 359.459 401.037 359.327L404.661 357.235C404.89 357.103 405.172 357.038 405.504 357.038C405.837 357.038 406.119 357.103 406.35 357.236L407.067 357.65C407.089 357.11 407.291 356.56 407.676 356C408.061 355.441 408.722 354.891 409.659 354.349L411.533 353.269Z" fill="#455A64"/>
<path d="M311.254 222.453C312.122 218.39 295.547 227.959 294.68 232.022L300.021 246.397C300.225 246.866 300.543 247.213 300.916 247.443C302.09 248.165 306.407 250.6 306.783 250.83C307.965 251.553 309.705 251.1 310.197 249.562L317.115 225.836C317.543 223.833 311.254 222.453 311.254 222.453Z" fill="#3D5EE1"/>
<path opacity="0.25" d="M311.254 222.453C312.122 218.39 295.547 227.959 294.68 232.022L300.021 246.397C300.225 246.866 300.543 247.213 300.916 247.443C302.09 248.165 306.407 250.6 306.783 250.83C307.965 251.553 309.705 251.1 310.197 249.562L317.115 225.836C317.543 223.833 311.254 222.453 311.254 222.453Z" fill="black"/>
<path d="M363.083 114.753L224.807 194.529C223.578 195.238 222.582 196.962 222.582 198.38V274.42C222.582 275.839 223.58 277.56 224.811 278.264L226.199 279.058C227.43 279.762 229.424 279.758 230.652 279.049L368.929 199.184C370.157 198.475 371.153 196.75 371.153 195.331V119.383C371.153 117.964 370.155 116.244 368.924 115.539L367.536 114.745C366.306 114.041 364.312 114.044 363.083 114.753Z" fill="#3D5EE1"/>
<path opacity="0.25" d="M363.083 114.753L224.807 194.529C223.578 195.238 222.582 196.962 222.582 198.38V274.42C222.582 275.839 223.58 277.56 224.811 278.264L226.199 279.058C227.43 279.762 229.424 279.758 230.652 279.049L368.929 199.184C370.157 198.475 371.153 196.75 371.153 195.331V119.383C371.153 117.964 370.155 116.244 368.924 115.539L367.536 114.745C366.306 114.041 364.312 114.044 363.083 114.753Z" fill="black"/>
<path d="M371.156 119.384V120.257C371.156 118.682 369.444 117.697 368.074 118.485L231.488 197.391C230.538 197.93 229.776 198.709 229.253 199.626C229.236 199.651 229.227 199.669 229.219 199.694L223.209 196.227C223.62 195.516 224.176 194.891 224.81 194.532L363.082 114.753C364.315 114.042 366.31 114.042 367.534 114.745L368.921 115.541C370.154 116.242 371.156 117.963 371.156 119.384Z" fill="#3D5EE1"/>
<path opacity="0.45" d="M371.156 119.384V120.257C371.156 118.682 369.444 117.697 368.074 118.485L231.488 197.391C230.538 197.93 229.776 198.709 229.253 199.626C229.236 199.651 229.227 199.669 229.219 199.694L223.209 196.227C223.62 195.516 224.176 194.891 224.81 194.532L363.082 114.753C364.315 114.042 366.31 114.042 367.534 114.745L368.921 115.541C370.154 116.242 371.156 117.963 371.156 119.384Z" fill="white"/>
<path d="M369.1 119.016C368.883 119.016 368.674 119.074 368.478 119.187L231.89 198.091C230.25 199.038 229.23 200.804 229.23 202.699V276.776C229.23 277.196 229.318 278.17 230.132 278.17C230.414 278.17 230.749 278.062 231.102 277.858L301.979 236.938L306.409 249.223C307.26 251.175 310.075 251.032 310.724 249.004L316.722 228.42L367.682 198.981C369.53 197.919 370.353 196.844 370.353 195.496V120.268C370.353 119.495 369.703 119.016 369.1 119.016Z" fill="white"/>
<path d="M230.133 278.961C229.103 278.961 228.436 278.102 228.436 276.772V202.695C228.436 200.518 229.608 198.489 231.493 197.4L368.081 118.496C368.402 118.312 368.744 118.219 369.101 118.219C370.086 118.219 371.148 119.002 371.148 120.266V195.494C371.148 197.654 369.396 198.91 368.078 199.668L317.396 228.947L311.487 249.224C311.083 250.486 309.984 251.331 308.683 251.397C307.387 251.46 306.204 250.734 305.681 249.538L301.554 238.098L231.5 278.543C231.018 278.82 230.558 278.961 230.133 278.961ZM369.1 119.807C369.024 119.807 368.95 119.828 368.874 119.872L232.288 198.775C230.892 199.581 230.025 201.083 230.025 202.695V276.772C230.025 277.139 230.109 277.35 230.147 277.39C230.183 277.372 230.375 277.357 230.706 277.166L302.404 235.771L307.156 248.949C307.446 249.609 308.099 249.829 308.602 249.809C309.108 249.783 309.733 249.493 309.969 248.757L316.049 227.888L316.326 227.729L367.286 198.289C369.29 197.138 369.56 196.229 369.56 195.492V120.264C369.558 119.922 369.244 119.807 369.1 119.807Z" fill="#3D5EE1"/>
<path d="M244.693 221.979C244.774 219.604 245.102 217.223 245.684 214.83C246.264 212.438 247.088 210.176 248.154 208.044C249.22 205.911 250.515 203.959 252.041 202.183C253.564 200.41 255.325 198.948 257.323 197.794C259.292 196.657 261.047 196.089 262.586 196.094C264.124 196.101 265.427 196.553 266.494 197.455C267.56 198.357 268.382 199.667 268.964 201.389C269.544 203.111 269.874 205.111 269.955 207.393C270.009 209.148 270.036 211.003 270.036 212.956C270.036 214.909 270.009 216.753 269.955 218.488C269.874 220.86 269.544 223.243 268.964 225.635C268.382 228.027 267.56 230.3 266.494 232.454C265.426 234.606 264.124 236.564 262.586 238.324C261.048 240.084 259.292 241.535 257.323 242.672C255.326 243.825 253.565 244.404 252.041 244.412C250.514 244.42 249.219 243.963 248.154 243.042C247.088 242.119 246.264 240.797 245.684 239.075C245.102 237.353 244.774 235.352 244.693 233.073C244.638 231.401 244.61 229.588 244.61 227.635C244.611 225.683 244.638 223.797 244.693 221.979ZM262.465 222.501C262.492 221.739 262.521 220.891 262.546 219.961C262.573 219.031 262.586 218.09 262.586 217.134C262.586 216.177 262.573 215.261 262.546 214.382C262.521 213.504 262.492 212.722 262.465 212.03C262.411 211.022 262.269 210.148 262.041 209.408C261.813 208.668 261.488 208.097 261.069 207.695C260.65 207.292 260.132 207.082 259.512 207.066C258.89 207.053 258.162 207.285 257.324 207.768C256.487 208.251 255.759 208.86 255.138 209.591C254.516 210.325 253.997 211.133 253.58 212.02C253.159 212.905 252.837 213.851 252.608 214.855C252.378 215.86 252.235 216.898 252.182 217.968C252.128 218.707 252.094 219.525 252.08 220.425C252.067 221.328 252.061 222.255 252.061 223.212C252.061 224.168 252.067 225.098 252.08 226.004C252.093 226.91 252.128 227.723 252.182 228.438C252.291 230.454 252.756 231.909 253.58 232.805C254.402 233.702 255.651 233.666 257.323 232.7C258.996 231.734 260.239 230.331 261.047 228.493C261.858 226.654 262.33 224.656 262.465 222.501Z" fill="#455A64"/>
<path d="M295.338 201.525C295.365 202.132 295.38 202.924 295.38 203.9C295.38 204.877 295.365 205.685 295.338 206.325C295.284 208.349 294.986 210.392 294.449 212.449C293.907 214.505 293.166 216.46 292.221 218.315C291.276 220.168 290.137 221.855 288.8 223.375C287.463 224.895 285.973 226.131 284.327 227.081C282.681 228.032 281.189 228.519 279.852 228.541C278.517 228.565 277.376 228.194 276.431 227.432C275.486 226.668 274.745 225.569 274.205 224.136C273.665 222.702 273.37 221.003 273.314 219.04C273.287 218.431 273.274 217.64 273.274 216.662C273.274 215.686 273.287 214.878 273.314 214.24C273.341 212.229 273.625 210.196 274.165 208.139C274.705 206.081 275.454 204.122 276.412 202.261C277.369 200.398 278.517 198.696 279.852 197.157C281.189 195.618 282.681 194.37 284.327 193.42C285.973 192.47 287.463 191.995 288.8 191.992C290.137 191.988 291.283 192.366 292.242 193.122C293.198 193.877 293.944 194.974 294.468 196.417C294.994 197.86 295.284 199.561 295.338 201.525ZM280.601 214.52C280.684 216.053 281.054 217.074 281.715 217.585C282.376 218.099 283.248 218.041 284.327 217.418C285.406 216.795 286.276 215.847 286.939 214.57C287.6 213.296 287.97 211.847 288.051 210.219C288.105 209.566 288.131 208.843 288.131 208.054C288.131 207.265 288.104 206.574 288.051 205.983C287.97 204.451 287.599 203.429 286.939 202.917C286.276 202.406 285.406 202.461 284.327 203.084C283.248 203.707 282.376 204.658 281.715 205.932C281.054 207.207 280.684 208.658 280.601 210.284C280.547 210.937 280.522 211.659 280.522 212.449C280.522 213.237 280.547 213.929 280.601 214.52Z" fill="#455A64"/>
<path d="M311.857 211.186C311.075 211.638 310.386 211.911 309.792 212.004C309.198 212.097 308.686 212.082 308.254 211.957C307.824 211.831 307.457 211.637 307.161 211.372C306.863 211.108 306.619 210.843 306.433 210.577V223.854C306.433 224.311 306.323 224.767 306.108 225.226C305.891 225.683 305.636 225.996 305.34 226.167L300.237 229.112C299.939 229.284 299.684 229.267 299.467 229.059C299.252 228.85 299.144 228.517 299.144 228.06V187.171C299.144 186.714 299.252 186.259 299.467 185.802C299.684 185.345 299.939 185.03 300.237 184.858L305.137 182.03C305.433 181.859 305.688 181.878 305.907 182.085C306.122 182.293 306.23 182.625 306.23 183.082V184.517C306.472 183.962 306.737 183.371 307.019 182.751C307.302 182.131 307.653 181.523 308.072 180.927C308.491 180.335 309.004 179.746 309.61 179.167C310.219 178.588 310.966 178.041 311.857 177.526C313.073 176.825 314.217 176.444 315.299 176.382C316.376 176.321 317.323 176.646 318.132 177.364C318.942 178.079 319.596 179.189 320.097 180.686C320.596 182.186 320.871 184.145 320.927 186.564C320.954 187.173 320.967 188.006 320.967 189.067C320.967 190.125 320.954 190.976 320.927 191.614C320.871 194.098 320.597 196.376 320.097 198.45C319.596 200.527 318.943 202.389 318.132 204.042C317.323 205.694 316.376 207.122 315.299 208.326C314.217 209.532 313.072 210.485 311.857 211.186ZM313.679 195.05C313.76 193.839 313.76 192.675 313.679 191.558C313.597 190.151 313.285 189.063 312.748 188.295C312.206 187.526 311.304 187.507 310.034 188.24C309.441 188.583 308.928 189.025 308.496 189.564C308.066 190.104 307.709 190.695 307.424 191.336C307.14 191.978 306.917 192.636 306.756 193.311C306.595 193.987 306.485 194.653 306.433 195.306C306.377 195.962 306.35 196.703 306.35 197.535C306.35 198.367 306.377 199.077 306.433 199.67C306.485 200.261 306.594 200.802 306.756 201.29C306.917 201.779 307.14 202.18 307.424 202.495C307.708 202.809 308.065 202.987 308.496 203.028C308.928 203.07 309.441 202.919 310.034 202.576C311.304 201.843 312.206 200.782 312.748 199.389C313.286 197.998 313.597 196.551 313.679 195.05Z" fill="#455A64"/>
<path d="M336.713 186.492C336.713 186.035 336.613 185.74 336.41 185.608C336.208 185.476 335.864 185.468 335.379 185.581C334.891 185.697 334.252 185.9 333.455 186.193C332.66 186.487 331.667 186.811 330.48 187.164C328.429 187.766 326.85 187.513 325.744 186.406C324.636 185.301 324.085 183.335 324.085 180.51C324.085 179.096 324.312 177.657 324.771 176.186C325.23 174.717 325.871 173.287 326.695 171.896C327.517 170.507 328.51 169.218 329.672 168.027C330.83 166.839 332.127 165.83 333.558 165.004C334.962 164.193 336.256 163.707 337.445 163.539C338.632 163.374 339.656 163.447 340.522 163.758C341.384 164.07 342.066 164.611 342.565 165.382C343.065 166.154 343.341 167.043 343.395 168.051C343.422 168.493 343.32 168.947 343.092 169.412C342.862 169.877 342.598 170.194 342.303 170.365L337.484 173.147C337.186 173.319 336.952 173.351 336.777 173.245C336.602 173.138 336.391 173.031 336.149 172.921C335.907 172.812 335.588 172.767 335.198 172.785C334.806 172.803 334.259 173.015 333.558 173.421C332.938 173.779 332.419 174.213 331.998 174.726C331.579 175.239 331.372 175.804 331.372 176.427C331.372 176.886 331.437 177.199 331.574 177.37C331.711 177.542 331.979 177.584 332.383 177.495C332.79 177.409 333.357 177.237 334.085 176.981C334.815 176.727 335.771 176.403 336.96 176.007C339.414 175.212 341.202 175.459 342.324 176.743C343.444 178.029 344.003 179.918 344.003 182.411C344.003 183.825 343.774 185.277 343.315 186.767C342.856 188.257 342.182 189.728 341.291 191.178C340.402 192.625 339.322 193.988 338.053 195.26C336.783 196.532 335.339 197.637 333.722 198.571C332.101 199.506 330.678 200.046 329.45 200.194C328.221 200.343 327.188 200.223 326.352 199.833C325.517 199.442 324.873 198.858 324.43 198.076C323.984 197.294 323.735 196.42 323.679 195.455C323.654 195.013 323.754 194.559 323.984 194.094C324.213 193.63 324.476 193.31 324.772 193.14L329.794 190.241C330.09 190.07 330.307 190.06 330.441 190.211C330.575 190.362 330.75 190.511 330.967 190.655C331.182 190.801 331.493 190.871 331.897 190.866C332.304 190.86 332.911 190.623 333.722 190.155C334.53 189.688 335.231 189.118 335.825 188.443C336.415 187.767 336.713 187.116 336.713 186.492Z" fill="#455A64"/>
<path d="M354.972 170.587C354.972 171.044 354.863 171.502 354.648 171.959C354.431 172.416 354.175 172.729 353.88 172.9L348.779 175.845C348.481 176.017 348.224 176 348.009 175.792C347.792 175.584 347.686 175.25 347.686 174.793V147.93C347.686 147.473 347.792 147.016 348.009 146.559C348.224 146.102 348.481 145.787 348.779 145.615L353.88 142.67C354.176 142.499 354.431 142.518 354.648 142.725C354.863 142.933 354.972 143.266 354.972 143.723V170.587ZM354.972 183.988C354.972 184.445 354.863 184.901 354.648 185.358C354.431 185.817 354.175 186.13 353.88 186.301L348.779 189.246C348.481 189.418 348.224 189.4 348.009 189.191C347.792 188.984 347.686 188.651 347.686 188.194V181.898C347.686 181.441 347.792 180.986 348.009 180.527C348.224 180.07 348.481 179.757 348.779 179.585L353.88 176.64C354.176 176.469 354.431 176.486 354.648 176.694C354.863 176.903 354.972 177.235 354.972 177.692V183.988Z" fill="#455A64"/>
<path d="M158.616 216.276C159.318 217.736 159.964 219.245 160.262 220.849C160.995 224.786 159.577 228.758 158.794 232.684C158.529 234.01 158.441 235.228 159.392 236.266C159.588 236.48 159.856 236.681 160.133 236.616C160.372 236.56 160.528 236.325 160.657 236.107C161.595 234.516 162.35 232.807 162.901 231.027C163.009 232.72 162.95 234.425 162.725 236.106C162.546 237.445 162.266 238.841 162.68 240.121C163.095 241.402 164.54 242.431 165.681 241.8C166.428 241.387 166.75 240.462 167.01 239.619C167.319 238.616 167.628 237.612 167.936 236.609C168.367 235.208 168.799 233.804 169.072 232.36C170.052 227.177 168.848 221.582 165.842 217.342C165.044 216.217 164.08 215.15 162.832 214.647C161.669 214.178 160.316 214.257 159.211 214.859C158.498 215.247 158.254 215.523 158.616 216.276Z" fill="#F28F8F"/>
<path d="M171.42 223.152C170.994 217.905 170.813 212.401 169.834 207.434C168.854 202.466 166.771 183.356 165.839 178.042C164.613 171.059 162.939 166.66 161.916 162.334C160.772 157.495 159.815 150.875 157.779 140.294C155.763 129.817 153.26 123.856 148.05 120.449C143.272 117.325 139.234 116.593 135.024 116.469C133.843 119.709 134.928 131.056 134.928 131.056C134.928 131.056 139.979 155.237 140.468 158.199C140.958 161.161 146.359 174.765 149.939 185.824C151.993 192.172 155.091 201.099 155.091 201.099C156.026 205.049 156.365 206.311 155.571 209.444C155.236 210.764 154.713 212.022 154.38 213.349C154.019 214.784 153.797 216.254 153.719 217.732C153.667 218.728 153.679 219.726 153.631 220.722C153.541 222.576 153.242 224.412 153.025 226.256C152.866 227.606 153.648 228.431 155.012 228.011C155.998 227.707 156.811 226.817 157.263 225.94C157.937 224.632 158.124 223.139 158.452 221.705C158.608 221.019 159.431 216.861 160.759 217.992C161.879 218.946 163.071 222.187 164.544 224.388C166.017 226.589 166.771 227.982 166.523 231.334C166.275 234.686 164.668 239.161 165.212 241.999C165.756 244.838 167.328 245.44 167.899 244.264C168.47 243.088 170.206 236.252 170.785 233.895C171.363 231.536 171.824 228.117 171.42 223.152Z" fill="#FFA8A7"/>
<path d="M158.451 219.427C164.543 222.11 172.13 223.574 175.453 236.576C178.776 249.578 182.704 297.339 182.704 297.339C182.704 297.339 178.397 303.601 169.407 303.601L169.953 317.228C169.953 317.228 161.049 321.511 147.791 318.163C141.359 316.539 137.397 310.664 137.397 310.664C137.397 310.664 138.914 272.088 139.962 257.359C141.01 242.629 142.355 212.238 158.451 219.427Z" fill="#455A64"/>
<path d="M167.259 251.148C167.259 251.148 168.876 290.132 169.407 303.606C171.022 303.606 172.48 303.398 173.795 303.067L167.259 251.148Z" fill="#37474F"/>
<path d="M153.63 220.723C153.54 222.577 153.241 224.413 153.024 226.257C152.866 227.607 153.647 228.433 155.011 228.012C155.997 227.708 156.81 226.818 157.262 225.941C157.935 224.633 158.123 223.14 158.45 221.706C158.57 221.181 159.082 218.623 159.913 217.962L153.717 217.734C153.666 218.729 153.679 219.727 153.63 220.723ZM159.914 217.961L160.759 217.992C160.448 217.727 160.167 217.759 159.914 217.961Z" fill="#FFA8A7"/>
<path d="M140.643 115.781C150.514 119.84 153.674 123.112 155.548 129.093C157.422 135.074 160.474 150.192 161.459 156.765C162.445 163.338 164.926 169.241 166.308 177.83C167.69 186.419 169.053 198.947 169.053 198.947C169.053 198.947 167.259 201.243 161.862 201.564C156.465 201.885 153.65 199.939 153.65 199.939C153.65 199.939 147.914 182.78 145.743 177.05C143.572 171.32 138.596 157.079 138.596 157.079L140.643 115.781Z" fill="#E6E6E6"/>
<path d="M56.2009 354.452L62.7899 356.464L63.7819 351.719L58.3849 352.223L56.2009 354.452Z" fill="black"/>
<path d="M58.014 341.172C58.014 341.172 55.25 344.343 54.398 345.356C53.546 346.369 55.506 353.067 56.201 354.458L58.385 352.229C58.601 353.924 58.238 355.584 57.888 358.171C57.597 360.327 56.518 363.999 57.399 367.746C58.708 373.309 63.061 378.972 68.485 383.471C73.91 387.97 78.161 389.059 80.679 389.07C83.197 389.081 84.79 388.052 85.485 386.329C86.18 384.606 58.014 341.172 58.014 341.172Z" fill="#263238"/>
<path d="M81.683 341.307L83.237 339.428C84.289 340.189 82.261 343.08 81.874 346.688C81.353 351.54 81.142 357.957 81.998 362.778C83.687 372.291 86.245 379.417 86.982 383.683C87.97 389.39 78.233 389.758 69.517 382.236C65.191 378.502 58.909 370.047 58.71 365.638C58.511 361.229 60.328 355.998 60.016 352.665C59.703 349.333 57.329 344.391 58.016 341.168C58.394 339.398 61.046 336.628 63.392 334.345C65.545 332.25 67.357 327.717 68.46 329.032L67.666 330.593C67.415 332.041 68.358 335.409 71.53 338.831C73.112 340.539 78.415 344.882 81.683 341.307Z" fill="#455A64"/>
<path opacity="0.15" d="M74.381 341.182C76.236 342.371 78.552 343.237 80.489 342.229C80.512 342.217 80.536 342.215 80.559 342.203C80.559 342.203 78.717 343.659 78.878 346.818C79.039 349.977 78.984 371.339 78.984 371.339C78.984 371.339 77.941 352.881 77.711 349.379C77.371 344.202 76.787 343.178 74.368 341.18C74.372 341.18 74.376 341.181 74.381 341.182Z" fill="black"/>
<path d="M86.981 383.686C86.359 380.083 84.439 374.433 82.839 367.035C82.625 369.326 83.111 371.605 82.863 372.223C82.247 373.758 77.148 372.636 74.403 371.483C71.659 370.33 71.587 365.073 70.499 359.529C69.412 353.986 63.789 355.157 59.46 358.42C59.053 360.792 58.604 363.328 58.709 365.641C58.908 370.05 65.19 378.505 69.516 382.239C78.232 389.761 87.969 389.394 86.981 383.686Z" fill="#37474F"/>
<path opacity="0.15" d="M73.913 346.495C73.644 346.775 73.199 346.783 72.919 346.514C72.639 346.245 72.631 345.8 72.9 345.52C73.169 345.24 73.614 345.232 73.894 345.501C74.174 345.77 74.182 346.215 73.913 346.495Z" fill="black"/>
<path opacity="0.15" d="M74.313 351.534C74.044 351.814 73.599 351.822 73.319 351.553C73.039 351.284 73.031 350.839 73.3 350.559C73.569 350.279 74.014 350.271 74.294 350.54C74.574 350.809 74.583 351.254 74.313 351.534Z" fill="black"/>
<path opacity="0.15" d="M74.715 356.573C74.446 356.853 74.001 356.861 73.721 356.592C73.441 356.323 73.433 355.878 73.702 355.598C73.971 355.318 74.416 355.31 74.696 355.579C74.975 355.848 74.984 356.293 74.715 356.573Z" fill="black"/>
<path opacity="0.15" d="M75.115 361.62C74.846 361.9 74.401 361.908 74.121 361.639C73.841 361.37 73.833 360.925 74.102 360.645C74.371 360.365 74.816 360.357 75.096 360.626C75.376 360.895 75.385 361.34 75.115 361.62Z" fill="black"/>
<path opacity="0.15" d="M75.516 366.659C75.247 366.939 74.802 366.947 74.522 366.678C74.242 366.409 74.234 365.964 74.503 365.684C74.772 365.404 75.217 365.396 75.497 365.665C75.777 365.935 75.785 366.38 75.516 366.659Z" fill="black"/>
<path d="M73.2159 346.213C73.1669 346.169 73.1329 346.107 73.1249 346.037C73.1059 345.882 73.2169 345.741 73.3719 345.723C73.5689 345.699 78.2389 345.177 81.5879 348.079C81.5879 348.079 81.5909 348.081 81.5919 348.083C81.7059 348.186 81.7169 348.362 81.6159 348.478C81.5139 348.596 81.3349 348.609 81.2169 348.506C78.0549 345.768 73.4849 346.279 73.4389 346.285C73.3549 346.294 73.2749 346.266 73.2159 346.213Z" fill="#263238"/>
<path d="M73.6269 351.245C73.5779 351.201 73.5439 351.139 73.5359 351.069C73.5169 350.914 73.6279 350.773 73.7829 350.755C73.9809 350.731 78.6489 350.208 81.9989 353.111L82.0029 353.113C82.1169 353.216 82.1279 353.392 82.0269 353.509C81.9249 353.627 81.7469 353.64 81.6279 353.538C78.4719 350.804 73.8959 351.31 73.8499 351.316C73.7649 351.325 73.6849 351.297 73.6269 351.245Z" fill="#263238"/>
<path d="M74.0179 356.299C73.9689 356.254 73.9349 356.193 73.9269 356.123C73.9079 355.967 74.0189 355.827 74.1739 355.809C74.3719 355.785 79.0399 355.263 82.3899 358.165C82.3899 358.165 82.3919 358.167 82.3939 358.169C82.5079 358.272 82.5189 358.448 82.4179 358.564C82.3159 358.682 82.1369 358.695 82.0189 358.592C78.8629 355.858 74.2869 356.365 74.2419 356.371C74.1569 356.38 74.0769 356.352 74.0179 356.299Z" fill="#263238"/>
<path d="M74.4189 361.338C74.3699 361.294 74.3359 361.232 74.3279 361.162C74.3089 361.007 74.4189 360.866 74.5749 360.848C74.7729 360.824 79.4419 360.301 82.7919 363.203C82.7919 363.203 82.7939 363.205 82.7959 363.207C82.9099 363.31 82.9209 363.486 82.8199 363.602C82.7179 363.72 82.5389 363.733 82.4209 363.63C79.2649 360.896 74.6879 361.404 74.6429 361.409C74.5579 361.419 74.4769 361.39 74.4189 361.338Z" fill="#263238"/>
<path d="M74.8209 366.377C74.7719 366.333 74.7379 366.271 74.7299 366.201C74.7109 366.045 74.8219 365.904 74.9769 365.887C75.1739 365.863 79.8429 365.34 83.1929 368.242C83.1929 368.242 83.1949 368.244 83.1969 368.246C83.3109 368.349 83.3219 368.525 83.2209 368.642C83.1189 368.76 82.9409 368.773 82.8219 368.67C79.6659 365.936 75.0899 366.443 75.0439 366.448C74.9589 366.457 74.8789 366.429 74.8209 366.377Z" fill="#263238"/>
<path d="M148.761 195.484C148.761 195.484 149.484 207.978 148.859 233.949C148.336 255.68 150.744 266.961 142.022 280.789C134.234 293.135 85.6079 340.315 82.0959 344.595C82.0959 344.595 66.7129 346.002 65.9559 330.226C65.9559 330.226 80.2879 304.639 87.0509 290.126C93.8139 275.613 103.048 268.66 103.048 268.66L90.4239 205.398L148.761 195.484Z" fill="#263238"/>
<path d="M95.792 204.487L90.455 205.394L90.469 205.623L102.643 266.632L103.048 268.161C103.048 268.161 103.013 268.173 102.954 268.195L103.047 268.662C103.047 268.662 96.476 273.633 90.36 283.895C92.494 289.377 96.735 298.971 96.735 298.971C97.115 300.461 92.816 306.562 95.269 324.924C95.445 326.241 95.769 328.164 96.143 330.225C107.08 319.2 121.959 304.151 132.009 293.011C132.503 290.143 133.964 280.686 133.131 273.468C132.294 266.22 129.022 230.82 129.022 230.82C129.022 230.82 132.853 228.752 137.097 223.392C140.179 219.5 140.869 215.212 140.869 215.212C140.869 215.212 143.87 206.821 145.041 200.719L95.792 204.487Z" fill="black"/>
<path d="M114.98 406.301L121.528 404.155L119.609 399.703L115.484 403.221L114.98 406.301Z" fill="black"/>
<path d="M108.82 394.391C108.82 394.391 108.383 398.574 108.269 399.894C108.155 401.213 113.612 405.563 114.981 406.302L115.485 403.222C116.637 404.484 117.295 406.051 118.497 408.368C119.499 410.299 120.729 413.923 123.606 416.481C127.877 420.278 134.696 422.405 141.721 422.964C148.746 423.523 152.85 421.967 154.916 420.528C156.982 419.089 157.693 417.331 157.27 415.521C156.847 413.711 108.82 394.391 108.82 394.391Z" fill="#263238"/>
<path d="M128.258 380.89L128.448 378.459C129.747 378.476 129.751 382.007 131.511 385.181C133.876 389.449 137.396 394.819 140.87 398.27C147.725 405.079 153.917 409.435 156.974 412.501C161.066 416.6 153.313 422.504 141.856 421.366C136.17 420.801 126.167 417.5 123.467 414.008C120.767 410.517 119.244 405.192 117.071 402.646C114.898 400.101 110.112 397.425 108.821 394.393C108.111 392.727 108.686 388.936 109.292 385.719C109.848 382.767 108.722 378.017 110.38 378.458L110.628 380.191C111.257 381.52 113.965 383.732 118.528 384.706C120.806 385.193 127.643 385.693 128.258 380.89Z" fill="#455A64"/>
<path opacity="0.15" d="M122.212 384.986C124.414 384.891 126.806 384.266 127.81 382.328C127.822 382.305 127.841 382.29 127.852 382.266C127.852 382.266 127.183 384.516 129.133 387.008C131.083 389.499 143.328 407.002 143.328 407.002C143.328 407.002 131.855 392.505 129.652 389.773C126.395 385.734 125.328 385.233 122.2 384.99C122.205 384.989 122.208 384.988 122.212 384.986Z" fill="black"/>
<path d="M156.973 412.498C154.391 409.909 149.57 406.393 144.005 401.262C145.148 403.259 146.857 404.843 147.01 405.491C147.389 407.101 142.573 409.117 139.665 409.753C136.757 410.389 133.674 406.13 129.594 402.222C125.516 398.314 121.59 402.507 119.927 407.667C120.959 409.841 122.051 412.174 123.467 414.005C126.167 417.497 136.17 420.798 141.856 421.363C153.313 422.501 161.065 416.598 156.973 412.498Z" fill="#37474F"/>
<path opacity="0.15" d="M124.886 389.6C124.827 389.984 124.468 390.247 124.084 390.187C123.7 390.128 123.437 389.769 123.497 389.385C123.556 389.001 123.915 388.738 124.299 388.797C124.683 388.857 124.945 389.216 124.886 389.6Z" fill="black"/>
<path opacity="0.15" d="M128.114 393.491C128.055 393.874 127.696 394.138 127.312 394.078C126.929 394.019 126.666 393.66 126.725 393.276C126.784 392.892 127.143 392.629 127.527 392.688C127.911 392.747 128.174 393.107 128.114 393.491Z" fill="black"/>
<path opacity="0.15" d="M131.342 397.389C131.283 397.773 130.924 398.036 130.54 397.976C130.157 397.917 129.894 397.558 129.953 397.174C130.012 396.79 130.371 396.527 130.755 396.587C131.139 396.646 131.402 397.005 131.342 397.389Z" fill="black"/>
<path opacity="0.15" d="M134.571 401.279C134.512 401.663 134.153 401.925 133.769 401.866C133.385 401.807 133.122 401.448 133.182 401.064C133.241 400.68 133.6 400.417 133.984 400.477C134.367 400.536 134.63 400.895 134.571 401.279Z" fill="black"/>
<path opacity="0.15" d="M137.799 405.17C137.74 405.554 137.381 405.817 136.997 405.757C136.613 405.698 136.35 405.339 136.41 404.955C136.469 404.571 136.828 404.308 137.212 404.368C137.595 404.428 137.858 404.787 137.799 405.17Z" fill="black"/>
<path d="M124.157 389.772C124.091 389.764 124.028 389.733 123.982 389.68C123.877 389.564 123.887 389.384 124.003 389.281C124.151 389.148 127.669 386.034 132.078 386.481C132.078 386.481 132.081 386.481 132.083 386.481C132.235 386.5 132.345 386.637 132.33 386.791C132.314 386.946 132.176 387.059 132.02 387.043C127.859 386.623 124.414 389.671 124.381 389.701C124.317 389.758 124.235 389.781 124.157 389.772Z" fill="#263238"/>
<path d="M127.387 393.655C127.321 393.647 127.258 393.616 127.211 393.563C127.106 393.447 127.116 393.268 127.232 393.164C127.38 393.031 130.898 389.917 135.308 390.364C135.308 390.364 135.311 390.364 135.313 390.364C135.465 390.383 135.575 390.52 135.56 390.674C135.545 390.829 135.406 390.942 135.25 390.926C131.095 390.505 127.645 393.554 127.611 393.584C127.547 393.641 127.465 393.665 127.387 393.655Z" fill="#263238"/>
<path d="M130.613 397.561C130.547 397.553 130.484 397.522 130.437 397.469C130.332 397.353 130.342 397.173 130.458 397.07C130.606 396.937 134.124 393.823 138.534 394.27C138.534 394.27 138.537 394.27 138.539 394.271C138.691 394.29 138.802 394.427 138.786 394.581C138.77 394.736 138.632 394.85 138.476 394.834C134.322 394.413 130.871 397.462 130.837 397.492C130.773 397.547 130.691 397.571 130.613 397.561Z" fill="#263238"/>
<path d="M133.841 401.454C133.775 401.446 133.712 401.415 133.665 401.362C133.56 401.246 133.57 401.068 133.686 400.963C133.834 400.83 137.352 397.715 141.762 398.161C141.762 398.161 141.765 398.161 141.767 398.162C141.919 398.181 142.03 398.318 142.014 398.472C141.998 398.627 141.86 398.74 141.704 398.725C137.549 398.305 134.098 401.354 134.065 401.384C134.001 401.44 133.919 401.463 133.841 401.454Z" fill="#263238"/>
<path d="M137.07 405.343C137.004 405.335 136.941 405.304 136.894 405.251C136.789 405.135 136.799 404.956 136.915 404.852C137.063 404.719 140.581 401.605 144.991 402.051C144.991 402.051 144.994 402.051 144.996 402.052C145.148 402.071 145.258 402.208 145.243 402.362C145.227 402.517 145.089 402.63 144.933 402.614C140.779 402.194 137.327 405.241 137.294 405.272C137.23 405.33 137.148 405.353 137.07 405.343Z" fill="#263238"/>
<path d="M78.7529 191.453C78.7529 191.453 78.4019 207.425 78.4699 214.635C78.6089 229.376 81.4419 235.449 85.1139 247.846C88.0949 257.909 100.183 294.809 101.104 298.418C99.8209 306.221 98.4659 313.121 101.078 330.151C104.847 354.723 109.127 383.914 109.127 383.914C111.377 387.04 126.717 388.171 131.179 383.647C131.179 383.647 132.5 305.005 132.022 288.934C131.607 274.968 125.091 229.167 125.091 229.167C125.091 229.167 145.992 220.376 147.792 195.788L78.7529 191.453Z" fill="#263238"/>
<path d="M108.021 219.731C94.864 219.731 86.027 216.944 78.527 210.421C78.595 195.64 78.833 177.031 79.006 163.425L79.068 158.585C79.204 147.739 79.379 140.597 80.652 132.877C81.572 127.297 83.775 120.143 86.959 118.344C90.75 116.203 93.305 114.899 99.321 112.366C101.82 111.315 103.431 110.297 104.993 108.773C107.389 108.954 128.399 110.68 140.436 116.236C143.147 117.487 151.62 128.55 150.611 143.88C148.153 181.22 148.989 203.036 149.06 204.719C148.049 207.277 140.276 217.204 120.905 219.043C116.034 219.506 111.819 219.731 108.021 219.731Z" fill="#FAFAFA"/>
<path d="M105.175 109.284C108.405 109.538 128.575 111.307 140.226 116.685C142.865 117.903 151.107 128.751 150.113 143.845C147.701 180.494 148.459 202.209 148.557 204.621C148.145 205.512 146.311 208.379 142.094 211.37C138.262 214.088 131.467 217.539 120.857 218.546C116.002 219.007 111.804 219.231 108.021 219.231C95.095 219.231 86.39 216.524 79.025 210.192C79.094 195.462 79.33 176.989 79.502 163.464L79.564 158.589C79.7 147.765 79.875 140.639 81.141 132.955C82.114 127.051 84.366 120.377 87.202 118.775C90.975 116.644 93.519 115.346 99.513 112.823C101.954 111.795 103.629 110.753 105.175 109.284ZM104.802 108.258C103.27 109.79 101.684 110.829 99.127 111.905C92.953 114.504 90.398 115.826 86.713 117.908C83.203 119.891 81.012 127.628 80.16 132.793C78.882 140.547 78.707 147.627 78.569 158.576C78.389 172.822 78.102 194.032 78.028 210.644C85.702 217.395 94.588 220.226 108.021 220.226C111.921 220.226 116.204 219.987 120.951 219.537C141.431 217.593 148.851 206.781 149.56 204.798C149.56 204.798 148.531 183.032 151.106 143.911C152.128 128.384 143.527 117.114 140.643 115.782C127.697 109.806 104.802 108.258 104.802 108.258Z" fill="#E0E0E0"/>
<path d="M105.249 64.2203C99.0431 71.2393 101.051 79.4723 103.287 87.7553C105.892 97.1823 106.049 100.234 111.467 102.596C110.246 72.9893 119.705 109.263 143.441 86.2473C147.732 82.0863 148.004 69.2103 142.799 63.3673C135.443 55.1103 117.385 50.9833 105.249 64.2203Z" fill="#37474F"/>
<path d="M103.956 97.0604C108.282 98.8594 110.242 95.8854 110.242 95.8854L106.421 106.887C106.421 106.887 104.011 113.705 109.562 117.041C124.94 126.283 121.456 130.165 126.658 134.655C128.425 132.452 128.195 122.553 128.468 119.944L131.844 109.349C131.844 109.349 134.637 109.467 137.103 109.112C141.217 108.531 143.552 105.601 144.847 101.175C146.924 94.0584 146.608 83.3214 144.06 69.4094C139.514 65.7774 124.426 65.0044 114.679 70.9834C115.027 79.1604 112.811 80.4874 112.811 84.0084C112.811 87.9624 112.539 88.8674 111.334 89.4004C110.13 89.9334 109.045 88.0824 108.555 86.9194C107.732 84.9644 107.026 83.7054 105.095 83.2164C103.112 82.7124 101.013 83.0524 99.244 85.6534C96.501 89.6834 100.816 95.7544 103.956 97.0604Z" fill="#FFA8A7"/>
<path d="M131.843 109.349C126.969 109.109 120.13 106.551 117.371 103.971C114.611 101.391 112.811 96.3672 112.811 96.3672C112.811 96.3672 112.735 101.331 116.334 105.71C119.934 110.09 130.816 112.558 130.816 112.558L131.843 109.349Z" fill="#F28F8F"/>
<path d="M129.248 73.3132C129.116 73.3222 128.957 73.3892 128.954 73.5212C128.951 73.6692 129.081 73.6962 129.184 73.7512C129.353 73.8412 129.513 73.9582 129.664 74.0752C129.815 74.1932 129.962 74.3252 130.05 74.4962C130.113 74.6182 130.143 74.7542 130.166 74.8902C130.206 75.1222 130.211 75.3432 130.217 75.5742C130.222 75.7642 130.379 75.8862 130.563 75.7342C130.632 75.6772 130.676 75.5942 130.71 75.5112C130.817 75.2512 130.864 74.9812 130.837 74.7122C130.822 74.5632 130.784 74.4142 130.72 74.2682C130.482 73.7272 129.856 73.2722 129.248 73.3132ZM136.694 73.6132C136.78 73.3022 136.451 72.9892 136.145 73.0972C135.625 73.2812 135.284 73.8322 135.119 74.3352C134.884 75.0542 134.935 75.9462 135.523 76.4852C135.609 76.5632 135.739 76.6352 135.834 76.5682C136.064 76.4062 135.882 75.5862 135.895 75.3572C135.914 75.0152 136.018 74.6792 136.192 74.3852C136.344 74.1272 136.613 73.9072 136.694 73.6132ZM132.636 71.8642C132.552 71.8092 132.475 71.8362 132.44 71.9302C132.366 72.1312 132.458 72.2832 132.545 72.4562C132.641 72.6482 132.72 72.8492 132.784 73.0542C132.91 73.4582 132.975 73.8802 132.99 74.3032C133.004 74.7012 132.974 75.0992 132.912 75.4922C132.854 75.8622 132.739 76.2212 132.682 76.5902C132.676 76.6272 132.699 76.7342 132.756 76.6862C133.416 76.1332 133.569 75.2552 133.556 74.4372C133.549 73.9832 133.485 73.5182 133.349 73.0852C133.217 72.6592 133.024 72.1172 132.636 71.8642Z" fill="#F28F8F"/>
<path d="M123.87 76.7477L128.27 75.0547C128.711 76.3127 128.084 77.7117 126.869 78.1787C125.654 78.6467 124.311 78.0057 123.87 76.7477Z" fill="#37474F"/>
<path d="M137.847 74.3906L142.11 76.4886C141.57 77.6976 140.179 78.2076 139.002 77.6276C137.825 77.0476 137.307 75.5986 137.847 74.3906Z" fill="#37474F"/>
<path d="M128.265 81.29C127.856 80.301 127.26 81.705 126.074 82.195C124.887 82.686 123.558 82.078 123.967 83.067C124.376 84.056 125.67 84.46 126.857 83.969C128.044 83.479 128.674 82.279 128.265 81.29Z" fill="#263238"/>
<path d="M142.143 82.2635C142.386 81.2215 141.085 82.0165 139.834 81.7255C138.583 81.4345 137.856 80.1665 137.613 81.2095C137.37 82.2515 138.188 83.3325 139.439 83.6245C140.69 83.9145 141.9 83.3055 142.143 82.2635Z" fill="#263238"/>
<path d="M131.675 78.8984L133.461 91.8884L139.937 90.3904C138.512 86.6334 134.489 80.6244 131.675 78.8984Z" fill="#F28F8F"/>
<path d="M128.706 94.9281C128.406 95.1211 128.149 95.3661 127.968 95.6681C127.402 96.6111 128.208 97.0851 129.067 97.1661C130.012 97.2551 130.939 97.5231 131.786 97.9511C132.194 98.1571 132.571 98.4091 133.045 98.3501C133.304 98.3181 133.623 98.1401 133.763 97.9191C133.9 97.7041 133.931 97.3691 133.895 97.1171C133.751 96.1111 133.034 95.0231 131.896 94.6031C130.848 94.2151 129.649 94.3211 128.706 94.9281Z" fill="#B16668"/>
<path d="M131.786 97.9502C131.997 98.0562 132.199 98.1732 132.411 98.2552C131.985 96.4632 130.388 95.1272 128.468 95.1172C128.274 95.2762 128.097 95.4522 127.968 95.6672C127.402 96.6102 128.208 97.0842 129.067 97.1652C130.011 97.2542 130.939 97.5222 131.786 97.9502Z" fill="#F28F8F"/>
<path d="M124.862 141.09C120.167 137.836 111.389 130.645 104.106 109.305L101.227 111.281C101.227 111.281 105.846 133.209 124.163 144.355L124.862 141.09Z" fill="#3D5EE1"/>
<path d="M129.341 140.67C130.693 138.831 133.801 126.296 130.691 112.836L133.237 115.287C135.862 128.441 133.018 140.678 130.571 144.352L129.341 140.67Z" fill="#3D5EE1"/>
<path d="M129.133 147.47C129.133 147.47 134.637 186.191 134.86 189.986C135.083 193.781 129.114 203.044 128.302 203.503C127.491 203.962 122.139 194.988 122.071 191.972C122.003 188.956 125.938 147.43 125.938 147.43L129.133 147.47Z" fill="#3D5EE1"/>
<path d="M129.341 140.675C129.341 140.675 127.026 140.175 124.862 141.093C124.017 142.6 123.723 144.941 124.377 146.042C125.031 147.143 126.284 148.847 127.803 148.775C129.322 148.703 130.603 146.767 130.795 144.92C131.004 142.92 129.341 140.675 129.341 140.675Z" fill="#3D5EE1"/>
<path opacity="0.2" d="M129.341 140.675C129.341 140.675 127.026 140.175 124.862 141.093C124.017 142.6 123.723 144.941 124.377 146.042C125.031 147.143 126.284 148.847 127.803 148.775C129.322 148.703 130.603 146.767 130.795 144.92C131.004 142.92 129.341 140.675 129.341 140.675Z" fill="white"/>
<path d="M126.593 134.656C123.903 131.592 122.964 122.356 120.972 120.809C118.98 119.262 107.425 112.201 106.344 107.133L107.617 103.443C106.235 102.812 104.376 107.223 99.127 111.911C99.127 111.911 98.485 117.266 102.497 123.359C107.23 130.547 111.378 132.958 111.378 132.958C111.378 132.958 117.162 125.496 118.107 125.206C119.053 124.915 123.374 133.56 126.593 134.656Z" fill="#F0F0F0"/>
<path d="M126.593 134.656C128.035 132.143 127.799 121.781 128.207 120.414C129.068 117.531 131.602 110.078 131.602 110.078C131.602 110.078 132.267 110.585 132.741 111.199C137.516 117.383 137.371 126.306 136.062 129.047C134.679 126.118 131.398 122.344 130.814 123.099C130.23 123.852 129.064 133.432 126.593 134.656Z" fill="#F0F0F0"/>
<path d="M108.731 261.198L111.07 308.838C111.183 311.148 109.616 312.562 107.676 313.836L102.807 316.978C101.463 317.847 100.705 318.155 98.932 317.939C98.156 317.852 96.834 317.288 96.203 316.975C96.161 316.967 96.129 316.947 96.097 316.928L95.819 316.785L43.16 289.735C39.312 287.758 36.811 283.88 36.599 279.559L34.467 236.179C34.418 235.191 35.056 233.95 35.895 233.408L44.203 228.057C45.031 227.516 46.426 227.447 47.303 227.905L107.038 258.59C107.487 258.808 107.893 259.226 108.197 259.691C108.503 260.167 108.707 260.709 108.731 261.198Z" fill="#37474F"/>
<path d="M108.731 261.195L111.07 308.836C111.183 311.146 109.616 312.559 107.676 313.833L102.807 316.975C101.463 317.844 100.705 318.152 98.932 317.936C98.156 317.849 96.834 317.286 96.203 316.973L96.202 316.952C98.245 317.79 99.765 316.673 99.649 314.311L97.445 269.423C97.408 268.674 97.107 267.856 96.644 267.138L108.197 259.688C108.503 260.164 108.707 260.706 108.731 261.195Z" fill="#263238"/>
<path d="M97.4479 269.424C97.3749 267.931 96.227 266.151 94.8969 265.468L38.4389 236.467C36.2069 235.321 34.4819 236.433 34.6049 238.939L36.5949 279.553C36.8069 283.874 39.3079 287.754 43.1559 289.731L95.8179 316.784C98.0499 317.93 99.7749 316.818 99.6519 314.312L97.4479 269.424Z" fill="#455A64"/>
<path d="M41.511 229.789L101.367 260.861C103.081 261.751 104.205 263.501 104.299 265.429L106.707 314.459L105.845 315.015L103.412 265.472C103.333 263.858 102.392 262.394 100.957 261.648L40.651 230.343L41.511 229.789Z" fill="#3D5EE1"/>
<path opacity="0.2" d="M103.44 262.758C103.947 263.548 104.252 264.467 104.299 265.431L106.707 314.461L105.845 315.017L103.412 265.474C103.372 264.668 103.118 263.899 102.695 263.238L103.44 262.758Z" fill="black"/>
<path opacity="0.2" d="M102.695 263.236C102.271 262.574 101.676 262.021 100.958 261.648L40.652 230.343L41.512 229.789L101.368 260.861C102.225 261.306 102.934 261.966 103.441 262.756" fill="black"/>
<path d="M62.479 234.869L62.841 242.246L60.038 244.054L59.557 234.258C59.532 233.751 59.874 233.533 60.324 233.763L62.479 234.869Z" fill="#3D5EE1"/>
<path opacity="0.4" d="M62.479 234.869L62.841 242.246L60.038 244.054L59.557 234.258C59.532 233.751 59.874 233.533 60.324 233.763L62.479 234.869Z" fill="black"/>
<path d="M83.112 241.163L83.698 253.106L81.023 254.835L79.116 253.853L78.635 244.056C78.61 243.554 78.223 242.955 77.777 242.725L63.326 235.304L60.325 233.762C59.874 233.532 59.533 233.75 59.558 234.257L60.039 244.053L58.127 243.071L57.54 231.134C57.538 231.084 57.539 231.029 57.546 230.978C57.582 230.505 57.886 229.968 58.268 229.725L59.408 228.987C59.83 228.714 60.538 228.68 60.988 228.91L82.255 239.833C82.706 240.066 83.087 240.661 83.112 241.163Z" fill="#3D5EE1"/>
<path opacity="0.2" d="M80.437 242.892L81.024 254.835L79.117 253.853L78.636 244.056C78.611 243.554 78.224 242.955 77.778 242.725L63.326 235.303L60.325 233.761C59.874 233.531 59.533 233.749 59.558 234.256L60.039 244.052L58.127 243.07L57.54 231.133C57.538 231.083 57.539 231.028 57.546 230.977C57.596 230.586 57.913 230.433 58.312 230.638L79.578 241.561C80.025 241.794 80.412 242.389 80.437 242.892Z" fill="black"/>
<path d="M70.417 233.742L79.478 238.398C79.365 236.983 78.919 235.113 78.275 234.446C77.331 233.469 73.229 229.442 71.935 229.849C71.314 230.042 70.724 231.743 70.417 233.742Z" fill="#F28F8F"/>
<path d="M70.416 238.953C70.5 239.266 70.591 239.536 70.705 239.777C71.937 242.362 74.562 244.283 74.562 244.283C75.626 244.07 76.636 243.364 77.458 242.563L70.416 238.953Z" fill="#F28F8F"/>
<path d="M84.366 122.258C77.79 125.145 73.017 130.189 69.62 140.922C66.266 151.518 62.06 164.397 60.396 175.564C58.732 186.731 57.287 210.064 56.883 217.293C56.714 220.306 56.416 223.062 56.652 226.067C56.782 227.717 57.309 232.144 58.236 235.896C58.609 237.406 59.388 238.845 60.929 239.406C61.318 239.548 61.735 239.629 62.088 239.845C62.761 240.258 63.065 241.071 63.623 241.63C64.262 242.272 65.2 242.536 66.105 242.568C66.511 242.583 66.921 242.556 67.323 242.615C68.814 242.833 69.905 244.153 71.333 244.634C72.538 245.04 73.471 245.161 74.627 244.709C75.047 244.545 75.825 244.012 76.189 243.745C76.464 243.544 77.192 242.817 77.425 242.6C75.402 242.781 73.949 241.127 73.189 239.57C72.341 237.834 71.828 235.688 71.776 233.75C71.763 233.277 71.778 232.789 71.974 232.358C72.071 232.144 72.248 231.93 72.483 231.93C72.741 231.93 72.917 232.18 73.048 232.402C73.955 233.945 74.831 235.449 76.255 236.585C76.827 237.041 77.505 237.437 78.236 237.417C78.967 237.397 79.718 236.814 79.686 236.083C79.673 235.792 79.544 235.52 79.421 235.255C78.43 233.136 77.633 230.927 77.043 228.663C76.49 226.542 75.954 224.498 74.876 222.559C73.761 220.554 71.162 217.844 71.44 215.524C71.908 211.613 79.132 181.103 79.132 181.103C79.132 181.103 87.85 154.403 89.94 147.341C92.518 138.617 90.694 127.354 84.366 122.258Z" fill="#FFA8A7"/>
<path d="M86.713 117.914C76.195 123.267 73.643 127.499 70.757 135.47C68.175 142.6 62.42 162.152 60.984 169.113C58.418 181.558 56.985 205.366 56.985 205.366C56.985 205.366 58.225 208.793 64.448 210.292C70.67 211.791 73.175 209.885 73.175 209.885L80.158 179.644C80.158 179.644 90.974 154.54 91.885 151C93.711 143.895 95.219 122.701 86.713 117.914Z" fill="#E6E6E6"/>
<path d="M166.791 97.9231C167.045 98.5961 167.182 99.3041 167.481 99.9621C167.767 100.592 168.168 101.177 168.635 101.686C169.605 102.743 170.931 103.447 172.366 103.575C175.441 103.848 178.851 101.29 178.148 97.9591C178.076 97.6201 178.371 97.3741 178.686 97.3421C180.728 97.1401 181.8 95.1171 181.785 93.2371C181.768 91.1221 180.61 89.2911 178.443 88.9411C178.015 88.8721 177.581 88.8471 177.148 88.8671C176.737 88.8861 176.307 89.0151 175.899 88.9801C175.096 88.9111 175.017 87.8961 174.681 87.3321C173.76 85.7891 172.015 84.9201 170.228 85.2141C169.158 85.3891 168.166 85.9831 167.51 86.8461C166.854 87.7091 166.6 88.7511 166.452 89.8051C166.434 89.9311 166.145 90.2811 166.067 90.0091C165.509 88.0631 166.8 85.8701 168.49 84.9311C170.434 83.8521 172.881 84.0391 174.574 85.5021C174.943 85.8201 175.272 86.1971 175.541 86.6021C175.689 86.8251 175.812 87.0581 175.922 87.3021C175.978 87.4281 176.103 87.9871 176.198 88.0461C176.26 88.0851 176.698 87.9931 176.78 87.9871C177.033 87.9671 177.288 87.9581 177.542 87.9591C178.12 87.9601 178.69 88.0141 179.252 88.1541C181.558 88.7291 182.794 90.7431 182.857 93.0461C182.921 95.3691 181.529 97.5831 179.265 98.1301C179.686 101.804 176.044 104.584 172.557 104.501C170.821 104.46 169.192 103.727 167.968 102.503C166.911 101.446 165.731 99.6491 166.025 98.0861C166.085 97.7691 166.653 97.5591 166.791 97.9231Z" fill="#455A64"/>
<path d="M154.272 93.008C155.792 92.403 157.554 92.304 159.16 92.04C159.873 91.923 160.586 91.81 161.3 91.698C162.042 91.581 162.811 91.413 163.565 91.431C163.916 91.439 163.72 91.907 163.509 91.988C162.745 92.28 161.914 92.403 161.113 92.554C160.356 92.696 159.598 92.829 158.839 92.955C158.115 93.076 157.392 93.196 156.667 93.308C155.886 93.429 155.019 93.581 154.229 93.483C153.99 93.455 154.118 93.07 154.272 93.008Z" fill="#455A64"/>
<path d="M155.565 97.5788C155.845 97.4608 156.139 97.4518 156.438 97.4058C156.776 97.3538 157.106 97.3178 157.448 97.2938C158.032 97.2518 158.617 97.2238 159.203 97.1968C159.788 97.1688 160.374 97.1398 160.96 97.1328C161.629 97.1248 162.398 97.0248 163.055 97.1798C163.376 97.2558 163.076 97.7258 162.884 97.7708C162.321 97.9018 161.712 97.8858 161.137 97.9208C160.531 97.9578 159.924 97.9878 159.318 98.0218C158.717 98.0548 158.117 98.0958 157.517 98.1338C157.237 98.1518 156.957 98.1758 156.677 98.1828C156.333 98.1918 155.813 98.2398 155.469 98.1418C155.194 98.0628 155.39 97.6518 155.565 97.5788Z" fill="#455A64"/>
</svg>
