<svg width="750" height="500" viewBox="0 0 750 500" fill="none" xmlns="http://www.w3.org/2000/svg">
<path d="M366.596 163.491C365.8 163.491 364.998 163.361 364.226 163.093L351.982 158.85C349.538 158.003 347.716 155.899 347.227 153.358L344.779 140.633C344.291 138.093 345.202 135.463 347.157 133.769L356.954 125.286C358.909 123.592 361.642 123.067 364.087 123.914L376.331 128.157C378.775 129.004 380.598 131.108 381.086 133.649L383.534 146.374C384.022 148.914 383.111 151.543 381.156 153.237L371.358 161.72C370.021 162.879 368.319 163.491 366.596 163.491ZM355.003 151.431L366.443 155.395L375.597 147.469L373.31 135.579L361.869 131.614L352.715 139.54L355.003 151.431Z" fill="#F5F5F5"/>
<path d="M509.438 126.53C508.642 126.53 507.841 126.4 507.069 126.132L500.871 123.985C498.426 123.137 496.604 121.032 496.116 118.492L494.878 112.053C494.389 109.514 495.299 106.885 497.255 105.19L502.216 100.895C504.172 99.201 506.905 98.676 509.349 99.524L515.545 101.672C517.99 102.519 519.813 104.624 520.301 107.165L521.539 113.604C522.026 116.145 521.116 118.773 519.163 120.467L514.202 124.762C512.864 125.918 511.162 126.53 509.438 126.53ZM503.892 116.565L509.287 118.434L513.603 114.697L512.524 109.091L507.129 107.221L502.813 110.958L503.892 116.565Z" fill="#F5F5F5"/>
<path d="M680.682 220.767C679.1 220.767 677.575 220.05 676.57 218.797L673.079 214.441C671.907 212.979 671.6 210.985 672.28 209.238L674.307 204.036C674.986 202.29 676.56 201.028 678.412 200.743L683.932 199.897C685.779 199.612 687.662 200.345 688.836 201.807L692.327 206.163C693.5 207.625 693.806 209.619 693.126 211.366L691.099 216.568C690.419 218.314 688.846 219.576 686.993 219.86L681.474 220.706C681.211 220.748 680.946 220.767 680.682 220.767ZM684.728 203.837C684.664 203.837 684.601 203.842 684.538 203.852L679.018 204.698C678.574 204.766 678.197 205.069 678.034 205.488L676.007 210.69C675.844 211.109 675.917 211.588 676.199 211.939L679.69 216.295C679.971 216.646 680.432 216.822 680.867 216.753L686.386 215.907C686.83 215.839 687.207 215.536 687.37 215.117L689.397 209.915C689.56 209.496 689.487 209.017 689.205 208.667V208.666L685.714 204.311C685.474 204.01 685.108 203.837 684.728 203.837Z" fill="#E0E0E0"/>
<path d="M57.6988 264.231C55.6658 264.231 53.7058 263.309 52.4138 261.697L44.2088 251.464C42.7028 249.584 42.3098 247.022 43.1838 244.778L47.9448 232.554C48.8198 230.309 50.8408 228.689 53.2218 228.324L66.1878 226.335C68.5728 225.97 70.9838 226.911 72.4908 228.791L80.6958 239.025C82.2028 240.904 82.5958 243.466 81.7218 245.71L76.9598 257.935C76.0858 260.18 74.0638 261.801 71.6818 262.167L58.7158 264.155C58.3778 264.205 58.0378 264.231 57.6988 264.231ZM49.7568 247.191L57.7918 257.213L70.4888 255.267L75.1508 243.297L67.1158 233.274L54.4198 235.221L49.7568 247.191Z" fill="#E0E0E0"/>
<path d="M90.882 174.594H83.15C81.275 174.594 79.528 173.586 78.591 171.962L74.725 165.265C73.787 163.641 73.787 161.625 74.725 160.001L78.591 153.304C79.528 151.68 81.275 150.672 83.15 150.672H90.882C92.756 150.672 94.503 151.68 95.441 153.303L99.308 160C100.246 161.624 100.246 163.64 99.308 165.264L95.441 171.961C94.503 173.586 92.756 174.594 90.882 174.594ZM83.149 154.674C82.699 154.674 82.279 154.916 82.054 155.306L78.188 162.003C77.963 162.393 77.963 162.877 78.188 163.267L82.054 169.964C82.279 170.354 82.699 170.596 83.149 170.596H90.881C91.331 170.596 91.751 170.354 91.976 169.964L95.842 163.267C96.067 162.877 96.067 162.393 95.842 162.003L91.976 155.306C91.751 154.916 91.331 154.674 90.881 154.674H83.149Z" fill="#EBEBEB"/>
<path d="M222.779 98.9491L207.703 89.4611L189.19 58.2201L163.44 42.4531L158.455 47.8511L161.074 51.3661L169.198 62.2691L201.473 105.589L214.634 112.83L222.779 98.9491Z" fill="#EBEBEB"/>
<path d="M203.834 121.408L199.515 107.021L152.091 52.8438L145.768 56.5848L155.78 85.0707L183.31 112.111L189.48 128.999L203.834 121.408Z" fill="#EBEBEB"/>
<path d="M229.518 101.633C229.518 101.633 283.072 131.023 293.86 140.945C304.648 150.867 329.855 192.174 327.295 197.45C324.735 202.726 322.777 203.405 316.966 198.33C311.156 193.255 292.383 164.909 287.335 160.329C282.287 155.749 219.56 118.948 219.56 118.948L229.518 101.633Z" fill="#E0E0E0"/>
<path d="M193.214 114.215C202.581 114.215 210.173 106.622 210.173 97.2559C210.173 87.8897 202.581 80.2969 193.214 80.2969C183.848 80.2969 176.255 87.8897 176.255 97.2559C176.255 106.622 183.848 114.215 193.214 114.215Z" fill="#EBEBEB"/>
<path d="M188.948 113.674C188.962 113.585 190.406 114.079 193.09 114.101C194.427 114.133 196.073 113.921 197.892 113.393C199.707 112.856 201.697 111.923 203.565 110.438C205.418 108.955 207.19 106.941 208.354 104.389C209.496 101.851 210.188 98.8327 209.843 95.6987C209.717 94.1337 209.323 92.5538 208.701 91.0347C208.42 90.2598 208.004 89.5387 207.617 88.7957C207.156 88.0957 206.715 87.3717 206.153 86.7247C204.024 84.0477 200.913 82.0427 197.416 81.0987C193.901 80.2187 190.207 80.4548 187.043 81.7558C186.237 82.0468 185.498 82.4647 184.755 82.8517C184.056 83.3117 183.341 83.7397 182.718 84.2797C181.435 85.3037 180.321 86.4918 179.448 87.7978C177.62 90.3668 176.756 93.3407 176.518 96.1147C176.292 98.9107 176.858 101.533 177.755 103.73C178.664 105.937 179.948 107.721 181.272 109.074C182.605 110.421 183.936 111.407 185.121 112.031C187.477 113.318 188.979 113.589 188.948 113.674C188.946 113.683 188.855 113.663 188.679 113.617C188.475 113.56 188.217 113.488 187.899 113.399C187.554 113.309 187.134 113.178 186.658 112.965C186.176 112.768 185.612 112.553 185.026 112.208C183.813 111.604 182.441 110.629 181.065 109.278C179.698 107.921 178.367 106.118 177.416 103.872C176.477 101.636 175.876 98.9537 176.088 96.0837C176.312 93.2377 177.184 90.1777 179.052 87.5247C179.945 86.1777 181.088 84.9497 182.406 83.8917C183.046 83.3347 183.78 82.8907 184.501 82.4157C185.266 82.0147 186.025 81.5827 186.854 81.2807C190.112 79.9337 193.926 79.6847 197.549 80.5927C201.153 81.5637 204.361 83.6387 206.55 86.4007C207.127 87.0677 207.582 87.8147 208.054 88.5377C208.452 89.3037 208.876 90.0477 209.164 90.8467C209.799 92.4127 210.2 94.0407 210.324 95.6517C210.664 98.8787 209.936 101.975 208.746 104.57C207.534 107.18 205.704 109.23 203.795 110.725C201.871 112.224 199.829 113.15 197.975 113.67C196.116 114.18 194.444 114.364 193.09 114.301C192.41 114.317 191.814 114.23 191.296 114.167C190.776 114.122 190.344 114.031 189.998 113.942C189.676 113.865 189.419 113.803 189.212 113.753C189.035 113.71 188.946 113.682 188.948 113.674Z" fill="#E0E0E0"/>
<path d="M190.804 106.526C185.685 105.195 182.615 99.9669 183.945 94.8489C185.276 89.7299 190.504 86.6599 195.622 87.9899C200.741 89.3199 203.812 94.5489 202.481 99.6669C201.151 104.785 195.923 107.856 190.804 106.526Z" fill="#E0E0E0"/>
<path d="M190.804 106.525C190.816 106.46 191.635 106.724 193.143 106.722C194.623 106.717 196.899 106.312 199.009 104.634C200.043 103.8 201.03 102.67 201.677 101.241C202.312 99.8197 202.696 98.1327 202.5 96.3837C202.428 95.5097 202.206 94.6277 201.858 93.7807C201.523 92.9277 201.044 92.1086 200.434 91.3766C199.245 89.8836 197.509 88.7667 195.558 88.2397C193.597 87.7487 191.537 87.8797 189.77 88.6047C188.88 88.9457 188.063 89.4287 187.355 90.0107C186.638 90.5817 186.015 91.2436 185.527 91.9716C184.504 93.4046 184.017 95.0647 183.88 96.6147C183.75 98.1777 184.061 99.6446 184.559 100.877C185.585 103.37 187.375 104.831 188.666 105.556C189.983 106.294 190.826 106.462 190.804 106.525C190.804 106.525 189.944 106.432 188.568 105.736C187.221 105.051 185.331 103.593 184.219 101.021C183.68 99.7497 183.332 98.2226 183.449 96.5856C183.573 94.9626 184.067 93.2167 185.131 91.7007C185.64 90.9317 186.291 90.2296 187.042 89.6246C187.785 89.0086 188.644 88.4957 189.581 88.1317C191.441 87.3617 193.62 87.2176 195.689 87.7366C197.748 88.2906 199.581 89.4776 200.829 91.0556C201.47 91.8296 201.97 92.6956 202.319 93.5956C202.681 94.4906 202.908 95.4197 202.977 96.3397C203.168 98.1817 202.75 99.9477 202.068 101.425C201.373 102.911 200.326 104.076 199.236 104.924C197.013 106.629 194.652 106.982 193.141 106.924C191.601 106.862 190.804 106.525 190.804 106.525Z" fill="#E0E0E0"/>
<path d="M212.144 110.441L219.072 98.3852C221.103 94.8502 225.616 93.6312 229.151 95.6622L229.799 96.0352C233.334 98.0662 234.553 102.579 232.522 106.114L225.595 118.17C223.564 121.705 219.051 122.924 215.516 120.893L214.868 120.52C211.332 118.488 210.113 113.976 212.144 110.441Z" fill="#EBEBEB"/>
<path d="M212.144 110.443C212.219 110.469 211.546 111.368 211.314 113.259C211.216 114.196 211.298 115.375 211.759 116.63C212.006 117.249 212.341 117.882 212.795 118.485C213.263 119.077 213.844 119.632 214.54 120.093C215.249 120.535 216.026 121.012 216.881 121.291C217.743 121.579 218.695 121.712 219.671 121.643C221.618 121.515 223.652 120.497 224.949 118.719C227.246 114.883 229.681 110.495 232.295 105.988C233.559 103.793 233.529 101.015 232.329 98.9525C231.76 97.9055 230.916 97.0475 229.952 96.4325C228.961 95.8015 227.964 95.2605 226.876 95.0675C224.721 94.6285 222.525 95.2375 221.008 96.4655C219.441 97.6625 218.744 99.4895 217.824 100.927C216.109 103.842 214.711 106.218 213.712 107.917C213.237 108.703 212.858 109.33 212.571 109.804C212.307 110.232 212.16 110.452 212.144 110.443C212.128 110.434 212.245 110.196 212.481 109.75C212.746 109.264 213.098 108.62 213.537 107.814C214.501 106.095 215.85 103.692 217.505 100.742C217.928 99.9965 218.369 99.2165 218.829 98.4045C219.297 97.5765 219.929 96.7735 220.739 96.1265C222.336 94.8095 224.666 94.1405 226.971 94.5955C228.13 94.7935 229.218 95.3775 230.219 96.0115C231.252 96.6645 232.16 97.5825 232.774 98.7015C234.066 100.907 234.105 103.892 232.747 106.246C230.12 110.774 227.714 115.09 225.336 119.002C223.94 120.893 221.764 121.958 219.7 122.074C218.665 122.137 217.658 121.985 216.751 121.671C215.829 121.353 215.067 120.869 214.335 120.398C213.61 119.904 213.009 119.312 212.531 118.685C212.066 118.046 211.729 117.379 211.486 116.73C211.033 115.415 210.982 114.194 211.113 113.235C211.243 112.269 211.548 111.57 211.748 111.107C211.992 110.661 212.129 110.435 212.144 110.443Z" fill="#E0E0E0"/>
<path d="M191.471 137.531C191.471 137.531 211.761 195.151 219.796 207.41C227.832 219.668 264.49 251.257 270.112 249.589C275.734 247.922 276.722 246.099 272.66 239.541C268.597 232.983 243.681 209.85 239.983 204.125C236.285 198.4 210.174 130.523 210.174 130.523L191.471 137.531Z" fill="#E0E0E0"/>
<path d="M202.993 121.822L189.971 126.697C186.153 128.126 184.216 132.381 185.645 136.199L185.907 136.899C187.336 140.717 191.591 142.654 195.409 141.225L208.431 136.35C212.25 134.92 214.186 130.666 212.757 126.848L212.495 126.148C211.066 122.33 206.811 120.393 202.993 121.822Z" fill="#EBEBEB"/>
<path d="M202.993 121.824C202.987 121.808 203.233 121.709 203.713 121.542C204.203 121.419 204.941 121.232 205.916 121.261C206.884 121.287 208.081 121.537 209.304 122.197C209.904 122.543 210.508 122.984 211.063 123.546C211.604 124.12 212.09 124.81 212.46 125.605C212.805 126.404 213.159 127.235 213.323 128.196C213.486 129.142 213.472 130.16 213.241 131.171C212.791 133.189 211.387 135.163 209.294 136.233C205.048 137.943 200.398 139.615 195.503 141.471C192.959 142.429 190.02 141.905 188.054 140.271C187.049 139.484 186.291 138.439 185.815 137.313C185.352 136.222 184.953 135.054 184.946 133.878C184.871 131.53 185.91 129.34 187.469 127.978C188.239 127.284 189.134 126.791 190.027 126.464C190.903 126.142 191.745 125.833 192.549 125.538C195.729 124.385 198.32 123.445 200.172 122.773C201.039 122.47 201.731 122.228 202.254 122.046C202.732 121.884 202.987 121.808 202.993 121.824C202.999 121.841 202.758 121.95 202.292 122.143C201.778 122.349 201.097 122.621 200.244 122.962C198.406 123.672 195.834 124.664 192.679 125.883C191.111 126.557 189.195 126.947 187.759 128.299C186.301 129.596 185.342 131.664 185.426 133.862C185.44 134.966 185.811 136.038 186.273 137.118C186.723 138.169 187.433 139.141 188.373 139.873C190.213 141.393 192.95 141.875 195.321 140.984C200.194 139.137 204.919 137.449 209.078 135.806C211.043 134.815 212.379 132.974 212.822 131.074C213.049 130.123 213.072 129.161 212.928 128.264C212.791 127.375 212.448 126.53 212.127 125.759C211.785 124.997 211.332 124.333 210.825 123.776C210.304 123.23 209.733 122.797 209.163 122.452C208 121.794 206.85 121.521 205.909 121.465C204.003 121.385 203.007 121.903 202.993 121.824Z" fill="#E0E0E0"/>
<path d="M714.755 453.471C714.755 453.615 562.318 453.731 374.32 453.731C186.257 453.731 33.853 453.614 33.853 453.471C33.853 453.328 186.258 453.211 374.32 453.211C562.318 453.211 714.755 453.327 714.755 453.471Z" fill="#263238"/>
<path d="M87.0146 339.067C87.2916 338.229 118.45 236.372 118.45 236.372L117.67 223.723L125.819 210.305L135.941 213.648L134.556 228.69L127.362 239.626L95.9756 341.962L87.0146 339.067Z" fill="#E0E0E0"/>
<path d="M87.0146 339.066C87.0146 339.066 87.2246 339.122 87.6156 339.242C88.0196 339.367 88.5936 339.545 89.3466 339.779C90.8716 340.259 93.1036 340.962 96.0036 341.874L95.8876 341.934C100.957 325.316 112.682 286.879 127.119 239.55L127.13 239.515L127.15 239.484C129.428 236.019 131.867 232.308 134.341 228.546L134.3 228.664C134.741 223.866 135.209 218.776 135.683 213.622L135.861 213.893C135.597 213.806 135.311 213.711 135.024 213.617C131.902 212.586 128.805 211.563 125.739 210.55L126.042 210.438C123.272 214.997 120.549 219.479 117.89 223.854L117.927 223.705C118.191 228.018 118.45 232.239 118.701 236.354L118.704 236.4L118.691 236.443C109.584 266.034 101.697 291.663 96.0807 309.911C93.2567 319.035 91.0047 326.31 89.4527 331.322C88.6747 333.816 88.0727 335.743 87.6607 337.065C87.4557 337.71 87.2997 338.204 87.1887 338.553C87.0807 338.89 87.0146 339.066 87.0146 339.066C87.0146 339.066 87.0537 338.903 87.1487 338.574C87.2507 338.229 87.3936 337.741 87.5816 337.105C87.9766 335.79 88.5516 333.873 89.2956 331.393C90.8116 326.384 93.0127 319.113 95.7717 309.994C101.345 291.69 109.172 265.981 118.209 236.298L118.199 236.387C117.944 232.272 117.682 228.051 117.414 223.738L117.409 223.658L117.451 223.589C120.108 219.212 122.829 214.729 125.597 210.169L125.704 209.992L125.9 210.057C128.966 211.069 132.064 212.092 135.185 213.123C135.471 213.218 135.758 213.312 136.022 213.399L136.219 213.464L136.2 213.67C135.725 218.824 135.256 223.913 134.813 228.711L134.807 228.776L134.771 228.83C132.295 232.591 129.854 236.3 127.574 239.764L127.605 239.699C113.024 286.984 101.182 325.385 96.0616 341.988L96.0336 342.078L95.9456 342.049C93.0386 341.086 90.8007 340.344 89.2717 339.837C88.5337 339.589 87.9696 339.399 87.5736 339.266C87.1966 339.137 87.0146 339.066 87.0146 339.066Z" fill="#263238"/>
<path d="M79.4939 344.015L65.4999 362.939L45.9299 433.926C45.9299 433.926 43.1159 448.405 59.1109 452.519C77.0709 457.138 81.2139 443.381 81.2139 443.381L100.242 374.051L99.9569 349.991L104.654 344.702C105.599 343.638 105.146 341.954 103.795 341.507L81.3249 334.086C79.9669 333.638 78.5959 334.733 78.7339 336.157L79.4939 344.015Z" fill="#3D5EE1"/>
<path d="M100.116 350.832C100.073 350.969 95.3627 349.597 89.5977 347.767C83.8307 345.937 79.1917 344.343 79.2357 344.205C79.2787 344.068 83.9877 345.44 89.7557 347.27C95.5197 349.1 100.16 350.695 100.116 350.832Z" fill="#263238"/>
<path d="M100.242 374.053C100.233 374.088 99.7347 373.998 98.8397 373.806C97.9437 373.616 96.6557 373.311 95.0687 372.912C91.8947 372.115 87.5347 370.907 82.7757 369.389C78.0167 367.868 73.7627 366.325 70.7147 365.135C69.1897 364.541 67.9637 364.042 67.1237 363.678C66.2827 363.316 65.8247 363.1 65.8377 363.067C65.8507 363.034 66.3347 363.186 67.1977 363.489C68.1517 363.829 69.3767 364.266 70.8447 364.79C73.9227 365.89 78.1857 367.374 82.9357 368.893C87.6847 370.408 92.0197 371.669 95.1647 372.556C96.6647 372.98 97.9157 373.334 98.8907 373.609C99.7687 373.861 100.251 374.018 100.242 374.053Z" fill="#263238"/>
<g opacity="0.3">
<path d="M52.9718 435.944L52.4918 435.802C50.7428 435.284 49.7448 433.446 50.2628 431.697L67.8318 372.358C68.3498 370.609 70.1878 369.611 71.9368 370.129L72.4168 370.271C74.1658 370.789 75.1638 372.627 74.6458 374.376L57.0768 433.715C56.5588 435.464 54.7208 436.462 52.9718 435.944Z" fill="black"/>
</g>
<g opacity="0.3">
<path d="M62.9469 439.225L62.4669 439.083C60.7179 438.565 59.7199 436.727 60.2379 434.978L77.8069 375.639C78.3249 373.89 80.1629 372.892 81.9119 373.41L82.3919 373.552C84.1409 374.07 85.1389 375.908 84.6209 377.657L67.0519 436.996C66.5349 438.744 64.6969 439.743 62.9469 439.225Z" fill="black"/>
</g>
<g opacity="0.3">
<path d="M73.5358 442.359L73.0558 442.217C71.3068 441.699 70.3088 439.861 70.8268 438.112L88.3958 378.773C88.9138 377.024 90.7518 376.026 92.5008 376.543L92.9808 376.685C94.7298 377.203 95.7278 379.041 95.2098 380.79L77.6408 440.129C77.1238 441.879 75.2858 442.877 73.5358 442.359Z" fill="black"/>
</g>
<path d="M127.266 239.597C127.219 239.733 125.225 239.167 122.812 238.332C120.399 237.497 118.481 236.711 118.528 236.575C118.575 236.439 120.569 237.005 122.982 237.84C125.395 238.675 127.313 239.461 127.266 239.597Z" fill="#263238"/>
<path d="M135.942 213.648C135.972 213.658 135.846 214.152 135.59 215.051C135.301 216.022 134.92 217.307 134.454 218.875C133.423 222.194 132.023 226.701 130.429 231.833L130.351 232.083L130.102 231.996C128.615 231.478 127.075 230.941 125.496 230.391C123.866 229.819 122.276 229.261 120.751 228.726L120.525 228.647L120.589 228.418C122.036 223.278 123.304 218.771 124.238 215.453C124.697 213.897 125.073 212.624 125.357 211.66C125.628 210.775 125.791 210.296 125.821 210.305C125.851 210.313 125.747 210.808 125.529 211.707C125.282 212.681 124.955 213.968 124.556 215.54C123.667 218.87 122.458 223.394 121.08 228.553L120.919 228.245C122.446 228.777 124.037 229.331 125.668 229.899C127.246 230.453 128.785 230.993 130.271 231.514L129.944 231.677C131.606 226.566 133.066 222.078 134.14 218.773C134.665 217.224 135.095 215.954 135.421 214.995C135.729 214.115 135.912 213.639 135.942 213.648Z" fill="#263238"/>
<path d="M430.898 111.919C430.101 111.919 429.3 111.789 428.528 111.521L416.284 107.278C413.841 106.431 412.018 104.328 411.529 101.788L409.082 89.0608C408.592 86.5208 409.504 83.8908 411.461 82.1968L421.257 73.7148C423.212 72.0228 425.947 71.4968 428.389 72.3428L440.633 76.5858C443.078 77.4328 444.901 79.5378 445.389 82.0788L447.836 94.8018C448.324 97.3448 447.412 99.9738 445.456 101.666L435.661 110.147C434.324 111.306 432.621 111.919 430.898 111.919ZM419.304 99.8568L430.745 103.821L439.898 95.8948L437.611 84.0048L426.17 80.0398L417.017 87.9658L419.304 99.8568Z" fill="#E0E0E0"/>
<path d="M419.304 99.8577C419.29 99.8707 419.221 99.5977 419.101 99.0667C418.975 98.4797 418.808 97.6987 418.599 96.7217C418.168 94.6037 417.566 91.6387 416.827 88.0047C416.813 87.9357 416.841 87.8647 416.89 87.8217C419.492 85.5497 422.594 82.8397 426.009 79.8567C426.077 79.7967 426.17 79.7827 426.25 79.8107C429.792 81.0327 433.661 82.3687 437.694 83.7607C437.543 83.5857 437.904 84.0007 437.867 83.9597L437.868 83.9627L437.869 83.9687L437.871 83.9807L437.876 84.0057L437.885 84.0547L437.904 84.1527L437.942 84.3487L438.017 84.7387L438.166 85.5157C438.265 86.0327 438.364 86.5467 438.462 87.0577C438.657 88.0787 438.851 89.0877 439.041 90.0827C439.42 92.0707 439.787 93.9987 440.14 95.8517C440.157 95.9407 440.123 96.0287 440.06 96.0837C436.619 99.0377 433.51 101.706 430.873 103.97C430.82 104.017 430.745 104.028 430.683 104.007C427.192 102.756 424.343 101.735 422.308 101.006C421.371 100.659 420.622 100.382 420.059 100.173C419.549 99.9777 419.29 99.8707 419.304 99.8577C419.319 99.8457 419.607 99.9277 420.14 100.096C420.718 100.283 421.486 100.532 422.449 100.843C424.48 101.523 427.323 102.474 430.808 103.64L430.618 103.676C433.236 101.39 436.322 98.6937 439.737 95.7107L439.657 95.9427C439.297 94.0907 438.923 92.1637 438.537 90.1777C438.345 89.1837 438.15 88.1757 437.952 87.1547C437.854 86.6437 437.754 86.1307 437.655 85.6137L437.505 84.8367L437.43 84.4467L437.392 84.2517L437.373 84.1537L437.364 84.1047L437.359 84.0807L437.357 84.0687L437.356 84.0627L437.355 84.0597C437.318 84.0157 437.677 84.4307 437.523 84.2547C433.493 82.8527 429.627 81.5077 426.088 80.2767L426.329 80.2307C422.889 83.1837 419.763 85.8667 417.142 88.1167L417.205 87.9337C417.861 91.5497 418.396 94.4997 418.778 96.6067C418.948 97.6037 419.084 98.3997 419.187 98.9987C419.278 99.5487 419.319 99.8457 419.304 99.8577Z" fill="#263238"/>
<path d="M430.898 111.921C430.897 111.894 431.333 111.911 432.136 111.761C432.928 111.606 434.121 111.25 435.334 110.288C437.708 108.209 441.098 105.24 445.275 101.581C446.314 100.698 447.125 99.456 447.514 98.025C447.702 97.309 447.785 96.55 447.744 95.782C447.698 95.022 447.495 94.235 447.349 93.427C446.721 90.204 446.051 86.763 445.346 83.142C445.17 82.226 445.026 81.333 444.62 80.508C444.236 79.68 443.681 78.92 442.994 78.289C442.308 77.657 441.485 77.162 440.589 76.843C439.658 76.521 438.719 76.196 437.77 75.868C435.873 75.212 433.942 74.544 431.982 73.866C431.002 73.527 430.015 73.185 429.022 72.841C428.025 72.463 427.063 72.203 426.019 72.209C424.993 72.215 423.972 72.435 423.053 72.865C422.115 73.276 421.367 73.951 420.579 74.645C419.01 76.002 417.465 77.338 415.946 78.652C414.43 79.965 412.94 81.255 411.482 82.518C410.096 83.773 409.289 85.564 409.202 87.345C409.135 88.241 409.326 89.102 409.498 89.995C409.666 90.878 409.831 91.749 409.995 92.608C410.321 94.325 410.637 95.993 410.943 97.605C411.256 99.209 411.526 100.793 411.842 102.252C412.228 103.683 413.043 104.927 414.08 105.806C414.596 106.249 415.163 106.607 415.752 106.876C416.337 107.138 416.966 107.33 417.554 107.545C418.738 107.963 419.856 108.357 420.903 108.727C422.983 109.466 424.78 110.104 426.262 110.631C427.739 111.137 428.855 111.625 429.659 111.762C430.463 111.911 430.899 111.895 430.898 111.921C430.898 111.921 430.463 111.984 429.642 111.865C428.812 111.758 427.679 111.297 426.196 110.822C424.706 110.319 422.899 109.708 420.808 109.002C419.757 108.644 418.635 108.263 417.446 107.858C416.852 107.647 416.238 107.469 415.608 107.196C414.987 106.919 414.388 106.548 413.842 106.087C412.744 105.172 411.873 103.868 411.455 102.357C411.115 100.842 410.845 99.301 410.52 97.686C410.206 96.075 409.881 94.409 409.547 92.694C409.38 91.836 409.211 90.965 409.039 90.083C408.868 89.216 408.656 88.277 408.725 87.32C408.811 85.417 409.667 83.499 411.149 82.15C412.608 80.881 414.098 79.585 415.615 78.266C417.132 76.95 418.676 75.612 420.243 74.253C420.641 73.914 421.012 73.572 421.445 73.232C421.877 72.906 422.344 72.624 422.837 72.393C423.824 71.931 424.92 71.694 426.022 71.688C427.119 71.673 428.231 71.981 429.195 72.35C430.188 72.694 431.175 73.037 432.154 73.377C434.113 74.057 436.043 74.727 437.939 75.386C438.887 75.716 439.828 76.044 440.759 76.368C441.719 76.712 442.6 77.245 443.333 77.924C444.067 78.601 444.658 79.416 445.066 80.303C445.498 81.186 445.652 82.161 445.82 83.052C446.508 86.675 447.163 90.12 447.776 93.346C447.915 94.151 448.117 94.936 448.164 95.76C448.202 96.574 448.109 97.377 447.905 98.132C447.485 99.641 446.614 100.947 445.519 101.861C441.293 105.47 437.864 108.398 435.462 110.449C434.194 111.413 432.966 111.742 432.157 111.866C431.333 111.983 430.898 111.921 430.898 111.921Z" fill="#263238"/>
<path d="M345.666 91.1016C344.083 91.1016 342.558 90.3846 341.553 89.1306L338.061 84.7756C336.888 83.3126 336.583 81.3186 337.263 79.5716L339.289 74.3696C339.97 72.6226 341.544 71.3616 343.396 71.0776L348.914 70.2316C350.768 69.9496 352.646 70.6796 353.819 72.1416L357.31 76.4976C358.482 77.9596 358.789 79.9536 358.109 81.7006L356.082 86.9036C355.402 88.6506 353.829 89.9116 351.975 90.1966L346.457 91.0426C346.194 91.0816 345.929 91.1016 345.666 91.1016ZM349.711 74.1706C349.648 74.1706 349.585 74.1756 349.521 74.1856L344.004 75.0316C343.559 75.0996 343.181 75.4026 343.017 75.8226L340.992 81.0236C340.828 81.4436 340.902 81.9226 341.183 82.2736L344.675 86.6286C344.957 86.9806 345.408 87.1556 345.853 87.0876L351.371 86.2416C351.816 86.1736 352.194 85.8706 352.357 85.4516L354.384 80.2496C354.547 79.8306 354.473 79.3516 354.192 79.0006L350.701 74.6456C350.457 74.3426 350.091 74.1706 349.711 74.1706Z" fill="#E0E0E0"/>
<path d="M349.711 74.1708C349.709 74.1588 349.861 74.1178 350.141 74.1908C350.279 74.2308 350.448 74.3028 350.612 74.4408C350.78 74.5858 350.912 74.7708 351.087 74.9678C351.816 75.8438 352.773 76.9928 353.928 78.3798C354.079 78.5648 354.232 78.7538 354.389 78.9458C354.556 79.1748 354.655 79.4588 354.666 79.7548C354.687 80.0538 354.562 80.3598 354.472 80.5888C354.377 80.8378 354.281 81.0908 354.184 81.3478C353.789 82.3828 353.369 83.4818 352.929 84.6348C352.818 84.9238 352.705 85.2168 352.592 85.5128C352.467 85.8598 352.194 86.1758 351.847 86.3458C351.47 86.5258 351.136 86.5118 350.818 86.5798C350.491 86.6308 350.161 86.6828 349.828 86.7348C348.478 86.9368 347.157 87.1678 345.662 87.3608C345.23 87.3618 344.805 87.1728 344.523 86.8518C344.299 86.5728 344.076 86.2958 343.855 86.0208C343.42 85.4768 342.992 84.9408 342.571 84.4138C342.151 83.8868 341.739 83.3688 341.334 82.8608L341.033 82.4818C340.926 82.3568 340.812 82.1758 340.752 82.0028C340.621 81.6488 340.637 81.2438 340.776 80.9118C341.232 79.7638 341.666 78.6708 342.075 77.6408C342.279 77.1308 342.477 76.6368 342.668 76.1598C342.77 75.9318 342.831 75.6818 343.006 75.4378C343.171 75.2078 343.401 75.0368 343.65 74.9388C345.573 74.5868 347.028 74.4508 348.084 74.3018C349.123 74.1738 349.708 74.1198 349.711 74.1708C349.709 74.1918 349.572 74.2078 349.301 74.2718C348.969 74.3368 348.579 74.4128 348.115 74.5028C347.106 74.7028 345.539 74.9278 343.789 75.2798C343.605 75.3578 343.438 75.4888 343.32 75.6608C343.206 75.8188 343.141 76.0648 343.043 76.3058C342.861 76.7858 342.673 77.2838 342.478 77.7978C342.083 78.8328 341.664 79.9318 341.223 81.0858C341.126 81.3278 341.122 81.5918 341.212 81.8338C341.285 82.0598 341.523 82.2838 341.723 82.5488C342.131 83.0538 342.547 83.5698 342.97 84.0938C343.393 84.6198 343.823 85.1538 344.26 85.6968C344.476 85.9648 344.693 86.2338 344.912 86.5048C345.097 86.7158 345.379 86.8398 345.663 86.8398C347.063 86.6308 348.43 86.4268 349.752 86.2298C350.085 86.1798 350.416 86.1298 350.743 86.0808C351.071 86.0198 351.417 86.0128 351.627 85.8998C351.863 85.7838 352.044 85.5838 352.137 85.3348C352.254 85.0398 352.369 84.7478 352.483 84.4598C352.939 83.3128 353.374 82.2188 353.783 81.1898C353.885 80.9348 353.986 80.6828 354.085 80.4358C354.193 80.1738 354.275 79.9848 354.267 79.7638C354.263 79.5488 354.196 79.3378 354.077 79.1668C353.929 78.9768 353.784 78.7898 353.643 78.6078C352.54 77.1778 351.627 75.9938 350.931 75.0918C350.39 74.1398 349.685 74.2178 349.711 74.1708Z" fill="#263238"/>
<path d="M345.666 91.1044C345.666 91.0864 345.898 91.0514 346.333 91.0014C346.822 90.9164 347.455 90.8054 348.242 90.6684C349.093 90.5254 350.105 90.3554 351.268 90.1594C351.863 90.0584 352.484 89.9864 353.088 89.7184C353.696 89.4704 354.285 89.0784 354.793 88.5584C355.301 88.0334 355.711 87.3884 355.976 86.6244C356.27 85.8554 356.576 85.0574 356.892 84.2324C357.436 82.5594 358.555 80.8514 358.15 78.9384C357.985 77.9924 357.549 77.1144 356.866 76.3424C356.212 75.5304 355.546 74.7014 354.867 73.8584C354.528 73.4364 354.185 73.0104 353.84 72.5814C353.499 72.1404 353.156 71.7664 352.723 71.4434C351.874 70.8044 350.8 70.4354 349.708 70.4374C349.17 70.4274 348.616 70.5534 348.048 70.6304C347.487 70.7164 346.93 70.8014 346.377 70.8854C345.277 71.0564 344.193 71.2244 343.128 71.3904C342.122 71.6124 341.203 72.1404 340.528 72.8684C340.189 73.2314 339.907 73.6394 339.691 74.0744C339.484 74.5014 339.313 74.9974 339.127 75.4534C338.762 76.3794 338.407 77.2824 338.061 78.1604C337.736 79.0484 337.31 79.8734 337.185 80.7044C336.899 82.4104 337.553 83.9994 338.55 85.0934C339.475 86.2704 340.316 87.3394 341.062 88.2874C341.439 88.7544 341.753 89.2154 342.113 89.5574C342.471 89.9064 342.845 90.1784 343.205 90.3794C344.678 91.1704 345.687 91.0284 345.666 91.1044C345.666 91.1134 345.608 91.1204 345.493 91.1264C345.379 91.1334 345.208 91.1304 344.985 91.1114C344.542 91.0694 343.874 90.9524 343.108 90.5574C342.726 90.3624 342.327 90.0914 341.941 89.7364C341.546 89.3814 341.219 88.9224 340.834 88.4694C340.071 87.5354 339.21 86.4824 338.262 85.3234C337.225 84.2294 336.456 82.4784 336.757 80.6374C336.893 79.7054 337.321 78.8754 337.633 77.9934C337.972 77.1124 338.321 76.2074 338.679 75.2784C338.867 74.8114 339.018 74.3504 339.251 73.8574C339.485 73.3784 339.793 72.9284 340.164 72.5274C340.903 71.7244 341.91 71.1384 343.019 70.8904C344.117 70.6964 345.187 70.5484 346.299 70.3714C346.852 70.2864 347.409 70.2004 347.97 70.1144C348.524 70.0394 349.094 69.9064 349.709 69.9144C350.916 69.9124 352.099 70.3194 353.035 71.0264C353.502 71.3714 353.913 71.8264 354.243 72.2574C354.587 72.6874 354.928 73.1144 355.266 73.5374C355.941 74.3834 356.605 75.2154 357.255 76.0294C357.953 76.8194 358.461 77.8324 358.624 78.8544C358.803 79.8794 358.672 80.9274 358.304 81.8344C357.958 82.7104 357.621 83.5624 357.296 84.3864C356.97 85.2084 356.655 86.0024 356.352 86.7674C356.068 87.5554 355.607 88.2674 355.057 88.8134C353.958 89.9424 352.487 90.3494 351.314 90.4434C350.145 90.6054 349.129 90.7464 348.275 90.8644C347.439 90.9724 346.794 91.0684 346.349 91.1014C345.898 91.1224 345.666 91.1224 345.666 91.1044Z" fill="#263238"/>
<path d="M443.088 78.052C443.191 78.142 442.077 79.644 440.513 81.348C438.947 83.055 437.457 84.216 437.365 84.108C437.269 83.998 438.581 82.683 440.131 80.994C441.681 79.306 442.974 77.953 443.088 78.052Z" fill="#263238"/>
<path d="M424.336 72.2978C424.468 72.2518 425.157 73.9208 425.674 76.0798C426.196 78.2388 426.342 80.0378 426.203 80.0568C426.057 80.0788 425.683 78.3338 425.167 76.2018C424.657 74.0688 424.196 72.3448 424.336 72.2978Z" fill="#263238"/>
<path d="M416.882 87.7683C416.824 87.9053 415.138 87.3123 413.038 86.6663C410.939 86.0133 409.213 85.5493 409.243 85.4043C409.269 85.2673 411.065 85.5073 413.192 86.1693C415.32 86.8243 416.937 87.6403 416.882 87.7683Z" fill="#263238"/>
<path d="M414.746 105.114C414.636 105.022 415.551 103.744 416.791 102.26C418.031 100.776 419.125 99.6476 419.236 99.7396C419.346 99.8316 418.431 101.11 417.191 102.594C415.951 104.078 414.856 105.207 414.746 105.114Z" fill="#263238"/>
<path d="M431.59 110.599C431.448 110.621 431.133 109.177 430.886 107.374C430.639 105.57 430.555 104.095 430.698 104.078C430.841 104.061 431.156 105.505 431.402 107.303C431.648 109.101 431.732 110.577 431.59 110.599Z" fill="#263238"/>
<path d="M445.816 97.7775C445.764 97.9115 444.443 97.5285 442.866 96.9225C441.288 96.3165 440.051 95.7155 440.103 95.5815C440.155 95.4475 441.475 95.8295 443.053 96.4365C444.631 97.0425 445.868 97.6425 445.816 97.7775Z" fill="#263238"/>
<path d="M644.337 174.456C651.115 166.302 657.883 158.062 663.157 148.863C668.431 139.664 672.186 129.38 672.434 118.78C672.471 117.173 671.778 106.015 670.234 105.57C669.13 105.251 668.372 115.1 667.467 115.808C658.834 122.567 653.222 132.598 649.995 143.077C646.767 153.555 645.24 163.529 644.337 174.456Z" fill="#263238"/>
<path d="M556.153 236.482C558.853 229.496 572.138 194.522 572.085 194.501C572.085 194.501 549.175 182.576 557.039 158.299C560.839 146.572 570.628 123.059 579.734 101.884C589.521 79.1254 615.15 67.7084 638.622 75.6344L640.954 76.4214C665.611 86.3844 670.924 112.89 660.283 137.262L611.316 250.762L568.38 237.491L556.153 236.482Z" fill="#FFE7DA"/>
<path d="M572.085 194.5C572.085 194.5 587.022 200.54 606.705 195.823C606.705 195.823 593.084 211.211 569.695 200.888L572.085 194.5Z" fill="#FF9A6C"/>
<path d="M579.727 125.227C579.046 127.028 580.011 129.09 581.88 129.835C583.745 130.578 585.81 129.725 586.49 127.924C587.17 126.123 586.207 124.06 584.342 123.316C582.474 122.57 580.407 123.426 579.727 125.227Z" fill="#263238"/>
<path d="M581.513 113.663C581.789 114.258 585.058 113.205 588.77 114.469C592.496 115.679 594.577 118.511 595.133 118.192C595.399 118.058 595.238 117.097 594.342 115.832C593.464 114.577 591.754 113.067 589.435 112.295C587.116 111.527 584.883 111.721 583.469 112.215C582.032 112.707 581.371 113.39 581.513 113.663Z" fill="#263238"/>
<path d="M612.32 138.337C611.64 140.138 612.604 142.2 614.473 142.944C616.337 143.687 618.402 142.835 619.083 141.033C619.763 139.232 618.799 137.169 616.934 136.425C615.066 135.68 613 136.536 612.32 138.337Z" fill="#263238"/>
<path d="M617.397 127.451C617.673 128.046 620.946 126.996 624.655 128.259C628.38 129.469 630.461 132.301 631.019 131.982C631.284 131.847 631.127 130.889 630.227 129.623C629.35 128.367 627.639 126.857 625.322 126.085C623.004 125.317 620.769 125.511 619.356 126.005C617.92 126.496 617.256 127.179 617.397 127.451Z" fill="#263238"/>
<path d="M594.43 151.498C594.519 151.293 592.344 150.114 588.764 148.372C587.848 147.954 587.013 147.462 587.072 146.761C587.08 146.001 587.822 145.111 588.655 144.162C590.323 142.167 592.068 140.077 593.9 137.886C601.269 128.917 606.945 121.412 606.582 121.118C606.218 120.824 599.95 127.856 592.581 136.826C590.787 139.046 589.074 141.161 587.439 143.186C586.717 144.143 585.686 145.157 585.69 146.743C585.706 147.538 586.229 148.288 586.781 148.657C587.326 149.048 587.857 149.239 588.317 149.425C592.014 150.898 594.344 151.704 594.43 151.498Z" fill="#263238"/>
<path d="M604.496 157.76C603.903 157.521 602.534 161.551 598.116 163.247C593.701 164.955 589.555 163.051 589.333 163.604C589.192 163.838 590.026 164.71 591.824 165.373C593.583 166.035 596.376 166.341 599.079 165.303C601.777 164.258 603.473 162.223 604.17 160.614C604.892 158.981 604.78 157.83 604.496 157.76Z" fill="#263238"/>
<path d="M622.693 112.45C622.718 113.584 626.589 114.358 630.771 116.355C634.992 118.268 638.076 120.731 638.961 120.021C639.365 119.675 639.073 118.517 637.982 117.059C636.903 115.607 634.969 113.92 632.451 112.745C629.931 111.575 627.395 111.182 625.589 111.291C623.771 111.396 622.696 111.918 622.693 112.45Z" fill="#263238"/>
<path d="M587.219 101.831C587.588 102.896 590.443 102.884 593.534 103.882C596.659 104.772 599.026 106.368 599.923 105.688C600.33 105.349 600.206 104.365 599.337 103.182C598.484 102.007 596.826 100.723 594.69 100.073C592.553 99.4256 590.462 99.5716 589.099 100.075C587.72 100.575 587.07 101.323 587.219 101.831Z" fill="#263238"/>
<path d="M652.264 154.493C652.737 154.454 670.535 155.189 664.426 171.539C658.316 187.889 643.162 178.383 643.309 177.903C643.455 177.424 652.264 154.493 652.264 154.493Z" fill="#FFE7DA"/>
<path d="M650.617 173.579C650.709 173.553 650.828 173.885 651.227 174.285C651.616 174.675 652.368 175.125 653.34 175.124C655.304 175.136 657.783 172.937 658.964 170.02C659.561 168.548 659.779 167.014 659.69 165.644C659.638 164.262 659.177 163.137 658.364 162.657C657.573 162.134 656.763 162.424 656.391 162.81C656.001 163.185 655.983 163.55 655.886 163.546C655.825 163.57 655.638 163.141 656.022 162.515C656.211 162.215 656.547 161.902 657.048 161.731C657.559 161.558 658.197 161.612 658.778 161.904C660.006 162.462 660.708 164.046 660.806 165.55C660.972 167.086 660.762 168.823 660.091 170.476C658.755 173.732 655.917 176.184 653.298 175.984C652.036 175.854 651.206 175.149 650.854 174.578C650.499 173.985 650.549 173.587 650.617 173.579Z" fill="#FF9A6C"/>
<path d="M600.636 78.934C598.557 76.467 609.749 70.963 617.358 70.51C628.859 69.825 644.866 72.828 652.914 78.855C662.604 86.111 669.562 94.987 671.223 106.979C672.884 118.971 670.512 131.289 665.859 142.465C664.44 145.875 662.703 149.331 659.743 151.539C656.085 154.268 650.847 154.862 649.131 159.905C648.504 161.748 647.282 163.383 645.53 164.23C641.332 166.259 638.827 161.879 638.297 158.247C637.165 150.49 639.69 142.717 642.181 135.284C643.952 130.001 645.778 124.611 649.159 120.182C650.998 117.772 653.264 115.697 654.967 113.188C656.67 110.68 657.787 107.52 656.934 104.61C656.795 104.137 656.512 103.498 656.124 102.763C653.062 96.948 647.066 93.258 640.496 93.084C630.074 92.809 612.543 91.644 609.645 86.96C605.476 80.22 605.189 76.758 605.189 76.758L600.636 78.934Z" fill="#263238"/>
<path d="M655.031 68.8836C656.079 69.4156 680.651 84.5966 680.488 106.734C680.326 128.871 676.275 134.292 676.275 134.292C676.275 134.292 677.497 135.763 678.234 137.641C678.894 139.324 675.124 145.02 671.89 143.119C649.829 122.651 619.428 110.896 584.747 100.158L558.585 90.7936C550.934 89.1176 549.023 86.2766 552.761 85.4976C555.627 84.9006 579.387 83.6996 579.387 83.6996L584.518 82.1196L600.544 70.8076C600.544 70.8076 599.924 68.2536 603.177 67.4226C606.431 66.5916 634.339 58.3826 655.031 68.8836Z" fill="#3D5EE1"/>
<path d="M584.52 82.1172C584.52 82.1172 584.868 82.2562 585.542 82.4772C586.347 82.7342 587.322 83.0462 588.497 83.4212C591.079 84.1882 594.755 85.4872 599.27 87.1522C608.254 90.5842 620.444 96.0252 633.02 103.628C645.648 111.148 656.378 119.059 664.037 124.888C667.876 127.796 670.933 130.214 673.058 131.871C674.032 132.629 674.839 133.258 675.506 133.777C676.069 134.208 676.379 134.417 676.379 134.417C676.379 134.417 676.108 134.159 675.564 133.704C674.912 133.166 674.122 132.515 673.171 131.73C671.081 130.03 668.054 127.572 664.238 124.628C656.626 118.728 645.911 110.763 633.259 103.229C620.658 95.6112 608.414 90.2032 599.385 86.8442C590.323 83.5342 584.52 82.1172 584.52 82.1172Z" fill="#263238"/>
<g opacity="0.3">
<path d="M675.338 88.9498C675.338 88.9498 648.222 74.4338 633.241 76.1938C633.824 76.1148 634.408 76.0348 634.991 75.9558C630.329 76.3438 625.667 76.7318 621.006 77.1208C618.644 77.3178 615.931 77.3878 614.306 75.6628C614.306 75.6628 622.798 72.0648 636.206 72.1338C649.614 72.2018 669.289 77.0128 675.338 88.9498Z" fill="black"/>
</g>
<path d="M675.703 89.2433C675.703 89.2433 675.093 88.2513 673.71 86.6733C672.333 85.0993 670.195 82.9083 667.132 80.7283C664.095 78.5283 660.134 76.3504 655.435 74.7364C650.763 73.1244 645.279 71.9694 639.534 72.5284C636.67 72.7704 633.927 73.3344 631.292 73.8854C628.666 74.4834 626.115 74.9264 623.712 75.5944C621.327 76.2634 619.095 77.0024 616.925 77.2104C614.748 77.5154 612.765 76.9923 610.993 76.4213C603.903 74.0923 600.072 71.1434 600.545 70.8054C600.55 70.7874 600.525 71.1374 600.917 71.5564C601.301 71.9564 601.935 72.4874 602.833 73.0314C604.619 74.1323 607.335 75.5204 610.891 76.7354C612.645 77.3294 614.739 77.8934 616.965 77.5964C619.189 77.3984 621.456 76.6614 623.827 76.0094C626.194 75.3634 628.766 74.9244 631.387 74.3334C634.018 73.7894 636.746 73.2313 639.574 72.9933C645.241 72.4423 650.648 73.5663 655.296 75.1433C659.962 76.7213 663.904 78.8494 666.941 80.9984C670.004 83.1254 672.162 85.2644 673.574 86.7944C674.28 87.5624 674.805 88.1804 675.147 88.6114C675.499 89.0354 675.703 89.2433 675.703 89.2433Z" fill="#263238"/>
<g opacity="0.3">
<path d="M680.139 115.882C675.004 114.077 671.558 111.4 666.832 108.526C661.796 105.464 656.725 102.667 651.841 99.3676C648.135 96.8636 643.642 94.2186 641.993 90.3516C640.873 92.3536 640.847 94.5076 641.897 96.5466C642.946 98.5856 647.404 102.117 649.301 103.407C660.111 110.755 667.623 115.776 679.705 120.889C680.035 119.575 680.139 115.882 680.139 115.882Z" fill="black"/>
</g>
<path d="M680.404 104.277C683.179 106.812 684.852 108.453 683.992 111.263C683.276 113.602 681.835 116.269 679.419 115.89C678.682 115.775 678.019 115.391 677.375 115.014C666.35 108.557 655.326 102.1 644.301 95.6429C643.183 94.9879 641.981 94.2359 641.555 93.0119C640.899 91.1289 642.542 89.0719 644.465 88.5489C646.388 88.0259 648.423 88.5969 650.32 89.2099C661.101 92.6959 670.934 98.0579 680.404 104.277Z" fill="#3D5EE1"/>
<path d="M641.923 93.7192C641.991 93.6992 641.437 93.1142 641.5 91.8412C641.552 90.6442 642.391 88.6802 644.5 87.8582C646.622 87.1392 649.434 87.6212 652.19 88.7332C654.991 89.8552 658.06 91.1322 661.227 92.5792C667.578 95.4522 673.064 98.5982 676.798 101.221C678.681 102.51 680.134 103.651 681.137 104.442C681.546 104.772 681.922 105.077 682.281 105.366C682.546 105.573 682.691 105.677 682.701 105.665C682.712 105.653 682.588 105.526 682.342 105.295C682 104.983 681.641 104.656 681.252 104.302C680.282 103.466 678.854 102.28 676.987 100.95C673.284 98.2462 667.791 95.0362 661.419 92.1542C658.24 90.7012 655.163 89.4362 652.343 88.3322C649.529 87.2292 646.638 86.7422 644.379 87.5502C642.127 88.4822 641.319 90.5762 641.315 91.8342C641.304 92.4922 641.475 92.9862 641.624 93.2922C641.799 93.5882 641.914 93.7262 641.923 93.7192Z" fill="#263238"/>
<path d="M595.516 74.3594L618.033 81.5724L613.98 87.2234L589.848 78.3604L595.516 74.3594Z" fill="white"/>
<path d="M622.516 105.811C622.574 105.696 613.095 100.849 601.348 94.9872C589.597 89.1232 580.027 84.4652 579.97 84.5802C579.912 84.6952 589.389 89.5412 601.14 95.4052C612.887 101.267 622.459 105.927 622.516 105.811Z" fill="#263238"/>
<path d="M628.194 227.126L628.489 212.345L577.909 231.134C577.909 231.134 568.561 200.77 568.561 199.336L557.352 206.382L538.722 198.372L520.092 189.164L482.409 255.119L442.88 371.682L536.034 433.802L605.094 359.791L647.078 295.817L670.162 255.294L628.194 227.126Z" fill="#3D5EE1"/>
<path d="M573.413 230.922C573.383 230.922 573.357 230.405 573.335 229.444C573.322 228.409 573.305 227.02 573.283 225.299L573.511 225.444C569.641 227.321 563.821 230.703 558.28 235.874L557.875 236.252L557.844 235.699C557.807 235.041 557.767 234.34 557.728 233.632C557.322 226.382 556.984 219.818 556.765 215.065C556.669 212.745 556.591 210.84 556.533 209.435C556.518 208.818 556.506 208.312 556.496 207.903C556.493 207.552 556.501 207.368 556.518 207.367C556.536 207.366 556.564 207.549 556.6 207.897C556.636 208.305 556.68 208.809 556.734 209.424C556.833 210.827 556.968 212.728 557.131 215.044C557.444 219.792 557.84 226.352 558.246 233.602C558.285 234.31 558.324 235.012 558.361 235.669L557.925 235.493C563.523 230.286 569.435 226.939 573.372 225.155L573.606 225.049L573.6 225.3C573.56 227.021 573.528 228.41 573.504 229.444C573.475 230.406 573.443 230.922 573.413 230.922Z" fill="#263238"/>
<path d="M623.53 227.838C623.537 227.854 623.339 227.962 622.954 228.151C622.518 228.358 621.956 228.625 621.26 228.955C619.721 229.659 617.594 230.633 614.992 231.824C609.627 234.224 602.313 237.496 594.232 241.11C590.77 242.639 587.45 244.105 584.368 245.466L583.947 245.652L584.026 245.2C585.016 239.567 585.217 234.598 585.178 230.967L585.412 231.108C583.454 232.06 581.883 232.823 580.743 233.377C580.234 233.614 579.822 233.806 579.493 233.959C579.207 234.087 579.056 234.146 579.049 234.133C579.042 234.119 579.18 234.033 579.453 233.879C579.772 233.706 580.171 233.489 580.665 233.221C581.789 232.634 583.337 231.826 585.267 230.819L585.493 230.701L585.501 230.96C585.616 234.605 585.473 239.606 584.509 245.283L584.168 245.017C587.246 243.647 590.562 242.172 594.02 240.633C602.125 237.072 609.461 233.85 614.842 231.486C617.473 230.357 619.622 229.435 621.177 228.768C621.889 228.474 622.464 228.237 622.91 228.053C623.309 227.896 623.522 227.821 623.53 227.838Z" fill="#263238"/>
<path d="M535.103 446.757H154.196C146.151 446.757 139.629 440.235 139.629 432.19V168.45C139.629 160.405 146.151 153.883 154.196 153.883H535.102C543.147 153.883 549.669 160.405 549.669 168.45V432.191C549.67 440.235 543.148 446.757 535.103 446.757Z" fill="#455A64"/>
<path d="M550.054 453.471H141.401C131.572 453.471 123.603 445.503 123.603 435.673V427.844H567.851V435.673C567.852 445.503 559.884 453.471 550.054 453.471Z" fill="#455A64"/>
<path d="M537.517 165.516H150.636V412.845H537.517V165.516Z" fill="#263238"/>
<path d="M304.228 425.094L309.741 434.565H387.312L392.431 425.094H304.228Z" fill="#263238"/>
<path d="M527.071 412.056H161.878C160.07 412.056 158.605 410.59 158.605 408.783V177.164C158.605 175.357 160.07 173.891 161.878 173.891H527.072C528.879 173.891 530.345 175.356 530.345 177.164V408.783C530.344 410.59 528.879 412.056 527.071 412.056Z" fill="#EBEBEB"/>
<path d="M529.946 412.402H158.206L158.604 191.688H529.946V412.402Z" fill="#FAFAFA"/>
<path d="M189.838 183.089C189.838 184.86 188.467 186.296 186.777 186.296C185.086 186.296 183.716 184.86 183.716 183.089C183.716 181.318 185.086 179.883 186.777 179.883C188.467 179.883 189.838 181.318 189.838 183.089Z" fill="#263238"/>
<path d="M171.284 183.089C171.284 184.86 169.914 186.296 168.222 186.296C166.532 186.296 165.161 184.86 165.161 183.089C165.161 181.318 166.532 179.883 168.222 179.883C169.914 179.883 171.284 181.318 171.284 183.089Z" fill="#263238"/>
<path d="M180.82 183.089C180.82 184.86 179.45 186.296 177.759 186.296C176.068 186.296 174.698 184.86 174.698 183.089C174.698 181.318 176.069 179.883 177.759 179.883C179.45 179.883 180.82 181.318 180.82 183.089Z" fill="#263238"/>
<path d="M546.146 425.099C546.146 425.258 455.137 425.387 342.897 425.387C230.618 425.387 139.628 425.258 139.628 425.099C139.628 424.941 230.618 424.812 342.897 424.812C455.137 424.812 546.146 424.941 546.146 425.099Z" fill="#263238"/>
<path d="M304.543 234.03C310.658 230.334 317.168 227.532 323.883 225.625L327.867 206.481L360.211 205.914L364.865 224.904C371.643 226.574 378.249 229.146 384.49 232.625L400.837 221.91L424.109 244.381L413.977 261.091C417.674 267.208 420.475 273.721 422.381 280.436L441.523 284.419L442.091 316.763L423.1 321.419C421.43 328.196 418.858 334.8 415.38 341.042L426.093 357.39L403.626 380.663L386.914 370.53C380.798 374.226 374.286 377.027 367.571 378.934L363.586 398.078L331.243 398.646L326.588 379.654C319.811 377.983 313.206 375.412 306.964 371.934L290.617 382.649L267.344 360.179L277.477 343.469C273.781 337.352 270.978 330.842 269.071 324.126L249.928 320.142L249.361 287.799L268.352 283.142C270.022 276.365 272.595 269.761 276.072 263.519L265.36 247.169L287.828 223.896L304.543 234.03ZM321.784 277.117C308.472 290.906 308.857 312.875 322.646 326.186C336.434 339.498 358.403 339.111 371.714 325.323C385.025 311.535 384.641 289.566 370.852 276.254C357.064 262.943 335.096 263.329 321.784 277.117Z" fill="#E0E0E0"/>
<path d="M433.752 246.374C434.196 243.951 434.962 241.631 436.004 239.463L431.976 234.059L439.223 225.585L445.186 228.725C447.166 227.358 449.34 226.242 451.664 225.426L452.636 218.759L463.753 217.891L465.748 224.325C468.171 224.77 470.492 225.535 472.66 226.579L478.063 222.551L486.538 229.798L483.398 235.762C484.765 237.742 485.881 239.915 486.696 242.239L493.363 243.212L494.232 254.328L487.798 256.323C487.354 258.746 486.588 261.066 485.545 263.235L489.573 268.639L482.326 277.113L476.362 273.973C474.382 275.34 472.209 276.456 469.884 277.271L468.912 283.938L457.795 284.806L455.8 278.372C453.377 277.927 451.057 277.162 448.888 276.119L443.484 280.147L435.01 272.9L438.15 266.936C436.783 264.956 435.668 262.782 434.852 260.459L428.185 259.487L427.317 248.37L433.752 246.374ZM448.817 249.745C448.143 257.715 455.09 263.961 462.811 262.626C468.074 261.716 472.2 257.268 472.651 251.946C473.327 243.975 466.378 237.725 458.655 239.063C453.392 239.974 449.268 244.422 448.817 249.745Z" fill="#E0E0E0"/>
<path d="M190.218 358.021C190.303 355.115 190.781 352.271 191.609 349.555L185.942 343.971L192.881 332.787L200.401 335.383C202.467 333.434 204.803 331.742 207.369 330.375L207.31 322.423L220.125 319.422L223.604 326.571C226.511 326.656 229.356 327.134 232.072 327.964L237.655 322.298L248.839 329.237L246.243 336.757C248.192 338.822 249.882 341.158 251.25 343.724L259.202 343.666L262.205 356.48L255.055 359.959C254.97 362.865 254.492 365.71 253.663 368.426L259.33 374.01L252.391 385.194L244.871 382.597C242.805 384.546 240.469 386.237 237.904 387.604L237.963 395.556L225.148 398.558L221.669 391.408C218.762 391.323 215.918 390.845 213.201 390.016L207.617 395.683L196.433 388.744L199.029 381.224C197.08 379.159 195.39 376.822 194.022 374.257L186.07 374.315L183.068 361.5L190.218 358.021ZM208.753 361.628C210.532 369.221 218.128 373.934 225.721 372.155C233.313 370.376 238.026 362.78 236.247 355.187C234.468 347.595 226.872 342.881 219.279 344.66C211.687 346.44 206.974 354.036 208.753 361.628Z" fill="#E0E0E0"/>
<path d="M213.229 251.176C213.564 249.35 214.141 247.6 214.927 245.966L211.89 241.892L217.354 235.503L221.85 237.87C223.343 236.839 224.982 235.998 226.734 235.383L227.467 230.357L235.848 229.703L237.352 234.553C239.179 234.888 240.929 235.466 242.563 236.252L246.637 233.215L253.026 238.678L250.659 243.174C251.689 244.667 252.531 246.305 253.145 248.057L258.171 248.79L258.826 257.171L253.975 258.675C253.64 260.502 253.063 262.251 252.276 263.886L255.313 267.96L249.85 274.349L245.354 271.982C243.861 273.012 242.223 273.854 240.471 274.469L239.738 279.495L231.357 280.15L229.853 275.299C228.026 274.964 226.277 274.387 224.642 273.601L220.568 276.638L214.179 271.175L216.546 266.679C215.516 265.186 214.675 263.548 214.06 261.796L209.034 261.063L208.379 252.682L213.229 251.176ZM224.581 255.248C224.969 260.214 229.308 263.924 234.274 263.536C239.239 263.148 242.95 258.808 242.562 253.843C242.174 248.878 237.835 245.167 232.869 245.555C227.904 245.943 224.193 250.282 224.581 255.248Z" fill="#EBEBEB"/>
<path d="M434.172 341.429C434.46 339.86 434.955 338.358 435.63 336.953L433.021 333.454L437.714 327.966L441.576 329.999C442.858 329.114 444.266 328.391 445.771 327.863L446.401 323.546L453.6 322.984L454.892 327.15C456.461 327.438 457.964 327.934 459.368 328.609L462.867 326L468.355 330.693L466.322 334.555C467.207 335.837 467.93 337.244 468.458 338.749L472.775 339.379L473.338 346.578L469.171 347.87C468.883 349.439 468.387 350.942 467.712 352.346L470.321 355.846L465.628 361.334L461.766 359.3C460.484 360.185 459.076 360.908 457.571 361.436L456.941 365.753L449.742 366.315L448.45 362.148C446.881 361.86 445.378 361.365 443.974 360.689L440.475 363.298L434.987 358.605L437.02 354.743C436.135 353.461 435.413 352.053 434.884 350.548L430.567 349.918L430.005 342.719L434.172 341.429ZM443.923 344.926C444.256 349.191 447.984 352.379 452.249 352.046C456.514 351.713 459.702 347.985 459.368 343.72C459.035 339.455 455.307 336.267 451.042 336.601C446.777 336.934 443.59 340.661 443.923 344.926Z" fill="#EBEBEB"/>
<path d="M345.728 352.275H295.975C283.126 352.275 275.096 338.366 281.52 327.239L306.397 284.151L331.274 241.064C337.698 229.937 353.759 229.937 360.184 241.064L385.061 284.151L409.938 327.239C416.362 338.366 408.332 352.275 395.483 352.275H345.728Z" fill="#3D5EE1"/>
<path d="M399.285 332.217C399.285 332.217 399.424 332.474 399.674 332.99C399.864 333.524 400.179 334.343 400.178 335.474C400.205 336.59 399.928 338.02 399.014 339.403C398.55 340.081 397.939 340.747 397.14 341.27C396.336 341.779 395.352 342.133 394.279 342.205C385.801 342.296 373.558 342.281 358.417 342.318C343.274 342.334 325.25 342.353 305.237 342.374C302.735 342.376 300.202 342.377 297.64 342.379C294.942 342.438 292.377 340.521 291.51 337.944C291.052 336.669 290.953 335.255 291.258 333.916C291.345 333.585 291.453 333.258 291.561 332.933C291.707 332.624 291.846 332.303 292 332.004L292.959 330.249C294.241 327.904 295.536 325.536 296.842 323.147C302.069 313.593 307.48 303.7 313.022 293.569C318.569 283.436 323.985 273.542 329.216 263.987C331.832 259.21 334.403 254.518 336.92 249.923C337.562 248.776 338.148 247.628 338.826 246.499C339.511 245.358 340.472 244.373 341.625 243.72C343.919 242.382 346.813 242.289 349.149 243.383C350.315 243.926 351.358 244.738 352.122 245.758C352.874 246.804 353.394 247.902 353.993 248.966C355.162 251.106 356.315 253.217 357.451 255.298C359.723 259.459 361.929 263.5 364.062 267.406C368.325 275.219 372.296 282.498 375.921 289.143C383.154 302.432 389.007 313.188 393.061 320.636C395.07 324.351 396.631 327.238 397.698 329.211C398.218 330.185 398.617 330.931 398.892 331.447C399.16 331.952 399.285 332.217 399.285 332.217C399.285 332.217 399.129 331.969 398.847 331.472C398.561 330.961 398.147 330.224 397.607 329.261C396.52 327.299 394.931 324.428 392.885 320.733C388.797 313.304 382.894 302.575 375.6 289.32C371.957 282.684 367.968 275.415 363.685 267.613C361.545 263.711 359.331 259.675 357.051 255.517C355.911 253.438 354.755 251.329 353.583 249.191C352.987 248.133 352.441 247.005 351.746 246.046C351.025 245.085 350.044 244.326 348.948 243.817C346.752 242.791 344.022 242.883 341.873 244.141C340.791 244.754 339.892 245.679 339.248 246.754C338.593 247.845 337.992 249.022 337.357 250.161C334.844 254.758 332.277 259.453 329.664 264.232C324.436 273.789 319.023 283.684 313.479 293.819C307.933 303.949 302.519 313.839 297.29 323.392C295.982 325.78 294.686 328.147 293.402 330.491C292.788 331.684 292.006 332.784 291.746 334.03C291.462 335.273 291.553 336.587 291.978 337.775C292.79 340.18 295.148 341.94 297.64 341.891C300.202 341.893 302.735 341.894 305.237 341.896C325.25 341.917 343.274 341.936 358.417 341.952C373.543 341.975 385.787 341.993 394.266 342.005C395.305 341.943 396.259 341.609 397.045 341.122C397.826 340.621 398.427 339.977 398.887 339.319C399.793 337.976 400.084 336.576 400.074 335.477C400.033 333.233 399.189 332.235 399.285 332.217Z" fill="#263238"/>
<path d="M337.675 323.005C337.675 318.593 341.19 315.303 346.2 315.303C351.21 315.303 354.65 318.593 354.65 323.005C354.65 327.343 351.21 330.858 346.2 330.858C341.19 330.858 337.675 327.343 337.675 323.005ZM337.75 277.836H354.651L351.809 311.115H340.517L337.75 277.836Z" fill="white"/>
<path d="M348.112 236.115C348.074 236.22 346.948 235.556 344.945 235.463C342.973 235.347 340.137 235.996 337.734 237.874C335.334 239.767 333.873 242.214 332.966 243.995C332.059 245.796 331.633 246.982 331.552 246.952C331.52 246.941 331.589 246.632 331.761 246.089C331.932 245.545 332.215 244.769 332.635 243.836C333.468 241.992 334.914 239.437 337.414 237.464C339.929 235.497 342.921 234.878 344.97 235.096C346.002 235.194 346.813 235.438 347.337 235.675C347.863 235.908 348.126 236.089 348.112 236.115Z" fill="white"/>
<path d="M327.309 254.401C327.185 254.328 327.675 253.27 328.404 252.039C329.133 250.807 329.823 249.868 329.947 249.942C330.071 250.015 329.581 251.073 328.852 252.304C328.124 253.535 327.433 254.474 327.309 254.401Z" fill="white"/>
<g opacity="0.3">
<path d="M370.686 259.258L293.203 307.004L283.139 324.436L376.157 268.733L370.686 259.258Z" fill="white"/>
</g>
<g opacity="0.3">
<path d="M382.887 280.414L280.182 340.998C280.476 342.373 281.398 344.147 282.413 345.315L384.703 283.56L382.887 280.414Z" fill="white"/>
</g>
<path d="M636.716 393.4C628.489 384.333 616.018 381.42 605.072 384.927L595.499 374.424L594.166 372.933L518.438 289.846C522.989 279.291 521.3 266.597 513.073 257.53C506.076 249.819 496.009 246.555 486.421 247.907L482.722 249.377L495.603 258.028L494.921 272.073L484.507 281.522L470.462 280.839L461.28 270.719L457.485 272.202C456.398 280.679 462.081 291.353 468.273 298.178C476.487 307.232 488.933 310.149 499.868 306.667L576.864 391.146L579.232 393.772L586.529 401.779C582.003 412.324 583.7 424.994 591.914 434.048C598.082 440.846 606.262 445.385 614.771 445.154L618.566 443.671L609.384 433.55L610.067 419.505L620.481 410.056L634.526 410.739L639.913 422.343L643.708 420.86C645.985 411.448 643.712 401.112 636.716 393.4Z" fill="#E0E0E0"/>
<g opacity="0.3">
<path d="M636.716 393.4C628.489 384.333 616.018 381.42 605.072 384.927L595.499 374.424L594.166 372.933L518.438 289.846C522.989 279.291 521.3 266.597 513.073 257.53C506.076 249.819 496.009 246.555 486.421 247.907L482.722 249.377L495.603 258.028L494.921 272.073L484.507 281.522L470.462 280.839L461.28 270.719L457.485 272.202C456.398 280.679 462.081 291.353 468.273 298.178C476.487 307.232 488.933 310.149 499.868 306.667L576.864 391.146L579.232 393.772L586.529 401.779C582.003 412.324 583.7 424.994 591.914 434.048C598.082 440.846 606.262 445.385 614.771 445.154L618.566 443.671L609.384 433.55L610.067 419.505L620.481 410.056L634.526 410.739L639.913 422.343L643.708 420.86C645.985 411.448 643.712 401.112 636.716 393.4Z" fill="black"/>
</g>
<path d="M632.92 394.884C624.693 385.817 612.223 382.904 601.276 386.411L591.703 375.908L590.37 374.417L514.642 291.33C519.193 280.775 517.504 268.081 509.277 259.014C502.28 251.303 492.213 248.039 482.625 249.391L491.807 259.511L491.125 273.556L480.711 283.005L466.666 282.322L457.484 272.201C455.208 281.612 457.481 291.949 464.477 299.66C472.692 308.714 485.137 311.631 496.072 308.149L573.068 392.628L575.436 395.254L582.733 403.261C578.207 413.806 579.904 426.476 588.118 435.53C595.115 443.241 605.182 446.505 614.77 445.153L605.588 435.033L606.27 420.988L616.684 411.539L630.729 412.222L639.911 422.342C642.19 412.931 639.917 402.595 632.92 394.884Z" fill="#E0E0E0"/>
<path d="M632.92 394.884C632.92 394.884 633.356 395.367 634.19 396.332C634.96 397.345 636.146 398.844 637.32 401.054C638.499 403.253 639.661 406.162 640.359 409.768C640.992 413.37 641.137 417.7 640.018 422.369L639.971 422.567L639.834 422.416C637.111 419.424 634.007 416.014 630.636 412.31L630.725 412.352C626.393 412.147 621.682 411.924 616.679 411.687L616.785 411.649C613.534 414.605 610.041 417.781 606.381 421.109L606.434 420.997C606.226 425.36 606 430.11 605.765 435.042L605.72 434.916C608.563 438.045 611.689 441.483 614.911 445.029L615.148 445.289L614.799 445.339C610.048 446.018 604.964 445.571 600.161 443.832C595.361 442.108 590.863 439.074 587.375 434.967C583.86 430.894 581.359 425.734 580.467 420.146C579.55 414.573 580.2 408.6 582.529 403.174L582.569 403.414C556.891 375.247 527.389 342.885 495.883 308.325L496.153 308.397C490.852 310.089 484.906 310.329 479.25 308.871C473.591 307.44 468.284 304.26 464.278 299.825C460.909 296.113 458.49 291.583 457.293 286.773C456.084 281.965 456.081 276.896 457.235 272.141L457.35 271.665L457.679 272.027C460.761 275.424 463.821 278.798 466.86 282.148L466.682 282.064C471.399 282.294 476.081 282.522 480.727 282.748L480.542 282.814C484.048 279.634 487.518 276.487 490.957 273.367L490.874 273.543C491.105 268.809 491.333 264.131 491.559 259.499L491.624 259.68C488.529 256.267 485.471 252.895 482.444 249.557L482.127 249.208L482.593 249.145C488.245 248.379 494.036 249.159 499.114 251.414C504.201 253.645 508.576 257.252 511.685 261.65C514.814 266.033 516.734 271.178 517.199 276.378C517.69 281.576 516.828 286.786 514.85 291.419L514.81 291.178C552.34 332.439 582.547 365.649 601.361 386.333L601.241 386.301C606.659 384.579 611.81 384.636 616.039 385.384C620.276 386.225 623.652 387.709 626.14 389.233C628.653 390.741 630.276 392.277 631.378 393.263C632.409 394.331 632.92 394.884 632.92 394.884C632.92 394.884 632.378 394.359 631.336 393.307C630.223 392.337 628.591 390.821 626.079 389.336C623.591 387.834 620.224 386.376 616.008 385.558C611.8 384.833 606.684 384.795 601.312 386.521L601.242 386.544L601.192 386.489C582.343 365.837 552.079 332.679 514.478 291.483L514.381 291.376L514.438 291.242C516.382 286.676 517.227 281.542 516.739 276.424C516.276 271.304 514.382 266.241 511.299 261.929C508.234 257.6 503.925 254.054 498.92 251.862C493.922 249.646 488.223 248.882 482.663 249.638L482.812 249.226C485.84 252.562 488.899 255.932 491.997 259.344L492.067 259.421L492.062 259.525C491.838 264.158 491.611 268.835 491.382 273.57L491.377 273.675L491.299 273.746C487.86 276.867 484.391 280.016 480.887 283.196L480.808 283.267L480.702 283.262C476.057 283.037 471.374 282.81 466.657 282.581L466.55 282.576L466.478 282.497C463.438 279.147 460.377 275.774 457.295 272.378L457.739 272.265C456.605 276.939 456.61 281.923 457.798 286.648C458.975 291.376 461.351 295.827 464.664 299.477C468.603 303.838 473.817 306.962 479.38 308.369C484.939 309.803 490.786 309.567 495.996 307.905L496.154 307.854L496.266 307.977C527.754 342.554 557.239 374.931 582.902 403.112L583 403.219L582.943 403.352C580.644 408.696 579.997 414.582 580.895 420.077C581.769 425.587 584.227 430.677 587.691 434.698C591.128 438.755 595.56 441.752 600.296 443.461C605.034 445.184 610.054 445.633 614.748 444.97L614.636 445.28C611.42 441.729 608.3 438.285 605.462 435.152L605.413 435.098L605.417 435.026C605.661 430.094 605.897 425.344 606.113 420.982L606.116 420.915L606.166 420.87C609.833 417.55 613.333 414.381 616.59 411.433L616.635 411.392L616.696 411.395C621.698 411.644 626.408 411.879 630.74 412.096L630.794 412.099L630.83 412.139C634.189 415.853 637.282 419.273 639.997 422.274L639.813 422.321C640.94 417.689 640.813 413.385 640.201 409.8C639.524 406.211 638.384 403.309 637.226 401.11C636.072 398.899 634.904 397.393 634.15 396.371C633.328 395.392 632.92 394.884 632.92 394.884Z" fill="#263238"/>
<path d="M511.188 296.173C511.219 296.19 511.101 296.454 510.859 296.919C510.624 297.387 510.228 298.035 509.694 298.805C508.631 300.347 506.908 302.325 504.634 304.079C502.353 305.827 499.998 306.983 498.235 307.614C497.353 307.932 496.626 308.147 496.113 308.255C495.602 308.369 495.317 308.416 495.308 308.381C495.285 308.296 496.397 307.988 498.102 307.275C499.807 306.567 502.084 305.384 504.32 303.671C506.55 301.951 508.278 300.055 509.401 298.589C510.528 297.124 511.112 296.129 511.188 296.173Z" fill="#263238"/>
<path d="M595.757 332.264L566.949 318.862L541.236 315.656L550.68 323.609C550.68 323.609 517.442 335.193 516.859 337.805C516.276 340.417 519.485 347.433 525.339 346.138C525.339 346.138 522.046 350.101 523.417 354.542C524.788 358.982 527.816 359.785 533.404 358.754C533.404 358.754 529.602 364.445 532.583 367.346C535.564 370.248 540.2 369.511 540.2 369.511C540.2 369.511 540.256 376.443 543.918 377.049C547.58 377.656 557.781 376.937 561.588 375.762C565.395 374.586 580.937 369.787 580.937 369.787L593.548 367.02L595.757 332.264Z" fill="#FFE7DA"/>
<path d="M542.816 341.061C542.927 341.442 539.103 342.888 534.275 344.29C529.446 345.693 525.443 346.521 525.333 346.14C525.222 345.759 529.046 344.314 533.875 342.911C538.702 341.508 542.706 340.68 542.816 341.061Z" fill="#FF9A6C"/>
<path d="M547.709 354.743C547.824 355.123 544.785 356.373 540.925 357.536C537.062 358.698 533.839 359.333 533.725 358.953C533.611 358.574 536.648 357.323 540.511 356.161C544.372 354.997 547.595 354.363 547.709 354.743Z" fill="#FF9A6C"/>
<path d="M552.099 366.106C552.166 366.533 549.407 367.117 546.165 367.93C542.941 368.777 540.401 369.887 540.201 369.511C540.014 369.198 542.348 367.455 545.798 366.542C549.231 365.685 552.047 365.752 552.099 366.106Z" fill="#FF9A6C"/>
<path d="M555.732 322.509C555.839 322.898 552.065 324.267 547.402 325.876C542.735 327.478 538.918 328.72 538.764 328.348C538.613 327.989 542.22 326.137 546.935 324.518C551.647 322.893 555.63 322.133 555.732 322.509Z" fill="#FF9A6C"/>
<path d="M590.342 329.742L652.629 352.3L648.989 395.053L580.415 367.406L590.342 329.742Z" fill="#FFE7DA"/>
<path d="M670.26 254.93C670.26 254.93 678.383 263.324 683.109 278.414C687.803 293.398 710.14 357.469 709.571 377.827C708.983 398.875 694.813 413.895 663.671 405.577C645.088 400.614 622.954 392.589 622.954 392.589L638.688 340.856L650.997 343.959L631.12 306.646L670.26 254.93Z" fill="#3D5EE1"/>
<path d="M656.01 279.383C656.127 279.467 647.513 291.739 636.774 306.79C626.03 321.847 617.229 333.981 617.112 333.898C616.995 333.814 625.607 321.545 636.35 306.488C647.09 291.436 655.893 279.299 656.01 279.383Z" fill="#263238"/>
<path d="M679.839 351.042C679.816 351.079 679.302 350.778 678.328 350.332C677.357 349.881 675.906 349.329 674.058 348.822C672.212 348.311 669.971 347.834 667.484 347.293C664.99 346.742 662.263 346.139 659.4 345.506C653.667 344.224 648.484 343.035 644.738 342.149C642.934 341.711 641.441 341.348 640.308 341.073C639.265 340.808 638.692 340.644 638.7 340.609C638.708 340.574 639.297 340.67 640.354 340.875C641.496 341.109 643.001 341.417 644.821 341.789C648.588 342.583 653.784 343.716 659.518 344.998C662.377 345.645 665.101 346.261 667.592 346.825C670.071 347.391 672.308 347.906 674.16 348.468C676.012 349.025 677.463 349.638 678.417 350.15C678.897 350.4 679.256 350.619 679.492 350.778C679.73 350.936 679.849 351.027 679.839 351.042Z" fill="#263238"/>
<g opacity="0.3">
<path d="M695.763 353.292C695.516 350.821 693.666 348.735 691.477 347.562C689.288 346.389 686.78 345.98 684.32 345.643C673.126 344.107 661.812 343.681 650.521 343.258L651.565 343.711C665.502 346.284 679.177 350.268 692.315 355.584C693.071 355.89 693.93 356.2 694.674 355.868C695.584 355.461 695.862 354.284 695.763 353.292Z" fill="black"/>
</g>
<g opacity="0.3">
<path d="M439.135 154.92C428.638 153.135 416.081 156.181 405.584 154.396C404.015 154.129 402.299 153.887 400.92 154.681C399.263 155.635 398.69 157.75 398.609 159.66C398.384 164.945 400.829 170.16 404.644 173.823C408.459 177.486 413.536 179.675 418.751 180.56C422.942 181.272 427.445 181.135 431.183 179.111C437.707 175.577 440.864 162.136 439.135 154.92Z" fill="black"/>
</g>
<path d="M398.391 174.129C398.391 174.129 392.02 166.667 391.097 163.221C390.485 160.938 390.792 154.553 391.069 150.504C391.259 147.729 392.982 145.194 395.616 144.301C396.534 143.99 397.404 143.95 397.992 144.493C397.992 144.493 398.395 143.795 400.895 141.236C403.395 138.677 404.582 136.942 410.084 138.534C410.084 138.534 414.131 134.261 416.459 134.58C418.787 134.9 421.094 135.579 421.094 135.579C421.094 135.579 429.964 135.205 431.782 138.022C432.578 139.254 434.217 140.115 435.81 140.693C438.611 141.71 440.913 143.75 442.137 146.467C443.803 150.164 443.908 154.197 443.908 154.197L434.882 154.555C434.882 154.555 435.52 175.261 433.253 176.931C430.987 178.602 430.119 178.008 430.119 178.008C430.119 178.008 428.39 182.867 421.642 179.271C421.642 179.271 416.039 180.96 413.649 178.651C411.259 176.342 402.471 154.15 402.471 154.15L402.716 165.179C402.716 165.179 407.346 172.316 405.079 173.987C402.814 175.657 398.391 174.129 398.391 174.129Z" fill="#FFE7DA"/>
<path d="M409.63 146.063C409.664 146.052 409.846 146.516 410.144 147.363C410.464 148.309 410.873 149.519 411.362 150.968C412.369 154.018 413.726 158.243 415.194 162.919C416.675 167.593 417.868 171.872 419.254 174.754C419.924 176.203 420.598 177.309 421.09 178.054C421.58 178.802 421.892 179.189 421.856 179.219C421.842 179.231 421.751 179.145 421.59 178.97C421.426 178.797 421.197 178.532 420.925 178.171C420.377 177.454 419.644 176.362 418.923 174.914C417.431 172.028 416.176 167.739 414.697 163.075C413.229 158.399 411.928 154.157 411.011 151.078C410.585 149.61 410.229 148.383 409.951 147.424C409.711 146.558 409.595 146.074 409.63 146.063Z" fill="#FF9A6C"/>
<path d="M420.703 143.508C420.738 143.499 420.9 143.977 421.162 144.849C421.441 145.82 421.798 147.064 422.227 148.554C423.104 151.688 424.28 156.027 425.549 160.826C426.818 165.627 427.938 169.981 428.724 173.139C429.088 174.647 429.392 175.905 429.629 176.886C429.831 177.774 429.927 178.269 429.892 178.279C429.857 178.289 429.696 177.811 429.433 176.94C429.154 175.97 428.797 174.726 428.369 173.236C427.492 170.102 426.315 165.762 425.046 160.959C423.777 156.158 422.657 151.803 421.871 148.645C421.507 147.138 421.203 145.879 420.967 144.898C420.764 144.012 420.668 143.517 420.703 143.508Z" fill="#FF9A6C"/>
</svg>
