<svg width="48" height="21" viewBox="0 0 48 21" fill="none" xmlns="http://www.w3.org/2000/svg">
<path d="M48 10.8505C48 7.26168 46.3467 4.42991 43.1867 4.42991C40.0133 4.42991 38.0933 7.26168 38.0933 10.8224C38.0933 15.0421 40.36 17.1729 43.6133 17.1729C45.2 17.1729 46.4 16.7944 47.3067 16.2617V13.4579C46.4 13.9346 45.36 14.229 44.04 14.229C42.7467 14.229 41.6 13.7523 41.4533 12.0981H47.9733C47.9733 11.9159 48 11.1869 48 10.8505ZM41.4133 9.51869C41.4133 7.93458 42.3333 7.2757 43.1733 7.2757C43.9867 7.2757 44.8533 7.93458 44.8533 9.51869H41.4133ZM32.9467 4.42991C31.64 4.42991 30.8 5.07477 30.3333 5.52336L30.16 4.65421H27.2267V21L30.56 20.257L30.5733 16.2897C31.0533 16.6542 31.76 17.1729 32.9333 17.1729C35.32 17.1729 37.4933 15.1542 37.4933 10.7103C37.48 6.64486 35.28 4.42991 32.9467 4.42991ZM32.1467 14.0888C31.36 14.0888 30.8933 13.7944 30.5733 13.4299L30.56 8.22897C30.9067 7.82243 31.3867 7.54206 32.1467 7.54206C33.36 7.54206 34.2 8.97196 34.2 10.8084C34.2 12.6869 33.3733 14.0888 32.1467 14.0888ZM22.64 3.6028L25.9867 2.84579V0L22.64 0.742991V3.6028ZM22.64 4.66822H25.9867V16.9346H22.64V4.66822ZM19.0533 5.70561L18.84 4.66822H15.96V16.9346H19.2933V8.6215C20.08 7.54206 21.4133 7.73832 21.8267 7.89252V4.66822C21.4 4.5 19.84 4.19159 19.0533 5.70561ZM12.3867 1.62617L9.13333 2.35514L9.12 13.5841C9.12 15.6589 10.6 17.1869 12.5733 17.1869C13.6667 17.1869 14.4667 16.9766 14.9067 16.7243V13.8785C14.48 14.0607 12.3733 14.7056 12.3733 12.6308V7.65421H14.9067V4.66822H12.3733L12.3867 1.62617ZM3.37333 8.22897C3.37333 7.68224 3.8 7.47196 4.50667 7.47196C5.52 7.47196 6.8 7.79439 7.81333 8.36916V5.07477C6.70667 4.61215 5.61333 4.42991 4.50667 4.42991C1.8 4.42991 0 5.91589 0 8.39719C0 12.2664 5.06667 11.6495 5.06667 13.3178C5.06667 13.9626 4.53333 14.1729 3.78667 14.1729C2.68 14.1729 1.26667 13.6963 0.146667 13.0514V16.3878C1.38667 16.9486 2.64 17.1869 3.78667 17.1869C6.56 17.1869 8.46667 15.743 8.46667 13.2336C8.45333 9.05608 3.37333 9.79906 3.37333 8.22897Z" fill="#635BFF"/>
</svg>
