<svg width="68" height="17" viewBox="0 0 68 17" fill="none" xmlns="http://www.w3.org/2000/svg">
<path d="M52.2668 3.80193H48.5033C48.2463 3.80193 48.0273 3.99346 47.9872 4.25372L46.4653 14.1328C46.435 14.3277 46.5825 14.5034 46.7745 14.5034H48.7058C48.8851 14.5034 49.0387 14.3694 49.0667 14.1868L49.4986 11.3865C49.5383 11.1257 49.7578 10.9342 50.0148 10.9342H51.2054C53.6847 10.9342 55.1148 9.70615 55.4889 7.27258C55.6578 6.20789 55.4955 5.37135 55.0086 4.78549C54.4743 4.14218 53.5263 3.80193 52.2668 3.80193ZM52.7009 7.41003C52.4957 8.79243 51.464 8.79243 50.4659 8.79243H49.8987L50.2976 6.21071C50.3212 6.05467 50.4522 5.93975 50.6068 5.93975H50.867C51.546 5.93975 52.1876 5.93975 52.5188 6.33633C52.7163 6.57293 52.7763 6.92444 52.7009 7.41003Z" fill="#179BD7"/>
<path d="M63.5144 7.36556H61.7135C61.5589 7.36556 61.4274 7.48048 61.4043 7.63652L61.3245 8.15253L61.1979 7.9655C60.8078 7.38584 59.9385 7.19206 59.0702 7.19206C57.079 7.19206 55.3788 8.73613 55.0475 10.9021C54.8759 11.9826 55.1196 13.0157 55.7183 13.7362C56.2685 14.3987 57.0531 14.6747 57.9879 14.6747C59.5924 14.6747 60.4821 13.6185 60.4821 13.6185L60.4018 14.1311C60.3715 14.3271 60.519 14.5029 60.7121 14.5029H62.3347C62.5916 14.5029 62.8106 14.3114 62.8508 14.0505L63.8252 7.73623C63.855 7.54188 63.7075 7.36556 63.5144 7.36556ZM61.0026 10.9562C60.8298 12.0102 60.0117 12.7177 58.9695 12.7177C58.4474 12.7177 58.0281 12.5459 57.7596 12.2203C57.4933 11.897 57.3931 11.4367 57.4768 10.9241C57.6402 9.87912 58.4699 9.14849 59.4961 9.14849C60.0078 9.14849 60.4238 9.32256 60.6978 9.65097C60.9734 9.98277 61.0824 10.4458 61.0026 10.9562Z" fill="#179BD7"/>
<path d="M65.6389 4.0729L64.0944 14.1328C64.0642 14.3277 64.2116 14.5034 64.4036 14.5034H65.9564C66.2144 14.5034 66.4334 14.3119 66.473 14.0511L67.996 4.17261C68.0263 3.9777 67.8789 3.80138 67.6868 3.80138H65.9481C65.7946 3.80194 65.6626 3.91686 65.6389 4.0729Z" fill="#179BD7"/>
<path d="M25.4262 3.80188H21.6633C21.4057 3.80188 21.1868 3.99341 21.1466 4.25366L19.6247 14.1327C19.5944 14.3276 19.7419 14.5034 19.935 14.5034H21.7315C21.989 14.5034 22.208 14.3118 22.2481 14.051L22.6586 11.3865C22.6982 11.1257 22.9178 10.9341 23.1747 10.9341H24.3659C26.8447 10.9341 28.2753 9.70609 28.6489 7.27253C28.8172 6.20784 28.656 5.3713 28.1691 4.78544C27.6343 4.14213 26.6857 3.80188 25.4262 3.80188ZM25.8603 7.40998C25.6546 8.79238 24.6229 8.79238 23.6253 8.79238H23.0575L23.4559 6.21066C23.4795 6.05462 23.6116 5.9397 23.7657 5.9397H24.0259C24.7054 5.9397 25.3464 5.9397 25.6777 6.33628C25.8752 6.57288 25.9357 6.92439 25.8603 7.40998Z" fill="#253B80"/>
<path d="M36.6745 7.36552H34.8726C34.719 7.36552 34.5864 7.48044 34.5628 7.63648L34.483 8.15248L34.357 7.96546C33.9669 7.3858 33.097 7.19201 32.2287 7.19201C30.2375 7.19201 28.5367 8.73609 28.2055 10.9021C28.0333 11.9825 28.2781 13.0157 28.8768 13.7362C29.4259 14.3986 30.2116 14.6747 31.1464 14.6747C32.7509 14.6747 33.6406 13.6184 33.6406 13.6184L33.5603 14.1311C33.53 14.3271 33.6775 14.5029 33.8695 14.5029H35.4926C35.7507 14.5029 35.9686 14.3113 36.0093 14.0505L36.9832 7.73619C37.014 7.54184 36.8671 7.36552 36.6745 7.36552ZM34.1628 10.9562C33.9889 12.0101 33.1718 12.7177 32.1297 12.7177C31.6064 12.7177 31.1883 12.5459 30.9198 12.2203C30.6534 11.8969 30.5522 11.4367 30.6369 10.924C30.7993 9.87908 31.6301 9.14844 32.6563 9.14844C33.168 9.14844 33.5839 9.32251 33.8579 9.65093C34.1325 9.98273 34.2414 10.4458 34.1628 10.9562Z" fill="#253B80"/>
<path d="M46.2715 7.36544H44.4607C44.288 7.36544 44.1256 7.45332 44.0277 7.60035L41.5302 11.3667L40.4716 7.74738C40.405 7.52092 40.2009 7.36544 39.9698 7.36544H38.1904C37.9742 7.36544 37.8239 7.58176 37.8927 7.79019L39.8873 13.7828L38.0121 16.493C37.8647 16.7065 38.0132 17 38.268 17H40.0766C40.2482 17 40.4089 16.9144 40.5063 16.7702L46.529 7.86962C46.6732 7.65668 46.5252 7.36544 46.2715 7.36544Z" fill="#253B80"/>
<path d="M3.99794 16.4232L4.2857 14.5519L3.64469 14.5366H0.583806L2.71097 0.727843C2.71757 0.686157 2.73903 0.647288 2.77039 0.619685C2.80175 0.592082 2.84192 0.576872 2.88374 0.576872H8.04482C9.75822 0.576872 10.9406 0.941907 11.558 1.6624C11.8474 2.0004 12.0317 2.3536 12.1209 2.7423C12.2144 3.15014 12.2161 3.63742 12.1247 4.23173L12.1181 4.2751V4.65591L12.4075 4.82378C12.6513 4.95617 12.845 5.1077 12.9935 5.2812C13.2411 5.57019 13.4012 5.93748 13.4689 6.37293C13.5388 6.82077 13.5157 7.35368 13.4012 7.957C13.2692 8.65102 13.0557 9.25547 12.7674 9.75007C12.5022 10.2058 12.1643 10.5838 11.7632 10.8767C11.3803 11.155 10.9252 11.3662 10.4108 11.5014C9.91228 11.6344 9.3439 11.7014 8.7205 11.7014H8.31884C8.03162 11.7014 7.75266 11.8073 7.53367 11.9972C7.31413 12.191 7.16887 12.4557 7.1243 12.7453L7.09404 12.9137L6.58563 16.212L6.56253 16.3331C6.55647 16.3714 6.54602 16.3905 6.53061 16.4035C6.51686 16.4153 6.49705 16.4232 6.47779 16.4232H3.99794Z" fill="#253B80"/>
<path d="M12.6816 4.31901C12.6662 4.41985 12.6486 4.52294 12.6288 4.62884C11.9482 8.20652 9.61962 9.44246 6.64567 9.44246H5.13146C4.76776 9.44246 4.46128 9.71286 4.40461 10.0801L3.62935 15.114L3.40981 16.5409C3.37294 16.782 3.55452 16.9995 3.79221 16.9995H6.47785C6.79588 16.9995 7.06604 16.7629 7.11611 16.4418L7.14252 16.3021L7.64817 13.0168L7.68064 12.8365C7.73016 12.5143 8.00087 12.2777 8.3189 12.2777H8.72056C11.3226 12.2777 13.3595 11.1961 13.9548 8.06626C14.2035 6.75878 14.0748 5.66705 13.4167 4.89924C13.2175 4.66771 12.9705 4.47562 12.6816 4.31901Z" fill="#179BD7"/>
<path d="M11.9695 4.02836C11.8655 3.99738 11.7582 3.96921 11.6481 3.94386C11.5376 3.91907 11.4242 3.8971 11.3076 3.87795C10.8993 3.81035 10.452 3.77824 9.97272 3.77824H5.92748C5.82789 3.77824 5.73326 3.80134 5.64852 3.84302C5.462 3.93485 5.32334 4.11567 5.28978 4.33706L4.42923 9.91737L4.40461 10.0801C4.46128 9.71286 4.76776 9.44246 5.13146 9.44246H6.64567C9.61962 9.44246 11.9482 8.20652 12.6288 4.62884C12.6486 4.52294 12.6662 4.41985 12.6816 4.31901C12.5094 4.2255 12.3227 4.14553 12.1219 4.07737C12.0724 4.06047 12.0212 4.04413 11.9695 4.02836Z" fill="#222D65"/>
<path d="M5.28978 4.33706C5.32334 4.11567 5.462 3.93485 5.64852 3.84302C5.73326 3.80134 5.82789 3.77824 5.92748 3.77824H9.97272C10.452 3.77824 10.8993 3.81035 11.3076 3.87795C11.4242 3.8971 11.5376 3.91907 11.6481 3.94386C11.7582 3.96921 11.8655 3.99738 11.9695 4.02836C12.0212 4.04413 12.0724 4.06047 12.1219 4.07737C12.3227 4.14553 12.5094 4.2255 12.6816 4.31901C12.8841 2.99689 12.6804 2.0967 11.9822 1.28157C11.2124 0.384188 9.82312 0 8.04535 0H2.88426C2.52111 0 2.21134 0.270396 2.15522 0.638248L0.00549608 14.589C-0.0368711 14.865 0.171113 15.114 0.442923 15.114L3.62935 15.114L4.42923 9.91737L5.28978 4.33706Z" fill="#253B80"/>
</svg>
