<svg width="69" height="22" viewBox="0 0 69 22" fill="none" xmlns="http://www.w3.org/2000/svg">
<path d="M25.0179 10.109C25.0179 4.54005 19.4179 0 12.5093 0C5.60145 0 0.00140775 4.54005 0.00140775 10.109C0.00140775 10.2534 0 10.6509 0 10.7013C0 16.6095 4.89476 21.3948 12.5079 21.3948C20.1682 21.3948 25.0179 16.6112 25.0179 10.7022C25.0179 10.496 25.0179 10.3769 25.0179 10.109Z" fill="#0A0080"/>
<path d="M24.5375 10.1096C24.5375 15.3602 19.1528 19.6167 12.5103 19.6167C5.86782 19.6167 0.483154 15.3602 0.483154 10.1096C0.483154 4.85808 5.86782 0.601562 12.5103 0.601562C19.1528 0.601562 24.5375 4.85808 24.5375 10.1096Z" fill="#00BCFF"/>
<path d="M8.51694 7.1047C8.5106 7.11949 8.39094 7.27345 8.46837 7.3961C8.65841 7.69619 9.24474 7.86755 9.83741 7.70315C10.1901 7.60573 10.6426 7.16124 11.0812 6.73067C11.5556 6.26443 12.0272 5.7982 12.5009 5.61205C13.002 5.4146 13.3237 5.49984 13.5363 5.579C13.7693 5.66424 14.0431 5.85387 14.4802 6.25921C15.303 7.0238 18.6119 10.5936 19.1835 11.2104C19.6445 10.9529 21.6907 9.86471 24.4717 9.10708C24.2303 7.27519 23.3279 5.59813 21.9603 4.22552C20.0542 5.2154 17.7244 5.73209 15.4466 4.35687C15.4346 4.35078 14.2014 3.62968 12.9859 3.66534C11.1776 3.71666 10.3949 4.68393 9.56642 5.70686L8.51694 7.1047Z" fill="white"/>
<path d="M19.0523 11.6009C19.0136 11.5582 15.1612 7.39256 14.2891 6.58274C13.7837 6.11476 13.5029 5.99473 13.208 5.94862C13.0545 5.9234 12.842 5.95906 12.6941 6.00951C12.288 6.14608 11.7573 6.58448 11.2857 7.04636C10.7979 7.52652 10.3376 7.97884 9.91102 8.09713C9.36551 8.24849 8.69964 8.0693 8.39557 7.81618C8.27239 7.71353 8.18581 7.59524 8.14428 7.4752C8.03166 7.15336 8.2386 6.89588 8.27309 6.85326L9.33595 5.43194C9.45983 5.27971 9.58371 5.12749 9.71111 4.97701C9.36833 5.03268 9.05088 5.14054 8.74258 5.24666C8.35756 5.38062 7.98732 5.50761 7.61215 5.50761C7.45589 5.50761 6.61758 5.33799 6.4585 5.28406C5.4963 4.95874 4.65165 4.64212 3.391 3.91406C1.87978 5.30494 0.869013 7.04289 0.576904 8.95741C0.794402 9.02874 1.14423 9.15747 1.29134 9.19748C4.71077 10.1369 5.77574 11.105 5.96931 11.3077C6.17836 11.0198 6.48032 10.838 6.81748 10.838C7.19546 10.8389 7.53684 11.0729 7.74378 11.4365C7.93946 11.2451 8.20975 11.0824 8.55887 11.0824C8.71724 11.0824 8.88195 11.119 9.04806 11.1886C9.43379 11.3521 9.63298 11.6696 9.73645 11.9566C9.86597 11.8844 10.025 11.8314 10.2123 11.8322C10.3967 11.8322 10.5881 11.8836 10.781 11.9871C11.4117 12.3211 11.5095 13.0865 11.4525 13.6633C11.4976 13.6572 11.5426 13.6546 11.5884 13.6546C12.3359 13.6554 12.944 14.4061 12.944 15.3307C12.944 15.6169 12.8849 15.8857 12.7814 16.1214C12.9848 16.2632 13.5036 16.5824 13.959 16.5111C14.3229 16.4546 14.4609 16.3006 14.5101 16.2145C14.5439 16.1554 14.5798 16.0858 14.5467 16.0362L13.5817 14.7114C13.5817 14.7114 13.4227 14.5253 13.4754 14.4539C13.5296 14.38 13.6282 14.4861 13.6972 14.5575C14.1885 15.0646 14.7882 15.8292 14.7882 15.8292C14.798 15.8379 14.8382 15.9344 15.0599 15.984C15.2506 16.0257 15.5885 16.0014 15.8222 15.7639C15.8813 15.7039 15.9404 15.6291 15.9897 15.5517C15.9862 15.5552 15.9827 15.5613 15.9791 15.563C16.2255 15.1724 15.9517 14.7775 15.9517 14.7775L14.8248 13.2144C14.8248 13.2144 14.6643 13.03 14.7185 12.9561C14.7678 12.8917 14.8712 12.9891 14.9423 13.0613C15.2985 13.4301 15.8025 14.0547 16.286 14.6392C16.3796 14.7253 16.8048 15.0498 17.3665 14.5931C17.7079 14.3165 17.7761 13.9773 17.7663 13.7207C17.7431 13.3814 17.5284 13.1396 17.5284 13.1396L15.9897 11.2277C15.9897 11.2277 15.8271 11.0563 15.8848 10.9694C15.932 10.8963 16.0376 11.0015 16.1065 11.0729C16.5964 11.58 17.924 13.0839 17.924 13.0839C17.943 13.1005 18.4012 13.5041 18.9678 13.0578C19.1705 12.8978 19.3 12.6568 19.3113 12.3759C19.3303 11.8896 19.0523 11.6009 19.0523 11.6009Z" fill="white"/>
<path d="M11.5869 14.0275C11.3483 14.024 11.0871 14.1988 11.0534 14.1736C11.0344 14.158 11.0674 14.0397 11.09 13.9709C11.1132 13.9031 11.4271 12.7349 10.6613 12.3287C10.075 12.0182 9.71669 12.3678 9.59351 12.5261C9.56114 12.5679 9.54706 12.5644 9.54284 12.5114C9.53157 12.3009 9.45485 11.732 8.94947 11.5406C8.22659 11.2675 7.76132 11.8912 7.64307 12.1164C7.59028 11.6067 7.24257 11.2118 6.81531 11.2109C6.35146 11.2109 5.97559 11.6746 5.97559 12.2478C5.97488 12.8201 6.35075 13.2846 6.81461 13.2846C7.03985 13.2855 7.24397 13.1742 7.3946 12.9959C7.39953 13.0011 7.40164 13.0106 7.39883 13.0306C7.36363 13.2864 7.29888 14.2189 8.08863 14.599C8.40537 14.7503 8.67496 14.6372 8.89808 14.4441C8.96425 14.3859 8.97551 14.4102 8.96566 14.4876C8.9375 14.7277 8.9734 15.2409 9.55621 15.5323C9.99895 15.755 10.2615 15.5271 10.4332 15.3314C10.5079 15.247 10.5283 15.2601 10.5318 15.3905C10.5529 16.0847 11.0196 16.6353 11.5855 16.6361C12.169 16.6361 12.642 16.0534 12.642 15.3331C12.6427 14.612 12.1704 14.0353 11.5869 14.0275Z" fill="white"/>
<path d="M11.5845 16.5389C11.0559 16.5381 10.6258 16.0301 10.6061 15.3839C10.6054 15.3283 10.6004 15.1804 10.4998 15.1804C10.4576 15.1804 10.4217 15.2117 10.3801 15.2578C10.264 15.3909 10.1162 15.5266 9.90009 15.5266C9.80155 15.5266 9.69526 15.4979 9.58334 15.4413C9.02447 15.1621 9.01672 14.6881 9.03925 14.4977C9.04558 14.4463 9.04769 14.3933 9.01954 14.3524L8.98505 14.315H8.95056C8.9224 14.315 8.89284 14.3289 8.85342 14.3637C8.69153 14.5037 8.53668 14.5716 8.37901 14.5716C8.29243 14.5716 8.20375 14.5498 8.11435 14.5072C7.37951 14.1541 7.43793 13.2965 7.47383 13.0391C7.47875 12.986 7.46819 12.946 7.44145 12.9191L7.38936 12.866L7.34079 12.9234C7.19791 13.0939 7.00997 13.1878 6.81359 13.1878C6.39197 13.187 6.04918 12.7643 6.04988 12.2442C6.04988 11.7232 6.39337 11.3014 6.81429 11.3014C7.19509 11.3014 7.51887 11.6553 7.56744 12.125L7.59348 12.3781L7.7061 12.1641C7.71877 12.1389 8.02707 11.5623 8.5944 11.5631C8.70209 11.5631 8.8133 11.584 8.92592 11.6275C9.37781 11.798 9.45453 12.3042 9.4665 12.5155C9.47424 12.6381 9.54533 12.6442 9.55941 12.6442C9.59813 12.6442 9.62698 12.6138 9.6474 12.5868C9.73257 12.4772 9.91839 12.2946 10.2091 12.2946C10.3421 12.2946 10.4843 12.3337 10.63 12.4111C11.3487 12.7921 11.0228 13.9201 11.0193 13.9323C10.9573 14.1193 10.9545 14.2019 11.0129 14.2498L11.0411 14.2663H11.0622C11.0946 14.2663 11.1347 14.2489 11.2009 14.2211C11.2987 14.1793 11.4465 14.1167 11.5845 14.1167H11.5852C12.1257 14.1245 12.5657 14.6681 12.5657 15.3291C12.565 15.9962 12.125 16.5389 11.5845 16.5389ZM19.1976 11.1013C18.0109 9.82192 15.2686 6.87611 14.526 6.1864C14.1015 5.79241 13.8122 5.58367 13.5581 5.49061C13.4441 5.44799 13.2857 5.39928 13.0823 5.39928C12.8937 5.39928 12.691 5.44103 12.4791 5.52453C11.9991 5.71239 11.5211 6.18205 11.058 6.63606L11.034 6.65954C10.6033 7.0831 10.1584 7.52059 9.82125 7.61365C9.67414 7.65453 9.52281 7.6754 9.37218 7.6754C8.9942 7.6754 8.65563 7.54059 8.52823 7.34055C8.50712 7.30663 8.52049 7.25357 8.56976 7.17617L8.5768 7.16573L9.62065 5.77588C10.4379 4.76524 11.21 3.81201 12.988 3.76156C13.0169 3.76069 13.0471 3.75982 13.0767 3.75982C14.1832 3.76069 15.289 4.37299 15.4129 4.44344C16.4504 5.06878 17.5217 5.38624 18.5979 5.38711C19.7199 5.38798 20.8778 5.04443 22.0948 4.35211C21.9589 4.21122 21.8174 4.0738 21.6717 3.93899C20.6025 4.51128 19.584 4.8009 18.6014 4.8009C17.597 4.79916 16.5947 4.50171 15.6205 3.91463C15.5691 3.88419 14.3479 3.17274 13.0767 3.17188C13.0436 3.17188 13.0098 3.17274 12.9767 3.17361C11.4838 3.21623 10.6427 3.87202 10.0768 4.44605C9.52703 4.46257 9.05192 4.62608 8.63029 4.7722C8.25302 4.90092 7.92783 5.01312 7.61038 5.01312C7.47946 5.01312 7.24436 4.99833 7.22325 4.99746C6.85864 4.98355 5.01941 4.42691 3.55675 3.74243C3.40753 3.87289 3.26394 4.0077 3.12387 4.14512C4.65198 4.91919 6.51163 5.51757 7.09866 5.56454C7.26196 5.57845 7.43582 5.60106 7.60967 5.60106C7.99821 5.60106 8.38535 5.46712 8.76051 5.33753C8.98153 5.26013 9.22577 5.17663 9.48339 5.11575C9.41441 5.19924 9.34614 5.28361 9.27716 5.36797L8.21712 6.78565C8.13336 6.89002 7.95176 7.16834 8.07142 7.51015C8.11928 7.64844 8.21571 7.78064 8.35086 7.89283C8.60284 8.10331 9.05544 8.24508 9.47635 8.24595C9.63543 8.24595 9.78676 8.22595 9.92543 8.18768C10.3696 8.06417 10.8362 7.60495 11.3304 7.11963C11.7238 6.73347 12.2827 6.24293 12.7114 6.09856C12.831 6.05855 12.9781 6.03333 13.0957 6.03333C13.1309 6.0342 13.1647 6.03507 13.1956 6.04115C13.4786 6.08464 13.7517 6.2038 14.2402 6.65693C15.1109 7.46492 18.9632 11.6292 19.0012 11.671C19.0033 11.6736 19.249 11.9345 19.2321 12.3703C19.2229 12.6129 19.1138 12.8286 18.9245 12.9782C18.7598 13.1069 18.5902 13.1722 18.4191 13.1722C18.1615 13.1722 17.9841 13.0226 17.9721 13.013C17.9581 12.9982 16.6383 11.5031 16.1526 11.0004C16.0752 10.9213 15.9999 10.85 15.9239 10.85C15.8837 10.85 15.8478 10.8708 15.8232 10.9091C15.7472 11.0256 15.8324 11.1865 15.9337 11.2927L17.4752 13.207C17.4773 13.2096 17.6674 13.4296 17.6878 13.7236C17.7005 14.041 17.5773 14.3063 17.3218 14.5133C17.1402 14.6612 16.9558 14.7368 16.7756 14.7368C16.5391 14.7368 16.3722 14.6029 16.3356 14.5716L16.1146 14.302C15.7106 13.8106 15.2932 13.3026 14.9877 12.9878C14.9131 12.9112 14.8336 12.8408 14.7575 12.8408C14.7202 12.8408 14.6865 12.8573 14.6604 12.8912C14.6259 12.9391 14.6013 13.0252 14.6886 13.1678C14.7238 13.2261 14.766 13.2748 14.766 13.2748L15.8915 14.8369C15.9006 14.8508 16.1231 15.1778 15.9168 15.5031L15.8767 15.5648C15.8436 15.6109 15.807 15.6535 15.7725 15.6901C15.5804 15.8849 15.3242 15.9058 15.2228 15.9058C15.1686 15.9058 15.1158 15.8997 15.0708 15.8892C14.9596 15.8649 14.8849 15.8266 14.8483 15.7736L14.835 15.7562C14.7737 15.6779 14.2064 14.9621 13.7369 14.4785C13.6757 14.4142 13.5983 14.3333 13.5187 14.3333C13.4793 14.3333 13.4441 14.3524 13.4167 14.3898C13.3237 14.515 13.4631 14.7029 13.5222 14.7725L14.4823 16.0797C14.4809 16.091 14.469 16.118 14.4457 16.1597C14.4112 16.218 14.2951 16.3624 13.9467 16.4163C13.9051 16.4233 13.8622 16.4259 13.8193 16.4259C13.4603 16.4259 13.0774 16.2102 12.8803 16.0815C12.9704 15.8466 13.0169 15.5883 13.0169 15.33C13.0169 14.3533 12.3756 13.5592 11.5859 13.5592C11.569 13.5592 11.5514 13.5592 11.5345 13.5601C11.5598 13.1148 11.5092 12.2711 10.8081 11.8997C10.6061 11.7919 10.4048 11.7371 10.2098 11.7371C10.0563 11.7371 9.90924 11.7693 9.77128 11.8345C9.62558 11.4857 9.38485 11.2318 9.07022 11.0996C8.89636 11.0256 8.72321 10.9874 8.55639 10.9874C8.26428 10.9874 7.9961 11.0935 7.75608 11.304C7.52662 10.9517 7.1796 10.7421 6.81429 10.7421C6.49473 10.7421 6.18714 10.9004 5.95979 11.1796C5.66064 10.8978 4.47601 9.96717 1.30434 9.07742C1.1509 9.03481 0.798961 8.90956 0.58287 8.83216C0.546973 9.0435 0.519522 9.25833 0.501221 9.4749C0.501221 9.4749 1.08614 9.64797 1.20158 9.68015C4.44152 10.569 5.51142 11.4936 5.69302 11.6684C5.63108 11.8502 5.5994 12.0459 5.5994 12.2442C5.5987 13.0704 6.1435 13.7445 6.81288 13.7453C6.8882 13.7453 6.96281 13.7366 7.03531 13.7201C7.13667 14.3289 7.45904 14.7908 7.95105 15.0273C8.09535 15.0952 8.24105 15.1308 8.38394 15.1308C8.47615 15.1308 8.56976 15.1169 8.66056 15.0882C8.75136 15.3735 8.95619 15.7292 9.41371 15.9588C9.57419 16.0388 9.73468 16.0806 9.89023 16.0806C10.0176 16.0806 10.1422 16.0528 10.2612 15.9988C10.4801 16.659 11.0024 17.0956 11.5838 17.0956C11.9695 17.0964 12.3397 16.9025 12.61 16.5589C12.8409 16.7181 13.3287 17.0051 13.8214 17.006C13.8854 17.006 13.9453 16.9999 14.0051 16.9912C14.495 16.9155 14.7223 16.6781 14.8272 16.4946C14.8462 16.4624 14.8631 16.4285 14.8779 16.3928C14.9933 16.4346 15.12 16.4676 15.2657 16.4685C15.5332 16.4685 15.7901 16.3554 16.0492 16.1215C16.304 15.8953 16.4849 15.5692 16.5109 15.2917C16.5116 15.2874 16.5123 15.2839 16.513 15.2796C16.5982 15.3013 16.6869 15.3126 16.7749 15.3126C17.0501 15.3126 17.3204 15.2065 17.5794 14.9969C18.0784 14.5933 18.165 14.0654 18.1573 13.7192C18.2438 13.7418 18.3332 13.7532 18.4219 13.7532C18.6803 13.7532 18.9343 13.6575 19.1758 13.467C19.4855 13.2226 19.6713 12.8486 19.6995 12.4129C19.7192 12.1172 19.66 11.8189 19.5333 11.5623C20.3696 11.117 22.2806 10.2559 24.5309 9.62884C24.5175 9.41314 24.4922 9.20006 24.4612 8.98784C21.7386 9.73495 19.7065 10.8213 19.1976 11.1013Z" fill="#0A0080"/>
<path d="M66.5183 7.684C66.2993 8.04325 65.9861 8.22244 65.5765 8.22244C65.1675 8.22244 64.8522 8.04325 64.6319 7.684C64.4108 7.32476 64.301 6.81329 64.301 6.15134C64.301 5.48939 64.4108 4.97966 64.6319 4.62216C64.8522 4.26552 65.1675 4.08634 65.5765 4.08634C65.9861 4.08634 66.2993 4.26552 66.5183 4.62216C66.7372 4.97966 66.8477 5.48939 66.8477 6.15134C66.8477 6.81329 66.7372 7.32476 66.5183 7.684ZM67.6374 3.67316C67.1855 2.97468 66.5007 2.625 65.5807 2.625C64.6621 2.625 63.9766 2.97468 63.5254 3.67316C63.0735 4.37251 62.8475 5.19799 62.8475 6.15134C62.8475 7.12122 63.0735 7.95018 63.5254 8.63996C63.9766 9.32714 64.6621 9.67246 65.5807 9.67246C66.5007 9.67246 67.1855 9.32714 67.6374 8.63996C68.0893 7.95018 68.3145 7.12122 68.3145 6.15134C68.3145 5.19799 68.0893 4.37251 67.6374 3.67316Z" fill="#0A0080"/>
<path d="M55.3931 6.85066C55.384 7.43085 55.2495 7.83098 54.9912 8.04931C54.7329 8.26851 54.4506 8.37898 54.1444 8.37898C53.9509 8.37898 53.7869 8.312 53.6517 8.18065C53.5166 8.04844 53.4497 7.83445 53.4497 7.53784C53.4497 7.20643 53.5595 6.96113 53.7805 6.80195C53.9121 6.70975 54.1261 6.62972 54.426 6.56622L54.7455 6.49316C54.9046 6.45575 55.0299 6.41574 55.1214 6.37312C55.2143 6.33137 55.3037 6.2757 55.3931 6.20611V6.85066ZM56.1047 3.07207C55.6465 2.78589 55.1228 2.64062 54.533 2.64062C53.6264 2.64062 52.9866 2.93289 52.6142 3.51656C52.3798 3.89059 52.2489 4.36639 52.2179 4.94658H53.5722C53.606 4.69084 53.6721 4.48817 53.7721 4.33856C53.9121 4.13588 54.1494 4.03411 54.4851 4.03411C54.785 4.03411 55.0123 4.08456 55.1672 4.18981C55.3213 4.29246 55.3987 4.48034 55.3987 4.75173C55.3987 4.97528 55.2988 5.13881 55.0961 5.24493C54.9834 5.30582 54.7969 5.35627 54.5351 5.39716L54.055 5.47022C53.5102 5.5546 53.0957 5.69725 52.8155 5.89645C52.3024 6.26178 52.0469 6.85066 52.0469 7.66657C52.0469 8.2946 52.2052 8.78084 52.5241 9.12356C52.8423 9.46628 53.247 9.6098 53.7355 9.63851C56.798 9.80726 56.7636 7.64396 56.7917 7.19338V4.70302C56.7917 3.90451 56.5622 3.36085 56.1047 3.07207Z" fill="#0A0080"/>
<path d="M49.1143 4.13321C49.4648 4.13321 49.7218 4.26717 49.8879 4.53421C50.0019 4.73166 50.073 4.95521 50.1004 5.20225H51.6117C51.5286 4.26021 51.2618 3.60261 50.8114 3.22944C50.3595 2.85889 49.7816 2.67188 49.0742 2.67188C48.2415 2.67188 47.5883 2.98763 47.116 3.61826C46.643 4.24977 46.4065 5.13179 46.4065 6.26606C46.4065 7.26986 46.6205 8.08838 47.0484 8.71989C47.4764 9.34966 48.1444 9.66541 49.0524 9.66541C49.9611 9.66541 50.6466 9.2879 51.1091 8.53113C51.3984 8.06229 51.561 7.56474 51.5955 7.03935H50.0899C50.0589 7.38642 49.9709 7.66999 49.8252 7.88832C49.6802 8.10578 49.4353 8.21538 49.089 8.21538C48.6019 8.21538 48.2697 7.94138 48.093 7.3899C47.9966 7.09676 47.948 6.70794 47.948 6.22344C47.948 5.71545 47.9966 5.30837 48.093 5.00131C48.2767 4.42374 48.6174 4.13321 49.1143 4.13321Z" fill="#0A0080"/>
<path d="M46.0033 2.67188C42.8999 2.67188 43.0836 6.06774 43.0836 6.06774V9.51667H44.4914V6.28172C44.4914 5.75199 44.5456 5.35882 44.6532 5.10395C44.8461 4.65164 45.2241 4.42461 45.7872 4.42461C45.8294 4.42461 45.885 4.42722 45.954 4.43157C46.0223 4.43505 46.1004 4.44287 46.1898 4.45592V2.68492C46.1272 2.6797 46.087 2.67796 46.0694 2.67535C46.0511 2.67361 46.0293 2.67188 46.0033 2.67188Z" fill="#0A0080"/>
<path d="M38.9329 4.47419C39.1314 4.2228 39.4095 4.09668 39.7677 4.09668C40.0986 4.09668 40.3745 4.21498 40.5976 4.45331C40.82 4.68991 40.9446 5.03872 40.97 5.49712H38.5606C38.6106 5.06655 38.7352 4.72644 38.9329 4.47419ZM40.8257 7.71435C40.7665 7.81873 40.7032 7.90833 40.6328 7.97791C40.4343 8.18059 40.164 8.24148 39.8459 8.24148C39.5446 8.24148 39.3095 8.18494 39.0962 8.0188C38.745 7.75262 38.5472 7.30118 38.5261 6.63749H42.4228C42.4284 6.06687 42.4129 5.63021 42.3756 5.32576C42.3109 4.80821 42.1687 4.35154 41.9498 3.95924C41.7069 3.51388 41.3979 3.18769 41.0249 2.98067C40.6525 2.77452 40.2337 2.67188 39.7677 2.67188C38.9829 2.67188 38.3459 2.97719 37.8546 3.58782C37.3633 4.19932 37.1169 5.07699 37.1169 6.2217C37.1169 7.4447 37.3893 8.32672 37.9341 8.86863C38.4782 9.41054 39.1068 9.68281 39.8184 9.68281C40.6807 9.68281 41.3515 9.36096 41.8308 8.71815C42.0891 8.37978 42.251 8.04489 42.3193 7.71435H40.8257Z" fill="#0A0080"/>
<path d="M36.5591 9.50803H35.2724V5.50502C35.2724 5.13968 35.1753 4.26984 34.3264 4.26984C33.7605 4.26984 33.3515 4.77435 33.3515 5.50502V9.50803H32.0641V5.50502C32.0641 5.13968 31.9762 4.26984 31.128 4.26984C30.5522 4.26984 30.1524 4.77435 30.1524 5.50502V9.50803H28.8657V5.54329C28.8657 3.89059 29.7526 2.64062 31.128 2.64062C31.8107 2.64062 32.3661 2.99552 32.7272 3.56353C33.1073 2.99552 33.6725 2.64062 34.3264 2.64062C35.7306 2.64062 36.5591 3.84014 36.5591 5.54329V9.50803Z" fill="#0A0080"/>
<path d="M60.7412 7.68777C60.5356 8.05224 60.2337 8.23403 59.8381 8.23403C59.4418 8.23403 59.1469 8.0505 58.9526 7.68516C58.7583 7.31809 58.6612 6.78574 58.6612 6.17512C58.6612 5.60885 58.7562 5.13478 58.9477 4.75292C59.1384 4.37106 59.4383 4.1797 59.8479 4.1797C60.1161 4.1797 60.3519 4.28408 60.5553 4.49458C60.8855 4.84252 61.0509 5.46619 61.0509 6.27515C61.0509 6.85272 60.9474 7.32418 60.7412 7.68777ZM62.4305 0.578549C62.4305 0.578549 61.0115 0.391533 61.0115 1.79981L61.0108 3.66388C60.8538 3.35248 60.6497 3.10805 60.3977 2.93321C60.1464 2.7575 59.8585 2.66878 59.5333 2.66878C58.8301 2.66878 58.2692 2.99236 57.8482 3.63952C57.4273 4.28669 57.2183 5.21916 57.2183 6.34734C57.2183 7.32592 57.4315 8.12791 57.8581 8.75333C58.2853 9.37701 59.123 9.65101 59.8662 9.65101C62.4593 9.65101 62.4291 6.9023 62.4291 6.9023L62.4305 0.578549Z" fill="#0A0080"/>
<path d="M32.6336 15.8614C32.6336 15.2056 32.5301 14.7011 32.3225 14.347C32.1155 13.9947 31.8192 13.8164 31.4321 13.8164C31.0604 13.8164 30.7697 13.9947 30.5621 14.347C30.3699 14.6671 30.2735 15.1734 30.2735 15.8614C30.2735 16.5034 30.3762 16.9809 30.5839 17.301C30.7901 17.655 31.0879 17.8316 31.4736 17.8316C31.8326 17.8316 32.1155 17.655 32.3225 17.301C32.5301 16.9479 32.6336 16.4694 32.6336 15.8614ZM30.2735 20.5708C30.2735 20.8056 30.2045 21.0083 30.0651 21.1762C29.9279 21.3449 29.7625 21.4293 29.5689 21.4293H28.8657V15.3813C28.8657 14.2052 29.186 13.4694 29.7139 12.9709C30.063 12.6421 30.5825 12.3281 31.5566 12.3281C32.2141 12.3281 32.9841 12.6439 33.4001 13.2702C33.8668 13.9747 34.061 14.7602 34.061 15.7857C34.061 16.847 33.8541 17.7029 33.4409 18.3614C33.027 19.0016 32.4949 19.3199 31.8459 19.3199C31.501 19.3199 31.1977 19.2442 30.9358 19.0938C30.6585 18.925 30.4389 18.6641 30.2735 18.31V20.5708Z" fill="#0A0080"/>
<path d="M41.0734 15.8637C41.0734 17.0241 41.3451 17.6669 41.887 17.7939C42.4283 17.9183 42.8288 17.7626 43.0864 17.3259C43.2089 17.1424 43.2962 16.851 43.3511 16.4569C43.4046 16.062 43.4088 15.6706 43.361 15.2844C43.3145 14.8964 43.2019 14.552 43.0252 14.2493C42.8499 13.9474 42.5916 13.7952 42.2531 13.7952C41.792 13.7952 41.4809 14.0066 41.3176 14.425C41.1543 14.846 41.0734 15.3253 41.0734 15.8637ZM43.3919 18.7637V18.3366C43.1484 18.8081 42.8183 19.1004 42.4051 19.2187C41.9919 19.3361 41.5816 19.2943 41.1761 19.0917C40.7686 18.8907 40.4195 18.5167 40.1281 17.9704C39.8366 17.4224 39.6917 16.704 39.6917 15.8124C39.6917 14.7712 39.8845 13.9257 40.2702 13.2785C40.6567 12.6314 41.2775 12.3356 42.1313 12.3069C42.9724 12.2791 43.4616 12.5148 43.941 12.9628C44.4646 13.4542 44.7743 14.2075 44.7743 15.3844V18.9421C44.7765 20.0737 44.1373 22.1718 42.1313 21.9943C40.8882 21.883 40.1984 21.2524 39.8134 19.8249H41.2979C41.4063 20.0598 41.5717 20.2399 41.7962 20.3651C42.0187 20.493 42.2439 20.526 42.4656 20.4669C42.6895 20.4077 42.8929 20.2433 43.0773 19.9754C43.2596 19.7066 43.3645 19.3022 43.3919 18.7637Z" fill="#0A0080"/>
<path d="M37.7764 16.5616C37.7673 17.1418 37.6328 17.541 37.3752 17.7602C37.1169 17.9786 36.8346 18.0882 36.5284 18.0882C36.3342 18.0882 36.1702 18.0221 36.0357 17.8907C35.9006 17.7594 35.833 17.5445 35.833 17.2479C35.833 16.9165 35.9435 16.6712 36.1645 16.5129C36.2962 16.4198 36.5101 16.3398 36.8093 16.2763L37.1288 16.2032C37.2886 16.1658 37.4139 16.1258 37.5047 16.0832C37.5976 16.0414 37.687 15.9866 37.7764 15.917V16.5616ZM38.488 12.783C38.0298 12.4968 37.5061 12.3516 36.917 12.3516C36.0097 12.3516 35.3706 12.6438 34.9975 13.2275C34.7638 13.6007 34.6322 14.0765 34.6019 14.6575H35.9569C35.99 14.4009 36.0561 14.1982 36.1561 14.0486C36.2962 13.846 36.5334 13.7451 36.8684 13.7451C37.1697 13.7451 37.3963 13.7955 37.5505 13.8999C37.7046 14.0034 37.7827 14.1913 37.7827 14.4627C37.7827 14.6853 37.6821 14.8497 37.4801 14.9559C37.3682 15.0168 37.1809 15.0672 36.9191 15.1081L36.439 15.1803C35.8942 15.2655 35.4797 15.4082 35.1995 15.6065C34.6864 15.9718 34.4302 16.5616 34.4302 17.3766C34.4302 18.0047 34.5893 18.4909 34.9081 18.8336C35.2263 19.1755 35.631 19.3207 36.1195 19.3486C39.1806 19.5173 39.1469 17.3532 39.175 16.9034V14.4131C39.175 13.6146 38.9462 13.0718 38.488 12.783Z" fill="#0A0080"/>
<path d="M48.9817 17.3463C48.7628 17.7064 48.4489 17.8856 48.0399 17.8856C47.6303 17.8856 47.3149 17.7064 47.0953 17.3463C46.8736 16.988 46.7638 16.4774 46.7638 15.8154C46.7638 15.1535 46.8736 14.6437 47.0953 14.2862C47.3149 13.9287 47.6303 13.7513 48.0399 13.7513C48.4489 13.7513 48.7628 13.9287 48.9817 14.2862C49.2006 14.6437 49.3104 15.1535 49.3104 15.8154C49.3104 16.4774 49.2006 16.988 48.9817 17.3463ZM50.1009 13.3372C49.649 12.6379 48.9634 12.2891 48.0435 12.2891C47.1256 12.2891 46.4393 12.6379 45.9881 13.3372C45.5362 14.0357 45.3103 14.8612 45.3103 15.8154C45.3103 16.7853 45.5362 17.6134 45.9881 18.3032C46.4393 18.9903 47.1256 19.3357 48.0435 19.3357C48.9634 19.3357 49.649 18.9903 50.1009 18.3032C50.5521 17.6134 50.7766 16.7853 50.7766 15.8154C50.7766 14.8612 50.5521 14.0357 50.1009 13.3372Z" fill="#0A0080"/>
</svg>
