<svg width="1020" height="339" viewBox="0 0 1020 339" fill="none" xmlns="http://www.w3.org/2000/svg">
<circle cx="159.202" cy="158.71" r="129.843" fill="#3D5EE1"/>
<circle cx="160.185" cy="157.234" r="118.039" fill="white"/>
<circle cx="169.038" cy="169.038" r="119.572" transform="rotate(-43.4512 169.038 169.038)" fill="#3D5EE1"/>
<path d="M179.194 263.87L253 211.483L195.194 90.4515L112.097 144.596L179.194 263.87Z" fill="#6FCCD8"/>
<path d="M177.129 76L88.7939 143.135C88.0756 143.68 88.3905 144.823 89.287 144.924L118.468 148.213C118.723 148.242 118.979 148.171 119.183 148.017L195.193 90.4516" fill="white"/>
<path d="M177.129 76L88.7939 143.135C88.0756 143.68 88.3905 144.823 89.287 144.924L118.468 148.213C118.723 148.242 118.979 148.171 119.183 148.017L195.193 90.4516" stroke="#6FCCD8" stroke-width="5"/>
<path d="M86 144.171L155.452 271.096L177.129 258.451L118.674 146.995L86 144.171Z" fill="#6FCCD8"/>
<path d="M157.258 220.516L177.129 256.644" stroke="url(#paint0_linear_45_7826)"/>
<path d="M155.452 271.096L253 211.483L240.059 289.16L155.452 271.096Z" fill="white"/>
<path d="M224.097 285.548L242.161 276.515L240.355 289.16L224.097 285.548Z" fill="#5D6369"/>
<path d="M349.077 231.19V105.038H398.764C408.316 105.038 416.453 106.866 423.177 110.521C429.9 114.134 435.024 119.165 438.55 125.612C442.117 132.018 443.9 139.41 443.9 147.787C443.9 156.164 442.096 163.556 438.489 169.962C434.881 176.368 429.654 181.358 422.808 184.931C416.002 188.503 407.762 190.29 398.087 190.29H366.418V168.915H393.783C398.907 168.915 403.13 168.032 406.45 166.266C409.812 164.46 412.313 161.975 413.953 158.813C415.633 155.61 416.474 151.935 416.474 147.787C416.474 143.598 415.633 139.944 413.953 136.823C412.313 133.661 409.812 131.217 406.45 129.493C403.089 127.727 398.825 126.844 393.66 126.844H375.703V231.19H349.077Z" fill="white"/>
<path d="M460.703 231.19V136.576H486.1V153.085H487.084C488.806 147.212 491.696 142.777 495.755 139.779C499.813 136.741 504.487 135.221 509.775 135.221C511.087 135.221 512.502 135.303 514.018 135.468C515.535 135.632 516.868 135.858 518.015 136.145V159.429C516.786 159.06 515.084 158.731 512.911 158.444C510.739 158.156 508.75 158.012 506.947 158.012C503.093 158.012 499.649 158.854 496.616 160.538C493.623 162.18 491.245 164.48 489.482 167.437C487.761 170.393 486.9 173.802 486.9 177.662V231.19H460.703Z" fill="white"/>
<path d="M570.208 233.038C560.492 233.038 552.129 231.067 545.119 227.125C538.15 223.142 532.779 217.516 529.007 210.247C525.236 202.938 523.35 194.293 523.35 184.315C523.35 174.582 525.236 166.041 529.007 158.69C532.779 151.339 538.088 145.611 544.934 141.504C551.822 137.398 559.898 135.344 569.163 135.344C575.394 135.344 581.195 136.35 586.566 138.363C591.977 140.334 596.692 143.311 600.709 147.294C604.768 151.278 607.924 156.288 610.179 162.324C612.434 168.32 613.561 175.342 613.561 183.391V190.598H533.804V174.336H588.902C588.902 170.558 588.083 167.211 586.443 164.295C584.803 161.38 582.528 159.101 579.617 157.458C576.747 155.774 573.406 154.932 569.593 154.932C565.617 154.932 562.091 155.856 559.016 157.704C555.983 159.511 553.605 161.955 551.883 165.034C550.161 168.073 549.28 171.461 549.239 175.198V190.659C549.239 195.341 550.1 199.385 551.822 202.794C553.585 206.202 556.065 208.83 559.262 210.678C562.46 212.526 566.252 213.45 570.639 213.45C573.549 213.45 576.214 213.04 578.633 212.218C581.052 211.397 583.122 210.165 584.844 208.522C586.566 206.88 587.878 204.868 588.779 202.486L613.008 204.087C611.778 209.919 609.257 215.011 605.444 219.364C601.673 223.675 596.794 227.043 590.809 229.466C584.864 231.847 577.998 233.038 570.208 233.038Z" fill="white"/>
<path d="M699.938 141.235C699.267 135.561 696.546 131.156 691.776 128.02C687.006 124.884 681.154 123.316 674.222 123.316C669.154 123.316 664.719 124.137 660.917 125.78C657.153 127.423 654.209 129.681 652.085 132.556C649.997 135.43 648.954 138.697 648.954 142.355C648.954 145.417 649.681 148.048 651.134 150.251C652.625 152.416 654.526 154.227 656.836 155.683C659.147 157.101 661.569 158.277 664.104 159.211C666.638 160.107 668.967 160.835 671.092 161.395L682.72 164.531C685.701 165.314 689.018 166.397 692.67 167.778C696.36 169.16 699.882 171.045 703.236 173.434C706.628 175.786 709.423 178.81 711.622 182.506C713.821 186.202 714.92 190.738 714.92 196.113C714.92 202.31 713.299 207.91 710.056 212.913C706.851 217.915 702.155 221.891 695.969 224.84C689.819 227.789 682.347 229.264 673.551 229.264C665.352 229.264 658.253 227.939 652.252 225.288C646.289 222.638 641.593 218.942 638.165 214.201C634.773 209.459 632.854 203.953 632.406 197.681H646.718C647.09 202.012 648.544 205.596 651.078 208.433C653.65 211.233 656.892 213.323 660.805 214.705C664.756 216.049 669.005 216.721 673.551 216.721C678.844 216.721 683.595 215.862 687.807 214.145C692.018 212.39 695.354 209.963 697.814 206.865C700.273 203.729 701.503 200.071 701.503 195.889C701.503 192.081 700.441 188.983 698.317 186.594C696.192 184.204 693.397 182.263 689.931 180.77C686.465 179.277 682.72 177.97 678.695 176.85L664.607 172.818C655.662 170.242 648.581 166.565 643.364 161.787C638.146 157.008 635.537 150.755 635.537 143.027C635.537 136.606 637.27 131.006 640.736 126.228C644.239 121.412 648.935 117.679 654.824 115.028C660.75 112.34 667.365 110.997 674.669 110.997C682.049 110.997 688.608 112.322 694.348 114.972C700.087 117.586 704.634 121.169 707.988 125.724C711.379 130.278 713.168 135.449 713.355 141.235H699.938Z" fill="white"/>
<path d="M748.224 195.889L748.001 179.538H750.684L788.251 141.235H804.575L764.548 181.778H763.43L748.224 195.889ZM735.926 227.248V112.564H749.119V227.248H735.926ZM790.487 227.248L756.945 184.69L766.337 175.506L807.258 227.248H790.487Z" fill="white"/>
<path d="M852.904 229.04C845.152 229.04 838.35 227.192 832.499 223.496C826.685 219.8 822.138 214.63 818.858 207.985C815.616 201.34 813.995 193.575 813.995 184.69C813.995 175.73 815.616 167.909 818.858 161.227C822.138 154.544 826.685 149.355 832.499 145.659C838.35 141.963 845.152 140.115 852.904 140.115C860.656 140.115 867.439 141.963 873.253 145.659C879.104 149.355 883.651 154.544 886.893 161.227C890.173 167.909 891.812 175.73 891.812 184.69C891.812 193.575 890.173 201.34 886.893 207.985C883.651 214.63 879.104 219.8 873.253 223.496C867.439 227.192 860.656 229.04 852.904 229.04ZM852.904 217.169C858.792 217.169 863.637 215.657 867.439 212.633C871.24 209.609 874.054 205.633 875.88 200.705C877.706 195.777 878.619 190.439 878.619 184.69C878.619 178.941 877.706 173.583 875.88 168.618C874.054 163.653 871.24 159.64 867.439 156.579C863.637 153.518 858.792 151.987 852.904 151.987C847.015 151.987 842.17 153.518 838.369 156.579C834.567 159.64 831.754 163.653 829.927 168.618C828.101 173.583 827.188 178.941 827.188 184.69C827.188 190.439 828.101 195.777 829.927 200.705C831.754 205.633 834.567 209.609 838.369 212.633C842.17 215.657 847.015 217.169 852.904 217.169Z" fill="white"/>
<path d="M946.835 229.04C939.083 229.04 932.282 227.192 926.431 223.496C920.617 219.8 916.07 214.63 912.79 207.985C909.548 201.34 907.927 193.575 907.927 184.69C907.927 175.73 909.548 167.909 912.79 161.227C916.07 154.544 920.617 149.355 926.431 145.659C932.282 141.963 939.083 140.115 946.835 140.115C954.587 140.115 961.37 141.963 967.184 145.659C973.036 149.355 977.582 154.544 980.825 161.227C984.104 167.909 985.744 175.73 985.744 184.69C985.744 193.575 984.104 201.34 980.825 207.985C977.582 214.63 973.036 219.8 967.184 223.496C961.37 227.192 954.587 229.04 946.835 229.04ZM946.835 217.169C952.724 217.169 957.569 215.657 961.37 212.633C965.172 209.609 967.986 205.633 969.812 200.705C971.638 195.777 972.551 190.439 972.551 184.69C972.551 178.941 971.638 173.583 969.812 168.618C967.986 163.653 965.172 159.64 961.37 156.579C957.569 153.518 952.724 151.987 946.835 151.987C940.947 151.987 936.102 153.518 932.3 156.579C928.499 159.64 925.685 163.653 923.859 168.618C922.033 173.583 921.12 178.941 921.12 184.69C921.12 190.439 922.033 195.777 923.859 200.705C925.685 205.633 928.499 209.609 932.3 212.633C936.102 215.657 940.947 217.169 946.835 217.169Z" fill="white"/>
<path d="M1019.08 112.564V227.248H1005.88V112.564H1019.08Z" fill="white"/>
<defs>
<linearGradient id="paint0_linear_45_7826" x1="167.194" y1="220.516" x2="167.194" y2="256.644" gradientUnits="userSpaceOnUse">
<stop stop-color="white"/>
<stop offset="1" stop-color="white"/>
</linearGradient>
</defs>
</svg>
