<svg width="32" height="33" viewBox="0 0 32 33" fill="none" xmlns="http://www.w3.org/2000/svg">
<g clip-path="url(#clip0_4100_462773)">
<path fill-rule="evenodd" clip-rule="evenodd" d="M16 0.875C10.1268 0.875 5.36377 5.63675 5.36377 11.5112C5.36377 16.2105 8.41127 20.1975 12.6375 21.6038C13.169 21.7022 13.3643 21.373 13.3643 21.092C13.3643 20.8385 13.3543 20.0005 13.3498 19.112C10.3905 19.7552 9.76627 17.857 9.76627 17.857C9.28252 16.6275 8.58527 16.3005 8.58527 16.3005C7.62027 15.6405 8.65777 15.654 8.65777 15.654C9.72602 15.729 10.2885 16.7502 10.2885 16.7502C11.237 18.3762 12.7768 17.906 13.3835 17.6343C13.4793 16.9468 13.7548 16.4773 14.059 16.2118C11.6965 15.943 9.21302 15.0308 9.21302 10.9552C9.21302 9.794 9.62852 8.84525 10.309 8.10025C10.1985 7.83225 9.83452 6.75025 10.412 5.28525C10.412 5.28525 11.305 4.99975 13.337 6.376C14.1858 6.14025 15.0958 6.022 15.9995 6.018C16.9035 6.02225 17.814 6.1405 18.664 6.376C20.694 5 21.586 5.2855 21.586 5.2855C22.165 6.7505 21.801 7.83225 21.6905 8.1005C22.3725 8.845 22.785 9.794 22.785 10.9555C22.785 15.0405 20.2968 15.94 17.9283 16.203C18.3098 16.533 18.6498 17.1805 18.6498 18.173C18.6498 19.596 18.6378 20.7412 18.6378 21.0915C18.6378 21.374 18.8293 21.706 19.3683 21.6015C23.5923 20.1935 26.6358 16.208 26.6358 11.5103C26.6363 5.637 21.8743 0.875 16 0.875Z" fill="#181616"/>
<path d="M9.39254 16.149C9.36879 16.202 9.28554 16.2177 9.21004 16.1815C9.13254 16.1465 9.08954 16.0747 9.11454 16.0215C9.13704 15.9675 9.22054 15.9522 9.29779 15.9885C9.37529 16.0235 9.41904 16.096 9.39254 16.149ZM9.82329 16.63C9.77254 16.6767 9.67329 16.655 9.60579 16.5805C9.53629 16.5062 9.52329 16.407 9.57479 16.3595C9.62679 16.3125 9.72304 16.3345 9.79229 16.4087C9.86229 16.4837 9.87604 16.582 9.82304 16.6297L9.82329 16.63ZM10.2425 17.242C10.1775 17.2875 10.0708 17.245 10.005 17.1502C9.93954 17.056 9.93954 16.9427 10.0063 16.897C10.0723 16.8515 10.1773 16.8925 10.2438 16.9862C10.3093 17.0825 10.3093 17.196 10.2425 17.242ZM10.817 17.834C10.7588 17.8982 10.6345 17.881 10.5438 17.7932C10.4508 17.7075 10.425 17.5857 10.4833 17.5215C10.5425 17.4572 10.6673 17.4752 10.7588 17.5622C10.8513 17.6477 10.8793 17.77 10.817 17.834ZM11.61 18.1775C11.584 18.261 11.4645 18.2987 11.344 18.2635C11.2235 18.227 11.145 18.1295 11.169 18.0455C11.194 17.9615 11.3145 17.9222 11.4358 17.96C11.5558 17.996 11.6348 18.0925 11.61 18.1775ZM12.48 18.2412C12.4833 18.3287 12.381 18.4017 12.2545 18.4032C12.1275 18.4062 12.0245 18.3352 12.023 18.2487C12.023 18.1602 12.123 18.0882 12.25 18.0862C12.3765 18.0837 12.48 18.1542 12.48 18.2412ZM13.29 18.1035C13.305 18.189 13.2175 18.277 13.0918 18.3002C12.9683 18.3232 12.8543 18.2702 12.8383 18.1852C12.8233 18.0977 12.9125 18.0102 13.0358 17.9872C13.1615 17.9652 13.274 18.0165 13.29 18.1035Z" fill="#181616"/>
<path d="M6.21378 27.5756H3.53878C3.50563 27.5756 3.47383 27.5888 3.45039 27.6122C3.42695 27.6357 3.41378 27.6675 3.41378 27.7006V29.0086C3.41378 29.0418 3.42695 29.0736 3.45039 29.097C3.47383 29.1205 3.50563 29.1336 3.53878 29.1336H4.58203V30.7586C4.58203 30.7586 4.34778 30.8386 3.69953 30.8386C2.93553 30.8386 1.86778 30.5596 1.86778 28.2116C1.86778 25.8634 2.97978 25.5541 4.02378 25.5541C4.92728 25.5541 5.31628 25.7131 5.56428 25.7899C5.64178 25.8134 5.71428 25.7359 5.71428 25.6669L6.01253 24.4031C6.01301 24.3842 6.0089 24.3654 6.00054 24.3485C5.99218 24.3315 5.97982 24.3168 5.96453 24.3056C5.86378 24.2336 5.25028 23.8906 3.70003 23.8906C1.91403 23.8906 0.0820312 24.6501 0.0820312 28.3031C0.0820312 31.9556 2.17953 32.4999 3.94703 32.4999C5.41053 32.4999 6.29828 31.8744 6.29828 31.8744C6.33478 31.8544 6.33878 31.8031 6.33878 31.7794V27.7004C6.33878 27.6672 6.32561 27.6354 6.30217 27.612C6.27873 27.5885 6.24693 27.5756 6.21378 27.5756ZM19.8765 24.2026H18.37C18.3536 24.2027 18.3373 24.206 18.3222 24.2124C18.307 24.2187 18.2933 24.228 18.2817 24.2397C18.2701 24.2514 18.261 24.2652 18.2548 24.2804C18.2486 24.2956 18.2454 24.3119 18.2455 24.3284L18.246 27.2394H15.898V24.3284C15.8981 24.312 15.895 24.2957 15.8888 24.2805C15.8826 24.2653 15.8735 24.2514 15.862 24.2398C15.8504 24.2281 15.8367 24.2188 15.8216 24.2124C15.8064 24.2061 15.7902 24.2027 15.7738 24.2026H14.2675C14.2511 24.2027 14.2348 24.206 14.2197 24.2124C14.2045 24.2187 14.1908 24.228 14.1792 24.2397C14.1676 24.2514 14.1585 24.2652 14.1523 24.2804C14.1461 24.2956 14.1429 24.3119 14.143 24.3284V32.2109C14.143 32.2801 14.199 32.3366 14.2675 32.3366H15.7738C15.7902 32.3365 15.8065 32.3332 15.8216 32.3268C15.8368 32.3204 15.8505 32.3111 15.862 32.2994C15.8736 32.2877 15.8827 32.2738 15.8889 32.2586C15.8951 32.2434 15.8982 32.2271 15.898 32.2106V28.8391H18.246L18.242 32.2106C18.242 32.2801 18.298 32.3366 18.367 32.3366H19.8765C19.893 32.3365 19.9092 32.3332 19.9244 32.3268C19.9395 32.3204 19.9532 32.3111 19.9648 32.2994C19.9763 32.2877 19.9854 32.2738 19.9916 32.2586C19.9978 32.2434 20.0009 32.2271 20.0008 32.2106V24.3281C20.0008 24.2586 19.9458 24.2026 19.8765 24.2026ZM8.08503 24.3819C7.54903 24.3819 7.11403 24.8201 7.11403 25.3626C7.11403 25.9044 7.54903 26.3439 8.08503 26.3439C8.62153 26.3439 9.05628 25.9044 9.05628 25.3626C9.05628 24.8201 8.62128 24.3819 8.08503 24.3819ZM8.82403 26.7839H7.32253C7.25353 26.7839 7.19203 26.8549 7.19203 26.9239V32.1369C7.19203 32.2901 7.28753 32.3356 7.41103 32.3356H8.76353C8.91228 32.3356 8.94853 32.2626 8.94853 32.1344V30.5479V26.9096C8.9486 26.8932 8.94543 26.8769 8.93921 26.8618C8.93299 26.8466 8.92383 26.8327 8.91227 26.8211C8.90071 26.8094 8.88697 26.8002 8.87183 26.7938C8.85669 26.7875 8.84045 26.7839 8.82403 26.7839ZM25.7255 26.7956H24.2305C24.2141 26.7958 24.1979 26.7991 24.1828 26.8055C24.1677 26.8119 24.1539 26.8212 24.1424 26.8329C24.1309 26.8446 24.1218 26.8585 24.1157 26.8737C24.1095 26.8889 24.1064 26.9052 24.1065 26.9216V30.7866C24.1065 30.7866 23.7265 31.0641 23.1878 31.0641C22.649 31.0641 22.506 30.8199 22.506 30.2921V26.9216C22.5062 26.9052 22.5031 26.8889 22.4969 26.8737C22.4907 26.8584 22.4816 26.8446 22.47 26.8329C22.4585 26.8212 22.4448 26.8118 22.4296 26.8055C22.4145 26.7991 22.3982 26.7957 22.3818 26.7956H20.8648C20.8316 26.7959 20.7998 26.8093 20.7765 26.8329C20.7532 26.8565 20.7401 26.8884 20.7403 26.9216V30.5471C20.7403 32.1146 21.614 32.4981 22.8158 32.4981C23.8018 32.4981 24.5968 31.9531 24.5968 31.9531C24.5968 31.9531 24.6343 32.2406 24.6518 32.2744C24.6693 32.3084 24.7135 32.3426 24.7618 32.3426L25.7268 32.3384C25.7433 32.3383 25.7596 32.335 25.7748 32.3286C25.79 32.3223 25.8038 32.313 25.8154 32.3013C25.827 32.2896 25.8362 32.2757 25.8424 32.2604C25.8487 32.2452 25.8518 32.2289 25.8518 32.2124L25.851 26.9209C25.8509 26.8877 25.8377 26.8559 25.8143 26.8325C25.7909 26.809 25.7592 26.7956 25.726 26.7954L25.7255 26.7956ZM29.811 26.6186C28.962 26.6186 28.3845 26.9974 28.3845 26.9974V24.3281C28.3846 24.3117 28.3815 24.2954 28.3753 24.2802C28.3691 24.265 28.36 24.2512 28.3484 24.2395C28.3369 24.2278 28.3232 24.2185 28.3081 24.2122C28.2929 24.2058 28.2767 24.2025 28.2603 24.2024H26.75C26.7336 24.2024 26.7172 24.2056 26.702 24.212C26.6868 24.2183 26.673 24.2276 26.6614 24.2393C26.6498 24.2509 26.6406 24.2648 26.6343 24.2801C26.6281 24.2953 26.6249 24.3116 26.625 24.3281V32.2106C26.6249 32.2271 26.6281 32.2434 26.6343 32.2587C26.6406 32.2739 26.6498 32.2878 26.6614 32.2995C26.673 32.3112 26.6868 32.3205 26.702 32.3268C26.7172 32.3331 26.7336 32.3364 26.75 32.3364H27.798C27.8455 32.3364 27.881 32.3121 27.9073 32.2694C27.933 32.2269 27.9708 31.9059 27.9708 31.9059C27.9708 31.9059 28.5883 32.4909 29.7578 32.4909C31.1303 32.4909 31.9178 31.7949 31.9178 29.3654C31.9178 26.9359 30.6603 26.6184 29.8108 26.6184L29.811 26.6186ZM29.221 31.0596C28.7028 31.0439 28.351 30.8086 28.351 30.8086V28.3124C28.351 28.3124 28.698 28.0999 29.1235 28.0614C29.6618 28.0131 30.1805 28.1759 30.1805 29.4599C30.1805 30.8141 29.9468 31.0814 29.2213 31.0594L29.221 31.0596ZM13.2988 31.0301C13.233 31.0301 13.0645 31.0569 12.8913 31.0569C12.3363 31.0569 12.148 30.7989 12.148 30.4649V28.2484H13.278C13.2945 28.2484 13.3109 28.2451 13.3261 28.2388C13.3413 28.2324 13.3552 28.2231 13.3668 28.2114C13.3784 28.1997 13.3876 28.1858 13.3938 28.1705C13.4 28.1552 13.4032 28.1389 13.403 28.1224V26.9084C13.4031 26.8919 13.3999 26.8756 13.3937 26.8604C13.3874 26.8452 13.3782 26.8313 13.3666 26.8197C13.355 26.808 13.3412 26.7988 13.326 26.7924C13.3108 26.7861 13.2945 26.7829 13.278 26.7829H12.148L12.1463 25.2904C12.1463 25.2336 12.1173 25.2054 12.0518 25.2054H10.5118C10.4523 25.2054 10.42 25.2319 10.42 25.2891V26.8316C10.42 26.8316 9.64828 27.0179 9.59628 27.0329C9.57032 27.0404 9.54751 27.0562 9.53128 27.0779C9.51505 27.0995 9.50628 27.1258 9.50628 27.1529V28.1221C9.50618 28.1385 9.50932 28.1548 9.51551 28.17C9.5217 28.1852 9.53082 28.1991 9.54236 28.2107C9.5539 28.2224 9.56763 28.2317 9.58275 28.2381C9.59788 28.2444 9.61412 28.2478 9.63053 28.2479H10.42V30.5799C10.42 32.3124 11.635 32.4824 12.455 32.4824C12.8293 32.4824 13.2775 32.3624 13.3515 32.3349C13.3965 32.3181 13.4223 32.2719 13.4223 32.2216L13.4233 31.1554C13.4228 31.1223 13.4095 31.0908 13.3861 31.0674C13.3628 31.044 13.3313 31.0305 13.2983 31.0299L13.2988 31.0301Z" fill="#100E0F"/>
</g>
<defs>
<clipPath id="clip0_4100_462773">
<rect width="32" height="32" fill="white" transform="translate(0 0.5)"/>
</clipPath>
</defs>
</svg>
