<svg width="65" height="64" viewBox="0 0 65 64" fill="none" xmlns="http://www.w3.org/2000/svg">
<circle cx="30.6719" cy="29.6016" r="24.211" fill="#3D5EE1"/>
<circle cx="30.8537" cy="29.3303" r="22.01" fill="white"/>
<circle cx="32.5039" cy="31.5163" r="22.2958" transform="rotate(-43.4512 32.5039 31.5163)" fill="#3D5EE1"/>
<path d="M34.4017 49.1957L48.1639 39.4274L37.3851 16.8594L21.8906 26.9554L34.4017 49.1957Z" fill="#6FCCD8"/>
<path d="M34.0137 14.1641L19.1592 25.4535C18.4409 25.9994 18.7557 27.1424 19.6523 27.2434L22.7524 27.5928C23.0074 27.6215 23.2636 27.5511 23.4682 27.3962L37.3821 16.8588" fill="white"/>
<path d="M34.0137 14.1641L19.1592 25.4535C18.4409 25.9994 18.7557 27.1424 19.6523 27.2434L22.7524 27.5928C23.0074 27.6215 23.2636 27.5511 23.4682 27.3962L37.3821 16.8588" stroke="#6FCCD8" stroke-width="5"/>
<path d="M17.0234 26.8828L29.9737 50.5497L34.0157 48.1918L23.1159 27.4093L17.0234 26.8828Z" fill="#6FCCD8"/>
<path d="M30.3125 41.1094L34.0177 47.8461" stroke="url(#paint0_linear_206_333881)"/>
<path d="M29.9766 50.5453L48.1657 39.4297L45.7526 53.9137L29.9766 50.5453Z" fill="white"/>
<path d="M42.7734 53.2389L46.1418 51.5547L45.805 53.9125L42.7734 53.2389Z" fill="#404040"/>
<defs>
<linearGradient id="paint0_linear_206_333881" x1="32.1651" y1="41.1094" x2="32.1651" y2="47.8461" gradientUnits="userSpaceOnUse">
<stop stop-color="white"/>
<stop offset="1" stop-color="white"/>
</linearGradient>
</defs>
</svg>
