<svg width="32" height="32" viewBox="0 0 32 32" fill="none" xmlns="http://www.w3.org/2000/svg">
<path d="M15.9589 31.9822C10.7776 31.9822 5.59246 31.9783 0.41121 31.99C0.0744095 31.99 0 31.9079 0 31.5791C0.00783258 21.1936 0.00783258 10.812 0 0.426506C0 0.0938881 0.0822421 0.015625 0.41121 0.015625C10.7894 0.0273645 21.1675 0.0273645 31.5496 0.015625C31.9138 0.015625 32 0.105628 32 0.465638C31.9883 10.8238 31.9883 21.1819 32 31.5361C32 31.9 31.9099 31.9861 31.5496 31.9861C26.3527 31.9783 21.1558 31.9822 15.9589 31.9822ZM15.3479 6.69538C15.3244 6.82843 15.3127 6.86365 15.3127 6.90278C15.3127 11.4264 15.3166 15.95 15.3049 20.4736C15.3049 20.8141 15.4615 20.8219 15.7161 20.8219C20.1258 20.818 24.5316 20.8141 28.9414 20.8258C29.2899 20.8258 29.3526 20.7123 29.3526 20.3953C29.3448 15.95 29.3448 11.5086 29.3448 7.06322C29.3448 6.96539 29.3878 6.85582 29.2703 6.73843C28.7377 7.23149 28.2051 7.72454 27.6764 8.2176C25.9924 9.78678 24.3045 11.352 22.6283 12.929C22.3855 13.156 22.2524 13.1325 22.0213 12.9173C20.3765 11.3638 18.7159 9.82591 17.0633 8.28412C16.5072 7.76759 15.951 7.25496 15.3479 6.69538ZM2.71399 11.8607C2.71399 14.7213 2.71791 17.5857 2.71007 20.4462C2.71007 20.7319 2.7649 20.8454 3.0782 20.8336C3.72831 20.8062 4.38233 20.8101 5.03635 20.8336C5.34965 20.8454 5.43973 20.7554 5.43581 20.4384C5.42014 18.4035 5.43973 16.3648 5.42014 14.33C5.41623 13.9621 5.47889 13.8212 5.88618 13.8408C6.63028 13.8721 7.37829 13.8643 8.12238 13.8291C9.80247 13.743 11.228 13.1286 12.2384 11.7277C13.5464 9.912 13.7383 7.95542 12.7984 5.9558C11.882 4.01096 10.2372 3.07963 8.1028 2.97788C6.45013 2.89962 4.80137 2.96223 3.1487 2.92701C2.80406 2.91919 2.70224 2.99745 2.70224 3.35746C2.72182 6.18667 2.71399 9.02371 2.71399 11.8607ZM29.2312 2.96223H15.4223C15.4537 3.09919 15.5359 3.14224 15.6025 3.20485C17.7251 5.18099 19.8556 7.15322 21.9665 9.14111C22.2445 9.40329 22.3973 9.43851 22.6949 9.16067C24.794 7.18061 26.9127 5.21621 29.0236 3.24398C29.1019 3.16963 29.2233 3.11093 29.2312 2.96223ZM16.2095 27.7012C16.1782 27.7012 16.1429 27.6973 16.1116 27.6973C15.7748 26.6916 15.4067 25.6938 15.113 24.6724C14.9837 24.2185 14.7644 24.0933 14.3297 24.1402C14.1143 24.1637 14.0281 24.2028 14.0321 24.4376C14.0438 25.7016 14.036 26.9655 14.036 28.2295C14.036 28.3977 14.0242 28.5386 14.271 28.5425C14.5373 28.5504 14.5373 28.4056 14.5333 28.2138C14.5294 27.1612 14.5294 26.1125 14.5333 25.0598C14.5333 24.9542 14.4981 24.8329 14.6117 24.6881C14.6665 24.8368 14.7057 24.9424 14.7448 25.0481C15.0855 26.042 15.4263 27.036 15.7709 28.026C15.8336 28.2099 15.861 28.3899 16.1547 28.386C16.4288 28.3821 16.4837 28.2412 16.5502 28.0417C16.8988 27.0203 17.2473 26.0029 17.5998 24.9855C17.6311 24.8955 17.6233 24.7703 17.7917 24.7272V25.369C17.7917 26.3277 17.7917 27.2864 17.7878 28.2451C17.7878 28.4291 17.8113 28.5386 18.0423 28.5386C18.2812 28.5386 18.293 28.4173 18.2891 28.2373C18.2852 26.9734 18.2891 25.7094 18.2852 24.4455C18.2852 24.3476 18.3322 24.2302 18.2107 24.1598C17.9327 23.9994 17.3805 24.2028 17.2787 24.5042C16.9223 25.5685 16.5659 26.6329 16.2095 27.7012ZM6.30523 26.359C6.30914 26.359 6.30914 26.359 6.30523 26.359C6.30523 26.9851 6.30914 27.6073 6.30523 28.2334C6.30523 28.3977 6.28173 28.5425 6.53629 28.5425C6.76735 28.5386 6.79476 28.4369 6.79085 28.249C6.78301 27.7716 6.79868 27.2903 6.78301 26.8129C6.77518 26.5977 6.84959 26.539 7.05715 26.5429C7.61718 26.5547 8.17721 26.5625 8.73333 26.539C9.00355 26.5273 9.03488 26.6407 9.03096 26.8677C9.0153 27.3334 9.03096 27.799 9.02705 28.2647C9.02705 28.4251 9.03096 28.5425 9.25419 28.5425C9.47742 28.5425 9.51267 28.4525 9.51267 28.2569C9.50483 26.9812 9.50483 25.7055 9.51267 24.4298C9.51267 24.2302 9.46567 24.1441 9.25028 24.1441C9.02705 24.1441 9.02705 24.2655 9.02705 24.422C9.03096 24.8876 9.01921 25.3533 9.03488 25.819C9.04271 26.0499 8.96439 26.1164 8.73724 26.1125C8.17721 26.1007 7.6211 26.1007 7.06107 26.1125C6.85351 26.1164 6.78301 26.0459 6.78693 25.8385C6.79868 25.3729 6.78693 24.9072 6.79476 24.4415C6.79868 24.2576 6.77518 24.1481 6.5402 24.1441C6.28956 24.1402 6.30523 24.2811 6.30523 24.4494C6.30914 25.0833 6.30523 25.7211 6.30523 26.359ZM10.4447 26.3081C10.4447 26.9734 10.4487 27.6347 10.4408 28.2999C10.4408 28.4643 10.4878 28.5425 10.668 28.5386C10.8403 28.5347 10.946 28.5073 10.9343 28.2999C10.9225 28.0495 10.9539 27.7912 10.9264 27.5447C10.8834 27.1612 10.9891 26.9616 11.416 27.0399C11.557 27.0673 11.7058 27.0438 11.8546 27.0438C13.0569 27.0399 13.5504 26.496 13.4329 25.3064C13.3624 24.5902 12.9708 24.195 12.2502 24.1598C11.745 24.1363 11.2398 24.1598 10.7345 24.1402C10.5035 24.1324 10.4369 24.2146 10.4447 24.4337C10.4526 25.0598 10.4447 25.6859 10.4447 26.3081ZM2.71399 26.3394C2.71399 26.989 2.71791 27.6425 2.71007 28.2921C2.70616 28.4878 2.7884 28.5425 2.96855 28.5386C3.14086 28.5386 3.21527 28.4838 3.19961 28.3077C3.19178 28.2138 3.19961 28.1238 3.19961 28.0299C3.19961 27.0477 3.19961 27.0477 4.18651 27.0438C5.29091 27.0399 5.72953 26.586 5.70212 25.4785C5.67862 24.5902 5.26349 24.1715 4.36666 24.152C3.93979 24.1402 3.51683 24.1676 3.08995 24.1402C2.80406 24.1246 2.69441 24.195 2.70616 24.5042C2.73357 25.1185 2.71399 25.729 2.71399 26.3394ZM21.3634 26.9577H21.3594C21.3594 26.7034 21.3673 26.4529 21.3594 26.2025C21.3359 25.6585 21.0736 25.3729 20.537 25.3064C20.1493 25.2594 19.7694 25.3337 19.3856 25.3885C19.2525 25.4081 19.0802 25.4081 19.1154 25.639C19.1507 25.8659 19.3073 25.7681 19.4209 25.7642C19.7538 25.7564 20.0866 25.7251 20.4156 25.7329C20.7994 25.7407 20.8777 26.0146 20.8934 26.3394C20.913 26.7034 20.6428 26.6055 20.4548 26.6329C20.1924 26.672 19.9222 26.676 19.6637 26.7268C19.2094 26.8129 18.9783 27.0712 18.9392 27.5016C18.8687 28.2647 19.2642 28.656 20.0318 28.5817C20.5135 28.5347 20.9913 28.2647 21.4808 28.566C21.5474 28.6051 21.6767 28.6286 21.7158 28.5034C21.7472 28.3938 21.7785 28.253 21.6218 28.1982C21.3555 28.1082 21.3594 27.8969 21.3634 27.6777C21.3673 27.4351 21.3634 27.1964 21.3634 26.9577ZM26.0747 27.1377H26.435C27.1908 27.1377 27.23 27.0908 27.1046 26.3316C26.995 25.6742 26.6229 25.3416 25.9376 25.2946C25.2953 25.2516 24.8097 25.5685 24.6413 26.179C24.4886 26.7268 24.5042 27.2864 24.657 27.8343C24.7744 28.2569 25.0564 28.5073 25.5068 28.566C25.9493 28.6247 26.384 28.5504 26.8187 28.523C26.9558 28.5151 27.0381 28.4564 27.0302 28.296C27.0185 28.1082 26.8892 28.1395 26.7718 28.1395C26.4545 28.1434 26.1334 28.1669 25.8162 28.159C25.3423 28.1473 25.1073 27.9243 25.0447 27.4703C25.0133 27.2473 25.0486 27.1142 25.3227 27.1377C25.5655 27.1573 25.8201 27.1377 26.0747 27.1377ZM23.4194 26.2181V28.253C23.4194 28.4056 23.3998 28.5347 23.6348 28.5386C23.8619 28.5386 23.8972 28.4408 23.8972 28.249C23.8933 26.9186 23.8894 25.5881 23.8972 24.2576C23.8972 24.0581 23.8502 23.9798 23.6309 23.9759C23.3959 23.9759 23.4194 24.1128 23.4194 24.2615C23.4155 24.915 23.4155 25.5685 23.4194 26.2181ZM29.3173 25.3103C29.0001 25.3611 28.7181 25.4864 28.4401 25.6429C28.303 25.7211 28.1855 25.7564 28.1894 25.5255C28.1934 25.3024 28.0289 25.369 27.9075 25.3572C27.7234 25.3377 27.7273 25.4629 27.7273 25.5881C27.7273 26.492 27.7312 27.396 27.7273 28.2999C27.7273 28.4564 27.7508 28.5464 27.9427 28.5425C28.1229 28.5386 28.209 28.4956 28.2051 28.296C28.1934 27.846 28.2051 27.3921 28.2012 26.9421C28.2012 26.1125 28.1934 26.0929 29.0158 25.8699C29.3565 25.7759 29.4074 25.6155 29.3173 25.3103ZM22.6244 26.9694C22.6244 26.5194 22.6205 26.0694 22.6283 25.6194C22.6322 25.4472 22.597 25.3494 22.3933 25.3494C22.1975 25.3494 22.1466 25.4198 22.1505 25.6038C22.1584 26.492 22.1584 27.3764 22.1505 28.2647C22.1505 28.433 22.1662 28.5386 22.3816 28.5386C22.5774 28.5386 22.6322 28.4643 22.6283 28.2804C22.6166 27.846 22.6205 27.4077 22.6244 26.9694ZM22.6205 24.3829C22.6479 24.1911 22.6009 24.0855 22.3698 24.0855C22.1466 24.0855 22.1427 24.2028 22.1427 24.3633C22.1466 24.512 22.1114 24.6568 22.3503 24.6529C22.5539 24.6489 22.6596 24.5981 22.6205 24.3829Z" fill="#343333"/>
<path d="M15.3478 6.69531C15.951 7.25489 16.5071 7.7636 17.0593 8.28014C18.7159 9.82192 20.3724 11.3598 22.0173 12.9133C22.2483 13.1325 22.3854 13.152 22.6243 12.9251C24.3005 11.3441 25.9884 9.77888 27.6724 8.21362C28.2011 7.72056 28.7337 7.23141 29.2663 6.73444C29.3838 6.85184 29.3407 6.96141 29.3407 7.05924C29.3447 11.5046 29.3408 15.946 29.3486 20.3914C29.3486 20.7083 29.2859 20.8218 28.9374 20.8218C24.5276 20.8101 20.1218 20.814 15.7121 20.8179C15.4536 20.8179 15.2969 20.8101 15.3009 20.4696C15.3126 15.946 15.3087 11.4224 15.3087 6.8988C15.3126 6.86358 15.3244 6.82836 15.3478 6.69531Z" fill="#F8CC6E"/>
<path d="M2.71399 11.8601C2.71399 9.02302 2.72182 6.1899 2.70616 3.35286C2.70224 2.98894 2.80798 2.91459 3.15262 2.92241C4.80529 2.95763 6.45405 2.89111 8.10672 2.97328C10.2411 3.07503 11.8859 4.00636 12.8024 5.9512C13.7423 7.94691 13.5504 9.9074 12.2423 11.7231C11.2319 13.1279 9.80639 13.7384 8.1263 13.8245C7.38221 13.8636 6.6342 13.8714 5.8901 13.8362C5.48281 13.8166 5.42015 13.9575 5.42406 14.3254C5.44365 16.3602 5.42406 18.3989 5.43973 20.4338C5.44365 20.7508 5.35357 20.8408 5.04027 20.829C4.39016 20.8055 3.73614 20.8055 3.08212 20.829C2.7649 20.8408 2.71399 20.7273 2.71399 20.4416C2.71791 17.5811 2.71399 14.7206 2.71399 11.8601ZM5.42798 8.38518C5.42798 9.24999 5.43581 10.1148 5.42406 10.9796C5.42015 11.23 5.49847 11.3005 5.74128 11.2887C6.15249 11.2692 6.56762 11.2809 6.97883 11.2848C7.55061 11.2927 8.1263 11.2848 8.68242 11.1283C10.1471 10.7135 10.9656 9.03476 10.5231 7.37558C10.245 6.34251 9.26986 5.59901 8.03623 5.52857C7.28039 5.48553 6.51671 5.51684 5.76086 5.49336C5.49847 5.48553 5.41623 5.56379 5.42406 5.82598C5.43581 6.68296 5.42798 7.53211 5.42798 8.38518Z" fill="#FEFEFE"/>
<path d="M29.2312 2.96094C29.2234 3.10964 29.102 3.16833 29.0197 3.24268C26.9128 5.21492 24.794 7.17932 22.6949 9.15938C22.4012 9.43721 22.2445 9.40199 21.9665 9.13981C19.8556 7.15193 17.7291 5.1797 15.6025 3.20355C15.5359 3.14094 15.4537 3.0979 15.4224 2.96094H29.2312Z" fill="#F8CC6E"/>
<path d="M16.2095 27.7019C16.5659 26.6375 16.9262 25.5692 17.2826 24.5048C17.3844 24.2074 17.9366 24 18.2147 24.1605C18.3361 24.2309 18.2891 24.3483 18.2891 24.4461C18.293 25.7101 18.2891 26.974 18.293 28.238C18.293 28.418 18.2813 28.5393 18.0463 28.5393C17.8113 28.5393 17.7878 28.4297 17.7917 28.2458C17.7956 27.2871 17.7956 26.3284 17.7956 25.3696V24.7279C17.6233 24.767 17.6351 24.8922 17.6037 24.9862C17.2513 26.0036 16.8988 27.021 16.5542 28.0423C16.4876 28.238 16.4328 28.3828 16.1586 28.3867C15.8649 28.3906 15.8375 28.2145 15.7748 28.0267C15.4341 27.0327 15.0895 26.0388 14.7488 25.0488C14.7135 24.9431 14.6704 24.8335 14.6156 24.6888C14.502 24.8335 14.5373 24.9549 14.5373 25.0605C14.5334 26.1131 14.5334 27.1619 14.5373 28.2145C14.5373 28.4023 14.5373 28.5471 14.2749 28.5432C14.0282 28.5393 14.0399 28.3945 14.0399 28.2302C14.0399 26.9662 14.0438 25.7023 14.036 24.4383C14.036 24.2074 14.1182 24.1644 14.3336 24.1409C14.7683 24.094 14.9877 24.2192 15.1169 24.6731C15.4106 25.6905 15.7787 26.6884 16.1155 27.698C16.143 27.698 16.1743 27.698 16.2095 27.7019ZM6.30524 26.3597V24.4461C6.30524 24.2779 6.28957 24.137 6.54022 24.1409C6.77519 24.1448 6.79478 24.2544 6.79478 24.4383C6.78694 24.904 6.80261 25.3696 6.78694 25.8353C6.78303 26.0427 6.85352 26.1131 7.06108 26.1092C7.62111 26.0975 8.17723 26.0975 8.73725 26.1092C8.96048 26.1131 9.04273 26.0466 9.03489 25.8157C9.01923 25.3501 9.03098 24.8844 9.02706 24.4188C9.02706 24.2622 9.02314 24.137 9.25029 24.1409C9.4696 24.1409 9.5166 24.227 9.51268 24.4266C9.50485 25.7023 9.50485 26.978 9.51268 28.2536C9.51268 28.4493 9.47743 28.5432 9.25421 28.5393C9.03098 28.5393 9.02706 28.4219 9.02706 28.2615C9.03098 27.7958 9.01923 27.3301 9.03098 26.8645C9.03881 26.6414 9.00356 26.5279 8.73334 26.5358C8.17723 26.5592 7.6172 26.5514 7.05717 26.5397C6.85352 26.5358 6.77911 26.5945 6.78303 26.8097C6.79869 27.2871 6.78303 27.7684 6.79086 28.2458C6.79477 28.4336 6.76344 28.5393 6.5363 28.5393C6.28174 28.5432 6.30524 28.3984 6.30524 28.2302C6.30915 27.608 6.30915 26.9858 6.30524 26.3597C6.30915 26.3597 6.30915 26.3597 6.30524 26.3597ZM10.4448 26.3088C10.4448 25.6866 10.4526 25.0605 10.4408 24.4383C10.4369 24.2153 10.5035 24.137 10.7306 24.1448C11.2358 24.1644 11.741 24.137 12.2463 24.1644C12.9668 24.1996 13.3585 24.5948 13.429 25.311C13.5465 26.5005 13.053 27.0445 11.8507 27.0484C11.7058 27.0484 11.5531 27.0719 11.4121 27.0445C10.9852 26.9662 10.8795 27.1619 10.9225 27.5493C10.95 27.7997 10.9186 28.0541 10.9304 28.3045C10.9421 28.5119 10.8364 28.5393 10.6641 28.5432C10.4839 28.5471 10.4369 28.4689 10.4369 28.3045C10.4487 27.6393 10.4448 26.974 10.4448 26.3088ZM10.9304 25.6083C10.9304 26.6492 10.9304 26.6492 11.976 26.6219C12.6379 26.6062 12.9433 26.2775 12.9473 25.577C12.9512 24.8883 12.6731 24.5948 11.9995 24.5714C10.9343 24.5361 10.9343 24.5361 10.9304 25.6083ZM2.714 26.3401C2.714 25.7297 2.73358 25.1192 2.70617 24.5088C2.69442 24.1957 2.80408 24.1253 3.08997 24.1448C3.51292 24.1683 3.9398 24.1448 4.36668 24.1566C5.26351 24.18 5.67863 24.5948 5.70213 25.4831C5.73346 26.5866 5.29092 27.0445 4.18653 27.0484C3.19962 27.0523 3.19962 27.0523 3.19962 28.0345C3.19962 28.1284 3.19179 28.2223 3.19962 28.3123C3.21529 28.4884 3.14088 28.5432 2.96856 28.5432C2.78449 28.5471 2.70617 28.4923 2.71009 28.2967C2.71792 27.6432 2.714 26.9897 2.714 26.3401ZM3.19962 25.5849V25.624C3.19962 26.6375 3.19962 26.6375 4.21002 26.6219C4.90321 26.6101 5.20476 26.2971 5.20868 25.577C5.21259 24.8609 4.94629 24.587 4.23352 24.5714C3.19962 24.5479 3.19962 24.5479 3.19962 25.5849ZM21.3634 26.9584C21.3634 27.1971 21.3673 27.4358 21.3634 27.6745C21.3595 27.8936 21.3555 28.1049 21.6218 28.1949C21.7785 28.2458 21.7472 28.3867 21.7158 28.5002C21.6806 28.6254 21.5474 28.6019 21.4809 28.5628C20.9913 28.2615 20.5135 28.5315 20.0318 28.5784C19.2642 28.6528 18.8687 28.2615 18.9392 27.4984C18.9783 27.068 19.2094 26.8097 19.6637 26.7236C19.9261 26.6727 20.1924 26.6688 20.4548 26.6297C20.6428 26.6023 20.913 26.7001 20.8934 26.3362C20.8778 26.0114 20.7994 25.7414 20.4156 25.7297C20.0827 25.7218 19.7499 25.7531 19.4209 25.761C19.3073 25.7649 19.1507 25.8627 19.1154 25.6357C19.0802 25.4049 19.2525 25.4088 19.3856 25.3853C19.7655 25.3305 20.1493 25.2562 20.537 25.3031C21.0775 25.3696 21.336 25.6514 21.3595 26.1992C21.3712 26.4497 21.3595 26.704 21.3595 26.9545L21.3634 26.9584ZM20.8934 27.5062C20.8934 26.9427 20.8934 26.9427 20.3608 27.0053C20.1767 27.0249 19.9888 27.0288 19.8086 27.068C19.5775 27.1188 19.4444 27.2793 19.4287 27.5141C19.4131 27.741 19.4052 28.0071 19.6363 28.1128C20.0083 28.281 20.396 28.1715 20.7563 28.0384C21.0266 27.9328 20.8308 27.6588 20.8934 27.5062ZM26.0747 27.1384C25.8201 27.1384 25.5695 27.154 25.3188 27.1345C25.0447 27.111 25.0094 27.244 25.0408 27.4671C25.1034 27.921 25.3384 28.1441 25.8123 28.1558C26.1295 28.1636 26.4506 28.1441 26.7679 28.1362C26.8853 28.1323 27.0146 28.1049 27.0263 28.2928C27.0342 28.4532 26.9519 28.508 26.8148 28.5197C26.3762 28.5471 25.9454 28.6215 25.5029 28.5628C25.0525 28.5041 24.7705 28.2536 24.6531 27.831C24.5003 27.2832 24.4847 26.7275 24.6374 26.1758C24.8058 25.5653 25.2914 25.2483 25.9337 25.2914C26.619 25.3383 26.9911 25.671 27.1007 26.3284C27.2261 27.0875 27.1869 27.1345 26.431 27.1345C26.3136 27.1384 26.1922 27.1384 26.0747 27.1384ZM25.8593 25.6984C25.3697 25.7023 25.0486 26.0231 25.0251 26.5201C25.0173 26.6806 25.0447 26.7706 25.2287 26.7666C25.64 26.7588 26.0473 26.7627 26.4585 26.7666C26.5877 26.7666 26.6386 26.7158 26.6504 26.5788C26.6895 26.0623 26.3645 25.6944 25.8593 25.6984ZM23.4155 26.2188V24.2622C23.4155 24.1135 23.392 23.9766 23.627 23.9766C23.8424 23.9766 23.8933 24.0548 23.8933 24.2583C23.8855 25.5888 23.8855 26.9193 23.8933 28.2497C23.8933 28.4415 23.858 28.5393 23.6309 28.5393C23.3998 28.5393 23.4155 28.4063 23.4155 28.2536C23.4194 27.5767 23.4194 26.8997 23.4155 26.2188ZM29.3174 25.311C29.4074 25.6162 29.3565 25.7727 29.0197 25.8666C28.1973 26.0858 28.2051 26.1092 28.2051 26.9388C28.2051 27.3888 28.1973 27.8428 28.209 28.2928C28.213 28.4923 28.1229 28.5354 27.9467 28.5393C27.7587 28.5432 27.7313 28.4532 27.7313 28.2967C27.7352 27.3927 27.7352 26.4888 27.7313 25.5849C27.7313 25.4597 27.7234 25.3344 27.9114 25.354C28.0328 25.3657 28.2012 25.3031 28.1934 25.5223C28.1855 25.7531 28.307 25.7179 28.444 25.6397C28.7142 25.487 29.0001 25.3618 29.3174 25.311ZM22.6205 26.9701C22.6205 27.4084 22.6127 27.8428 22.6244 28.281C22.6283 28.465 22.5735 28.5393 22.3777 28.5393C22.1623 28.5432 22.1466 28.4336 22.1466 28.2654C22.1505 27.3771 22.1505 26.4927 22.1466 25.6044C22.1466 25.4205 22.1936 25.3501 22.3894 25.3501C22.597 25.3501 22.6283 25.4479 22.6244 25.6201C22.6166 26.0701 22.6244 26.5201 22.6205 26.9701ZM22.6205 24.3835C22.6636 24.6027 22.5539 24.6496 22.3542 24.6535C22.1153 24.6575 22.1505 24.5127 22.1466 24.364C22.1427 24.2035 22.1505 24.0861 22.3738 24.0861C22.6009 24.0822 22.6479 24.1879 22.6205 24.3835Z" fill="#FEFEFE"/>
<path d="M5.42808 8.38899C5.42808 7.53592 5.43591 6.68677 5.42416 5.8337C5.42024 5.57152 5.49857 5.48934 5.76096 5.50108C6.52072 5.52456 7.28048 5.49717 8.03632 5.5363C9.26996 5.60282 10.249 6.35024 10.5232 7.38331C10.9657 9.04249 10.1472 10.7212 8.68251 11.136C8.1264 11.2926 7.55462 11.3004 6.97893 11.2926C6.56772 11.2886 6.15259 11.2769 5.74138 11.2965C5.49857 11.3082 5.42024 11.2339 5.42416 10.9873C5.43591 10.1186 5.42808 9.2538 5.42808 8.38899ZM10.9305 25.6108C10.9305 24.5386 10.9305 24.5386 11.9957 24.5738C12.6732 24.5973 12.9474 24.8908 12.9434 25.5795C12.9395 26.2799 12.634 26.6086 11.9722 26.6243C10.9305 26.6517 10.9305 26.6517 10.9305 25.6108ZM3.19971 25.5873C3.19971 24.5503 3.19971 24.5503 4.23361 24.5738C4.94246 24.5895 5.21268 24.8673 5.20876 25.5795C5.20485 26.2995 4.90329 26.6126 4.21011 26.6243C3.19971 26.64 3.19971 26.64 3.19971 25.6264V25.5873ZM20.8935 27.5087C20.8935 27.673 20.917 27.9861 20.7525 28.0409C20.3883 28.1622 20.0045 28.2874 19.6325 28.1152C19.4014 28.0096 19.4092 27.7435 19.4249 27.5165C19.4406 27.2778 19.5737 27.1174 19.8048 27.0704C19.9849 27.0313 20.1729 27.0274 20.357 27.0078C20.8935 26.9452 20.8935 26.9452 20.8935 27.5087ZM25.8594 25.7008C26.3646 25.6969 26.6896 26.0647 26.6544 26.5813C26.6426 26.7182 26.5917 26.7691 26.4625 26.7691C26.0513 26.7691 25.644 26.7652 25.2327 26.7691C25.0448 26.773 25.0213 26.6791 25.0291 26.5226C25.0487 26.0256 25.3659 25.7047 25.8594 25.7008Z" fill="#343333"/>
</svg>
