<svg width="59" height="63" viewBox="0 0 59 63" fill="none" xmlns="http://www.w3.org/2000/svg">
<g opacity="0.2" clip-path="url(#clip0_386_13296)">
<path d="M41.7521 30.2443C41.1294 30.3083 40.5332 30.529 40.0188 30.8857C39.5045 31.2424 39.0889 31.7235 38.8107 32.2843L36.5307 36.8789L31.4454 37.6176C30.0587 37.8096 28.8854 38.7909 28.4481 40.1349L28.3467 40.5083C28.0801 41.7483 28.4694 43.0523 29.3947 43.9483L33.0667 47.5136L32.1974 52.5589C32.0834 53.2402 32.1617 53.9398 32.4234 54.5791C32.6851 55.2184 33.1199 55.7721 33.6789 56.1779C34.2379 56.5837 34.899 56.8256 35.5879 56.8765C36.2768 56.9273 36.9662 56.785 37.5787 56.4656L42.1334 54.0789L46.6881 56.4683C47.2993 56.79 47.9884 56.9343 48.6774 56.8848C49.3664 56.8354 50.0278 56.5941 50.5867 56.1883L50.8854 55.9483C51.3532 55.529 51.7068 54.9978 51.9129 54.4045C52.1191 53.8112 52.1711 53.1752 52.0641 52.5563L51.1974 47.5136L54.8774 43.9429C55.8907 42.9536 56.2534 41.4789 55.8161 40.1376L55.6801 39.7803C55.4247 39.2076 55.0283 38.7091 54.5279 38.3313C54.0275 37.9536 53.4394 37.7089 52.8187 37.6203L47.7334 36.8789L45.4587 32.2869C45.1511 31.668 44.6769 31.1471 44.0894 30.783C43.502 30.4188 42.8246 30.2258 42.1334 30.2256L41.7521 30.2443Z" fill="white"/>
<path d="M10.8187 30.2443C10.1961 30.3083 9.59981 30.529 9.08549 30.8857C8.57116 31.2424 8.15555 31.7235 7.87739 32.2843L5.59739 36.8789L0.512059 37.6176C-0.874608 37.8096 -2.04794 38.7909 -2.48527 40.1349L-2.58661 40.5083C-2.85327 41.7483 -2.46394 43.0523 -1.53861 43.9483L2.13339 47.5136L1.26406 52.5589C1.15008 53.2402 1.22833 53.9398 1.49003 54.5791C1.75173 55.2184 2.18651 55.7721 2.74552 56.1779C3.30453 56.5837 3.96562 56.8256 4.65454 56.8765C5.34345 56.9273 6.03289 56.785 6.64539 56.4656L11.2001 54.0789L15.7547 56.4683C16.366 56.79 17.055 56.9343 17.744 56.8848C18.433 56.8354 19.0944 56.5941 19.6534 56.1883L19.9521 55.9483C20.4198 55.529 20.7734 54.9978 20.9796 54.4045C21.1857 53.8112 21.2378 53.1752 21.1307 52.5563L20.2667 47.5136L23.9467 43.9429C24.9601 42.9536 25.3227 41.4789 24.8854 40.1376L24.7494 39.7803C24.4941 39.2076 24.0977 38.7091 23.5972 38.3313C23.0968 37.9536 22.5088 37.7089 21.8881 37.6203L16.8001 36.8763L14.5254 32.2843C14.2174 31.6658 13.743 31.1455 13.1556 30.7819C12.5682 30.4182 11.8909 30.2255 11.2001 30.2256L10.8187 30.2443Z" fill="white"/>
<path d="M26.2855 3.57726C25.6629 3.6413 25.0666 3.86196 24.5523 4.21868C24.038 4.57539 23.6223 5.05654 23.3442 5.61726L21.0642 10.2119L15.9789 10.9506C14.5922 11.1426 13.4189 12.1239 12.9815 13.4679L12.8802 13.8413C12.6135 15.0813 13.0029 16.3853 13.9282 17.2813L17.6002 20.8466L16.7309 25.8919C16.6169 26.5732 16.6951 27.2728 16.9568 27.9121C17.2185 28.5514 17.6533 29.1051 18.2123 29.5109C18.7713 29.9167 19.4324 30.1586 20.1213 30.2095C20.8102 30.2603 21.4997 30.118 22.1122 29.7986L26.6669 27.4146L31.2242 29.8039C31.8354 30.1257 32.5245 30.27 33.2135 30.2205C33.9025 30.171 34.5639 29.9297 35.1229 29.5239L35.4215 29.2839C35.8893 28.8647 36.2429 28.3335 36.449 27.7402C36.6552 27.1469 36.7072 26.5109 36.6002 25.8919L35.7335 20.8466L39.4135 17.2759C40.4269 16.2866 40.7895 14.8119 40.3522 13.4706L40.2162 13.1133C39.9609 12.5406 39.5644 12.0421 39.064 11.6643C38.5636 11.2866 37.9755 11.0419 37.3549 10.9533L32.2669 10.2093L29.9922 5.61726C29.6842 4.99882 29.2098 4.47853 28.6224 4.11486C28.035 3.75119 27.3577 3.55855 26.6669 3.55859L26.2855 3.57726Z" fill="white"/>
</g>
<defs>
<clipPath id="clip0_386_13296">
<rect width="64" height="64" fill="white" transform="translate(-5.33325 -1.77441)"/>
</clipPath>
</defs>
</svg>
