<svg xmlns="http://www.w3.org/2000/svg" width="24" height="24" viewBox="0 0 24 24" fill="none">
  <path d="M6.75 22C6 22 5.35417 21.7458 4.8125 21.2375C4.27083 20.7291 4 20.1 4 19.35V5.39998C4 4.76664 4.19583 4.19998 4.5875 3.69998C4.97917 3.19998 5.49167 2.88331 6.125 2.74998L13.625 1.27498C14.2417 1.14164 14.7917 1.27498 15.275 1.67498C15.7583 2.07498 16 2.59164 16 3.22498V15.15C16 15.6333 15.85 16.0625 15.55 16.4375C15.25 16.8125 14.8667 17.0416 14.4 17.125L6.525 18.7C6.375 18.7333 6.25 18.8125 6.15 18.9375C6.05 19.0625 6 19.2 6 19.35C6 19.5333 6.075 19.6875 6.225 19.8125C6.375 19.9375 6.55 20 6.75 20H18V4.99998C18 4.71664 18.0958 4.47914 18.2875 4.28748C18.4792 4.09581 18.7167 3.99998 19 3.99998C19.2833 3.99998 19.5208 4.09581 19.7125 4.28748C19.9042 4.47914 20 4.71664 20 4.99998V20C20 20.55 19.8042 21.0208 19.4125 21.4125C19.0208 21.8041 18.55 22 18 22H6.75ZM8.2 16.35C8.43333 16.3 8.625 16.1833 8.775 16C8.925 15.8166 9 15.6083 9 15.375V5.44998C9 5.13331 8.87917 4.87498 8.6375 4.67498C8.39583 4.47498 8.11667 4.40831 7.8 4.47498C7.56667 4.52498 7.375 4.64164 7.225 4.82498C7.075 5.00831 7 5.21664 7 5.44998V15.375C7 15.6916 7.12083 15.95 7.3625 16.15C7.60417 16.35 7.88333 16.4166 8.2 16.35Z" fill="#1167B4"/>
</svg>