<svg xmlns="http://www.w3.org/2000/svg" width="24" height="25" viewBox="0 0 24 25" fill="none">
  <g clip-path="url(#clip0_185_13148)">
    <path d="M17 3.125H5C3.89 3.125 3 4.0625 3 5.20833V19.7917C3 20.9375 3.89 21.875 5 21.875H19C20.1 21.875 21 20.9375 21 19.7917V7.29167L17 3.125ZM12 19.7917C10.34 19.7917 9 18.3958 9 16.6667C9 14.9375 10.34 13.5417 12 13.5417C13.66 13.5417 15 14.9375 15 16.6667C15 18.3958 13.66 19.7917 12 19.7917ZM15 9.375H5V5.20833H15V9.375Z" fill="black"/>
  </g>
  <defs>
    <clipPath id="clip0_185_13148">
      <rect width="24" height="25" fill="white"/>
    </clipPath>
  </defs>
</svg>