<svg width="24" height="25" viewBox="0 0 24 25" fill="none" xmlns="http://www.w3.org/2000/svg">
<path d="M8 15.4999C7.71667 15.4999 7.47917 15.4041 7.2875 15.2124C7.09583 15.0207 7 14.7832 7 14.4999V9.4999C7 8.9499 7.19583 8.47907 7.5875 8.0874C7.97917 7.69574 8.45 7.4999 9 7.4999H17.15L15.275 5.6249C15.075 5.4249 14.975 5.1874 14.975 4.9124C14.975 4.6374 15.075 4.3999 15.275 4.1999C15.475 3.9999 15.7125 3.8999 15.9875 3.8999C16.2625 3.8999 16.5 3.9999 16.7 4.1999L20.3 7.7999C20.5 7.9999 20.6 8.23324 20.6 8.4999C20.6 8.76657 20.5 8.9999 20.3 9.1999L16.7 12.7999C16.5167 12.9832 16.2875 13.0791 16.0125 13.0874C15.7375 13.0957 15.5 12.9999 15.3 12.7999C15.1 12.5999 14.9958 12.3624 14.9875 12.0874C14.9792 11.8124 15.075 11.5749 15.275 11.3749L17.15 9.4999H9V14.4999C9 14.7832 8.90417 15.0207 8.7125 15.2124C8.52083 15.4041 8.28333 15.4999 8 15.4999ZM5 21.4999C4.45 21.4999 3.97917 21.3041 3.5875 20.9124C3.19583 20.5207 3 20.0499 3 19.4999V5.4999C3 5.21657 3.09583 4.97907 3.2875 4.7874C3.47917 4.59574 3.71667 4.4999 4 4.4999C4.28333 4.4999 4.52083 4.59574 4.7125 4.7874C4.90417 4.97907 5 5.21657 5 5.4999V19.4999H17V16.4999C17 16.2166 17.0958 15.9791 17.2875 15.7874C17.4792 15.5957 17.7167 15.4999 18 15.4999C18.2833 15.4999 18.5208 15.5957 18.7125 15.7874C18.9042 15.9791 19 16.2166 19 16.4999V19.4999C19 20.0499 18.8042 20.5207 18.4125 20.9124C18.0208 21.3041 17.55 21.4999 17 21.4999H5Z" fill="#1167B4"/>
</svg>
