<svg xmlns="http://www.w3.org/2000/svg" width="81" height="80" viewBox="0 0 81 80" fill="none">
  <path d="M17.4167 73.3334C14.639 73.3334 12.2779 72.3612 10.3334 70.4167C8.38897 68.4723 7.41675 66.1112 7.41675 63.3334V16.6667C7.41675 13.889 8.38897 11.5279 10.3334 9.58341C12.2779 7.63897 14.639 6.66675 17.4167 6.66675H64.0834C66.8612 6.66675 69.2223 7.63897 71.1667 9.58341C73.1112 11.5279 74.0834 13.889 74.0834 16.6667V63.3334C74.0834 66.1112 73.1112 68.4723 71.1667 70.4167C69.2223 72.3612 66.8612 73.3334 64.0834 73.3334H17.4167ZM17.4167 66.6667H64.0834C65.0279 66.6667 65.819 66.3467 66.4567 65.7067C67.0967 65.069 67.4167 64.2779 67.4167 63.3334V16.6667C67.4167 15.7223 67.0967 14.9301 66.4567 14.2901C65.819 13.6523 65.0279 13.3334 64.0834 13.3334H17.4167C16.4723 13.3334 15.6801 13.6523 15.0401 14.2901C14.4023 14.9301 14.0834 15.7223 14.0834 16.6667V63.3334C14.0834 64.2779 14.4023 65.069 15.0401 65.7067C15.6801 66.3467 16.4723 66.6667 17.4167 66.6667ZM20.7501 60.0001L34.0834 46.6667L40.0834 52.5834L47.4167 43.3334L60.7501 60.0001H20.7501ZM27.4167 33.3334C25.5834 33.3334 24.0145 32.6801 22.7101 31.3734C21.4034 30.069 20.7501 28.5001 20.7501 26.6667C20.7501 24.8334 21.4034 23.2645 22.7101 21.9601C24.0145 20.6534 25.5834 20.0001 27.4167 20.0001C29.2501 20.0001 30.8201 20.6534 32.1267 21.9601C33.4312 23.2645 34.0834 24.8334 34.0834 26.6667C34.0834 28.5001 33.4312 30.069 32.1267 31.3734C30.8201 32.6801 29.2501 33.3334 27.4167 33.3334Z" fill="#9E9E9E"/>
</svg>